<?xml version="1.0" encoding="utf-8"?>
<!-- Generator: Adobe Illustrator 21.0.2, SVG Export Plug-In . SVG Version: 6.00 Build 0)  -->
<!DOCTYPE svg PUBLIC "-//W3C//DTD SVG 1.1//EN" "http://www.w3.org/Graphics/SVG/1.1/DTD/svg11.dtd">
<svg version="1.1" id="Layer_1" xmlns="http://www.w3.org/2000/svg" xmlns:xlink="http://www.w3.org/1999/xlink" x="0px" y="0px"
	 viewBox="0 0 200 200" style="enable-background:new 0 0 200 200;" xml:space="preserve">
<style type="text/css">
	.st0{fill:#33AADC;}
	.st1{fill:#31AADE;}
</style>
<g>
	<path class="st0" d="M163.5,78.4c0,9.1-2.9,17.5-6.4,25.8c-5.6,13.5-13,26.1-20.8,38.5c-9,14.2-18.8,27.9-29,41.2
		c-2.2,2.8-4.7,3.8-7.5,2.9c-1.1-0.4-2.1-1-2.8-1.9c-17-22.4-33.1-45.3-45.9-70.4c-4.8-9.4-8.7-19.2-10.4-29.8
		C38,67.7,42.4,52.7,53,39.4C64.4,25,79.5,18,97.8,16.7c31-2.1,60.5,21.3,64.9,53.1C163.1,72.6,163.5,75.5,163.5,78.4z M101.6,127.9
		c27.9,0,50.5-22.5,50.9-49.9c0.4-27.8-21.9-51.5-50.5-51.6c-28.1-0.1-51,22.4-51,50.1C50.9,105.2,73.3,127.9,101.6,127.9z"/>
</g>
<g id="Isolation_Mode">
	<g>
		<g>
			<g>
				<g>
					<path class="st1" d="M111.1,56.7c-2.8-0.7-5.2-1.1-7.3-3.2c-4-4-3.9-10.5,0.1-14.5c3.4-3.4,8.1-3.5,12.5-2.1
						c6.3,2.1,12.4,5.8,16.9,10.5c8.3,8.4,12.5,19.5,12.5,30.3c0,11-4.3,21.9-12.6,30.3c-7,7-15.6,11-24.7,12.2
						c-2,0.3-5.2,1-11.4,0.2c6.6,0.2,9.4-0.3,11.1-0.9c21.3-5.6,31.3-30.9,20.2-48.9C124.7,64.2,118.6,58.3,111.1,56.7z"/>
					<path class="st1" d="M111.9,96.4c0.4-5.6-1-11.3-4.2-15.9c-1.4-2.2-2.8-3.9-2.9-6.7c-0.1-2.4,0.9-4.8,2.5-6.5
						c3.5-3.5,9.4-3.4,13.1,0.3c0.7,0.7,1,1.1,1.5,2c1.5,2,3.8,6.7,4.9,10.7c2.2,8.4,0.8,16.9-3.3,23.8
						c-4.1,6.9-10.8,12.1-19.1,14.2c-7,1.7-14,0.9-20.1-1.9c-1.3-0.7-3.7-1.4-7.2-4.3c4.2,2.7,22.6,10.5,33.6-10.3
						C111.4,100.1,111.8,98.3,111.9,96.4z"/>
				</g>
			</g>
		</g>
	</g>
</g>
</svg>
