<?xml version="1.0" encoding="utf-8"?>
<!-- Generator: Adobe Illustrator 18.0.0, SVG Export Plug-In . SVG Version: 6.00 Build 0)  -->
<!DOCTYPE svg PUBLIC "-//W3C//DTD SVG 1.1//EN" "http://www.w3.org/Graphics/SVG/1.1/DTD/svg11.dtd">
<svg version="1.1" id="Layer_1" xmlns="http://www.w3.org/2000/svg" xmlns:xlink="http://www.w3.org/1999/xlink" x="0px" y="0px"
	 viewBox="0 0 300 300" enable-background="new 0 0 300 300" xml:space="preserve">
<path opacity="0.75" fill="#FFFFFF" d="M0,244.2C0,196,0,147.8,0,99.6c0.3-0.4,0.3-0.9,0.3-1.4C0.8,83.6,18,73.2,29.8,73.5
	c10.8,0.3,21.7,0.1,32.5,0.1c8.6,0,12.1-2.6,14.9-10.8c2.5-7.4,4.9-14.8,7.4-22.2c3-8.6,7.8-12.1,16.8-12.1c32.3,0,64.6,0,96.9,0
	c8.7,0,13.7,3.4,16.5,11.7c2.5,7.3,4.7,14.7,7.2,22c3,8.7,6.6,11.3,15.8,11.4c10.6,0,21.3-0.1,31.9,0c12.6,0.1,21.6,6.3,27.9,16.8
	c2.2,3.8,2.3,8.1,2.3,12.3c0.1,46.5,0.1,93.1,0,139.6c0,16.1-13.6,29.1-30.1,29.1c-65.8,0-131.7,0-197.5,0c-14,0-28.1,0.1-42.1,0
	c-12.2-0.1-21.3-6-27.7-16.2c-1.8-2.8-1.7-6.1-2.1-9.3C0.2,245.3,0.4,244.7,0,244.2z M224.8,165.2c0.1-41.5-33.4-75.1-74.9-75
	c-41.4,0-74.9,33.4-74.9,74.8c0,41.3,33.5,74.9,74.8,75C191,239.9,224.7,206.4,224.8,165.2z M259.2,105.1c-5.7,0-10.4,4.8-10.4,10.5
	c0,5.7,4.7,10.4,10.4,10.4c5.7,0,10.4-4.7,10.4-10.4C269.7,109.8,264.9,105.1,259.2,105.1z M194.8,165c0.1-24.7-20.1-44.9-44.8-45
	c-24.9-0.1-45.2,20.2-45.1,45c0.1,24.8,20.1,44.8,45,44.8C174.6,209.8,194.8,189.8,194.8,165z"/>
</svg>
