<?xml version="1.0" encoding="utf-8"?>
<!-- Generator: Adobe Illustrator 19.1.0, SVG Export Plug-In . SVG Version: 6.00 Build 0)  -->
<svg version="1.1" id="Layer_1" xmlns="http://www.w3.org/2000/svg" xmlns:xlink="http://www.w3.org/1999/xlink" x="0px" y="0px"
	 viewBox="-281 373 48 48" style="enable-background:new -281 373 48 48;" xml:space="preserve">
<style type="text/css">
	.st0{fill:#FFFFFF;}
	.st1{fill:none;stroke:#000000;stroke-miterlimit:10;}
</style>
<g id="XMLID_1_">
	<g>
		<path class="st0" d="M-277.5,389.2c0-2.1,2-2.1,2-2.1h5.8c2.1,0,2.9-1.9,2.9-1.9l1.3-3c0.8-1.9,2.9-1.9,2.9-1.9h10.2
			c2.1,0,3,1.8,3,1.8l1.7,3.1c1,1.8,3,1.8,3,1.8h6.1c2.1,0,2.1,2.1,2.1,2.1v22.4c0,2.1-2.1,2.1-2.1,2.1h-36.9c-2,0-2-2.1-2-2.1
			V389.2z M-266,399.5c0,5,4,9,9,9c5,0,9-4,9-9s-4-9-9-9C-262,390.5-266,394.6-266,399.5z"/>
	</g>
	<g>
		<path class="st1" d="M-257,408.5c5,0,9-4,9-9s-4-9-9-9c-5,0-9,4-9,9S-262,408.5-257,408.5z"/>
		<path class="st1" d="M-269.7,387.1c2.1,0,2.9-1.9,2.9-1.9l1.3-3c0.8-1.9,2.9-1.9,2.9-1.9h10.2c2.1,0,3,1.8,3,1.8l1.7,3.1
			c1,1.8,3,1.8,3,1.8h6.1c2.1,0,2.1,2.1,2.1,2.1v22.4c0,2.1-2.1,2.1-2.1,2.1h-36.9c-2,0-2-2.1-2-2.1v-22.4c0-2.1,2-2.1,2-2.1H-269.7
			z"/>
	</g>
</g>
</svg>
