<?xml version="1.0" encoding="utf-8"?>
<!-- Generator: Adobe Illustrator 19.1.0, SVG Export Plug-In . SVG Version: 6.00 Build 0)  -->
<svg version="1.0" id="Layer_1" xmlns="http://www.w3.org/2000/svg" xmlns:xlink="http://www.w3.org/1999/xlink" x="0px" y="0px"
	 width="36px" height="36px" viewBox="-6 8 36 36" enable-background="new -6 8 36 36" xml:space="preserve">
<title>marker-11.svg</title>
<title>marker-11.svg</title>
<g>
	<g>
		<circle fill="#00AEEF" cx="12" cy="26" r="15.7"/>
	</g>
	<g>
		<path fill="#FFFFFF" d="M12,36.3c-4.2,0-7.6-3.4-7.6-7.6c0-3.9,6.2-11.9,6.9-12.8c0.2-0.2,0.4-0.3,0.6-0.3s0.5,0.1,0.6,0.3
			c0.7,0.9,6.9,8.9,6.9,12.8C19.6,32.9,16.2,36.3,12,36.3z"/>
		<path fill="#FFFFFF" d="M12,17.8c-2.1,2.8-5.9,8.4-5.9,11c0,3.3,2.7,5.9,5.9,5.9s5.9-2.7,5.9-5.9C17.9,26.2,14.1,20.6,12,17.8z"/>
		<path fill="#00AEEF" d="M12,33.1c-0.4,0-0.8-0.4-0.8-0.8c0-0.4,0.4-0.8,0.8-0.8c1.5,0,2.7-1.2,2.7-2.7c0-0.4,0.4-0.8,0.8-0.8
			c0.4,0,0.8,0.4,0.8,0.8C16.3,31.2,14.4,33.1,12,33.1z"/>
	</g>
</g>
</svg>
