<?xml version="1.0" encoding="utf-8"?>
<!-- Generator: Adobe Illustrator 19.1.0, SVG Export Plug-In . SVG Version: 6.00 Build 0)  -->
<svg version="1.0" id="Layer_1" xmlns="http://www.w3.org/2000/svg" xmlns:xlink="http://www.w3.org/1999/xlink" x="0px" y="0px"
	 width="36px" height="36px" viewBox="-27.5 7.5 36 36" enable-background="new -27.5 7.5 36 36" xml:space="preserve">
<title>marker-11.svg</title>
<title>marker-11.svg</title>
<path fill="#F05022" stroke="#FFFFFF" stroke-miterlimit="10" d="M-13.3,39.7l-10.4-10.4c-2.1-2.1-2.1-5.5,0-7.6l10.4-10.4
	c2.1-2.1,5.5-2.1,7.6,0L4.7,21.7c2.1,2.1,2.1,5.5,0,7.6L-5.7,39.7C-7.8,41.8-11.2,41.8-13.3,39.7z"/>
<path fill="#707070" stroke="#FFFFFF" stroke-miterlimit="10" d="M-9.7,35.2"/>
<path fill="none" stroke="#FFFFFF" stroke-miterlimit="10" d="M0.5,25.2h-5.1v-5c0-0.2-0.1-0.3-0.3-0.3s-0.3,0.1-0.3,0.3v3.8
	c-0.6-1.7-2.3-3-4.3-3s-3.6,1.3-4.3,3v-3.8c0-0.2-0.1-0.3-0.3-0.3s-0.3,0.1-0.3,0.3v5h-5.1c-0.2,0-0.3,0.1-0.3,0.3s0.1,0.3,0.3,0.3
	h5.1v5c0,0.2,0.1,0.3,0.3,0.3s0.3-0.1,0.3-0.3v-3.8c0.6,1.7,2.3,3,4.3,3s3.6-1.3,4.3-3v3.8c0,0.2,0.1,0.3,0.3,0.3s0.3-0.1,0.3-0.3
	v-5h5.1c0.2,0,0.3-0.1,0.3-0.3S0.7,25.2,0.5,25.2z M-9.5,29.4c-2.2,0-3.9-1.8-3.9-3.9s1.8-3.9,3.9-3.9s3.9,1.8,3.9,3.9
	S-7.3,29.4-9.5,29.4z"/>
</svg>
