<?xml version="1.0" encoding="utf-8"?>
<!-- Generator: Adobe Illustrator 19.1.0, SVG Export Plug-In . SVG Version: 6.00 Build 0)  -->
<svg version="1.1" id="Layer_1" xmlns="http://www.w3.org/2000/svg" xmlns:xlink="http://www.w3.org/1999/xlink" x="0px" y="0px"
	 viewBox="-281 373 48 48" style="enable-background:new -281 373 48 48;" xml:space="preserve">
<style type="text/css">
	.st0{fill:#F05022;stroke:#FFFFFF;stroke-miterlimit:10;}
	.st1{fill:#707070;stroke:#FFFFFF;stroke-miterlimit:10;}
	.st2{fill:none;stroke:#FFFFFF;stroke-miterlimit:10;}
</style>
<title>marker-11.svg</title>
<title>marker-11.svg</title>
<path class="st0" d="M-261.3,412.9l-11.6-11.6c-2.3-2.3-2.3-6.2,0-8.5l11.6-11.6c2.3-2.3,6.2-2.3,8.5,0l11.6,11.6
	c2.3,2.3,2.3,6.2,0,8.5l-11.6,11.6C-255.1,415.2-258.9,415.2-261.3,412.9z"/>
<path class="st1" d="M-257,397"/>
<path class="st2" d="M-245.8,396.7h-5.7v-5.6c0-0.2-0.1-0.3-0.3-0.3c-0.2,0-0.3,0.1-0.3,0.3v4.3c-0.7-1.9-2.6-3.4-4.8-3.4
	s-4,1.5-4.8,3.4v-4.3c0-0.2-0.1-0.3-0.3-0.3c-0.2,0-0.3,0.1-0.3,0.3v5.6h-5.7c-0.2,0-0.3,0.1-0.3,0.3s0.1,0.3,0.3,0.3h5.7v5.6
	c0,0.2,0.1,0.3,0.3,0.3c0.2,0,0.3-0.1,0.3-0.3v-4.3c0.7,1.9,2.6,3.4,4.8,3.4s4-1.5,4.8-3.4v4.3c0,0.2,0.1,0.3,0.3,0.3
	c0.2,0,0.3-0.1,0.3-0.3v-5.6h5.7c0.2,0,0.3-0.1,0.3-0.3S-245.6,396.7-245.8,396.7z M-257,401.4c-2.5,0-4.4-2-4.4-4.4s2-4.4,4.4-4.4
	s4.4,2,4.4,4.4S-254.5,401.4-257,401.4z"/>
</svg>
