<?xml version="1.0" encoding="utf-8"?>
<!-- Generator: Adobe Illustrator 18.0.0, SVG Export Plug-In . SVG Version: 6.00 Build 0)  -->
<!DOCTYPE svg PUBLIC "-//W3C//DTD SVG 1.1//EN" "http://www.w3.org/Graphics/SVG/1.1/DTD/svg11.dtd">
<svg version="1.1" id="Capa_1" xmlns="http://www.w3.org/2000/svg" xmlns:xlink="http://www.w3.org/1999/xlink" x="0px" y="0px"
	 viewBox="40.5 40.5 480 480" enable-background="new 40.5 40.5 480 480" xml:space="preserve">
<g>
	<g id="gps-fixed">
		<path d="M280.5,222.3c-32,0-58.2,26.2-58.2,58.2s26.2,58.2,58.2,58.2s58.2-26.2,58.2-58.2S312.5,222.3,280.5,222.3z M410,266
			C402.7,204.9,354.7,156.9,295,151v-30.5H266V151C204.9,156.9,156.9,204.9,151,266h-30.5V295H151c7.3,61.1,55.3,109.1,114.9,114.9
			v30.5H295V410c61.1-7.3,109.1-55.3,114.9-114.9h30.5V266H410z M280.5,382.3c-56.7,0-101.8-45.1-101.8-101.8
			s45.1-101.8,101.8-101.8s101.8,45.1,101.8,101.8S337.2,382.3,280.5,382.3z"/>
	</g>
</g>
<rect x="40.5" y="40.5" fill="none" width="480" height="480"/>
</svg>
