<?xml version="1.0" encoding="utf-8"?>
<!-- Generator: Adobe Illustrator 19.1.0, SVG Export Plug-In . SVG Version: 6.00 Build 0)  -->
<svg version="1.1" id="Capa_1" xmlns="http://www.w3.org/2000/svg" xmlns:xlink="http://www.w3.org/1999/xlink" x="0px" y="0px"
	 viewBox="151 373 48 48" style="enable-background:new 151 373 48 48;" xml:space="preserve">
<style type="text/css">
	.st0{fill:none;}
</style>
<g>
	<g id="gps-fixed">
		<path d="M175,390.6c-3.5,0-6.4,2.9-6.4,6.4s2.9,6.4,6.4,6.4c3.5,0,6.4-2.9,6.4-6.4S178.5,390.6,175,390.6z M189.3,395.4
			c-0.8-6.7-6.1-12-12.7-12.7v-3.4h-3.2v3.4c-6.7,0.7-12,6-12.7,12.7h-3.4v3.2h3.4c0.8,6.7,6.1,12,12.7,12.7v3.4h3.2v-3.4
			c6.7-0.8,12-6.1,12.7-12.7h3.4v-3.2H189.3z M175,408.2c-6.3,0-11.2-5-11.2-11.2c0-6.3,5-11.2,11.2-11.2s11.2,5,11.2,11.2
			C186.2,403.3,181.3,408.2,175,408.2z"/>
	</g>
</g>
<rect x="-24.5" y="197.5" class="st0" width="480" height="480"/>
<rect x="151" y="373" class="st0" width="48" height="48"/>
</svg>
