<?xml version="1.0" encoding="utf-8"?>
<!-- Generator: Adobe Illustrator 19.1.0, SVG Export Plug-In . SVG Version: 6.00 Build 0)  -->
<svg version="1.1" id="Layer_1" xmlns="http://www.w3.org/2000/svg" xmlns:xlink="http://www.w3.org/1999/xlink" x="0px" y="0px"
	 viewBox="151 373 48 48" style="enable-background:new 151 373 48 48;" xml:space="preserve">
<style type="text/css">
	.st0{fill:#31AADF;}
	.st1{fill:#FFFFFF;}
	.st2{fill:none;}
</style>
<g>
	<path class="st0" d="M175,374.6c7.5,0,13.6,6.1,13.6,13.6s-6.1,13.6-13.6,13.6s-13.6-6.1-13.6-13.6S167.5,374.6,175,374.6"/>
	<path class="st1" d="M175,397.1c-3.7,0-6.6-2.9-6.6-6.6c0-3.4,5.3-10.3,6-11.1c0.1-0.1,0.4-0.3,0.5-0.3s0.4,0.1,0.5,0.3
		c0.6,0.8,6,7.7,6,11.1C181.6,394.2,178.7,397.1,175,397.1"/>
	<g>
		<rect x="174.4" y="401.5" class="st0" width="1.1" height="17.9"/>
	</g>
	<path class="st0" d="M175,394.4c-0.4,0-0.7-0.4-0.7-0.7s0.4-0.7,0.7-0.7c1.3,0,2.3-1.1,2.3-2.3c0-0.4,0.4-0.7,0.7-0.7
		c0.4,0,0.7,0.4,0.7,0.7C178.7,392.7,177.1,394.4,175,394.4"/>
</g>
<rect x="151" y="373" class="st2" width="48" height="48"/>
</svg>
