<?xml version="1.0" encoding="utf-8"?>
<!-- Generator: Adobe Illustrator 18.0.0, SVG Export Plug-In . SVG Version: 6.00 Build 0)  -->
<!DOCTYPE svg PUBLIC "-//W3C//DTD SVG 1.1//EN" "http://www.w3.org/Graphics/SVG/1.1/DTD/svg11.dtd">
<svg version="1.1" id="Layer_1" xmlns="http://www.w3.org/2000/svg" xmlns:xlink="http://www.w3.org/1999/xlink" x="0px" y="0px"
	 viewBox="0 0 480 480" enable-background="new 0 0 480 480" xml:space="preserve">
<path fill="#31AADF" d="M242.2,21.1c66.3,0,120.2,53.9,120.2,120.2s-53.9,120.2-120.2,120.2S122,207.5,122,141.2
	S175.9,21.1,242.2,21.1"/>
<path fill="#FFFFFF" d="M242.2,219.9c-32.2,0-58.2-26-58.2-58.2c0-29.7,47.1-91,52.6-97.9c1.2-1.2,3.1-2.5,4.3-2.5
	c1.2,0,3.7,0.6,4.3,2.5c5.6,6.8,52.6,68.1,52.6,97.9C300.4,193.9,274.4,219.9,242.2,219.9"/>
<g>
</g>
<g>
	<rect x="237.2" y="258.3" fill="#31AADF" width="10" height="184.6"/>
</g>
<path fill="#31AADF" d="M242.2,195.7c-3.1,0-6.2-3.1-6.2-6.2c0-3.1,3.1-6.2,6.2-6.2c11.8,0,20.4-9.3,20.4-20.4
	c0-3.1,3.1-6.2,6.2-6.2s6.2,3.1,6.2,6.2C275,180.9,260.7,195.7,242.2,195.7"/>
</svg>
