<?xml version="1.0" encoding="utf-8"?>
<!-- Generator: Adobe Illustrator 19.1.0, SVG Export Plug-In . SVG Version: 6.00 Build 0)  -->
<svg version="1.1" id="Layer_1" xmlns="http://www.w3.org/2000/svg" xmlns:xlink="http://www.w3.org/1999/xlink" x="0px" y="0px"
	 viewBox="-281 373 48 48" style="enable-background:new -281 373 48 48;" xml:space="preserve">
<style type="text/css">
	.st0{fill:none;}
</style>
<g id="Layer_2">
</g>
<g id="Layer_1_1_">
	<path d="M-257,375.1c-7,0-12.8,5.7-12.8,12.7c0,6.8,5.3,12.3,12,12.7v18.3h0.2h1.1h0.2v-18.3c6.7-0.4,12-5.9,12-12.7
		C-244.2,380.8-250,375.1-257,375.1z M-257,396.2c-3.4,0-6.2-2.8-6.2-6.2c0-3.2,5-9.7,5.6-10.4c0.1-0.1,0.3-0.3,0.5-0.3
		c0.2,0,0.4,0.1,0.5,0.3c0.6,0.7,5.6,7.2,5.6,10.4C-250.8,393.5-253.6,396.2-257,396.2z M-254.2,389.5c-0.3,0-0.7,0.3-0.7,0.7
		c0,1.2-0.9,2.2-2.2,2.2c-0.3,0-0.7,0.3-0.7,0.7c0,0.3,0.3,0.7,0.7,0.7c2,0,3.5-1.6,3.5-3.5C-253.5,389.8-253.8,389.5-254.2,389.5z"
		/>
</g>
<rect x="-277.9" y="368.6" class="st0" width="48" height="48"/>
</svg>
