<?xml version="1.0" encoding="utf-8"?>
<!-- Generator: Adobe Illustrator 18.0.0, SVG Export Plug-In . SVG Version: 6.00 Build 0)  -->
<!DOCTYPE svg PUBLIC "-//W3C//DTD SVG 1.1//EN" "http://www.w3.org/Graphics/SVG/1.1/DTD/svg11.dtd">
<svg version="1.1" xmlns="http://www.w3.org/2000/svg" xmlns:xlink="http://www.w3.org/1999/xlink" x="0px" y="0px"
	 viewBox="0 0 48 48" enable-background="new 0 0 48 48" xml:space="preserve">
<g id="Base_x2F_shadow">
	<path opacity="0.25" d="M40.9,39.5c-6.2-0.7-13.9,0.1-17.1,1.6c-0.7,0.3-1.1,0.6-1.2,0.9c-0.1,0.2-0.2,0.4-0.2,0.6l0,0.2l0.9,3.6
		l0.5,1.6l5.6-1l12.5-2.2l0.5-0.1c0.7-0.1,1.4-0.3,2-0.5c0.8-0.2,1.6-0.5,2.1-0.8C49.7,42,47.2,40.2,40.9,39.5z"/>
</g>
<g id="Marker">
	<path fill="#30AADD" d="M24,0C15.2,0,8,7.2,8,16c-0.1,1.7,0.1,3.2,0.6,4.6c0.4,1.1,0.7,2,1.3,3.1l0.4,0.7l9.4,16.3l4.3,7.4l4.3-7.4
		l9.5-16.3l0.4-0.7c0.5-0.9,0.9-2,1.3-3.1c0.5-1.4,0.7-3,0.7-4.6C40,7.2,32.8,0,24,0z M24,29.7c-7.6,0-13.7-6.1-13.7-13.7
		S16.4,2.3,24,2.3S37.7,8.4,37.7,16S31.6,29.7,24,29.7z"/>
</g>
<g id="Water">
	<path fill="#30AADD" d="M29.8,22.3l-0.2,0c-0.6,0.1-1.3,0.3-2.1,0c-0.6-0.2-1.1-0.6-1.3-1.2c-0.2-0.5,0-1.5,1.1-1.8
		c-1.9-0.4-3.3,0-4.1,0.3c-1.1,0.4-2.1,1-3.2,1.6c-0.8,0.5-1.7,0.9-2.6,1.3c-0.9,0.4-2.4,0.9-4,0.9c-0.1,0-0.2,0-0.3,0
		c2.4,3.4,6.3,5.7,10.8,5.7c4.9,0,9.2-2.7,11.5-6.7C33.6,22.1,31.7,22,29.8,22.3z"/>
</g>
<g id="House">
	<path fill="#939598" d="M23.6,8.4"/>
	<path fill="#30AADD" d="M30.5,11.4V7.8H28l0,1.7l-4-3.2l-10.4,8.4h2.7v7.9c0.3-0.1,0.6-0.2,0.8-0.3c1.6-0.7,3.1-1.7,4.8-2.5v-3.8
		h4.2v2.9c1.1,0.1,2.2,0.4,3,1.2c-0.4-0.1-0.9-0.2-1.3-0.2c-0.4,0-0.9,0.3-1,0.7c-0.2,0.6,0.3,1.3,0.9,1.5c0.6,0.2,1.3,0,1.9-0.1
		c0.7-0.1,1.4-0.2,2.1-0.2v-7.1h2.7L30.5,11.4z"/>
</g>
<g id="WhitePanel">
	<path fill="#FFFFFF" d="M24,2.3c-7.6,0-13.7,6.1-13.7,13.7c0,7.6,6.1,13.7,13.7,13.7c7.6,0,13.7-6.1,13.7-13.7
		C37.7,8.4,31.6,2.3,24,2.3z M24,6.2l4,3.2l0-1.7h2.5v3.6l3.9,3.1h-2.7v7.1c-0.7,0-1.4,0.1-2.1,0.2c-0.6,0.1-1.3,0.2-1.9,0.1
		c-0.6-0.2-1.1-0.9-0.9-1.5c0.1-0.4,0.6-0.7,1-0.7c0.4-0.1,0.9,0.1,1.3,0.2c-0.8-0.8-1.9-1.1-3-1.2v-2.9h-4.2v3.8
		c-1.6,0.7-3.1,1.7-4.8,2.5c-0.3,0.1-0.6,0.2-0.8,0.3v-7.9h-2.7L24,6.2z M24,29.2c-4.5,0-8.5-2.3-10.8-5.7c0.1,0,0.2,0,0.3,0
		c1.6,0,3.1-0.5,4-0.9c0.9-0.4,1.7-0.9,2.6-1.3c1.1-0.6,2.1-1.2,3.2-1.6c0.9-0.3,2.2-0.7,4.1-0.3c-1.1,0.3-1.3,1.3-1.1,1.8
		c0.2,0.6,0.7,1.1,1.3,1.3c0.8,0.2,1.4,0.1,2.1,0l0.2,0c1.9-0.3,3.8-0.3,5.6,0.1C33.2,26.5,28.9,29.2,24,29.2z"/>
</g>
</svg>
