<?xml version="1.0" encoding="utf-8"?>
<!-- Generator: Adobe Illustrator 19.1.0, SVG Export Plug-In . SVG Version: 6.00 Build 0)  -->
<svg version="1.1" id="Layer_1" xmlns="http://www.w3.org/2000/svg" xmlns:xlink="http://www.w3.org/1999/xlink" x="0px" y="0px"
	 viewBox="-281 373 48 48" style="enable-background:new -281 373 48 48;" xml:space="preserve">
<style type="text/css">
	.st0{opacity:0.25;enable-background:new    ;}
	.st1{fill:#30AADD;}
	.st2{fill:#939598;}
	.st3{fill:#FFFFFF;}
</style>
<g id="Base_x2F_shadow">
	<path class="st0" d="M-242,412.5c-6.2-0.7-14,0.1-17.1,1.6c-0.7,0.3-1.1,0.6-1.2,0.9c-0.1,0.2-0.2,0.5-0.2,0.6v0.2l0.9,3.6l0.5,1.6
		l5.6-1l12.5-2.3l0.5-0.1c0.7-0.1,1.4-0.3,2-0.5c0.8-0.2,1.6-0.5,2.1-0.8C-233.2,415-235.7,413.2-242,412.5z"/>
</g>
<g id="Marker">
	<path class="st1" d="M-259,373c-8.8,0-16,7.2-16,16c-0.1,1.7,0.1,3.2,0.6,4.6c0.5,1.1,0.7,2,1.4,3.2l0.5,0.7l9.5,16.3l4.3,7.4
		l4.3-7.4l9.5-16.3l0.5-0.7c0.5-0.9,0.9-2,1.4-3.2c0.5-1.4,0.7-3,0.7-4.6C-242.9,380.2-250.1,373-259,373z M-259,402.7
		c-7.7,0-13.7-6.1-13.7-13.7c0-7.7,6.1-13.7,13.7-13.7c7.7,0,13.7,6.1,13.7,13.7C-245.3,396.5-251.4,402.7-259,402.7z"/>
</g>
<g id="Water">
	<path class="st1" d="M-253.2,395.3h-0.2c-0.6,0.1-1.4,0.3-2.1,0c-0.6-0.2-1.1-0.6-1.4-1.2c-0.2-0.5,0-1.5,1.1-1.8
		c-1.9-0.5-3.3,0-4.1,0.3c-1.1,0.5-2.1,1-3.2,1.6c-0.8,0.5-1.7,0.9-2.6,1.4c-0.9,0.5-2.4,0.9-4.1,0.9c-0.1,0-0.2,0-0.3,0
		c2.4,3.4,6.3,5.7,10.8,5.7c5,0,9.2-2.7,11.5-6.8C-249.4,395.1-251.3,395-253.2,395.3z"/>
</g>
<g id="House">
	<path class="st2" d="M-259.4,381.3"/>
	<path class="st1" d="M-252.5,384.4v-3.6h-2.5v1.7l-4.1-3.2l-10.4,8.5h2.7v7.9c0.3-0.1,0.6-0.2,0.8-0.3c1.6-0.7,3.2-1.7,4.8-2.5V389
		h4.2v2.9c1.1,0.1,2.3,0.5,3,1.2c-0.5-0.1-0.9-0.2-1.4-0.2c-0.5,0-0.9,0.3-1,0.7c-0.2,0.6,0.3,1.4,0.9,1.5c0.6,0.2,1.4,0,1.9-0.1
		c0.7-0.1,1.4-0.2,2.1-0.2v-7.1h2.7L-252.5,384.4z"/>
</g>
<g id="WhitePanel">
	<path class="st3" d="M-259,375.2c-7.7,0-13.7,6.1-13.7,13.7c0,7.7,6.1,13.7,13.7,13.7c7.7,0,13.7-6.1,13.7-13.7
		C-245.3,381.3-251.4,375.2-259,375.2z M-259,379.2l4.1,3.2v-1.7h2.5v3.6l3.9,3.2h-2.7v7.1c-0.7,0-1.4,0.1-2.1,0.2
		c-0.6,0.1-1.4,0.2-1.9,0.1c-0.6-0.2-1.1-0.9-0.9-1.5c0.1-0.5,0.6-0.7,1-0.7c0.5-0.1,0.9,0.1,1.4,0.2c-0.8-0.8-1.9-1.1-3-1.2v-2.9
		h-4.2v3.8c-1.6,0.7-3.2,1.7-4.8,2.5c-0.3,0.1-0.6,0.2-0.8,0.3v-7.9h-2.7L-259,379.2z M-259,402.2c-4.5,0-8.6-2.3-10.8-5.7
		c0.1,0,0.2,0,0.3,0c1.6,0,3.2-0.5,4.1-0.9c0.9-0.5,1.7-0.9,2.6-1.4c1.1-0.6,2.1-1.2,3.2-1.6c0.9-0.3,2.3-0.7,4.1-0.3
		c-1.1,0.3-1.4,1.4-1.1,1.8c0.2,0.6,0.7,1.1,1.4,1.4c0.8,0.2,1.4,0.1,2.1,0h0.2c1.9-0.3,3.8-0.3,5.6,0.1
		C-249.8,399.5-254.1,402.2-259,402.2z"/>
</g>
</svg>
