<?xml version="1.0" encoding="utf-8"?>
<!-- Generator: Adobe Illustrator 18.0.0, SVG Export Plug-In . SVG Version: 6.00 Build 0)  -->
<!DOCTYPE svg PUBLIC "-//W3C//DTD SVG 1.1//EN" "http://www.w3.org/Graphics/SVG/1.1/DTD/svg11.dtd">
<svg version="1.1" xmlns="http://www.w3.org/2000/svg" xmlns:xlink="http://www.w3.org/1999/xlink" x="0px" y="0px"
	 viewBox="0 0 480 480" enable-background="new 0 0 480 480" xml:space="preserve">
<g id="Layer_2">
</g>
<g id="Layer_1">
	<g>
	</g>
	<path d="M240,0c-75.4,0-136.8,61.3-136.8,136.7c0,72.7,57,132.4,128.7,136.5V480h2.3h11.4h2.3V273.2
		c71.7-4.1,128.7-63.8,128.7-136.5C376.7,61.3,315.4,0,240,0z M240,226.2c-36.7,0-66.3-29.6-66.3-66.2c0-33.8,53.6-103.6,59.9-111.4
		c1.4-1.4,3.5-2.8,4.9-2.8c1.4,0,4.2,0.7,4.9,2.8c6.3,7.8,59.9,77.5,59.9,111.4C306.3,196.7,276.7,226.2,240,226.2z M270.3,154.4
		c-3.5,0-7,3.5-7,7c0,12.7-9.9,23.3-23.3,23.3c-3.5,0-7.1,3.5-7.1,7c0,3.5,3.5,7.1,7.1,7.1c21.1,0,37.3-16.9,37.3-37.4
		C277.4,157.9,273.8,154.4,270.3,154.4z"/>
</g>
</svg>
