<?xml version="1.0" encoding="utf-8"?>
<!-- Generator: Adobe Illustrator 19.1.0, SVG Export Plug-In . SVG Version: 6.00 Build 0)  -->
<svg version="1.1" id="Layer_1" xmlns="http://www.w3.org/2000/svg" xmlns:xlink="http://www.w3.org/1999/xlink" x="0px" y="0px"
	 viewBox="0 0 159.3 25" style="enable-background:new 0 0 159.3 25;" xml:space="preserve">
<style type="text/css">
	.st0{clip-path:url(#SVGID_2_);fill:#010101;}
	.st1{fill:#010101;}
	.st2{clip-path:url(#SVGID_4_);fill:#010101;}
	.st3{clip-path:url(#SVGID_4_);fill:#3A79BD;}
	.st4{clip-path:url(#SVGID_4_);fill:#FFFFFF;}
	.st5{clip-path:url(#SVGID_4_);fill:#6295C9;}
</style>
<g>
	<defs>
		<rect id="SVGID_1_" y="0.6" width="158.9" height="24.4"/>
	</defs>
	<clipPath id="SVGID_2_">
		<use xlink:href="#SVGID_1_"  style="overflow:visible;"/>
	</clipPath>
	<path class="st0" d="M3.1,17.6v-3.9h2.4c0.4,0,0.7,0,1,0.1c0.3,0.1,0.6,0.2,0.9,0.3c0.2,0.2,0.5,0.3,0.6,0.6c0.2,0.2,0.2,0.6,0.2,1
		c0,0.4-0.1,0.8-0.2,1c-0.2,0.2-0.3,0.5-0.6,0.6c-0.2,0.2-0.6,0.2-0.9,0.3s-0.7,0.1-1,0.1H3.1V17.6z M6.3,11.5H0v13.1h3.1v-4.7h3.3
		c0.9,0,1.7-0.2,2.2-0.4c0.6-0.2,1.1-0.5,1.5-0.9c0.4-0.4,0.7-0.9,0.9-1.3c0.2-0.5,0.2-1,0.2-1.6c0-0.6-0.1-1.1-0.2-1.6
		c-0.2-0.5-0.5-0.9-0.9-1.3c-0.4-0.4-0.9-0.7-1.5-0.9C7.9,11.6,7.2,11.5,6.3,11.5"/>
	<path class="st0" d="M15.6,18.8c0-0.2,0.1-0.4,0.2-0.6c0.1-0.2,0.2-0.5,0.4-0.6c0.2-0.2,0.4-0.4,0.7-0.6c0.3-0.2,0.7-0.2,1.1-0.2
		c0.7,0,1.2,0.2,1.6,0.6c0.3,0.3,0.6,0.9,0.7,1.5H15.6z M18,14.8c-0.8,0-1.5,0.2-2.1,0.4c-0.6,0.2-1.2,0.6-1.7,1.1
		c-0.5,0.5-0.8,1-1.1,1.6c-0.2,0.6-0.4,1.3-0.4,1.9c0,0.7,0.2,1.4,0.4,2c0.2,0.6,0.6,1.2,1,1.6c0.5,0.5,1,0.8,1.7,1
		c0.6,0.2,1.3,0.4,2.2,0.4c1.2,0,2.1-0.2,2.9-0.7c0.8-0.5,1.4-1.3,1.8-2.4h-2.4c-0.1,0.3-0.3,0.6-0.8,0.9C19.1,22.8,18.6,23,18,23
		c-0.8,0-1.4-0.2-1.8-0.6c-0.4-0.4-0.6-1-0.7-1.8h7.4c0.1-0.7,0-1.4-0.2-2.1c-0.2-0.7-0.5-1.3-0.9-1.8c-0.4-0.6-0.9-0.9-1.6-1.3
		C19.6,15,18.8,14.8,18,14.8"/>
	<path class="st0" d="M28.6,12.3h-2.8v2.9H24v1.7h1.7v5.6c0,0.5,0.1,0.9,0.2,1.2c0.2,0.3,0.4,0.6,0.7,0.7c0.3,0.2,0.6,0.2,1,0.3
		c0.4,0.1,0.8,0.1,1.3,0.1h0.9c0.3,0,0.6,0,0.8-0.1v-2c-0.2,0-0.2,0.1-0.4,0.1h-0.5c-0.5,0-0.8-0.1-0.9-0.2
		c-0.2-0.2-0.2-0.5-0.2-0.9v-4.7h2v-1.7h-2L28.6,12.3z"/>
	<path class="st0" d="M36.5,23.1c-0.2,0-0.5,0-0.6-0.1c-0.2,0-0.4-0.1-0.6-0.2c-0.2-0.1-0.3-0.2-0.4-0.4c-0.1-0.2-0.2-0.4-0.2-0.6
		s0.1-0.5,0.2-0.6c0.1-0.2,0.2-0.3,0.4-0.4c0.2-0.1,0.3-0.2,0.6-0.2c0.2-0.1,0.4-0.1,0.6-0.2c0.2,0,0.5-0.1,0.7-0.1s0.5-0.1,0.6-0.1
		c0.2,0,0.4-0.1,0.5-0.2c0.2-0.1,0.3-0.2,0.5-0.2v0.9c0,0.2,0,0.3-0.1,0.6c0,0.2-0.2,0.5-0.2,0.7c-0.2,0.2-0.4,0.5-0.7,0.6
		C37.4,23,37,23.1,36.5,23.1 M37,14.8c-0.6,0-1.1,0.1-1.7,0.2c-0.6,0.1-1.1,0.3-1.5,0.6c-0.5,0.2-0.8,0.6-1.1,0.9
		c-0.3,0.4-0.5,0.9-0.5,1.6H35c0.1-0.6,0.2-0.9,0.6-1.1c0.3-0.2,0.8-0.3,1.3-0.3c0.2,0,0.5,0,0.7,0.1c0.2,0,0.4,0.1,0.6,0.2
		c0.2,0.1,0.3,0.2,0.4,0.4c0.1,0.2,0.2,0.4,0.2,0.7c0,0.2-0.1,0.5-0.2,0.6c-0.2,0.2-0.5,0.2-0.8,0.3c-0.3,0.1-0.7,0.2-1.1,0.2
		c-0.4,0-0.9,0.1-1.3,0.2c-0.4,0.1-0.9,0.2-1.3,0.2c-0.4,0.1-0.8,0.2-1.1,0.5c-0.3,0.2-0.5,0.5-0.8,0.9c-0.2,0.3-0.3,0.8-0.3,1.3
		c0,0.5,0.1,0.9,0.2,1.3c0.2,0.4,0.4,0.6,0.7,0.9c0.3,0.2,0.7,0.4,1.1,0.6c0.4,0.1,0.9,0.2,1.3,0.2c0.6,0,1.3-0.1,1.8-0.2
		c0.6-0.2,1.1-0.5,1.6-0.9c0,0.2,0,0.3,0.1,0.5c0,0.2,0.1,0.3,0.2,0.5h2.8c-0.2-0.2-0.2-0.5-0.3-0.9c-0.1-0.4-0.1-0.8-0.1-1.3v-5
		c0-0.5-0.2-1-0.4-1.4c-0.3-0.3-0.6-0.6-1.1-0.8c-0.5-0.2-0.9-0.3-1.4-0.4C38.1,14.8,37.6,14.8,37,14.8"/>
	<path class="st0" d="M47.5,22.3v-3.6h3.3c0.7,0,1.2,0.2,1.7,0.5c0.4,0.3,0.6,0.8,0.6,1.4c0,0.3-0.1,0.6-0.2,0.9
		c-0.2,0.2-0.3,0.4-0.5,0.6c-0.2,0.2-0.5,0.2-0.7,0.3c-0.3,0.1-0.6,0.1-0.9,0.1h-3.4V22.3z M47.5,16.7v-3.1h2.9c0.3,0,0.5,0,0.8,0.1
		c0.2,0.1,0.5,0.2,0.7,0.2c0.2,0.1,0.4,0.2,0.5,0.5c0.2,0.2,0.2,0.5,0.2,0.8c0,0.6-0.2,0.9-0.6,1.2c-0.4,0.2-0.8,0.4-1.3,0.4
		L47.5,16.7z M51,11.5h-6.6v13.1h6.8c0.6,0,1.3-0.1,1.8-0.2c0.6-0.2,1.1-0.4,1.6-0.7c0.5-0.3,0.9-0.7,1.1-1.2
		c0.3-0.5,0.4-1.1,0.4-1.7c0-0.9-0.2-1.5-0.6-2.1c-0.4-0.5-1.1-1-1.9-1.3c0.6-0.3,1.1-0.6,1.4-1.1c0.3-0.5,0.5-1,0.5-1.7
		s-0.1-1.1-0.3-1.6c-0.2-0.4-0.6-0.8-0.9-1c-0.4-0.2-0.9-0.5-1.4-0.6C52.3,11.5,51.8,11.5,51,11.5"/>
	<path class="st0" d="M60.8,18.8c0-0.2,0.1-0.4,0.2-0.6c0.1-0.2,0.2-0.5,0.4-0.6c0.2-0.2,0.4-0.4,0.7-0.6c0.3-0.2,0.7-0.2,1.1-0.2
		c0.7,0,1.2,0.2,1.6,0.6c0.3,0.3,0.6,0.9,0.7,1.5H60.8z M63.2,14.8c-0.8,0-1.5,0.2-2.1,0.4c-0.6,0.2-1.2,0.6-1.7,1.1
		c-0.5,0.5-0.8,1-1.1,1.6c-0.2,0.6-0.4,1.3-0.4,1.9c0,0.7,0.2,1.4,0.4,2c0.2,0.6,0.6,1.2,1,1.6c0.5,0.5,1,0.8,1.7,1s1.3,0.4,2.2,0.4
		c1.2,0,2.1-0.2,2.9-0.7c0.8-0.5,1.4-1.3,1.8-2.4h-2.5c-0.1,0.3-0.3,0.6-0.8,0.9c-0.4,0.2-0.9,0.4-1.5,0.4c-0.8,0-1.4-0.2-1.8-0.6
		c-0.4-0.4-0.6-1-0.7-1.8H68c0.1-0.7,0-1.4-0.2-2.1c-0.2-0.7-0.5-1.3-0.9-1.8c-0.4-0.6-0.9-0.9-1.6-1.3C64.7,15,64,14.8,63.2,14.8"
		/>
	<path class="st0" d="M76,14.8c-0.6,0-1.2,0.2-1.7,0.4c-0.6,0.2-1,0.6-1.4,1.2h0V15h-2.6v9.5H73v-5c0-0.9,0.2-1.7,0.6-2.1
		c0.3-0.4,0.9-0.6,1.7-0.6c0.7,0,1.2,0.2,1.4,0.6c0.2,0.4,0.4,0.9,0.4,1.7v5.3h2.8v-5.8c0-0.6-0.1-1.1-0.2-1.7
		c-0.1-0.5-0.3-0.9-0.6-1.3c-0.3-0.3-0.6-0.6-1.1-0.8C77.3,14.9,76.8,14.8,76,14.8"/>
	<path class="st0" d="M87.2,14.8c-0.9,0-1.6,0.2-2.2,0.4c-0.6,0.2-1.2,0.6-1.7,1.1c-0.5,0.5-0.8,1-1,1.7s-0.3,1.3-0.3,2
		c0,0.7,0.2,1.3,0.4,1.9c0.2,0.6,0.6,1.1,1,1.6c0.5,0.5,1,0.8,1.7,1c0.6,0.2,1.3,0.4,2.1,0.4c1.3,0,2.5-0.3,3.3-1
		c0.9-0.7,1.4-1.7,1.6-2.9h-2.7c-0.1,0.6-0.3,1.1-0.7,1.4c-0.4,0.3-0.9,0.6-1.6,0.6c-0.5,0-0.8-0.1-1.1-0.3
		c-0.3-0.2-0.6-0.4-0.7-0.7c-0.2-0.3-0.3-0.6-0.4-0.9c-0.1-0.4-0.2-0.7-0.2-1c0-0.4,0-0.7,0.2-1.1c0.1-0.4,0.2-0.7,0.4-1
		c0.2-0.3,0.5-0.5,0.7-0.7c0.3-0.2,0.7-0.3,1.1-0.3c1.2,0,1.8,0.5,2,1.7h2.7c-0.1-0.6-0.2-1.2-0.5-1.6c-0.3-0.5-0.6-0.9-1.1-1.1
		c-0.5-0.3-0.9-0.6-1.5-0.7C88.4,14.9,87.7,14.8,87.2,14.8"/>
	<path class="st0" d="M98.1,23.1c-0.2,0-0.5,0-0.6-0.1c-0.2,0-0.4-0.1-0.6-0.2c-0.2-0.1-0.3-0.2-0.4-0.4c-0.1-0.2-0.2-0.4-0.2-0.6
		s0.1-0.5,0.2-0.6c0.1-0.2,0.2-0.3,0.4-0.4c0.2-0.1,0.3-0.2,0.6-0.2c0.2-0.1,0.4-0.1,0.6-0.2c0.2,0,0.5-0.1,0.7-0.1s0.5-0.1,0.6-0.1
		c0.2,0,0.4-0.1,0.6-0.2c0.2-0.1,0.3-0.2,0.5-0.2v0.9c0,0.2,0,0.3-0.1,0.6c0,0.2-0.2,0.5-0.2,0.7c-0.2,0.2-0.4,0.5-0.7,0.6
		C99.1,23,98.6,23.1,98.1,23.1 M98.7,14.8c-0.6,0-1.1,0.1-1.7,0.2c-0.6,0.1-1.1,0.3-1.5,0.6c-0.5,0.2-0.8,0.6-1.1,0.9
		c-0.3,0.4-0.5,0.9-0.5,1.6h2.8c0.1-0.6,0.2-0.9,0.6-1.1c0.3-0.2,0.8-0.3,1.3-0.3c0.2,0,0.5,0,0.7,0.1c0.2,0,0.4,0.1,0.6,0.2
		c0.2,0.1,0.3,0.2,0.4,0.4c0.1,0.2,0.2,0.4,0.2,0.7c0,0.2-0.1,0.5-0.2,0.6c-0.2,0.2-0.5,0.2-0.8,0.3c-0.3,0.1-0.7,0.2-1.1,0.2
		c-0.4,0-0.9,0.1-1.3,0.2c-0.4,0.1-0.9,0.2-1.3,0.2c-0.4,0.1-0.8,0.2-1.1,0.5c-0.3,0.2-0.6,0.5-0.8,0.9c-0.2,0.3-0.3,0.8-0.3,1.3
		c0,0.5,0.1,0.9,0.2,1.3c0.2,0.4,0.4,0.6,0.7,0.9c0.3,0.2,0.7,0.4,1.1,0.6c0.4,0.1,0.9,0.2,1.3,0.2c0.6,0,1.3-0.1,1.8-0.2
		c0.6-0.2,1.1-0.5,1.6-0.9c0,0.2,0,0.3,0.1,0.5c0,0.2,0.1,0.3,0.2,0.5h2.8c-0.2-0.2-0.2-0.5-0.3-0.9c-0.1-0.4-0.1-0.8-0.1-1.3v-5
		c0-0.5-0.2-1-0.4-1.4c-0.3-0.3-0.6-0.6-1.1-0.8c-0.5-0.2-0.9-0.3-1.4-0.4C99.7,14.8,99.2,14.8,98.7,14.8"/>
	<path class="st0" d="M111.6,14.8c-0.6,0-1.2,0.2-1.7,0.4c-0.6,0.2-1,0.6-1.4,1.2h-0.1V15h-2.6v9.5h2.8v-5c0-0.9,0.2-1.7,0.5-2.1
		c0.3-0.4,0.9-0.6,1.7-0.6c0.7,0,1.2,0.2,1.4,0.6c0.2,0.4,0.4,0.9,0.4,1.7v5.3h2.8v-5.8c0-0.6-0.1-1.1-0.2-1.7
		c-0.1-0.5-0.3-0.9-0.6-1.3c-0.3-0.3-0.6-0.6-1.1-0.8C112.9,14.9,112.4,14.8,111.6,14.8"/>
	<path class="st0" d="M122,23.1c-0.2,0-0.5,0-0.6-0.1c-0.2,0-0.4-0.1-0.6-0.2c-0.2-0.1-0.3-0.2-0.4-0.4c-0.1-0.2-0.2-0.4-0.2-0.6
		s0.1-0.5,0.2-0.6c0.1-0.2,0.2-0.3,0.4-0.4c0.2-0.1,0.3-0.2,0.6-0.2c0.2-0.1,0.4-0.1,0.6-0.2c0.2,0,0.5-0.1,0.7-0.1s0.5-0.1,0.6-0.1
		c0.2,0,0.4-0.1,0.6-0.2c0.2-0.1,0.3-0.2,0.5-0.2v0.9c0,0.2,0,0.3-0.1,0.6c0,0.2-0.2,0.5-0.2,0.7c-0.2,0.2-0.4,0.5-0.7,0.6
		C123,23,122.5,23.1,122,23.1 M122.6,14.8c-0.6,0-1.1,0.1-1.7,0.2c-0.6,0.1-1.1,0.3-1.5,0.6c-0.5,0.2-0.8,0.6-1.1,0.9
		c-0.3,0.4-0.5,0.9-0.5,1.6h2.8c0.1-0.6,0.2-0.9,0.6-1.1c0.3-0.2,0.8-0.3,1.3-0.3c0.2,0,0.5,0,0.7,0.1c0.2,0,0.4,0.1,0.6,0.2
		c0.2,0.1,0.3,0.2,0.4,0.4c0.1,0.2,0.2,0.4,0.2,0.7c0,0.2-0.1,0.5-0.2,0.6c-0.2,0.2-0.5,0.2-0.8,0.3c-0.3,0.1-0.7,0.2-1.1,0.2
		c-0.4,0-0.8,0.1-1.3,0.2c-0.4,0.1-0.9,0.2-1.3,0.2c-0.4,0.1-0.8,0.2-1.1,0.5c-0.3,0.2-0.6,0.5-0.8,0.9c-0.2,0.3-0.3,0.8-0.3,1.3
		c0,0.5,0.1,0.9,0.2,1.3c0.2,0.4,0.4,0.6,0.7,0.9c0.3,0.2,0.7,0.4,1.1,0.6c0.4,0.1,0.9,0.2,1.3,0.2c0.6,0,1.3-0.1,1.8-0.2
		c0.6-0.2,1.1-0.5,1.6-0.9c0,0.2,0,0.3,0.1,0.5c0,0.2,0.1,0.3,0.2,0.5h2.8c-0.2-0.2-0.2-0.5-0.3-0.9c-0.1-0.4-0.1-0.8-0.1-1.3v-5
		c0-0.5-0.2-1-0.4-1.4c-0.3-0.3-0.6-0.6-1.1-0.8c-0.5-0.2-0.9-0.3-1.4-0.4C123.6,14.8,123.1,14.8,122.6,14.8"/>
</g>
<path class="st1" d="M143.5,24.5h2.8V15h-2.8V24.5z M143.5,13.6h2.8v-2.2h-2.8V13.6z"/>
<g>
	<defs>
		<rect id="SVGID_3_" y="0.6" width="158.9" height="24.4"/>
	</defs>
	<clipPath id="SVGID_4_">
		<use xlink:href="#SVGID_3_"  style="overflow:visible;"/>
	</clipPath>
	<path class="st2" d="M153.8,22.8c-0.5,0-0.8-0.1-1.1-0.2c-0.3-0.2-0.6-0.4-0.8-0.7c-0.2-0.3-0.4-0.6-0.5-1
		c-0.1-0.4-0.2-0.7-0.2-1.1s0.1-0.8,0.2-1.1c0.1-0.3,0.2-0.7,0.4-0.9c0.2-0.3,0.5-0.6,0.8-0.7s0.7-0.2,1.2-0.2s0.9,0.1,1.2,0.2
		c0.3,0.2,0.6,0.4,0.7,0.7c0.2,0.3,0.3,0.6,0.4,0.9c0.1,0.4,0.2,0.7,0.2,1.1s0,0.8-0.2,1.2c-0.1,0.4-0.2,0.7-0.4,1
		c-0.2,0.3-0.4,0.6-0.7,0.7C154.6,22.8,154.2,22.8,153.8,22.8 M158.8,11.5h-2.8v4.8c-0.3-0.5-0.8-0.8-1.3-1.1
		c-0.6-0.2-1.1-0.4-1.7-0.4c-0.8,0-1.4,0.2-1.9,0.4c-0.6,0.3-1,0.6-1.4,1.1c-0.4,0.5-0.6,1-0.9,1.6c-0.2,0.6-0.3,1.3-0.3,1.8
		c0,0.6,0.1,1.3,0.3,1.8c0.2,0.6,0.5,1.2,0.9,1.7c0.4,0.5,0.9,0.9,1.4,1.1c0.6,0.3,1.3,0.4,2,0.4c0.7,0,1.3-0.1,1.8-0.3
		c0.5-0.2,0.9-0.6,1.3-1.1h0.1v1.3h2.6L158.8,11.5L158.8,11.5L158.8,11.5z"/>
	<path class="st3" d="M134.7,22.5h-0.1c-1.6,0-2.9,0.5-2.9,1c0,0.5,1.3,1,2.9,1h0.1c1.6,0,2.9-0.5,2.9-1
		C137.6,23,136.3,22.5,134.7,22.5"/>
	<path class="st3" d="M134.6,0.6c-4.2,0-7.7,3.2-7.7,7.1c0,0.7,0,1.4,0.3,2c0.2,0.5,0.3,0.9,0.6,1.3l0.2,0.3l4.5,7.1l2.1,3.2
		l2.1-3.2l1.8-2.8l2.8-4.4l0.2-0.3c0.2-0.4,0.5-0.9,0.6-1.3c0.2-0.7,0.3-1.3,0.3-2C142.3,3.8,138.8,0.6,134.6,0.6 M134.6,11.7
		c-1.8,0-3.3-1.4-3.3-3c0-0.3,0-0.6,0.1-0.9c0.1-0.2,0.2-0.4,0.3-0.6l0.1-0.1l1.2-1.9l0.8-1.2l0.9-1.4l0.9,1.4l1.9,3.1l0.1,0.1
		c0.1,0.2,0.2,0.4,0.3,0.6c0.1,0.3,0.1,0.6,0.1,0.9C138,10.4,136.5,11.7,134.6,11.7"/>
	<path class="st4" d="M134.7,2.7L133.8,4L133,5.2l-1.2,1.9l-0.1,0.1c-0.1,0.2-0.2,0.4-0.3,0.6c-0.1,0.3-0.1,0.6-0.1,0.9
		c0,1.7,1.5,3,3.3,3c1.8,0,3.3-1.4,3.3-3c0-0.3,0-0.6-0.1-0.9c-0.1-0.2-0.1-0.4-0.3-0.6l-0.1-0.1L135.5,4L134.7,2.7z M134.8,10.8
		c-0.2,0-0.4-0.1-0.4-0.3c0-0.2,0.1-0.4,0.3-0.5c0.6-0.1,1.4-0.6,1.5-1.2c0-0.2,0.2-0.3,0.4-0.3c0,0,0,0,0.1,0
		c0.2,0,0.4,0.2,0.3,0.5C136.9,10,135.7,10.7,134.8,10.8L134.8,10.8z"/>
	<path class="st5" d="M136.7,8.4c-0.2,0-0.4,0.1-0.4,0.3c-0.1,0.7-1,1.1-1.5,1.2c-0.2,0-0.4,0.2-0.3,0.5c0,0.2,0.2,0.3,0.4,0.3
		l0.1,0c0.8-0.1,2-0.8,2.2-1.9C137.2,8.7,137,8.5,136.7,8.4C136.8,8.5,136.7,8.4,136.7,8.4"/>
</g>
</svg>
