<?xml version="1.0" encoding="utf-8"?>
<!-- Generator: Adobe Illustrator 19.1.0, SVG Export Plug-In . SVG Version: 6.00 Build 0)  -->
<svg version="1.0" id="Layer_1" xmlns="http://www.w3.org/2000/svg" xmlns:xlink="http://www.w3.org/1999/xlink" x="0px" y="0px"
	 width="36px" height="36px" viewBox="-27.5 7.5 36 36" enable-background="new -27.5 7.5 36 36" xml:space="preserve">
<title>marker-11.svg</title>
<title>marker-11.svg</title>
<path fill="#707070" stroke="#FFFFFF" stroke-miterlimit="10" d="M-2.1,38.3h-14.8c-3,0-5.4-2.4-5.4-5.4V18.1c0-3,2.4-5.4,5.4-5.4
	h14.8c3,0,5.4,2.4,5.4,5.4v14.8C3.3,35.9,0.9,38.3-2.1,38.3z"/>
<path fill="#707070" stroke="#FFFFFF" stroke-miterlimit="10" d="M-9.7,35.2"/>
<g>
	<g>
		<line fill="#707070" x1="-9.5" y1="15.6" x2="-9.5" y2="26.1"/>
	</g>
	<g>
		<g>
			<path fill="#FFFFFF" d="M-8.8,26.1h-1.3c-0.1,0-0.3-0.1-0.3-0.3v-8.2c0-0.1,0.1-0.3,0.3-0.3h1.3c0.1,0,0.3,0.1,0.3,0.3v8.2
				C-8.6,26-8.7,26.1-8.8,26.1z"/>
		</g>
		<g>
			<g>
				<path fill="#FFFFFF" d="M-15.8,23.4l0.1,0.1c0.3,0.3,0.8,0.3,1,0l4.5-4.9c0.3-0.3,0.8-0.3,1.1,0l4.5,4.9c0.3,0.3,0.7,0.3,1,0
					l0.1-0.1c0.3-0.3,0.3-0.7,0-1L-9,16.2c-0.3-0.3-0.8-0.3-1.1,0l-5.8,6.2C-16.1,22.7-16.1,23.1-15.8,23.4z"/>
			</g>
		</g>
	</g>
</g>
<circle fill="none" stroke="#FFFFFF" stroke-width="2" stroke-miterlimit="10" cx="-9.5" cy="28.6" r="2.7"/>
<line fill="none" stroke="#FFFFFF" stroke-width="2" stroke-miterlimit="10" x1="-16.8" y1="32.2" x2="-2.2" y2="32.2"/>
</svg>
