<?xml version="1.0" encoding="utf-8"?>
<!-- Generator: Adobe Illustrator 19.1.0, SVG Export Plug-In . SVG Version: 6.00 Build 0)  -->
<svg version="1.1" id="Layer_1" xmlns="http://www.w3.org/2000/svg" xmlns:xlink="http://www.w3.org/1999/xlink" x="0px" y="0px"
	 viewBox="0 0 162.8 25" style="enable-background:new 0 0 162.8 25;" xml:space="preserve">
<style type="text/css">
	.st0{fill:#010101;}
	.st1{clip-path:url(#SVGID_2_);fill:#010101;}
	.st2{clip-path:url(#SVGID_4_);fill:#010101;}
	.st3{clip-path:url(#SVGID_6_);fill:#010101;}
	.st4{clip-path:url(#SVGID_6_);fill:none;stroke:#3A79BD;stroke-width:0.5;stroke-miterlimit:10;}
</style>
<g>
	<rect x="20.6" y="6.6" class="st0" width="7.3" height="2.9"/>
	<rect x="6.4" y="6.6" class="st0" width="2.9" height="9.5"/>
	<rect x="11.1" y="6.6" class="st0" width="2.9" height="13.9"/>
	<rect x="1.6" y="6.6" class="st0" width="2.9" height="13.9"/>
	<rect x="20.6" y="11.4" class="st0" width="2.9" height="9.2"/>
	<rect x="15.9" y="6.6" class="st0" width="2.9" height="2.9"/>
	<rect x="15.9" y="11.4" class="st0" width="2.9" height="9.2"/>
	<g>
		<defs>
			<rect id="SVGID_1_" x="1.6" y="3" width="159.6" height="19"/>
		</defs>
		<clipPath id="SVGID_2_">
			<use xlink:href="#SVGID_1_"  style="overflow:visible;"/>
		</clipPath>
		<path class="st1" d="M40.9,6.8V15c0,0.8,0.1,1.4,0.2,2c0.2,0.5,0.4,1,0.8,1.3c0.3,0.3,0.8,0.6,1.3,0.8c0.5,0.2,1,0.2,1.6,0.2
			c0.6,0,1.2-0.1,1.7-0.2c0.5-0.2,0.9-0.4,1.2-0.8c0.3-0.3,0.6-0.8,0.8-1.3c0.2-0.5,0.3-1.2,0.3-2V6.8h1.2v8.5c0,0.7-0.1,1.3-0.3,2
			c-0.2,0.6-0.5,1.2-0.9,1.6c-0.4,0.5-1,0.8-1.6,1.1c-0.7,0.2-1.5,0.4-2.4,0.4c-0.9,0-1.7-0.1-2.4-0.4c-0.7-0.2-1.2-0.6-1.6-1.1
			c-0.4-0.5-0.7-1-0.9-1.6c-0.2-0.6-0.3-1.3-0.3-2V6.8H40.9z"/>
		<path class="st1" d="M53.4,10.5v2.3h0c0.3-0.8,0.8-1.4,1.4-1.8c0.6-0.4,1.4-0.6,2.3-0.6v1.2c-0.5,0-1,0-1.5,0.2
			c-0.4,0.2-0.8,0.4-1.1,0.7c-0.3,0.3-0.5,0.7-0.8,1.1c-0.2,0.4-0.2,0.9-0.2,1.4v5.1h-1.2v-9.6H53.4z"/>
		<path class="st1" d="M65.7,13.8c-0.1-0.5-0.3-0.9-0.5-1.3c-0.2-0.4-0.6-0.7-1-1c-0.4-0.2-0.9-0.4-1.4-0.4c-0.6,0-1.2,0.1-1.6,0.4
			s-0.8,0.5-1,1c-0.2,0.4-0.5,0.8-0.6,1.3s-0.2,1-0.2,1.5s0,1,0.2,1.5s0.3,0.9,0.6,1.3s0.6,0.7,1,1s1,0.4,1.6,0.4
			c0.5,0,1-0.1,1.4-0.4c0.4-0.2,0.7-0.5,1-1c0.2-0.4,0.5-0.8,0.5-1.3c0.1-0.5,0.2-1,0.2-1.5S65.8,14.3,65.7,13.8 M59.3,6.8v5.5h0
			c0.1-0.3,0.3-0.7,0.5-0.9c0.2-0.2,0.5-0.5,0.8-0.7c0.3-0.2,0.6-0.3,1-0.4c0.3-0.1,0.7-0.1,1-0.1c0.8,0,1.4,0.1,1.9,0.4
			s1,0.6,1.3,1.1c0.4,0.5,0.6,1,0.8,1.6c0.2,0.6,0.3,1.3,0.3,2c0,0.7-0.1,1.3-0.3,2c-0.2,0.6-0.5,1.2-0.8,1.6
			c-0.4,0.5-0.8,0.8-1.3,1.1s-1.2,0.4-1.9,0.4c-0.8,0-1.5-0.2-2.1-0.5c-0.6-0.4-1-0.9-1.3-1.5h0v1.8h-1.1V6.8H59.3z"/>
		<path class="st1" d="M75,14.8c-0.1,0.1-0.2,0.2-0.4,0.3c-0.2,0-0.4,0.1-0.5,0.1c-0.5,0.1-1,0.2-1.5,0.2s-1,0.2-1.5,0.3
			c-0.4,0.1-0.8,0.3-1.1,0.6c-0.3,0.2-0.4,0.6-0.4,1.1c0,0.3,0,0.5,0.2,0.8c0.1,0.2,0.3,0.4,0.5,0.6c0.2,0.2,0.4,0.3,0.7,0.4
			c0.2,0.1,0.5,0.1,0.8,0.1c0.5,0,0.9-0.1,1.3-0.2s0.8-0.3,1.1-0.6c0.3-0.2,0.5-0.6,0.7-1s0.2-0.8,0.2-1.2V14.8z M69.1,11.9
			c0.2-0.4,0.5-0.8,0.8-1c0.3-0.3,0.8-0.5,1.2-0.6c0.5-0.1,1-0.2,1.5-0.2c0.4,0,0.8,0,1.2,0.1c0.4,0.1,0.8,0.2,1.1,0.5
			c0.3,0.2,0.6,0.5,0.8,1c0.2,0.4,0.3,0.9,0.3,1.6v5.1c0,0.5,0.2,0.7,0.7,0.7c0.1,0,0.2,0,0.4-0.1v1c-0.1,0-0.2,0-0.4,0h-0.4
			c-0.3,0-0.5,0-0.7-0.1s-0.3-0.2-0.4-0.3c-0.1-0.2-0.2-0.3-0.2-0.5c0-0.2,0-0.4,0-0.7h0c-0.2,0.3-0.4,0.6-0.6,0.8
			c-0.2,0.2-0.5,0.5-0.7,0.6c-0.2,0.2-0.6,0.3-0.9,0.4c-0.3,0.1-0.8,0.1-1.2,0.1c-0.5,0-0.9,0-1.3-0.2c-0.4-0.1-0.8-0.3-1-0.5
			c-0.3-0.2-0.5-0.5-0.7-0.9c-0.2-0.3-0.2-0.8-0.2-1.3c0-0.7,0.2-1.2,0.5-1.6c0.3-0.4,0.7-0.7,1.2-0.9c0.5-0.2,1-0.3,1.7-0.4
			c0.6-0.1,1.2-0.2,1.9-0.2c0.2,0,0.5,0,0.7-0.1c0.2,0,0.3-0.1,0.5-0.2c0.1-0.1,0.2-0.2,0.3-0.4c0.1-0.2,0.1-0.4,0.1-0.6
			c0-0.4-0.1-0.7-0.2-1s-0.3-0.5-0.5-0.6c-0.2-0.2-0.5-0.2-0.8-0.3c-0.3,0-0.6-0.1-1-0.1c-0.8,0-1.3,0.2-1.8,0.5
			c-0.5,0.3-0.7,0.9-0.8,1.7h-1.2C68.8,12.9,68.9,12.4,69.1,11.9"/>
		<path class="st1" d="M79.7,10.5v1.7h0c0.2-0.6,0.6-1,1.2-1.4c0.6-0.3,1.2-0.5,1.9-0.5s1.3,0.1,1.7,0.2c0.5,0.2,0.8,0.4,1.1,0.8
			c0.3,0.3,0.5,0.7,0.6,1.2c0.1,0.5,0.2,1,0.2,1.5v6.2h-1.2v-6c0-0.4,0-0.8-0.1-1.2c-0.1-0.3-0.2-0.7-0.4-0.9
			c-0.2-0.3-0.5-0.5-0.8-0.6c-0.3-0.2-0.7-0.2-1.2-0.2c-0.5,0-0.9,0.1-1.3,0.2c-0.4,0.2-0.7,0.4-0.9,0.7c-0.2,0.3-0.5,0.6-0.6,1
			s-0.2,0.8-0.2,1.3v5.6h-1.2v-9.6H79.7z"/>
		<path class="st1" d="M94.7,13c0.7,0,1.2-0.2,1.5-0.5c0.3-0.3,0.5-0.8,0.5-1.5c0-0.6-0.2-1.1-0.5-1.4c-0.3-0.3-0.8-0.5-1.5-0.5
			h-3.2V13L94.7,13L94.7,13z M95.8,7c0.6,0,1.1,0.1,1.6,0.3c0.5,0.2,0.9,0.5,1.2,0.8c0.3,0.3,0.6,0.7,0.8,1.2
			c0.2,0.5,0.2,0.9,0.2,1.4c0,0.8-0.2,1.5-0.5,2c-0.3,0.6-0.9,1-1.6,1.3v0c0.4,0.1,0.7,0.2,0.9,0.5c0.2,0.2,0.4,0.5,0.6,0.7
			c0.2,0.3,0.2,0.6,0.3,0.9c0.1,0.3,0.1,0.7,0.1,1c0,0.2,0,0.5,0,0.8s0,0.6,0.1,0.9c0,0.3,0.1,0.6,0.2,0.8c0.1,0.2,0.2,0.5,0.3,0.7
			h-2.9c-0.2-0.4-0.3-0.9-0.3-1.5c0-0.6-0.1-1.1-0.2-1.7c-0.1-0.7-0.3-1.2-0.6-1.5c-0.3-0.3-0.8-0.5-1.6-0.5h-2.9v5.2h-2.9V7H95.8z"
			/>
	</g>
	<rect x="102.1" y="7" class="st0" width="2.9" height="13.3"/>
	<g>
		<defs>
			<rect id="SVGID_3_" x="1.6" y="3" width="159.6" height="19"/>
		</defs>
		<clipPath id="SVGID_4_">
			<use xlink:href="#SVGID_3_"  style="overflow:visible;"/>
		</clipPath>
		<path class="st2" d="M109.8,17c0.2,0.3,0.4,0.5,0.6,0.8c0.2,0.2,0.6,0.3,1,0.4s0.8,0.1,1.1,0.1c0.3,0,0.5,0,0.8-0.1
			c0.3,0,0.6-0.1,0.8-0.2s0.5-0.3,0.7-0.5c0.2-0.2,0.2-0.5,0.2-0.8c0-0.4-0.1-0.7-0.3-0.9c-0.2-0.2-0.5-0.4-0.9-0.5
			c-0.4-0.2-0.8-0.3-1.2-0.4c-0.5-0.1-1-0.3-1.4-0.4c-0.5-0.1-1-0.3-1.5-0.5c-0.5-0.2-0.9-0.4-1.3-0.7c-0.4-0.3-0.7-0.6-0.9-1.1
			c-0.2-0.4-0.3-1-0.3-1.5c0-0.7,0.1-1.3,0.5-1.8c0.3-0.5,0.7-0.9,1.1-1.3c0.5-0.3,1-0.6,1.6-0.8c0.6-0.2,1.2-0.2,1.8-0.2
			c0.7,0,1.4,0.1,2,0.2c0.6,0.2,1.2,0.4,1.7,0.8c0.5,0.3,0.9,0.8,1.2,1.3c0.3,0.5,0.5,1.2,0.5,2h-2.8c0-0.4-0.1-0.7-0.2-1
			c-0.1-0.2-0.3-0.5-0.6-0.6C113.6,9.1,113.3,9,113,9c-0.3,0-0.6-0.1-1-0.1c-0.2,0-0.5,0-0.7,0.1c-0.2,0-0.5,0.1-0.6,0.2
			c-0.2,0.1-0.3,0.3-0.5,0.5s-0.2,0.4-0.2,0.7c0,0.3,0,0.5,0.2,0.6c0.1,0.2,0.3,0.3,0.6,0.5c0.3,0.1,0.7,0.3,1.2,0.4s1.2,0.3,2,0.5
			c0.2,0,0.6,0.1,1,0.2c0.5,0.1,0.9,0.3,1.3,0.6c0.5,0.3,0.8,0.7,1.1,1.1c0.3,0.5,0.5,1.1,0.5,1.8c0,0.6-0.1,1.2-0.3,1.7
			c-0.2,0.5-0.6,1-1,1.3c-0.5,0.4-1,0.7-1.8,0.9c-0.7,0.2-1.5,0.3-2.4,0.3c-0.8,0-1.5-0.1-2.1-0.2c-0.7-0.2-1.3-0.5-1.8-0.8
			c-0.5-0.4-1-0.9-1.3-1.5c-0.3-0.6-0.5-1.3-0.5-2.1h2.8C109.5,16.3,109.6,16.7,109.8,17"/>
	</g>
	<polygon class="st0" points="122.6,7 122.6,12.5 127.8,7 131.4,7 126.2,12.2 131.9,20.3 128.3,20.3 124.3,14.3 122.6,16 
		122.6,20.3 119.7,20.3 119.7,7 	"/>
	<polygon class="st0" points="134.2,6.7 134.2,19 141.6,19 141.6,20 132.9,20 132.9,6.7 	"/>
	<g>
		<defs>
			<rect id="SVGID_5_" x="1.6" y="3" width="159.6" height="19"/>
		</defs>
		<clipPath id="SVGID_6_">
			<use xlink:href="#SVGID_5_"  style="overflow:visible;"/>
		</clipPath>
		<path class="st3" d="M148.8,14.8c-0.1,0.1-0.2,0.2-0.4,0.3c-0.2,0-0.4,0.1-0.5,0.1c-0.5,0.1-1,0.2-1.5,0.2c-0.5,0.1-1,0.2-1.5,0.3
			c-0.4,0.1-0.8,0.3-1.1,0.6c-0.3,0.2-0.4,0.6-0.4,1.1c0,0.3,0,0.5,0.2,0.8c0.1,0.2,0.3,0.4,0.5,0.6c0.2,0.2,0.4,0.3,0.7,0.4
			c0.2,0.1,0.5,0.1,0.8,0.1c0.5,0,0.9-0.1,1.3-0.2c0.4-0.1,0.8-0.3,1.1-0.6c0.3-0.2,0.5-0.6,0.7-1c0.2-0.4,0.2-0.8,0.2-1.2V14.8z
			 M142.9,12c0.2-0.4,0.5-0.8,0.8-1c0.3-0.3,0.8-0.5,1.2-0.6c0.5-0.1,1-0.2,1.5-0.2c0.4,0,0.8,0,1.2,0.1c0.4,0.1,0.8,0.2,1.1,0.5
			c0.3,0.2,0.6,0.5,0.8,1c0.2,0.4,0.3,0.9,0.3,1.6v5.1c0,0.5,0.2,0.7,0.7,0.7c0.1,0,0.2,0,0.4-0.1v1c-0.1,0-0.2,0-0.4,0h-0.4
			c-0.3,0-0.5,0-0.7-0.1c-0.2-0.1-0.3-0.2-0.4-0.3c-0.1-0.2-0.2-0.3-0.2-0.5c0-0.2,0-0.4,0-0.7h0c-0.2,0.3-0.4,0.6-0.6,0.8
			c-0.2,0.2-0.5,0.5-0.7,0.6c-0.2,0.2-0.6,0.3-0.9,0.4c-0.3,0.1-0.8,0.1-1.2,0.1c-0.5,0-0.9,0-1.3-0.2c-0.4-0.1-0.8-0.3-1-0.5
			c-0.3-0.2-0.5-0.5-0.7-0.9c-0.2-0.3-0.2-0.8-0.2-1.3c0-0.7,0.2-1.2,0.5-1.6c0.3-0.4,0.7-0.7,1.2-0.9c0.5-0.2,1-0.3,1.7-0.4
			c0.6-0.1,1.2-0.2,1.9-0.2c0.2,0,0.5,0,0.7-0.1c0.2,0,0.3-0.1,0.5-0.2c0.1-0.1,0.2-0.2,0.3-0.4c0.1-0.2,0.1-0.4,0.1-0.6
			c0-0.4-0.1-0.7-0.2-1c-0.1-0.2-0.3-0.5-0.5-0.6c-0.3-0.2-0.5-0.2-0.8-0.3c-0.3,0-0.6-0.1-1-0.1c-0.8,0-1.3,0.2-1.8,0.5
			c-0.5,0.3-0.7,0.9-0.8,1.7h-1.2C142.6,12.8,142.7,12.4,142.9,12"/>
		<path class="st3" d="M159.9,13.8c-0.1-0.5-0.3-0.9-0.5-1.3c-0.2-0.4-0.6-0.7-1-1c-0.4-0.2-0.9-0.4-1.4-0.4c-0.6,0-1.2,0.1-1.6,0.4
			c-0.4,0.2-0.8,0.5-1,1c-0.2,0.4-0.5,0.8-0.6,1.3c-0.1,0.5-0.2,1-0.2,1.5s0,1,0.2,1.5c0.1,0.5,0.3,0.9,0.6,1.3c0.3,0.4,0.6,0.7,1,1
			c0.4,0.2,1,0.4,1.6,0.4c0.5,0,1-0.1,1.4-0.4c0.4-0.2,0.7-0.5,1-1c0.2-0.4,0.5-0.8,0.5-1.3c0.1-0.5,0.2-1,0.2-1.5
			C160,14.8,160,14.3,159.9,13.8 M153.5,6.7v5.5h0c0.1-0.3,0.3-0.7,0.5-0.9c0.3-0.2,0.5-0.5,0.8-0.7c0.3-0.2,0.6-0.3,1-0.4
			c0.3-0.1,0.7-0.1,1-0.1c0.8,0,1.4,0.1,1.9,0.4c0.5,0.3,1,0.6,1.3,1.1c0.4,0.5,0.6,1,0.8,1.6c0.2,0.6,0.2,1.3,0.2,2
			c0,0.7-0.1,1.3-0.2,2c-0.2,0.6-0.5,1.2-0.8,1.6c-0.4,0.5-0.8,0.8-1.3,1.1c-0.5,0.2-1.2,0.4-1.9,0.4c-0.8,0-1.5-0.2-2.1-0.5
			c-0.6-0.4-1-0.9-1.3-1.5h0v1.8h-1.1V6.8L153.5,6.7L153.5,6.7z"/>
		<line class="st4" x1="32.5" y1="3" x2="32.5" y2="22"/>
		<line class="st4" x1="32.5" y1="3" x2="32.5" y2="22"/>
	</g>
</g>
</svg>
