<?xml version="1.0" encoding="utf-8"?>
<!-- Generator: Adobe Illustrator 18.0.0, SVG Export Plug-In . SVG Version: 6.00 Build 0)  -->
<!DOCTYPE svg PUBLIC "-//W3C//DTD SVG 1.1//EN" "http://www.w3.org/Graphics/SVG/1.1/DTD/svg11.dtd">
<svg version="1.1" id="Layer_1" xmlns="http://www.w3.org/2000/svg" xmlns:xlink="http://www.w3.org/1999/xlink" x="0px" y="0px"
	 viewBox="0 0 1024 1024" enable-background="new 0 0 1024 1024" xml:space="preserve">
<g id="Layer_2">
</g>
<title>marker-11.svg</title>
<title>marker-11.svg</title>
<path d="M831.1,431.8c18.3,18.3,28.2,42.7,28.2,68.3c0,25.6-10.2,49.5-28.2,67.4L579.4,819.2c-17.9,17.9-41.8,27.7-67.4,27.7
	c-25.6,0-49.9-9.8-67.8-27.7L192.4,567.5c-18.3-18.3-28.2-42.7-28.2-68.3c0-25.6,10.2-49.5,28.2-67.4l251.7-251.7
	c18.3-18.3,42.2-28.2,67.8-28.2c25.6,0,49.5,10.2,67.4,28.2L831.1,431.8z"/>
<path fill="#FFFFFF" d="M831.1,431.8L579.4,180.1c-17.9-18.3-41.8-28.2-67.4-28.2c-25.6,0-49.9,10.2-67.8,28.2L192.4,431.8
	c-17.9,17.9-28.2,41.8-28.2,67.4c0,25.6,9.8,49.9,28.2,68.3l251.7,251.7c18.3,17.9,42.2,27.7,67.8,27.7c25.6,0,49.5-9.8,67.4-27.7
	l251.7-251.7c17.9-17.9,28.2-41.8,28.2-67.4C859.7,474,849.5,449.7,831.1,431.8z M840.5,576.4L588.8,828.2
	c-20.5,20.5-47.8,31.6-76.8,31.6c-29,0-56.3-11.1-76.8-31.6L183.5,576.4c-20.5-20.5-32-48.2-32-77.2c0-29,11.5-55.9,32-76.4
	l251.7-251.7c20.5-20.5,47.8-32,76.8-32c29,0,56.3,11.5,76.8,32l251.7,251.7c20.5,20.5,32,48.2,32,77.2
	C872.1,528.6,861,555.9,840.5,576.4z"/>
<g>
	<path fill="#FFFFFF" d="M695.3,480.5H255.2l149.1-149.7c9.4-9.4,24.6-9.4,33.9-0.1c9.4,9.4,9.4,24.6,0.1,33.9l-67.6,67.9h324.5
		c13.3,0,24,10.7,24,24S708.6,480.5,695.3,480.5z"/>
</g>
<g>
	<path fill="#FFFFFF" d="M600.6,674.7c-6.1,0-12.3-2.3-16.9-7c-9.4-9.4-9.4-24.5-0.1-33.9l67.6-67.9H326.7c-13.3,0-24-10.7-24-24
		s10.7-24,24-24h440.1L617.6,667.6C612.9,672.3,606.8,674.7,600.6,674.7z"/>
</g>
</svg>
