<?xml version="1.0" encoding="utf-8"?>
<!-- Generator: Adobe Illustrator 21.0.0, SVG Export Plug-In . SVG Version: 6.00 Build 0)  -->
<svg version="1.1" id="Layer_1" xmlns="http://www.w3.org/2000/svg" xmlns:xlink="http://www.w3.org/1999/xlink" x="0px" y="0px"
	 viewBox="0 0 50 50" style="enable-background:new 0 0 50 50;" xml:space="preserve">
<style type="text/css">
	.st0{fill:#FD9039;}
	.st1{fill:#6BCAFE;}
	.st2{fill:#CB7DAD;}
	.st3{fill:#E28A81;}
	.st4{fill:#D98B86;}
	.st5{fill:#D47D92;}
	.st6{fill:#EA9378;}
	.st7{fill:#FBA464;}
	.st8{fill:#EF9872;}
	.st9{fill:#F7A069;}
	.st10{fill:#D07997;}
	.st11{fill:#CA749E;}
	.st12{fill:#6BC2FA;}
	.st13{fill:#5AB9F8;}
	.st14{fill:#D9828C;}
	.st15{fill:#C871A1;}
	.st16{fill:#F39C6D;}
	.st17{fill:#DC8688;}
	.st18{fill:#D48B8A;}
	.st19{fill:#6BC7FC;}
	.st20{fill:#CE8D8D;}
	.st21{fill:#5AAFF4;}
	.st22{fill:#E6907C;}
	.st23{fill:#E38C80;}
	.st24{fill:#CD779A;}
	.st25{fill:#E08984;}
	.st26{fill:#6BBCF7;}
	.st27{fill:#7CB0EE;}
	.st28{fill:#8376C4;}
	.st29{fill:#7E85D8;}
	.st30{fill:#5A81DE;}
	.st31{fill:#5A8DE3;}
	.st32{fill:#7A77CB;}
	.st33{fill:#7377D1;}
	.st34{fill:#8585D2;}
	.st35{fill:#CA8D91;}
	.st36{fill:#7CA7EA;}
	.st37{fill:#9F74AB;}
	.st38{fill:#5AA6EF;}
	.st39{fill:#8B76BD;}
	.st40{fill:#9375B7;}
	.st41{fill:#5A9FEC;}
	.st42{fill:#5A75D8;}
	.st43{fill:#E47C6E;}
	.st44{fill:#5A98E8;}
	.st45{fill:#7C9FE6;}
	.st46{fill:#5AAEF4;}
	.st47{fill:#9875B2;}
	.st48{fill:#7C98E3;}
	.st49{fill:#5AA8F0;}
	.st50{fill:#7C8ADD;}
	.st51{fill:#7C90E0;}
	.st52{fill:#485CCF;}
	.st53{fill:#FD7608;}
	.st54{fill:#DC594D;}
	.st55{fill:#FB730B;}
	.st56{fill:#46BAFB;}
	.st57{fill:#6F66C0;}
	.st58{fill:#C05F97;}
	.st59{fill:#D65C50;}
	.st60{fill:#D56E65;}
	.st61{fill:#D96D61;}
	.st62{fill:#CB6E6B;}
	.st63{fill:#D06E68;}
	.st64{fill:#C85C79;}
	.st65{fill:#CC6074;}
	.st66{fill:#E97C51;}
	.st67{fill:#E37758;}
	.st68{fill:#E67955;}
	.st69{fill:#F58943;}
	.st70{fill:#ED804D;}
	.st71{fill:#F08448;}
	.st72{fill:#C5587D;}
	.st73{fill:#C15581;}
	.st74{fill:#BE5185;}
	.st75{fill:#46B3F9;}
	.st76{fill:#46ACF6;}
	.st77{fill:#319EF2;}
	.st78{fill:#31A4F5;}
	.st79{fill:#D0636F;}
	.st80{fill:#D2666C;}
	.st81{fill:#BB4F88;}
	.st82{fill:#D56969;}
	.st83{fill:#C66F6E;}
	.st84{fill:#C17072;}
	.st85{fill:#3199F0;}
	.st86{fill:#3192ED;}
	.st87{fill:#E0745C;}
	.st88{fill:#D86C65;}
	.st89{fill:#DC7060;}
	.st90{fill:#319BF1;}
	.st91{fill:#317DE2;}
	.st92{fill:#5B90E5;}
	.st93{fill:#59A1ED;}
	.st94{fill:#6954B1;}
	.st95{fill:#6153B5;}
	.st96{fill:#5D66CE;}
	.st97{fill:#6466C8;}
	.st98{fill:#3167D8;}
	.st99{fill:#315FD4;}
	.st100{fill:#3175DF;}
	.st101{fill:#316EDB;}
	.st102{fill:#5A54BD;}
	.st103{fill:#2A2AB3;}
	.st104{fill:#4A55CA;}
	.st105{fill:#6966C5;}
	.st106{fill:#905290;}
	.st107{fill:#8B5294;}
	.st108{fill:#865399;}
	.st109{fill:#318DEA;}
	.st110{fill:#7753A5;}
	.st111{fill:#6F54AB;}
	.st112{fill:#7D53A0;}
	.st113{fill:#3188E8;}
	.st114{fill:#3182E5;}
	.st115{fill:#1A38C6;}
	.st116{fill:#3155D0;}
	.st117{fill:#317CE2;}
	.st118{fill:#5B7EDC;}
	.st119{fill:#5B86E0;}
	.st120{fill:#3198F0;}
	.st121{fill:#81539C;}
	.st122{fill:#5B76D9;}
	.st123{fill:#318EEB;}
	.st124{fill:#5B6DD4;}
	.st125{fill:#1A33C3;}
	.st126{fill:#1A2CBF;}
	.st127{fill:#DC554E;}
	.st128{fill:#DC5151;}
	.st129{fill:#D9594F;}
	.st130{fill:#F8710E;}
	.st131{fill:#7465BC;}
	.st132{fill:#6854B1;}
	.st133{fill:#4840B3;}
	.st134{fill:#3E29A2;}
	.st135{fill:#6E54AC;}
	.st136{fill:#D45753;}
	.st137{fill:#D25C52;}
	.st138{fill:#CE5D55;}
	.st139{fill:#CB5D57;}
	.st140{fill:#A55182;}
	.st141{fill:#9F3D71;}
	.st142{fill:#BD3654;}
	.st143{fill:#B8325A;}
	.st144{fill:#C13A4F;}
	.st145{fill:#E65F23;}
	.st146{fill:#E35B27;}
	.st147{fill:#DC5430;}
	.st148{fill:#E0582B;}
	.st149{fill:#F56D12;}
	.st150{fill:#F16917;}
	.st151{fill:#EA621F;}
	.st152{fill:#ED661B;}
	.st153{fill:#551072;}
	.st154{fill:#58106F;}
	.st155{fill:#80539F;}
	.st156{fill:#7653A5;}
	.st157{fill:#46A7F3;}
	.st158{fill:#C63E4A;}
	.st159{fill:#CA4245;}
	.st160{fill:#CC4542;}
	.st161{fill:#A05185;}
	.st162{fill:#9A5289;}
	.st163{fill:#94528D;}
	.st164{fill:#1A86EB;}
	.st165{fill:#1A7FE8;}
	.st166{fill:#D54D38;}
	.st167{fill:#D85134;}
	.st168{fill:#D1493D;}
	.st169{fill:#1A68DC;}
	.st170{fill:#1A6EDF;}
	.st171{fill:#3176DF;}
	.st172{fill:#3184E6;}
	.st173{fill:#3170DC;}
	.st174{fill:#318AE9;}
	.st175{fill:#44299C;}
	.st176{fill:#492998;}
	.st177{fill:#3F29A1;}
	.st178{fill:#3A2AA5;}
	.st179{fill:#3341C5;}
	.st180{fill:#3D40BC;}
	.st181{fill:#3741C1;}
	.st182{fill:#3145C8;}
	.st183{fill:#4340B7;}
	.st184{fill:#1A4ED0;}
	.st185{fill:#1A55D3;}
	.st186{fill:#1A43CB;}
	.st187{fill:#1A4ACE;}
	.st188{fill:#1A5DD7;}
	.st189{fill:#1A64DB;}
	.st190{fill:#1A5BD6;}
	.st191{fill:#2E2AAE;}
	.st192{fill:#322AAB;}
	.st193{fill:#232BB8;}
	.st194{fill:#212CAB;}
	.st195{fill:#1D2BBD;}
	.st196{fill:#752774;}
	.st197{fill:#6C277B;}
	.st198{fill:#672880;}
	.st199{fill:#1A7AE5;}
	.st200{fill:#532990;}
	.st201{fill:#4F2993;}
	.st202{fill:#56288D;}
	.st203{fill:#5C2889;}
	.st204{fill:#622884;}
	.st205{fill:#1A74E2;}
	.st206{fill:#1A3FC9;}
	.st207{fill:#0325BF;}
	.st208{fill:#3165D7;}
	.st209{fill:#315DD4;}
	.st210{fill:#316CDA;}
	.st211{fill:#3155CF;}
	.st212{fill:#314CCC;}
	.st213{fill:#1127B7;}
	.st214{fill:#D85551;}
	.st215{fill:#D95153;}
	.st216{fill:#CD242B;}
	.st217{fill:#43299E;}
	.st218{fill:#48299A;}
	.st219{fill:#392AA6;}
	.st220{fill:#332AAA;}
	.st221{fill:#291196;}
	.st222{fill:#2F1191;}
	.st223{fill:#C92A2B;}
	.st224{fill:#D05A54;}
	.st225{fill:#C52E2B;}
	.st226{fill:#970A44;}
	.st227{fill:#9C0A40;}
	.st228{fill:#A1093D;}
	.st229{fill:#AD3B67;}
	.st230{fill:#A53C6D;}
	.st231{fill:#800D53;}
	.st232{fill:#862769;}
	.st233{fill:#840C4F;}
	.st234{fill:#8B0C4C;}
	.st235{fill:#6B0F61;}
	.st236{fill:#710E5D;}
	.st237{fill:#760E5A;}
	.st238{fill:#7A0D57;}
	.st239{fill:#610F68;}
	.st240{fill:#5C0F6C;}
	.st241{fill:#671267;}
	.st242{fill:#C11D36;}
	.st243{fill:#BD1C3A;}
	.st244{fill:#B91B3E;}
	.st245{fill:#B51A40;}
	.st246{fill:#B21943;}
	.st247{fill:#CB202E;}
	.st248{fill:#C72131;}
	.st249{fill:#C41F33;}
	.st250{fill:#FEFEFE;}
	.st251{fill:#4F1077;}
	.st252{fill:#5B2A8C;}
	.st253{fill:#910A45;}
	.st254{fill:#8B1252;}
	.st255{fill:#A8174C;}
	.st256{fill:#7E276E;}
	.st257{fill:#AD1847;}
	.st258{fill:#332486;}
	.st259{fill:#39237F;}
	.st260{fill:#37279B;}
	.st261{fill:#362AA8;}
	.st262{fill:#1712A6;}
	.st263{fill:#252AB6;}
	.st264{fill:#1A30C2;}
	.st265{fill:#0034C8;}
	.st266{fill:#0039CA;}
	.st267{fill:#003FCD;}
	.st268{fill:#0043CF;}
	.st269{fill:#002EC5;}
	.st270{fill:#022AC3;}
	.st271{fill:#1A55D4;}
	.st272{fill:#0148D2;}
	.st273{fill:#292592;}
	.st274{fill:#670F63;}
	.st275{fill:#620F68;}
	.st276{fill:#6C0F60;}
	.st277{fill:#5C0F6D;}
	.st278{fill:#561071;}
	.st279{fill:#31106F;}
	.st280{fill:#44107C;}
	.st281{fill:#4E1077;}
	.st282{fill:#1A4DCF;}
	.st283{fill:#1A51D1;}
	.st284{fill:#1A44CC;}
	.st285{fill:#1A3CC7;}
	.st286{fill:#1A36C5;}
	.st287{fill:#C8252E;}
	.st288{fill:#34118D;}
	.st289{fill:#38118A;}
	.st290{fill:#23129B;}
	.st291{fill:#1A12A3;}
	.st292{fill:#1F129F;}
	.st293{fill:#401183;}
	.st294{fill:#3D1186;}
	.st295{fill:#AE0834;}
	.st296{fill:#B20832;}
	.st297{fill:#A4093B;}
	.st298{fill:#AA0837;}
	.st299{fill:#7B0D56;}
	.st300{fill:#6E0A3E;}
	.st301{fill:#760E59;}
	.st302{fill:#75093B;}
	.st303{fill:#B6072F;}
	.st304{fill:#421081;}
	.st305{fill:#4A107B;}
	.st306{fill:#45107F;}
	.st307{fill:#48107D;}
	.st308{fill:#0A13B0;}
	.st309{fill:#39118A;}
	.st310{fill:#3C1187;}
	.st311{fill:#34118E;}
	.st312{fill:#551073;}
	.st313{fill:#0026C1;}
	.st314{fill:#301191;}
	.st315{fill:#511076;}
	.st316{fill:#5A106E;}
	.st317{fill:#2C1194;}
	.st318{fill:#271198;}
	.st319{fill:#21129B;}
	.st320{fill:#0513B5;}
	.st321{fill:#4C107A;}
	.st322{fill:#0113B7;}
	.st323{fill:#1212A9;}
	.st324{fill:#0019BB;}
	.st325{fill:#0F12AC;}
	.st326{fill:#5F0F6A;}
	.st327{fill:#001EBE;}
	.st328{fill:#170F84;}
	.st329{fill:#1D0F7E;}
	.st330{fill:#5D0B4C;}
	.st331{fill:#260F77;}
	.st332{fill:#670A43;}
	.st333{fill:#511057;}
	.st334{fill:#460E5C;}
	.st335{fill:#2E1071;}
	.st336{fill:#36106B;}
	.st337{fill:#380E69;}
	.st338{fill:#3E0E62;}
	.st339{fill:#3F1065;}
	.st340{fill:#531266;}
	.st341{fill:#4B1565;}
	.st342{fill:#570E60;}
	.st343{fill:#490F6C;}
	.st344{fill:#3C0F75;}
	.st345{fill:#470E6D;}
</style>
<path class="st0" d="M50,25.7c0,4.5-1.3,8.6-3.6,12.4c-1.2,2-2.6,3.7-4.3,5.3c-0.3-0.1-0.2-0.3-0.1-0.4c0.1-0.4,0.2-0.7,0.3-1.1
	c0-0.1,0.1-0.2,0.2-0.3c2.7-2.8,4.5-6.1,5.6-9.8c0.6-2.2,1-4.5,0.9-6.8c0-0.3-0.1-0.7,0.1-1c0.3-0.2,0.3,0.1,0.4,0.2
	C49.7,24.7,49.9,25.2,50,25.7z"/>
<path class="st1" d="M1.4,33.1c-0.6-1.6-1-3.3-1.2-5C0,26.4,0,24.6,0.1,22.8c0.1-1.4,0.3-2.9,0.8-4.3c0.3,0,0.3,0.3,0.3,0.5
	c0,0.4,0,0.9,0.2,1.3c0,0.8-0.2,1.5-0.3,2.3c-0.3,2.4-0.1,4.7,0.3,7c0.1,0.4,0.2,0.8,0.2,1.2c-0.1,0.6-0.1,1.3-0.1,1.9
	C1.6,32.9,1.7,33.1,1.4,33.1z"/>
<path class="st2" d="M16.3,1.6c1.3-0.6,2.8-0.9,4.2-1.2c0.7-0.1,1.4-0.2,2.2-0.3C22.3,0.5,22,1,21.5,1.2C20.3,1.4,19.1,1.7,18,2
	c-0.1,0-0.2,0-0.3,0c-0.3,0-0.6-0.1-1-0.2C16.6,1.8,16.4,1.8,16.3,1.6z"/>
<path class="st3" d="M41.7,43.7c-1.3,1.2-2.7,2.3-4.3,3.1C37,46.7,37.1,46.3,37,46c0.1-0.4,0.5-0.4,0.8-0.6c0.8-0.5,1.5-1,2.2-1.6
	c0.1-0.1,0.1-0.1,0.2-0.1c0.1,0,0.2,0,0.2,0C40.8,43.7,41.3,43.4,41.7,43.7z"/>
<path class="st4" d="M37,46.1c0.3,0.2,0,0.6,0.3,0.7c-1.1,0.7-2.2,1.2-3.4,1.6c-0.2,0.1-0.3,0-0.4-0.2c0-0.2,0-0.3,0-0.5
	c0.1-0.3,0.3-0.3,0.5-0.4c0.7-0.3,1.4-0.6,2.1-1C36.5,46.2,36.7,45.9,37,46.1z"/>
<path class="st5" d="M33.4,1.5c1.2,0.4,2.3,0.8,3.4,1.5c-0.1,0.2-0.2,0.7-0.6,0.4c0,0.1,0,0.1-0.1,0.1c-0.5,0-0.9-0.3-1.3-0.5
	c-0.2-0.1-0.3-0.2-0.5-0.2c-0.5-0.3-1.2-0.4-1.7-0.7C32.7,1.7,33,1.5,33.4,1.5z"/>
<path class="st6" d="M45.6,10.8c0.7,0.9,1.2,1.8,1.7,2.8C47,14,46.7,14,46.4,13.9c-0.1-0.1-0.2-0.2-0.3-0.3
	c-0.2-0.4-0.5-0.8-0.7-1.2c-0.1-0.2-0.3-0.4-0.4-0.7c-0.1-0.1-0.2-0.3-0.1-0.5C45.1,11.2,45.2,10.7,45.6,10.8z"/>
<path class="st7" d="M50,25.7c-0.4-0.6-0.5-1.3-0.9-1.8c-0.1,0-0.1-0.1-0.1-0.2c-0.1-0.6-0.2-1.2-0.2-1.8c0.3-0.4,0.6-0.5,1-0.3
	C50.1,22.9,50,24.3,50,25.7z"/>
<path class="st8" d="M46.4,13.9c0.3,0,0.6-0.1,0.9-0.2c0.5,0.8,0.9,1.8,1.2,2.7c-0.3,0.1-0.5,0.5-0.8,0.4c-0.3-0.4-0.4-0.9-0.7-1.4
	c-0.1-0.4-0.3-0.7-0.5-1C46.4,14.2,46.3,14,46.4,13.9z"/>
<path class="st9" d="M49.8,21.6c-0.3-0.1-0.5,0-0.6,0.2c-0.1,0.1-0.2,0.1-0.3,0c-0.2-0.2-0.2-0.4-0.2-0.6c-0.1-0.5-0.2-1.1-0.3-1.6
	c0-0.3-0.2-0.5-0.1-0.8c0.3,0,0.6-0.2,1-0.1C49.5,19.6,49.7,20.6,49.8,21.6z"/>
<path class="st10" d="M33.4,1.5c-0.3,0.1-0.6,0.4-0.8,0.6c-0.1,0.1-0.3,0-0.4,0c-0.8-0.3-1.6-0.4-2.3-0.7c-0.2-0.4,0.2-0.6,0.3-0.9
	C31.3,0.8,32.4,1,33.4,1.5z"/>
<path class="st11" d="M24.7,0c1.2-0.1,2.5,0.1,3.7,0.2c0,0.2-0.2,0.3-0.3,0.4c-0.2,0.1-0.4,0.3-0.5,0.5c-0.3,0.1-0.6-0.1-0.8,0
	c-0.2,0-0.4,0-0.6,0c-0.4-0.1-0.7-0.1-1.1-0.1c-0.2,0-0.4,0-0.5-0.2c-0.1-0.2,0.1-0.3,0.2-0.4C24.8,0.2,24.7,0.1,24.7,0z"/>
<path class="st12" d="M1.4,33.1c0.3-0.3,0.1-0.6,0.1-0.8c-0.1-0.5,0.1-0.9,0.1-1.4c0.1,0,0.1,0,0.1,0c0.3,0.8,0.5,1.7,0.9,2.6
	c0.1,0.2,0.2,0.5,0.2,0.8c0,0.3-0.1,0.7-0.1,1c0,0.1,0,0.4-0.2,0.4C1.9,34.9,1.6,34,1.4,33.1z"/>
<path class="st13" d="M1.6,16.4c0.3-1,0.8-2,1.3-2.9c0.4,0.2,0.3,0.7,0.4,1c0,0.2-0.1,0.3-0.1,0.4c-0.4,0.8-0.6,1.7-1.1,2.5
	c0,0-0.1,0-0.1,0C1.7,17.1,1.6,16.7,1.6,16.4z"/>
<path class="st14" d="M36.1,3.5c0.3,0,0.4-0.4,0.7-0.5c1,0.4,1.9,1,2.7,1.7c-0.3,0.1-0.7,0.1-1,0.3c-0.2,0-0.3-0.1-0.5-0.2
	c-0.5-0.4-1.1-0.7-1.7-1C36.3,3.8,36.1,3.7,36.1,3.5z"/>
<path class="st15" d="M24.7,0c0.1,0,0.2,0.1,0.3,0.1c0,0,0,0.1,0,0.1c-0.1,0.2-0.5,0.2-0.4,0.5c0.1,0.2,0.4,0.1,0.7,0.1
	c0.3,0,0.5-0.1,0.8,0.1c-0.3,0.3-0.7,0.1-1.1,0.2c-0.2,0-0.4,0-0.6,0c-0.9-0.1-1.7,0.2-2.6,0.1c0,0,0,0-0.1-0.1
	c0.4-0.3,0.6-0.8,1.1-1c0.3,0,0.6,0,0.9,0c0.3-0.1,0.6,0,0.9-0.1C24.5,0,24.6,0,24.7,0z"/>
<path class="st16" d="M49.2,18.7c-0.3,0-0.5,0.5-0.9,0.1c-0.4-0.4-0.4-1-0.6-1.5c0-0.2-0.1-0.4,0-0.5c0.3-0.1,0.4-0.6,0.8-0.4
	C48.8,17.1,49.1,17.9,49.2,18.7z"/>
<path class="st17" d="M38.5,5c0.2-0.4,0.6-0.4,1-0.3c0.7,0.4,1.3,0.8,1.8,1.4c-0.2,0.3-0.5,0.3-0.8,0.5C40,6.4,39.7,6,39.3,5.7
	C39,5.5,38.7,5.4,38.5,5z"/>
<path class="st18" d="M33.6,47.7c0.1,0.1,0.1,0.3,0.1,0.4c-0.1,0.2,0.1,0.3,0.2,0.3c-0.8,0.4-1.6,0.6-2.4,0.8
	c-0.2,0.1-0.3,0-0.3-0.2c0-0.2-0.1-0.3-0.1-0.5c0.3-0.4,0.7-0.3,1.1-0.5c0.3-0.1,0.6-0.2,0.9-0.3C33.3,47.7,33.4,47.6,33.6,47.7z"/>
<path class="st19" d="M1.6,16.4c0.2,0.3,0.3,0.7,0.4,1c0.2,0.2,0.1,0.4,0,0.6c-0.1,0.4-0.2,0.8-0.3,1.2c-0.2,0.4-0.1,0.8-0.4,1.1
	c-0.3-0.2-0.2-0.5-0.2-0.8c0-0.3,0.1-0.7-0.2-0.9C1,17.8,1.3,17.1,1.6,16.4z"/>
<path class="st20" d="M31.1,48.5c0.2,0,0.2,0.2,0.2,0.4c0,0.1,0,0.3,0.2,0.3c-0.8,0.3-1.6,0.4-2.4,0.5c-0.4-0.1-0.5-0.2-0.4-0.8
	c0.4-0.3,0.9-0.2,1.3-0.4c0.2-0.1,0.5-0.1,0.7-0.2C30.9,48.4,31,48.4,31.1,48.5z"/>
<path class="st21" d="M3.2,14.5c-0.1-0.3-0.2-0.7-0.3-1c0.4-0.8,0.9-1.6,1.4-2.4c0.2,0.5,0.1,0.9,0.1,1.4c0,0.1-0.1,0.2-0.1,0.3
	c-0.2,0.4-0.4,0.7-0.6,1.1C3.5,14.1,3.5,14.4,3.2,14.5z"/>
<path class="st22" d="M45.6,10.8c-0.3,0.1-0.3,0.6-0.7,0.4c-0.1,0-0.2,0-0.3-0.1c-0.4-0.5-0.8-1-1.1-1.6c0.1-0.4,0.4-0.5,0.8-0.5
	C44.8,9.6,45.2,10.2,45.6,10.8z"/>
<path class="st23" d="M44.3,9.1c-0.2,0.2-0.6,0.1-0.7,0.5c-0.1,0-0.1,0-0.2-0.1c-0.4-0.5-0.8-0.9-1.2-1.3c-0.1-0.1-0.1-0.2-0.1-0.3
	c0.1-0.4,0.3-0.6,0.7-0.5C43.4,8,43.9,8.5,44.3,9.1z"/>
<path class="st24" d="M27.6,1c-0.1-0.2,0-0.3,0.1-0.3c0.3-0.1,0.4-0.3,0.7-0.4c0.6,0.1,1.2,0.2,1.8,0.3c0.2,0.4-0.3,0.5-0.3,0.8
	c-0.1,0.1-0.1,0.1-0.2,0.1C29,1.3,28.2,1.3,27.6,1z"/>
<path class="st25" d="M42.9,7.5c-0.3,0-0.5,0.3-0.7,0.5c-0.2,0.1-0.3-0.1-0.5-0.3c-0.3-0.3-0.6-0.6-0.9-0.9
	c-0.1-0.1-0.2-0.2-0.2-0.4c0.2-0.2,0.5-0.3,0.8-0.4C41.9,6.5,42.4,7,42.9,7.5z"/>
<path class="st26" d="M2.4,35.6c0.3-0.2,0-0.5,0.1-0.7c0.1-0.2,0.1-0.5,0.1-0.7c0.3,0,0.3,0.3,0.4,0.5c0.2,0.3,0.3,0.6,0.4,0.9
	c0.1,0.1,0.1,0.3,0.1,0.5c0,0.5,0.2,0.9,0.2,1.4c0,0.2,0.1,0.4,0,0.6C3.2,37.3,2.7,36.5,2.4,35.6z"/>
<path class="st27" d="M4.8,10.3c0.6-0.9,1.3-1.8,2.1-2.5C7,7.9,7.2,8,7.1,8.1C6.9,8.4,7.3,8.4,7.3,8.6C7.3,8.9,7,9,6.9,9.2
	C6.8,9.3,6.7,9.4,6.5,9.5c-0.5,0.3-0.9,0.6-1.4,0.8C5,10.4,4.9,10.4,4.8,10.3z"/>
<path class="st28" d="M19.8,49.5c-0.8-0.1-1.6-0.3-2.3-0.6c0.3-0.2,0.3-0.5,0.5-0.7c0.4-0.1,0.7,0.1,1.1,0.2c0.3,0.2,0.8,0,1,0.4
	C20.2,49.1,20.4,49.5,19.8,49.5z"/>
<path class="st29" d="M13,3.1c0.6-0.4,1.2-0.7,1.8-0.9c0.4,0,0.4,0.4,0.5,0.6c-0.1,0.3-0.5,0.3-0.7,0.5c-0.4,0.2-0.8,0.4-1.2,0.6
	C13.4,4,13.2,4.1,13,4C12.9,3.7,13.1,3.4,13,3.1z"/>
<path class="st30" d="M10.7,45.6c-0.6-0.4-1.2-0.8-1.7-1.3c-0.2-0.3-0.1-0.6-0.1-1c0.4-0.2,0.5,0.2,0.8,0.4c0.3,0.3,0.7,0.5,0.9,0.8
	C11,44.9,10.9,45.2,10.7,45.6z"/>
<path class="st31" d="M9,43.3c0,0.3,0,0.7,0,1c-0.6-0.4-1.1-0.9-1.6-1.5c0-0.3-0.1-0.7,0.1-1c0.4,0,0.4,0.4,0.7,0.5
	C8.5,42.5,8.7,42.7,9,43C9,43.1,9.1,43.2,9,43.3z"/>
<path class="st32" d="M18.1,48.3c-0.2,0.2,0,0.7-0.5,0.6c-0.6-0.1-1.2-0.3-1.7-0.6c0-0.3-0.2-0.6,0.3-0.8c0.6,0.1,1.1,0.4,1.7,0.5
	C17.9,48.1,18.1,48.1,18.1,48.3z"/>
<path class="st33" d="M16,47.6c-0.2,0.2-0.3,0.3-0.1,0.5c0.1,0.1-0.1,0.1-0.1,0.2c-1-0.3-1.9-0.8-2.8-1.3c0.1-0.1,0.1-0.1,0.2-0.1
	c0.6,0,1.2,0.2,1.8,0.2c0.2,0,0.3,0.1,0.5,0.1C15.7,47.3,16,47.3,16,47.6z"/>
<path class="st34" d="M15.3,2.8c-0.3-0.1-0.2-0.5-0.5-0.6c0.5-0.3,1-0.5,1.5-0.6c0.5,0.2,1,0.2,1.4,0.3c-0.1,0.3-0.4,0.2-0.6,0.4
	c-0.4,0.1-0.7,0.3-1.1,0.4C15.8,2.8,15.6,2.9,15.3,2.8z"/>
<path class="st35" d="M28.8,49c0.1,0.3-0.1,0.6,0.3,0.7c-0.9,0.2-1.8,0.3-2.7,0.3c0-0.4,0.4-0.4,0.6-0.6c0.2-0.1,0.3-0.3,0.5-0.3
	c0,0,0.1,0,0.2,0C28,49,28.4,48.7,28.8,49z"/>
<path class="st36" d="M7.2,8.6C6.9,8.4,7.1,8,6.9,7.8c0.5-0.6,1-1.1,1.6-1.6c0.2,0.4,0,0.8,0,1.2c-0.3,0.4-0.6,0.7-0.9,1
	C7.5,8.6,7.4,8.7,7.2,8.6z"/>
<path class="st37" d="M27.5,49.1c-0.3,0.4-0.8,0.5-1.1,0.9c-0.5,0-0.9,0-1.4,0c-0.2-0.3-0.2-0.5,0-0.8c0.3-0.2,0.7-0.1,1.1-0.1
	c0.3,0,0.6,0,0.9,0C27.1,49.1,27.3,48.9,27.5,49.1z"/>
<path class="st38" d="M5.2,40.3c-0.4-0.4-0.7-0.9-1-1.4c-0.1-0.4-0.1-0.8,0-1.1c0.1-0.2,0.2-0.1,0.3,0c0.1,0.1,0.2,0.3,0.3,0.5
	c0.2,0.3,0.4,0.6,0.5,1c0.1,0.3,0.1,0.5,0,0.8C5.4,40.1,5.4,40.3,5.2,40.3z"/>
<path class="st39" d="M19.8,49.5c0.4-0.1,0.1-0.5,0.2-0.7c0.1-0.1,0.2-0.1,0.3-0.1c0.5,0.1,1,0.1,1.5,0.3c0,0,0.1,0.1,0.1,0.2
	c0,0.2,0,0.3,0,0.5c0,0.2-0.1,0.3-0.3,0.2C21,49.8,20.4,49.7,19.8,49.5z"/>
<path class="st40" d="M21.6,49.8c0.4-0.1,0.1-0.5,0.3-0.7c0.5-0.3,1,0,1.5,0c0.1,0,0.1,0.1,0.2,0.1c0.1,0.3,0.2,0.5,0,0.8
	C22.8,50,22.2,49.9,21.6,49.8z"/>
<path class="st41" d="M5.2,40.3c0.3-0.3,0.1-0.7,0.1-1.1c0,0,0.1,0,0.1,0c0.3,0.3,0.5,0.6,0.7,0.9c0.1,0.2,0.3,0.3,0.3,0.6
	c-0.1,0.4,0,0.8-0.1,1.1C6,41.3,5.5,40.8,5.2,40.3z"/>
<path class="st42" d="M10.7,45.6c0-0.3,0.1-0.7-0.1-1c0,0,0.1-0.1,0.1-0.1c0.4,0.2,0.7,0.5,1.1,0.7c0.1,0.1,0.2,0.2,0.2,0.3
	c0.1,0.2,0.2,0.4,0.3,0.6c0.1,0.2,0.2,0.3,0,0.5C11.7,46.3,11.2,45.9,10.7,45.6z"/>
<path class="st43" d="M41.7,43.7c-0.4-0.1-0.9,0.2-1.3,0.1c-0.1-0.2,0.1-0.3,0.2-0.4c0.5-0.4,1-0.9,1.5-1.4c0.1-0.1,0.2-0.2,0.3-0.1
	c-0.1,0.4-0.2,0.8-0.3,1.1c0,0.1-0.1,0.2,0,0.4C42,43.5,41.8,43.6,41.7,43.7z"/>
<path class="st44" d="M6.4,41.7c-0.1-0.4,0-0.8,0-1.2c0,0,0.1,0,0.1,0c0.3,0.2,0.5,0.5,0.7,0.8c0.1,0.1,0.3,0.3,0.2,0.5
	c-0.1,0.3,0.2,0.7-0.1,1C7,42.5,6.7,42.1,6.4,41.7z"/>
<path class="st45" d="M8.4,7.4c0-0.4,0.1-0.8,0.1-1.2c0.4-0.4,0.8-0.7,1.2-1c0.3,0.3,0,0.6,0.1,0.9c0,0,0,0.1,0,0.1
	C9.4,6.7,9,7.1,8.4,7.4C8.5,7.4,8.4,7.4,8.4,7.4z"/>
<path class="st46" d="M4.3,37.6c0,0.4,0.1,0.8-0.1,1.2c-0.2-0.2-0.4-0.5-0.5-0.8c-0.1-0.7-0.2-1.4-0.3-2c0.4,0.1,0.3,0.5,0.6,0.7
	c0.1,0.3,0.3,0.5,0.4,0.7C4.4,37.5,4.4,37.6,4.3,37.6z"/>
<path class="st47" d="M23.5,50c0-0.3,0-0.5,0-0.8c0.2-0.2,0.5-0.1,0.8-0.1c0.2,0,0.5,0,0.7,0.1c0,0,0,0,0.1,0.1c0,0.3,0,0.5,0,0.8
	C24.5,50,24,50,23.5,50z"/>
<path class="st48" d="M9.7,6.2c-0.1-0.3,0-0.6,0-0.9c0.4-0.4,0.8-0.6,1.2-0.9C11,4.7,10.9,5,11,5.3c0,0.1-0.1,0.2-0.2,0.3
	C10.4,5.8,10.2,6.3,9.7,6.2z"/>
<path class="st49" d="M4.8,10.3c0.1,0,0.2-0.1,0.3-0.1c0.1,0.3,0.2,0.5,0.2,0.8c-0.1,0.3-0.2,0.5-0.4,0.8c-0.2,0.2-0.2,0.6-0.6,0.6
	c0-0.5,0-0.9,0-1.4C4.4,10.8,4.6,10.5,4.8,10.3z"/>
<path class="st50" d="M13,3.1c0.4,0.3,0.1,0.6,0,0.9c0,0,0,0,0,0.1c-0.3,0.3-0.6,0.5-1,0.5c-0.2-0.3-0.2-0.5-0.2-0.8
	C12.2,3.6,12.6,3.3,13,3.1z"/>
<path class="st51" d="M11.8,3.8C12,4,12,4.3,12,4.6c0,0.1,0,0.1-0.1,0.2c-0.3,0.2-0.6,0.6-1,0.5c-0.2-0.3-0.1-0.6,0-0.9
	C11.2,4.1,11.5,4,11.8,3.8z"/>
<path class="st52" d="M12.3,46.6c0-0.4-0.4-0.7-0.4-1.1c0.3-0.1,0.4,0.1,0.6,0.2c0.2,0.1,0.3,0.2,0.5,0.3c0.1,0.1,0.2,0.1,0.2,0.2
	c0.1,0.3-0.1,0.5-0.1,0.8c-0.1,0-0.1,0-0.2,0C12.8,46.9,12.5,46.8,12.3,46.6z"/>
<path class="st11" d="M24.5,0c-0.3,0.2-0.6,0-0.9,0.1C23.8-0.1,24.2,0,24.5,0z"/>
<path class="st53" d="M49.1,25c0.1,5.6-1.7,10.6-5.1,15c-0.5,0.6-0.9,1.2-1.5,1.7c-0.2-0.2,0-0.4,0-0.6c0.3-1,0.6-2.1,0.8-3.2
	c0.3-1.7,0.7-3.5,0.8-5.2c0.1-1.4,0.2-2.7,0.2-4.1c0-0.2,0-0.4,0-0.5c0-0.1,0.1-0.2,0.2-0.3c1.4-0.8,2.7-1.8,4-2.7
	C48.7,25,48.8,24.8,49.1,25z"/>
<path class="st54" d="M43.3,37.9c-0.2,1.1-0.5,2.2-0.8,3.2c0,0.2-0.1,0.3-0.1,0.5c0,0.1-0.1,0.1-0.1,0.2c-0.7,0.6-1.3,1.3-2,1.9
	c-0.1,0-0.1,0-0.2,0c-0.4,0-0.4,0-0.3-0.5c0.5-1.3,1-2.6,1.4-4c0.1-0.5,0.2-0.9,0.6-1.3C42.3,37.7,42.8,37.7,43.3,37.9z"/>
<path class="st55" d="M49.1,25c-0.4,0-0.6,0.3-0.9,0.5c-1.1,0.7-2.3,1.5-3.4,2.3c-0.1,0.1-0.2,0.1-0.4,0.1c-0.1-0.1-0.1-0.1-0.1-0.2
	c-0.1-0.6,0.1-1,0.6-1.3c1.4-0.9,2.7-1.8,4-2.8c0.1,0,0.1,0.1,0.2,0.1c0,0.1,0,0.1,0,0.2C49.1,24.3,49.1,24.6,49.1,25z"/>
<path class="st56" d="M1.3,20.3c0.1-0.4,0.1-0.8,0.3-1.1c0.2,0.3,0.2,0.6,0.2,1c-0.1,1.1,0.1,2.2,0,3.2c-0.1,0.5,0.1,1.1,0.1,1.6
	c0,0.6,0,1.1-0.1,1.6c-0.1,0.8,0.1,1.5,0.1,2.3c0,0.7-0.1,1.3-0.2,2c0,0-0.1,0-0.1,0C1.3,30,1.2,29.1,1,28.2c-0.1-0.5-0.2-1-0.2-1.4
	c0-0.9-0.1-1.8,0-2.7C0.9,22.8,1.1,21.6,1.3,20.3z"/>
<path class="st57" d="M17.1,2.2c0.2-0.1,0.4-0.2,0.6-0.3c0.1,0,0.1,0,0.2,0c0.2,0,0.5,0,0.7,0.2c0.2,0.8,0,1.5,0.1,2.3
	c0,0.1,0,0.1,0,0.2c0,0.1-0.1,0.2-0.2,0.2C18.2,4.9,17.8,5,17.4,5c-0.2,0-0.2-0.2-0.3-0.4C17.1,3.8,17.2,3,17.1,2.2z"/>
<path class="st58" d="M18.6,2.1C18.3,2,18.1,2,17.9,1.9c1.2-0.4,2.4-0.6,3.6-0.8c0,0,0,0,0,0c0,0.3-0.2,0.4-0.4,0.6
	C21,2,20.7,2.3,20.4,2.6c0,0-0.1,0-0.2,0C19.7,2.5,19.1,2.4,18.6,2.1z"/>
<path class="st59" d="M39.9,43.3c-0.1,0.2-0.3,0.5,0.2,0.5c0,0-0.1,0.1-0.1,0.1c-0.6,0.2-1.3,0.3-2,0.2c-0.3-0.2-0.2-0.6-0.2-0.8
	c0.1-0.9,0.4-1.8,0.7-2.7c0.2-0.3,0.3-0.6,0.6-0.8c0.2-0.1,0.3-0.2,0.5-0.1c0.4,0.5,0.2,1.1,0.2,1.6c0,0.4-0.1,0.8,0,1.2
	C40,42.7,40,43,39.9,43.3z"/>
<path class="st60" d="M37,46.1c-0.3,0.1-0.5,0.2-0.8,0.3c-0.3,0.1-0.4-0.1-0.4-0.3c-0.1-0.7-0.1-1.4,0.2-2c0.4-0.2,0.8-0.1,1.2-0.1
	c0.6,0,0.7,0.1,0.6,0.7c-0.1,0.3,0,0.6,0.1,0.9C37.6,45.8,37.2,45.8,37,46.1z"/>
<path class="st61" d="M37.8,45.5c-0.5-0.2-0.3-0.5-0.2-0.9c0-0.3,0.2-0.6-0.4-0.6c0-0.1,0-0.1,0-0.2c0.3-0.1,0.5-0.1,0.8,0.1
	c0.7,0,1.3-0.2,2-0.1C39.4,44.5,38.6,45,37.8,45.5z"/>
<path class="st62" d="M33.6,47.7c-0.5,0.1-0.9,0.4-1.4,0.4c-0.1,0-0.1-0.1-0.1-0.1c0.1-0.8-0.1-1.6-0.1-2.4c0.3-0.7,1-1.1,1.5-1.6
	c0.1,0,0.1,0,0.2,0c0.2,0,0.4,0.1,0.5,0.3c0.2,0.9,0.2,1.9,0.2,2.8c0,0.2-0.1,0.3-0.1,0.4C34,47.6,33.7,47.5,33.6,47.7z"/>
<path class="st63" d="M34.1,47.4c0-1.1,0-2.2-0.1-3.3c0.5-0.3,1.1-0.1,1.7-0.1c0.1,0,0.3,0,0.3,0.1c0,0.6-0.2,1.2-0.1,1.8
	c0,0.2,0,0.4,0.3,0.5C35.6,46.9,34.9,47.1,34.1,47.4z"/>
<path class="st64" d="M32.3,2c0.1,0,0.2,0.1,0.3,0.1c0.6,0.2,1.1,0.4,1.7,0.6c0.2,0.3,0,0.5-0.2,0.6c-0.6,0.4-1.1,0.8-1.7,1.2
	c-0.4,0.3-0.8,0.6-1.2,0.8c-0.5,0-1-0.3-1.5-0.4c-0.3-0.1-0.7-0.1-0.9-0.3C28.7,4.3,29,4.1,29.2,4C30.3,3.4,31.2,2.6,32.3,2z"/>
<path class="st65" d="M31.2,5.3c0.2-0.2,0.3-0.4,0.6-0.5c0.7-0.5,1.4-1,2.2-1.5c0.2-0.1,0.4-0.3,0.4-0.6c0.6,0.3,1.2,0.5,1.8,0.8
	c0.1,0.1,0.2,0.2,0.3,0.3c0.1,0.3-0.2,0.5-0.4,0.6c-0.9,0.7-1.8,1.2-2.7,1.8c-0.5,0-1-0.4-1.5-0.5C31.7,5.6,31.4,5.6,31.2,5.3z"/>
<path class="st66" d="M46.4,13.9c0.2,0.5,0.5,1,0.7,1.5c-0.6,0.2-1,0.6-1.5,0.9c-0.2,0.1-0.4,0.3-0.6,0.2c-0.2-0.1-0.3-0.2-0.4-0.3
	c-0.2-0.4-0.6-0.7-0.6-1.2c0.7-0.5,1.4-1.1,2.3-1.4C46.2,13.6,46.3,13.8,46.4,13.9z"/>
<path class="st67" d="M44.7,11.1c0.1,0,0.1,0.1,0.2,0.1c0.1,0.4,0.5,0.7,0.6,1.1c-0.8,0.6-1.5,1.2-2.5,1.5c-0.4-0.3-0.7-0.6-0.9-1.1
	c0.3-0.5,0.9-0.7,1.3-1.1c0.2-0.2,0.5-0.3,0.8-0.5C44.3,11,44.5,11,44.7,11.1z"/>
<path class="st68" d="M42.9,13.8c0.2-0.2,0.6-0.3,0.9-0.4c0.6-0.3,1-0.8,1.6-1c0.3,0.4,0.5,0.8,0.7,1.2c-0.7,0.5-1.4,1-2.2,1.4
	c-0.1,0-0.2,0-0.3-0.1c-0.3-0.3-0.6-0.6-0.8-1C42.9,13.8,42.9,13.8,42.9,13.8z"/>
<path class="st69" d="M49.1,23.7c0,0-0.1-0.1-0.1-0.1c-0.3-0.2-0.4-0.7-0.6-1c-0.2-0.5-0.5-0.9-0.7-1.4c-0.2-0.4-0.5-0.8-0.5-1.2
	c0.3-0.3,0.7-0.4,1-0.6c0.1-0.1,0.3,0,0.4,0.1c0.1,0.8,0.3,1.5,0.4,2.3C48.9,22.4,49,23.1,49.1,23.7z"/>
<path class="st70" d="M45,16.4c0.5,0.1,0.7-0.4,1.1-0.6c0.3-0.2,0.6-0.4,1-0.4c0.2,0.5,0.4,0.9,0.6,1.4c0,0.2,0.1,0.3,0.1,0.5
	c-0.4,0.4-1,0.6-1.4,0.9c-0.1,0.1-0.2,0-0.3,0c-0.3-0.2-0.4-0.6-0.7-0.8C45.2,17,44.8,16.8,45,16.4z"/>
<path class="st71" d="M46.1,18.1c0.2,0.1,0.3,0,0.4-0.1c0.4-0.4,0.8-0.5,1.3-0.7c0.3,0.5,0.4,1,0.5,1.5c0.1,0.2,0.1,0.5,0.2,0.7
	c-0.2-0.1-0.3,0-0.4,0.1c-0.3,0.2-0.5,0.4-0.9,0.4c-0.3,0-0.3-0.2-0.4-0.4c-0.2-0.4-0.4-0.7-0.6-1C46.1,18.4,45.9,18.3,46.1,18.1z"
	/>
<path class="st72" d="M32.3,2C32,2.4,31.4,2.6,31,2.9c-0.5,0.4-1.1,0.7-1.6,1c-0.3,0.2-0.5,0.4-0.7,0.6c-0.1,0.1-0.3,0.1-0.5,0.1
	c-0.8-0.2-1.6-0.2-2.4-0.4c-0.3-0.3,0-0.4,0.2-0.5c1.2-0.6,2.2-1.4,3.3-2.2c0.1-0.1,0.2-0.2,0.3-0.3c0.1,0,0.1,0,0.2,0
	C30.7,1.5,31.5,1.8,32.3,2z"/>
<path class="st73" d="M29.7,1.3c0.1,0.5-0.4,0.5-0.6,0.7c-0.9,0.6-1.8,1.2-2.7,1.8c-0.2,0.1-0.5,0.1-0.7,0.4c0,0,0,0,0,0.1
	c-0.1,0-0.1,0.1-0.2,0.1c-0.1,0-0.3,0-0.4-0.1C24.9,4,24.5,4,24.2,3.8c-0.2-0.1-0.4-0.1-0.6-0.3c0-0.2,0.2-0.3,0.3-0.4
	c1-0.7,2-1.4,3-2.1c0.1,0,0-0.1,0,0c-0.1,0.1-0.3,0.1-0.3-0.1C27,0.9,27.3,1,27.6,1C28.3,1.1,29,1.2,29.7,1.3z"/>
<path class="st74" d="M26.7,0.9c0.1,0.1,0.3,0,0.3,0.2c-1,0.9-2.2,1.6-3.4,2.4c-0.1,0.1-0.2,0.1-0.4,0c-0.5-0.2-1.1-0.3-1.6-0.6
	c-0.1-0.3,0.2-0.4,0.3-0.5c0.7-0.5,1.5-1,2.2-1.5c0.6,0,1.2,0,1.8,0C26.2,0.9,26.5,0.9,26.7,0.9z"/>
<path class="st75" d="M1.6,30.9c0-0.9,0.2-1.8,0.1-2.7c-0.2-1.4,0.2-2.7,0-4c-0.1-1.2,0-2.5-0.1-3.7c0-0.4-0.1-0.9,0-1.3
	c0-0.4,0.2-0.9,0.3-1.3c0-0.2,0.1-0.3,0.1-0.5c0,0,0.1,0,0.1,0c0.3,0.5,0.5,1,0.5,1.6c0,4.1,0,8.3,0,12.4c0,0.5-0.1,1.1,0,1.6
	c0,0.2,0.1,0.5-0.2,0.5C2,32.7,1.7,31.8,1.6,30.9z"/>
<path class="st76" d="M2.4,33.5c0.2-0.1,0.1-0.3,0.1-0.5c0-4.7,0-9.4,0-14.1c0.3,0,0.3,0.3,0.4,0.5C3,19.5,3,19.7,3.1,19.9
	c0.1,0.3,0.3,0.7,0.3,1c-0.1,0.4,0,0.8,0,1.1c0,1.3,0,2.6,0,3.9c0,0.4,0.1,0.7,0.1,1.1c-0.1,1.6-0.2,3.3-0.2,4.9
	c0,1,0.1,1.9,0.2,2.9c0,0.3,0.1,0.6-0.1,0.8c-0.2-0.5-0.5-0.9-0.7-1.4C2.5,34,2.5,33.8,2.4,33.5z"/>
<path class="st77" d="M3.3,20.8c-0.1-0.3-0.2-0.6-0.3-0.9c-0.1-1.3,0-2.7,0-4c0-0.3,0.1-0.7,0.2-1c0-0.1,0.1-0.3,0.1-0.4
	c0.1-0.2,0.3-0.4,0.4-0.6c0.2,0.2,0.2,0.5,0.2,0.8c0.1,1.9,0,3.8,0,5.7c0,0.2,0,0.5-0.2,0.7C3.3,21.2,3.4,20.9,3.3,20.8z"/>
<path class="st78" d="M3.1,14.9c0,1.5-0.1,3.1,0,4.6c0,0.1,0,0.3-0.1,0.4c-0.2-0.3-0.2-0.7-0.5-1c0-0.5-0.4-1-0.4-1.5
	C2.3,16.5,2.7,15.7,3.1,14.9z"/>
<path class="st79" d="M33.4,6.1c0.7-0.6,1.4-1.1,2.2-1.5c0.3-0.2,0.6-0.5,0.8-0.8c0.6,0.2,1.2,0.6,1.7,1c0,0.2-0.2,0.3-0.4,0.4
	c-0.8,0.7-1.8,1.1-2.5,1.8c-0.5,0-0.8-0.3-1.2-0.5C33.8,6.4,33.5,6.5,33.4,6.1z"/>
<path class="st80" d="M35.2,7c0.1-0.4,0.4-0.5,0.6-0.6c0.8-0.5,1.5-1.1,2.3-1.6c0.1,0.1,0.3,0.1,0.4,0.2c0.3,0.2,0.5,0.4,0.8,0.6
	c0,0.4-0.4,0.3-0.6,0.5c-0.7,0.6-1.5,1-2.2,1.6c-0.1,0-0.1,0.1-0.2,0.1c-0.2,0-0.4-0.1-0.5-0.2C35.6,7.4,35.2,7.4,35.2,7z"/>
<path class="st81" d="M24.2,0.9c-0.1,0.5-0.7,0.6-1,0.9c-0.5,0.4-1,0.6-1.5,1.1c0,0-0.1,0.1-0.1,0.1c-0.4-0.1-0.8,0-1.1-0.4
	c0.3-0.5,0.8-0.9,1.1-1.4C22.4,1,23.3,0.9,24.2,0.9z"/>
<path class="st82" d="M36.3,7.7c1-0.7,2-1.4,3-2.1c0.4,0.3,0.8,0.6,1.2,0.9c0.1,0.1,0.1,0.2,0.2,0.3c-0.9,0.8-1.8,1.5-2.9,2
	c-0.3,0-0.5-0.2-0.8-0.4C36.8,8.2,36.4,8.1,36.3,7.7z"/>
<path class="st83" d="M32,45.5c0.2,0.9,0.2,1.7,0.2,2.6c-0.4,0.1-0.7,0.3-1.1,0.4c-0.1,0-0.2,0-0.3,0c-0.2,0.1-0.4,0.1-0.4-0.1
	c0-0.5-0.2-1.1,0-1.6c0.3-0.4,0.7-0.7,1.1-1C31.7,45.6,31.8,45.4,32,45.5z"/>
<path class="st84" d="M30.6,46.8c-0.3,0.5,0,1.1-0.1,1.6c0,0.1,0.2,0.1,0.3,0.1c-0.6,0.2-1.2,0.3-1.7,0.4c-0.1,0-0.2,0-0.3,0.1
	c-0.4-0.1-0.8,0.1-1.2,0.1c0-0.2,0.2-0.3,0.3-0.4c0.4-0.2,0.7-0.6,1.1-0.8c0.5-0.4,1-0.8,1.5-1.2C30.5,46.7,30.5,46.7,30.6,46.8z"/>
<path class="st85" d="M3.5,21.1c0.2-0.2,0.2-0.4,0.2-0.7c0-1.7,0-3.4,0-5.1c0-0.5-0.1-1-0.1-1.5c0.1-0.4,0.4-0.7,0.6-1.1
	c0.3,0.2,0.3,0.5,0.3,0.8c0,1.9,0,3.7,0,5.6c0,1,0,2,0,3c0,0.2,0,0.4-0.2,0.5c0,0-0.1,0-0.1,0C3.8,22.2,3.5,21.7,3.5,21.1z"/>
<path class="st86" d="M4.3,22.3c0-3,0-5.9,0-8.9c0-0.2,0-0.4-0.1-0.6c0-0.1,0.1-0.2,0.1-0.3c0.3-0.1,0.2-0.5,0.5-0.6
	C5,11.9,5,12.1,5,12.3c0,1.7-0.1,3.5,0,5.2c0,0.9,0,1.8,0.1,2.7c0,0.2,0,0.4-0.1,0.6c-0.1,0.4-0.3,0.8-0.4,1.2
	C4.5,22.1,4.5,22.3,4.3,22.3z"/>
<path class="st87" d="M44.7,11.1c-0.1,0-0.2-0.1-0.3,0c-0.7,0.6-1.5,1-2.2,1.6c0,0-0.1,0-0.1,0c-0.4-0.4-0.9-0.8-1.2-1.2
	c0,0,0-0.1,0-0.1c0.1-0.1,0.2-0.2,0.3-0.3c0.7-0.4,1.3-1,2-1.4c0.1-0.1,0.2-0.2,0.3-0.1c0,0,0.1,0.1,0.1,0.1
	C44,10.1,44.4,10.6,44.7,11.1z"/>
<path class="st88" d="M37.8,8.7c0.9-0.6,1.8-1.1,2.6-1.8c0.1-0.1,0.2-0.1,0.4-0.1c0.4,0.1,0.6,0.6,1,0.8C41.9,7.8,42,7.9,42.1,8
	c0,0.1,0.1,0.1,0.1,0.2c-0.7,0.6-1.6,1.1-2.4,1.6C39.7,10,39.5,10,39.4,10c-0.5-0.1-0.8-0.4-1.1-0.7C38.1,9.1,37.8,9.1,37.8,8.7z"/>
<path class="st89" d="M39.3,9.9c0.9-0.4,1.7-1,2.5-1.5c0.1-0.1,0.3-0.2,0.4-0.2c0.5,0.4,0.9,0.8,1.2,1.3c-0.9,0.6-1.7,1.3-2.6,1.9
	c-0.2,0.1-0.3-0.1-0.4-0.2c-0.3-0.3-0.5-0.5-0.8-0.8C39.4,10.3,39.3,10.2,39.3,9.9z"/>
<path class="st90" d="M3.3,35.6c-0.1-1.7-0.2-3.4-0.2-5.1c0-1.2,0.2-2.3,0.2-3.5c0-0.7,0.1-1.4,0.2-2.1c0.1-0.2,0.1-0.4,0.3-0.5
	C4.1,24.5,4,24.7,4,24.9c0,1.2,0,2.4,0,3.6c0,2.5-0.1,4.9,0,7.4c0,0.3,0,0.6-0.2,0.8c-0.3-0.2-0.3-0.5-0.5-0.7
	C3.4,35.9,3.3,35.8,3.3,35.6z"/>
<path class="st91" d="M6.5,9.4c0.1-0.1,0.2-0.2,0.3-0.3C7,9.1,7.1,8.7,7.4,9c0,1.6,0,3.2,0,4.8c0,0.6,0,1.3,0.1,1.9
	c0,0.2-0.1,0.4-0.2,0.6c-0.1,0.2-0.2,0.4-0.4,0.6c-0.1,0.1-0.2,0.2-0.3,0c-0.1-0.2-0.1-0.4-0.1-0.6c0.1-1.4,0-2.9,0-4.3
	c0-0.6-0.1-1.1-0.1-1.7c0-0.3,0-0.5,0.1-0.8C6.4,9.5,6.5,9.5,6.5,9.4z"/>
<path class="st92" d="M7.3,8.9C7.1,9,7,9.1,6.8,9.1C6.9,9,7.1,8.8,7.2,8.6c0.5-0.3,0.7-0.9,1.2-1.2c0,0,0,0,0,0
	c0.3,0.2,0.1,0.5,0.2,0.8C8.5,8.4,8.3,8.5,8.1,8.6C7.8,8.7,7.6,9,7.3,8.9z"/>
<path class="st93" d="M6.5,9.4c0,0,0,0.1,0,0.1C6.4,9.8,6.2,10,6.1,10.2c-0.3,0.3-0.4,0.6-0.7,0.9c0,0-0.1,0-0.1,0
	c-0.1-0.3-0.2-0.5-0.1-0.8C5.6,10,6,9.6,6.5,9.4z"/>
<path class="st94" d="M20.4,48.8c-0.1,0-0.2,0-0.3,0c-0.3-0.2-0.6-0.1-0.9-0.3c0-0.4-0.1-0.8,0.1-1.1c0,0,0.1-0.1,0.1-0.1
	c0.3,0,0.7-0.1,1-0.1c0.1,0,0.2,0.1,0.2,0.1c0.1,0.4,0,0.7,0,1.1C20.6,48.6,20.5,48.7,20.4,48.8z"/>
<path class="st95" d="M19.3,47.4c-0.1,0.4,0.2,0.8-0.1,1.1c-0.4,0-0.7-0.2-1.1-0.2c-0.1-0.1-0.2-0.1-0.3-0.2c-0.1-0.3-0.2-0.5,0-0.8
	c0.2-0.1,0.5-0.1,0.7-0.1C18.7,47.3,19,47.2,19.3,47.4z"/>
<path class="st96" d="M13,4c0.5-0.3,1-0.6,1.6-0.8C15,3.1,15,3.4,15,3.6c0,0.4,0,0.8,0,1.1c0,0.3,0,0.5,0.2,0.7
	c0,0.3-0.2,0.2-0.4,0.3c-0.3,0.1-0.6,0.2-0.9,0.3c-0.2,0.1-0.4,0.2-0.7,0.2c-0.1,0-0.1,0-0.1-0.1C13.1,5.5,13.1,4.7,13,4L13,4z"/>
<path class="st97" d="M15.1,5.5c-0.3,0-0.3-0.2-0.3-0.4c0-0.5,0-1,0-1.4c0-0.2,0.1-0.4-0.2-0.5C14.8,3,15.2,3,15.3,2.8
	c0.2-0.1,0.5-0.1,0.7-0.2c0.3,0,0.3,0.3,0.3,0.5c0,0.7,0.1,1.4-0.1,2.1c0,0.1-0.1,0.1-0.2,0.2C15.8,5.5,15.5,5.7,15.1,5.5z"/>
<path class="st98" d="M9,43.3c0-0.1-0.1-0.1-0.1-0.2c-0.1-0.1-0.1-0.3-0.1-0.4c0.1-1.9,0-3.7,0-5.6c0-0.2,0-0.5,0.1-0.7
	c0.3-0.2,0.3,0.1,0.3,0.3c0.2,0.7,0.2,1.4,0.4,2c0.1,0.5,0.3,1,0.3,1.6c-0.2,0.9-0.1,1.9-0.2,2.8c0,0.2,0,0.5-0.1,0.7
	C9.5,43.6,9.3,43.4,9,43.3z"/>
<path class="st99" d="M9.7,43.8c0-1.2,0-2.4,0.2-3.5c0.2,0,0.2,0.2,0.3,0.3c0.2,0.6,0.4,1.3,0.6,1.9c0.1,0.2,0.1,0.4,0.1,0.6
	c0,0.5,0.1,1.1-0.2,1.5l0,0c0,0,0,0,0,0C10.4,44.2,10,44.1,9.7,43.8z"/>
<path class="st100" d="M7.5,41.8c-0.1-0.1-0.2-0.3-0.3-0.4c-0.1-0.2-0.1-0.4-0.1-0.5c0.1-3.5,0-6.9,0-10.4c0-0.6,0-1.2,0-1.8
	c0.3-0.2,0.4,0.1,0.6,0.3c0.1,0.2,0.3,0.5,0.4,0.7c0.1,0.1,0.1,0.3,0.1,0.4c0,1.8,0.1,3.5,0,5.3c-0.1,2,0,4.1,0,6.1
	c0,0.4,0,0.7-0.1,1.1C7.8,42.3,7.8,41.9,7.5,41.8z"/>
<path class="st101" d="M8.1,42.4c0-0.7,0-1.3,0-2c0-1.6,0-3.1,0.1-4.7c0.1-1.2,0-2.4,0-3.5c0-0.8-0.1-1.5,0.1-2.3
	c0.5,0.1,0.4,0.6,0.5,0.9c0.1,1,0,1.9,0.1,2.9C8.9,34.3,9,35,9.1,35.7c0,0.2,0.1,0.4-0.1,0.6c0,2,0,3.9,0,5.9c0,0.3,0,0.6-0.1,0.8
	C8.6,42.8,8.4,42.6,8.1,42.4z"/>
<path class="st102" d="M17.7,47.4c0,0.2,0,0.5,0,0.7c-0.6-0.1-1.1-0.4-1.7-0.5c-0.1-0.2-0.4-0.1-0.5-0.3c0.2-0.2,0.4-0.1,0.7-0.1
	c0.2,0,0.4,0,0.6,0c0.1,0,0.2,0,0.2,0C17.3,47.3,17.6,47.2,17.7,47.4z"/>
<path class="st103" d="M16.2,47.3c-0.2,0-0.5,0-0.7,0c-0.1,0-0.3-0.1-0.4-0.1c0-0.1-0.1-0.1,0-0.2c0.2-2.4,0-4.8,0.1-7.3
	c0-0.3-0.1-0.6,0.2-0.9c0.3-0.2,0.5,0.1,0.7,0.3c0.3,0.3,0.4,0.6,0.3,1c-0.2,2.3-0.1,4.6-0.1,6.9C16.3,47.1,16.3,47.2,16.2,47.3z"/>
<path class="st104" d="M15.1,47.1C15.1,47.1,15.1,47.2,15.1,47.1c-0.6,0.1-1.3,0-1.9-0.1c-0.3-0.3,0.1-0.5,0-0.8
	c0.1-0.1,0.2,0,0.3,0c0.3,0.2,0.6,0.3,1,0.5C14.7,46.9,15,46.9,15.1,47.1z"/>
<path class="st105" d="M16.1,5.2c0.1-0.7,0.1-1.3,0.1-2c0-0.2-0.1-0.4-0.2-0.6c0.3-0.2,0.7-0.4,1.1-0.4c0.3,0.2,0.2,0.5,0.1,0.7
	c-0.1,0.7,0,1.3,0,2c0,0,0.1,0,0.1,0c-0.1,0.3-0.3,0.2-0.5,0.3C16.6,5.2,16.4,5.4,16.1,5.2z"/>
<path class="st106" d="M27.9,48.8c-0.1,0.1-0.2,0.2-0.3,0.3c0,0-0.1,0-0.1,0c-0.2,0-0.3,0.1-0.5,0.1c0-1-0.1-2,0-3.1
	c0.3-0.3,0.7-0.5,1.1-0.3c0.2,0.4,0.1,0.8,0.1,1.2c0,0.3,0,0.6,0,0.9C28.3,48.3,28.2,48.6,27.9,48.8z"/>
<path class="st107" d="M27.1,46.1c0,0.9,0,1.7,0,2.6c0,0.2-0.1,0.3-0.1,0.5c-0.3,0-0.6,0-0.9,0c-0.2-0.2-0.1-0.5-0.1-0.8
	c0-0.7,0-1.3,0.1-2C26.3,46.1,26.7,46.1,27.1,46.1C27,46.1,27.1,46.1,27.1,46.1z"/>
<path class="st108" d="M26.1,46.4c0.2,0.5,0,0.9,0,1.4c0,0.5,0,1,0,1.4c-0.4,0-0.7,0-1.1,0c0,0,0,0,0,0c-0.2-0.8-0.2-1.6,0-2.5
	c0.2-0.3,0.5-0.3,0.8-0.4C25.9,46.3,26,46.3,26.1,46.4z"/>
<path class="st86" d="M4.3,37.6c0-0.1,0-0.1,0-0.2c-0.1-0.3-0.2-0.7-0.2-1c0-4.1,0-8.2,0-12.3c0-0.3,0-0.5,0.1-0.7
	c0.2-0.2,0.3-0.1,0.4,0.1c0.1,0.2,0.2,0.4,0.3,0.6c0.1,0.2,0.1,0.3,0.1,0.5c0,0.7-0.1,1.3-0.1,1.9c0,3,0,6,0,8.9
	c0,0.8-0.1,1.5,0,2.3c0,0.2,0,0.4-0.2,0.5C4.5,38.1,4.6,37.8,4.3,37.6z"/>
<path class="st109" d="M4.8,38.3c0.1-0.3,0.1-0.6,0-0.9c-0.1-0.5,0.1-0.9,0.1-1.4c0-3.3,0-6.5,0-9.8c0-0.6,0-1.1,0.1-1.7
	c0.4,0.1,0.4,0.6,0.6,0.9c0,0.1,0,0.1,0,0.2c0,0.6,0,1.1,0,1.6c0,3.4,0,6.8,0,10.2c0,0.4,0,0.8,0,1.2c0,0.2,0,0.4-0.2,0.6
	c0,0-0.1,0-0.1,0C5.2,38.8,4.9,38.6,4.8,38.3z"/>
<path class="st110" d="M23.4,49.2c-0.5,0-1-0.2-1.5-0.1c0,0,0-0.1,0-0.1c-0.3-0.6-0.1-1.2-0.1-1.8c0-0.1,0.1-0.1,0.2-0.2
	c0.2,0,0.5-0.1,0.7-0.1c0.2,0,0.5-0.1,0.7,0C23.5,47.7,23.4,48.5,23.4,49.2z"/>
<path class="st111" d="M21.8,47.2c0.2,0.6,0.1,1.2,0.1,1.8c-0.5,0-1-0.1-1.5-0.2c0.2-0.3,0.1-0.6,0.1-0.9c0-0.2,0-0.4,0.1-0.6
	c0.2-0.2,0.4-0.1,0.6-0.2C21.3,47.2,21.6,47,21.8,47.2z"/>
<path class="st112" d="M23.4,49.2c-0.2-0.2-0.1-0.4-0.1-0.6c0-0.5-0.1-1.1,0.1-1.6c0,0,0,0,0-0.1c0.2-0.1,0.5-0.2,0.7-0.1
	c0.1,0,0.2,0.1,0.2,0.1c0.1,0.8,0.2,1.5-0.1,2.3c-0.3,0-0.5,0-0.8,0C23.4,49.2,23.4,49.2,23.4,49.2z"/>
<path class="st113" d="M5.4,39.2c0.2-0.3,0-0.6,0-0.9c-0.1-3.9,0-7.7,0-11.6c0-0.4-0.1-0.9,0.1-1.3c0.4,0.1,0.4,0.6,0.6,0.8
	c0.1,0.2,0.2,0.4,0.1,0.6c0,3.9,0,7.9,0,11.8c0,0.5,0.1,1-0.2,1.4C5.8,39.8,5.6,39.5,5.4,39.2z"/>
<path class="st114" d="M6.1,40.1c0-3.5,0-7,0-10.4c0-0.8,0-1.6,0-2.5c0-0.2-0.1-0.3,0.1-0.5c0.3,0,0.4,0.3,0.5,0.5
	c0.1,0.1,0.1,0.3,0.1,0.4c0,4.1,0,8.2,0,12.3c0,0.2,0.1,0.5-0.3,0.6c0,0-0.1,0-0.1,0C6.3,40.4,6.1,40.3,6.1,40.1z"/>
<path class="st115" d="M12.5,45.8c-0.2-0.1-0.4-0.2-0.6-0.3c-0.1-0.1-0.1-0.1-0.2-0.2c-0.1-0.1-0.1-0.2-0.1-0.3
	c0.1-0.3,0.1-0.6,0.1-0.8c-0.2-2.9-0.1-5.8-0.1-8.7c0-0.4-0.1-0.7,0.1-1.1c0.1-0.1,0.2-0.1,0.3,0c0.3,0.3,0.6,0.5,0.6,0.9
	c0,3.4,0,6.8,0,10.2C12.6,45.5,12.6,45.6,12.5,45.8z"/>
<path class="st116" d="M11.7,45c0,0.1,0,0.2,0,0.3c-0.3-0.2-0.7-0.5-1-0.7c0-0.5,0.1-1.1,0.1-1.6c0.3,0.1,0.3,0.4,0.4,0.6
	C11.4,44,11.6,44.5,11.7,45z"/>
<path class="st117" d="M6.5,40.6c0.2-0.2,0.1-0.4,0.1-0.6c0-3.7,0-7.4,0-11.1c0-0.5,0-0.9,0.1-1.4C7,27.5,7,27.8,7.2,28
	c0.1,0.2,0.2,0.3,0.1,0.5c0,3.9,0,7.7,0,11.6c0,0.4-0.1,0.8-0.1,1.3C6.9,41.2,6.7,40.9,6.5,40.6z"/>
<path class="st118" d="M9.7,6.2c0.3-0.2,0.7-0.5,1-0.7c0.4,0.5,0.2,1,0.2,1.6c-0.2,0.3-0.6,0.5-1,0.6c-0.1,0-0.1,0-0.2-0.1
	C9.5,7.2,9.5,6.8,9.7,6.2C9.7,6.3,9.7,6.3,9.7,6.2z"/>
<path class="st119" d="M9.7,6.3c0,0.4-0.1,0.9,0.1,1.3C9.7,7.9,9.3,8,9.1,8.1C8.9,8.2,8.8,8.3,8.6,8.3c0,0-0.1,0-0.1-0.1
	c0-0.3-0.1-0.5-0.1-0.8C8.9,7.1,9.2,6.6,9.7,6.3z"/>
<path class="st120" d="M4.4,23.3c-0.2,0.4-0.1,0.8-0.1,1.3c0,4,0,8,0,12.1c0,0.3,0.1,0.5,0,0.8C4,37.3,4,37,3.9,36.7
	c-0.1-0.4,0-0.8,0-1.2c0-2.4,0-4.9,0-7.3c0-1.1,0-2.3,0-3.4c0-0.1,0-0.3-0.1-0.4c-0.1-0.6,0-1.1,0.4-1.5C4.4,22.9,4.4,23.1,4.4,23.3
	z"/>
<path class="st121" d="M24.3,49.2c0-0.8,0-1.5,0-2.3c0.1-0.3,0.4-0.3,0.7-0.3c0.1,0,0.1,0,0.1,0.1c-0.2,0.8,0,1.7-0.1,2.5
	C24.7,49.2,24.5,49.2,24.3,49.2z"/>
<path class="st122" d="M10.8,7.1c0-0.5,0.1-1.1-0.1-1.6c0.1-0.1,0.1-0.1,0.2-0.2c0.3-0.2,0.7-0.4,1-0.6c0.2,0.6,0.2,1.3,0.1,2
	c0,0.1-0.1,0.2-0.2,0.2C11.5,7,11.2,7.3,10.8,7.1C10.9,7.2,10.8,7.1,10.8,7.1z"/>
<path class="st123" d="M5.2,11C5.2,11,5.3,11,5.2,11c0.4,0.2,0.3,0.5,0.3,0.7c0,2.3-0.1,4.6,0,7c0,0.1,0,0.2,0,0.2
	c0,0.1,0,0.2,0,0.2c-0.2,0.4-0.1,0.8-0.6,1c-0.2-0.4-0.2-0.9-0.2-1.4c-0.1-1.7,0-3.4,0-5.1c0-0.7,0-1.3,0-2
	C4.9,11.6,5.1,11.3,5.2,11z"/>
<path class="st124" d="M11.9,6.7c0-0.7-0.1-1.3,0-2c0,0,0.1-0.1,0.1-0.1c0.3-0.2,0.7-0.4,1-0.6c0.3,0.7,0.2,1.5,0.1,2.2
	c-0.1,0.2-0.3,0.3-0.5,0.3C12.4,6.6,12.2,6.8,11.9,6.7z"/>
<path class="st125" d="M12.5,45.8c-0.1-0.3-0.1-0.5-0.1-0.8c0-2.9,0-5.8,0-8.7c0-0.4-0.1-0.8,0.1-1.2c0.3,0,0.4,0.2,0.5,0.4
	c0.2,0.3,0.2,0.7,0.2,1c0,2.8,0,5.6,0,8.4c0,0.4,0,0.9-0.2,1.3C12.9,46,12.7,45.9,12.5,45.8z"/>
<path class="st126" d="M13,46.1c-0.2-0.4,0-0.7,0-1.1c0-2.7,0-5.4,0-8.2c0-0.5,0.1-1-0.2-1.5c0,0,0.1,0,0.1,0
	c0.3,0.2,0.3,0.5,0.5,0.7c0.1,0.1,0.1,0.3,0.1,0.4c0.2,0.7,0.2,1.4,0.2,2.1c0,2.2,0,4.4,0,6.7c0,0.3,0,0.5-0.1,0.8
	c0,0.1-0.1,0.3-0.3,0.2c-0.1,0-0.1-0.1-0.2-0.1C13.2,46.2,13.1,46.1,13,46.1z"/>
<path class="st127" d="M43.3,37.9c-0.5,0-1-0.1-1.5,0.1c-0.3-0.2-0.2-0.5-0.1-0.8c0.2-0.7,0.4-1.4,0.6-2.2c0.1-0.5,0.1-1,0.4-1.4
	c0.1-0.1,0.3-0.3,0.4-0.3c0.3-0.1,0.5-0.2,0.6-0.5c0.1-0.2,0.2-0.3,0.4-0.1c-0.1,1.5-0.4,3-0.6,4.5C43.5,37.5,43.4,37.7,43.3,37.9z"
	/>
<path class="st128" d="M44.2,32.7c-0.1,0-0.2,0-0.2,0c-0.1,0.7-0.7,0.7-1.1,1c-0.2-0.3-0.1-0.6-0.3-0.9c0.5-1.3,0.8-2.6,1.4-3.8
	c0.1-0.2,0.2-0.5,0.2-0.7c0-0.2,0-0.4,0.1-0.5c0,0,0.1-0.1,0.1,0c0,0.1,0,0.1,0,0.2c0,1.4,0,2.8-0.1,4.1
	C44.2,32.3,44.2,32.5,44.2,32.7z"/>
<path class="st129" d="M41.8,37.2c-0.1,0.3-0.1,0.5,0,0.8c-0.5,0.9-0.6,2-1.1,2.9c-0.4,0.7-0.4,1.6-0.8,2.3
	c-0.2-0.5-0.2-1.1-0.3-1.6c0-0.4,0.1-0.9,0.1-1.3c0-0.3,0-0.6-0.1-0.8c-0.1-0.1-0.1-0.3,0-0.4c0.2-0.5,0.4-1,0.6-1.5
	C40.8,37.4,41.3,37.3,41.8,37.2z"/>
<path class="st130" d="M44.4,27.7C44.3,27.7,44.3,27.7,44.4,27.7c-0.2-0.1-0.2-0.3-0.2-0.4c0-0.5-0.1-1-0.1-1.5c0-0.1,0-0.2,0.1-0.3
	c0.9-0.7,1.9-1.2,2.8-1.9c0.4-0.3,0.7-0.5,1.1-0.8c0.1-0.1,0.3-0.2,0.4-0.2c0.3,0.3,0.4,0.7,0.5,1c-0.6,0.7-1.5,1.1-2.2,1.7
	c-0.7,0.5-1.5,1-2.2,1.5C44.2,27,44.4,27.4,44.4,27.7z"/>
<path class="st131" d="M18.6,2.1c0.6,0.1,1.2,0.3,1.8,0.4c0,0.2-0.1,0.3-0.2,0.4c-0.4,0.5-0.8,0.9-1.1,1.4c-0.1,0.1-0.2,0.3-0.4,0.2
	c-0.2-0.4-0.1-0.8-0.1-1.3C18.5,2.9,18.6,2.5,18.6,2.1z"/>
<path class="st132" d="M18.7,4.5c0.5-0.4,0.9-1,1.3-1.5c0.1-0.1,0.1-0.1,0.2-0.2c0.3,0.1,0.2,0.4,0.2,0.6c0,0.3,0,0.7,0.2,0.9
	c-0.1,0.4-0.5,0.2-0.7,0.3c-0.2,0-0.4,0-0.7,0.1c-0.2,0-0.4,0.1-0.6-0.1C18.7,4.6,18.7,4.6,18.7,4.5z"/>
<path class="st133" d="M16.8,5.1c0.1-0.2,0.4,0,0.5-0.2c0.4-0.1,0.8-0.1,1.2-0.2c0.1,0.1,0,0.2,0,0.3c-0.3,0.4-0.6,0.7-0.8,1.1
	c-0.2,0.2-0.3,0.5-0.6,0.5C16.6,6.1,16.8,5.6,16.8,5.1z"/>
<path class="st134" d="M18.5,4.9c0-0.1,0.1-0.1,0.1-0.2c0,0,0.1-0.1,0.1-0.1c0.2,0,0.4,0,0.6,0c0.3,0,0.2,0.2,0.2,0.4
	c0,0.4,0.1,0.7,0.1,1.1c0,0.1,0,0.1,0,0.2c-0.3,0.2-0.6,0.4-0.9,0.3c-0.2-0.2-0.2-0.5-0.2-0.7C18.5,5.5,18.5,5.2,18.5,4.9z"/>
<path class="st135" d="M20.6,4.3c-0.3,0-0.3-0.2-0.3-0.5c0-0.3,0.1-0.7-0.1-1c0.1-0.1,0.1-0.2,0.2-0.3c0,0,0.1,0,0.1,0
	c0.3,0.2,0.8,0.2,1.1,0.4c0.4,0.5,0.4,0.8,0.1,1.3c-0.2,0.1-0.4,0.2-0.6,0.2C20.9,4.5,20.7,4.5,20.6,4.3z"/>
<path class="st136" d="M40.3,37.7c-0.1,0.7-0.5,1.2-0.6,1.8c-0.5,0.1-0.7,0.6-1,0.9c-0.2,0-0.2-0.2-0.3-0.3
	c-0.1-0.7,0.1-1.3,0.3-1.9c0.1-0.2,0.1-0.5,0.1-0.7c0.1-0.6,0.5-0.9,0.8-1.4c0.4-0.7,0.8-1.3,1.2-2c0.1-0.2,0.1-0.4,0.4-0.5
	c0.3,0.1,0.2,0.3,0.2,0.6c-0.2,0.5-0.2,1-0.4,1.5C40.8,36.4,40.8,37.1,40.3,37.7z"/>
<path class="st137" d="M38.5,40.2c0.1,0.1,0.1,0.2,0.2,0.3c-0.3,1.2-0.8,2.3-0.7,3.5c-0.3,0-0.5,0-0.8,0c-0.3,0.1-0.5,0-0.6-0.3
	c-0.1-0.5,0.1-1,0.3-1.5c0.5-0.6,0.6-1.4,1.2-1.9C38.3,40.3,38.4,40.1,38.5,40.2z"/>
<path class="st138" d="M37.1,42.2c-0.2,0.5-0.5,0.9-0.3,1.5c0.1,0.3,0.2,0.4,0.4,0.3c0,0,0,0.1,0,0.1c-0.4,0-0.8,0-1.2,0
	c-0.1,0-0.2,0-0.3,0c-0.5-0.3-0.3-0.8-0.4-1.3c0-0.3,0.1-0.5,0.2-0.8c0.1-0.2,0.2-0.5,0.1-0.7c0-0.3,0.2-0.4,0.3-0.7
	c0,0,0-0.1,0.1-0.1c0.2-0.2,0.4-0.4,0.6-0.6c0.1-0.1,0.2-0.1,0.3-0.1c0.2,0.1,0.2,0.3,0.2,0.5C37.1,40.9,37.2,41.5,37.1,42.2z"/>
<path class="st139" d="M35.8,41.3c0.1,0.3,0.1,0.5-0.1,0.8c-0.4,0.7-0.4,1.4,0,2c-0.6,0-1.1,0-1.7,0c-0.2,0-0.3-0.1-0.5-0.1
	c-0.1-0.2,0.1-0.4,0.2-0.5c0.5-0.5,1-1.1,1.4-1.7C35.4,41.7,35.5,41.3,35.8,41.3z"/>
<path class="st140" d="M32,45.5c-0.1,0.1-0.3,0.2-0.4,0.3c-0.2-0.6-0.1-1.2,0-1.7c0.1-0.1,0.1-0.2,0.2-0.2c0.1,0,0.2,0,0.3,0
	c0.4,0.1,0.9-0.1,1.3,0.2C32.9,44.5,32.5,45,32,45.5z"/>
<path class="st141" d="M33.4,44c-0.5,0-0.9,0.1-1.4-0.1c0-0.2,0.1-0.2,0.2-0.3c0.3-0.2,0.6-0.4,0.9-0.6c0.1-0.1,0.3-0.2,0.4-0.2
	c0.3,0.2,0.4,0.4,0.3,0.8C33.6,43.6,33.6,43.8,33.4,44C33.5,44,33.4,44,33.4,44z"/>
<path class="st142" d="M31.2,5.3c0.2,0.1,0.5,0.2,0.7,0.3c0,0.4-0.4,0.6-0.7,0.7c-0.1,0.1-0.3,0.1-0.3,0.3c-0.2,0.1-0.3,0-0.5-0.1
	c-0.2-0.1-0.4-0.2-0.6-0.3C29.6,6.1,29.3,6,29,5.8c-0.1,0-0.1-0.1-0.1-0.2c0.2-0.3,0.5-0.5,0.8-0.7C30.2,5,30.7,5.1,31.2,5.3z"/>
<path class="st143" d="M29.7,4.9c-0.1,0.3-0.5,0.5-0.7,0.7c-0.4,0.1-0.7-0.2-1-0.3c-0.2-0.1-0.3-0.1-0.5-0.2C27.3,5,27,4.9,26.8,4.8
	c-0.2-0.1-0.4-0.2-0.6-0.3c-0.1-0.1-0.3-0.1-0.3-0.3c0,0,0,0,0,0c1,0.1,2,0.3,3,0.4C29.1,4.8,29.4,4.7,29.7,4.9z"/>
<path class="st144" d="M30.9,6.6c0-0.1-0.1-0.3,0.1-0.3c0.4-0.1,0.7-0.4,0.9-0.7c0.5,0,1,0.4,1.5,0.5c0.2,0.1,0.4,0.3,0.6,0.4
	c-0.5,0.5-1,0.8-1.6,1c-0.4,0-0.7-0.4-1.1-0.5C31.2,6.9,30.9,6.9,30.9,6.6z"/>
<path class="st145" d="M45,16.4c0.1,0.3,0.4,0.6,0.5,0.9c-0.2,0.2-0.4,0.4-0.6,0.6c-0.6,0.3-1.1,0.7-1.6,1.1
	c-0.2,0.2-0.5,0.2-0.7,0.2c-0.3-0.3-0.5-0.8-0.6-1.2c0-0.1,0-0.1,0-0.2c0.9-0.5,1.7-1.3,2.7-1.7C44.7,16.2,44.8,16.3,45,16.4z"/>
<path class="st146" d="M44.7,16.1c-0.9,0.6-1.7,1.3-2.7,1.7c-0.4-0.2-0.5-0.7-0.8-1.1c0-0.1,0-0.1,0-0.2c0.9-0.4,1.6-1,2.4-1.6
	c0,0,0.1,0,0.1,0c0.1,0,0.1,0.1,0.2,0.1C44.2,15.3,44.4,15.7,44.7,16.1z"/>
<path class="st147" d="M42,12.7c0,0,0.1,0,0.1,0c0.2,0.4,0.6,0.6,0.8,1c0,0,0,0.1,0,0.1c-0.8,0.6-1.5,1.2-2.4,1.5c0,0-0.1,0-0.1,0
	c-0.3-0.3-0.5-0.7-0.8-1c-0.1-0.1-0.2-0.3-0.1-0.5c0.7-0.2,1.3-0.6,1.8-1C41.6,12.7,41.8,12.5,42,12.7z"/>
<path class="st148" d="M40.5,15.3c0.6-0.2,1.1-0.6,1.6-1c0.3-0.2,0.5-0.3,0.8-0.4c0.3,0.3,0.6,0.6,0.8,1c-0.5,0.6-1.2,0.9-1.8,1.3
	c-0.2,0.2-0.4,0.3-0.7,0.3C40.8,16.2,40.5,15.8,40.5,15.3z"/>
<path class="st149" d="M48.5,22.6c-1.3,0.9-2.5,1.7-3.8,2.6c-0.2,0.1-0.3,0.3-0.5,0.2c-0.1,0-0.1,0-0.1,0c-0.1-0.4-0.2-0.8-0.2-1.2
	c0-0.4,0.2-0.7,0.6-1c0.9-0.6,1.8-1.2,2.7-1.8c0.2-0.1,0.4-0.3,0.6-0.2C48,21.6,48.3,22.1,48.5,22.6z"/>
<path class="st150" d="M47.8,21.2c-0.9,0.4-1.6,1-2.3,1.5c-0.4,0.2-0.7,0.5-1,0.7c-0.3,0.2-0.4,0.4-0.4,0.7c-0.2,0-0.2-0.2-0.3-0.4
	c-0.1-0.4-0.1-0.8-0.2-1.1c-0.1-0.2-0.1-0.4-0.1-0.7c0.1-0.1,0.2-0.1,0.3-0.1c0,0,0.1,0.1,0.1,0.1c0.4-0.6,1.1-0.8,1.6-1.3
	c0.5-0.4,1-0.7,1.4-1c0.1,0.1,0.1,0.3,0.3,0.4C47.4,20.4,47.6,20.8,47.8,21.2z"/>
<path class="st151" d="M42.5,19.2c0.8-0.4,1.5-1.1,2.3-1.5c0.2-0.1,0.3-0.4,0.6-0.4c0.2,0.3,0.4,0.5,0.6,0.8
	c0.1,0.2,0.1,0.3,0.2,0.5c0,0.3-0.3,0.2-0.5,0.4c-0.7,0.6-1.5,1-2.3,1.6c-0.2,0.1-0.3,0.2-0.5,0.1c-0.2-0.2-0.3-0.4-0.4-0.6
	C42.6,19.7,42.4,19.5,42.5,19.2z"/>
<path class="st152" d="M43.1,20.6c0.4,0,0.6-0.4,0.9-0.5c0.6-0.3,1.1-0.7,1.7-1.2c0.2-0.2,0.5-0.1,0.7-0.3c0.3,0.3,0.5,0.6,0.6,1
	c-0.1,0.5-0.6,0.5-0.9,0.8c-0.6,0.4-1.1,0.9-1.8,1.2c-0.3,0.1-0.4,0.5-0.8,0.4c-0.3,0-0.2-0.3-0.3-0.5
	C43.1,21.2,42.8,20.9,43.1,20.6z"/>
<path class="st153" d="M25.2,4.2c0.1,0,0.3,0,0.4,0c0.1,0.1,0.2,0.2,0.2,0.3c0,0.6,0.1,1.1,0.1,1.7c0,3.5,0,7,0,10.5
	c0,0.3,0,0.5,0,0.8c0,0.2,0,0.4-0.2,0.5c-0.3,0.1-0.6,0-0.8-0.3c0-0.9,0-1.9,0-2.8c0-3.2,0-6.3,0-9.5c0-0.4,0-0.8,0.1-1.1
	C25,4.2,25.1,4.1,25.2,4.2z"/>
<path class="st154" d="M25.5,17.9c0.2,0,0.2-0.1,0.2-0.3c0.1-3.7,0-7.5,0-11.2c0-0.7-0.2-1.4-0.1-2.1c0.1,0,0.1,0,0.2,0
	c0.1,0.1,0.3,0.1,0.4,0.2c0.1,0.6,0,1.1,0.1,1.7c0,3.3,0,6.7,0,10c0,0.4,0,0.9,0,1.3c0,0.3,0,0.5-0.2,0.7
	C25.8,18.2,25.6,18.2,25.5,17.9z"/>
<path class="st155" d="M25.2,4.2c-0.1,0-0.1,0-0.2,0c-0.1,0.1-0.1,0.1-0.2,0.1c-0.4-0.1-0.9,0.1-1.3-0.1c-0.2-0.2-0.2-0.5-0.1-0.8
	c0.1,0,0.2,0.1,0.3,0.1c0.4,0.1,0.8,0.3,1.2,0.4C25,4,25.2,4,25.2,4.2z"/>
<path class="st156" d="M23.4,3.4c0,0.2,0.1,0.5,0,0.7c-0.2,0.2-0.5,0.2-0.8,0.2c-0.3,0-0.6,0.1-0.9-0.1c0.2-0.5,0-0.9-0.1-1.3
	c0,0,0.1,0,0.1,0C22.2,3.1,22.8,3.2,23.4,3.4z"/>
<path class="st157" d="M4.2,22.9c-0.2,0.5-0.3,1-0.4,1.5c-0.2,0.8-0.4,1.6-0.4,2.4c0,0.1-0.1,0.1-0.1,0.2c-0.2-1.8-0.1-3.6-0.1-5.4
	c0-0.3,0-0.5,0.1-0.8c0.1,0.1,0.1,0.2,0.2,0.3c0.2,0.6,0.4,1.1,0.7,1.6C4.2,22.8,4.3,22.8,4.2,22.9z"/>
<path class="st158" d="M32.4,7.5c0-0.1,0.1-0.2,0.1-0.2c0.5,0,0.8-0.3,1.1-0.6c0.1-0.1,0.3-0.1,0.4-0.2c0.4,0.2,0.8,0.3,1.2,0.5
	c0.1,0.3,0.5,0.2,0.6,0.5c-0.5,0.3-0.9,0.7-1.4,0.9c-0.1,0.1-0.2,0.2-0.2,0.3c0,0-0.1,0.1-0.1,0.1c-0.1,0-0.2,0-0.3,0
	c-0.2-0.4-0.6-0.5-0.9-0.7C32.7,7.9,32.5,7.8,32.4,7.5z"/>
<path class="st159" d="M34.2,8.7c0-0.1-0.1-0.2,0.1-0.3c0.4-0.2,0.8-0.5,1.1-0.8c0.1-0.1,0.3-0.1,0.4-0.1c0.2,0.1,0.3,0.1,0.5,0.2
	c0.3,0.2,0.5,0.4,0.8,0.6c-0.7,0.3-1.2,0.9-2,1.1C34.7,9.3,34.4,9.2,34.2,8.7z"/>
<path class="st160" d="M35.1,9.4c0.5-0.4,1.1-0.5,1.5-1c0.1-0.2,0.3-0.1,0.5-0.1c0.2,0.1,0.4,0.3,0.7,0.4C37.9,9,38.2,9,38.3,9.2
	c-0.6,0.5-1.3,0.9-1.9,1.3c-0.3,0.1-0.4-0.2-0.6-0.3c-0.3-0.2-0.5-0.5-0.8-0.7C35.1,9.5,35.1,9.5,35.1,9.4z"/>
<path class="st161" d="M31.7,44.1c-0.2,0.6,0,1.1-0.1,1.7c-0.3,0.3-0.7,0.6-1,1c-0.1,0-0.1,0-0.2,0c-0.1-0.1-0.2-0.3-0.2-0.4
	c0-0.5,0.1-1,0.1-1.5C30.7,44.4,31.1,44.1,31.7,44.1z"/>
<path class="st162" d="M30.4,44.8c0.1,0.7-0.1,1.3,0,2C30,47.3,29.5,47.6,29,48c0-0.1-0.1-0.1-0.1-0.2c0-0.7,0-1.4-0.1-2
	c0-0.1,0-0.3,0.1-0.4c0.3-0.3,0.7-0.4,1.1-0.6C30.1,44.7,30.2,44.7,30.4,44.8z"/>
<path class="st163" d="M29,45.4c-0.1,0.3,0,0.6,0,0.9c0.1,0.6,0,1.1,0,1.7c-0.4,0.3-0.7,0.6-1.1,0.8c0.2-0.3,0.3-0.5,0.2-0.9
	c-0.1-0.7,0-1.4,0-2.1c0-0.2,0.2-0.2,0.3-0.3C28.6,45.5,28.8,45.3,29,45.4z"/>
<path class="st164" d="M4.2,22.9c0-0.1,0-0.1,0-0.2c0.1-0.1,0.1-0.3,0.1-0.4c0.3-0.5,0.3-1,0.6-1.5c0.2,0.5,0.2,2.8,0,3.3
	c-0.2-0.3-0.3-0.5-0.5-0.8C4.3,23.2,4.3,23,4.2,22.9z"/>
<path class="st165" d="M4.9,24.1c0-1.1,0-2.2,0-3.3c0-0.2,0.1-0.3,0.1-0.5c0.3-0.3,0.3-0.7,0.5-1c0.2,0.1,0.2,0.4,0.2,0.6
	c0,1.6,0,3.2,0,4.7c0,0.3,0,0.5-0.3,0.7C5.3,25,5.2,24.8,5,24.5C5,24.4,4.9,24.2,4.9,24.1z"/>
<path class="st166" d="M39.6,10.3c0.4,0.4,0.8,0.7,1.2,1.1c0,0,0,0.1,0,0.1c-0.1,0.3-0.5,0.4-0.7,0.6c-0.4,0.3-0.8,0.7-1.3,0.9
	c-0.6-0.3-0.9-0.8-1.2-1.3c0,0,0-0.1,0-0.1C38.3,11.2,38.9,10.7,39.6,10.3z"/>
<path class="st167" d="M38.8,13c0.6-0.6,1.3-1.1,2-1.5c0.4,0.4,0.8,0.8,1.2,1.2c-0.2-0.1-0.4,0-0.6,0.1c-0.4,0.3-0.8,0.7-1.3,0.9
	c-0.2,0.1-0.4,0.2-0.6,0.1c-0.4,0-0.5-0.4-0.7-0.7C38.8,13.1,38.8,13.1,38.8,13z"/>
<path class="st168" d="M39.6,10.3c-0.6,0.5-1.3,1-2,1.3c-0.5-0.2-0.9-0.6-1.2-1.1c-0.1-0.3,0.2-0.2,0.3-0.3c0.5-0.4,1-0.8,1.6-1
	c0.3,0.3,0.6,0.5,1,0.7C39.4,10.1,39.5,10.2,39.6,10.3z"/>
<path class="st169" d="M7.3,28.5c-0.1-0.2-0.1-0.3-0.2-0.5C7,24.6,7.1,21.1,7,17.7c0-0.4,0-0.9,0.1-1.3c0.1-0.2,0.1-0.3,0.2-0.5
	c0.1-0.1,0.1-0.5,0.4-0.2c0.1,0.2,0.1,0.5,0.1,0.7c0,3.9,0,7.9,0,11.8c0,0.2,0,0.5-0.2,0.7C7.6,28.8,7.4,28.6,7.3,28.5z"/>
<path class="st170" d="M7.1,16.4c0.2,0.2,0.1,0.4,0.1,0.6c0,3.3,0,6.6,0,9.8c0,0.4,0.3,0.9-0.1,1.2c-0.2-0.1-0.2-0.4-0.4-0.5
	c-0.1-0.1-0.1-0.2-0.1-0.3c-0.1-0.2-0.1-0.5-0.1-0.7c0-2.8,0-5.6,0-8.4c0-0.3,0-0.6,0-0.9c0-0.1,0-0.1,0.1-0.2
	C6.8,16.8,6.9,16.6,7.1,16.4z"/>
<path class="st171" d="M7.6,15.6c-0.1,0.1-0.2,0.2-0.3,0.3c-0.2-2.1,0-4.3-0.1-6.4c0-0.2,0.1-0.3,0.1-0.5C7.5,8.8,7.8,8.7,8,8.5
	C8.1,8.7,8.2,9,8.2,9.2c-0.1,1.8,0,3.6,0,5.5C8.2,15.1,8,15.4,7.6,15.6z"/>
<path class="st172" d="M6.6,17.1c0,0,0,0.1,0,0.1c-0.1,0.3-0.2,0.7-0.6,0.9C6,18.1,5.9,18,5.9,18c-0.1-0.3-0.1-0.7-0.1-1.1
	c0-1.9,0-3.8,0-5.7c0-0.4,0.1-0.8,0.2-1.1c0.1-0.2,0.3-0.5,0.5-0.6c0,0,0.1,0,0.1,0.1c-0.3,0.4-0.1,0.8-0.1,1.1
	c0.2,1.7,0.1,3.3,0.1,5C6.6,16.1,6.6,16.6,6.6,17.1z"/>
<path class="st173" d="M8.1,14.8C8,13.2,8,11.5,8,9.9C8,9.5,8,9,8,8.5c0.2-0.1,0.3-0.2,0.5-0.3c0,0,0.1,0,0.1,0
	c0.1,0.1,0.1,0.2,0.1,0.3c0,1.6,0,3.2,0,4.9c0,0.2-0.1,0.5-0.1,0.7c0,0.3-0.1,0.5-0.4,0.6C8.2,14.8,8.2,14.8,8.1,14.8z"/>
<path class="st174" d="M6,10.1c-0.2,2.2-0.1,4.4-0.1,6.7c0,0.4,0.1,0.8,0.1,1.3c0.1,0.5-0.1,0.8-0.5,1c-0.3-0.4-0.2-0.8-0.2-1.2
	c0-2.2-0.1-4.4,0-6.5c0-0.1,0-0.2,0-0.3C5.5,10.7,5.7,10.4,6,10.1z"/>
<path class="st175" d="M20.4,47.3c-0.3,0-0.7,0.2-1,0.1c0.1-1.7,0-3.4,0-5c0-0.4,0-0.8-0.1-1.2c0-0.1,0.1-0.1,0.2-0.2
	c0.3,0,0.5,0,0.8,0.2c0.1,0,0.1,0.1,0.1,0.1c0.3,0.4,0.2,0.9,0.2,1.3c0,1.3,0,2.6,0,3.9C20.6,46.8,20.6,47.1,20.4,47.3z"/>
<path class="st176" d="M20.4,47.3c0.2-1.7,0.1-3.4,0-5.2c0-0.3,0-0.6-0.1-0.9c0.3-0.2,0.6-0.2,0.8,0c0.3,0.3,0.4,0.7,0.4,1
	c0,1.5,0,2.9,0,4.4c0,0.3,0,0.5-0.3,0.6c-0.2,0-0.4,0-0.6,0C20.5,47.3,20.4,47.3,20.4,47.3z"/>
<path class="st177" d="M19.4,41.1c0.2,0.2,0.2,0.4,0.2,0.6c0,1.7,0,3.4,0,5.1c0,0.2,0,0.4-0.2,0.5c0,0-0.1,0-0.1,0
	c-0.3,0-0.5,0-0.8,0c0.3-0.5,0.2-1,0.2-1.5c0-1,0-2,0-3.1c0-0.6-0.1-1.3-0.1-1.9C18.9,40.7,19.1,40.9,19.4,41.1z"/>
<path class="st178" d="M18.7,40.9c0.1,0.3,0.2,0.7,0.2,1c0,1.6,0,3.2,0,4.8c0,0.3-0.1,0.6-0.4,0.7c-0.2,0-0.5,0-0.7,0
	c-0.2,0-0.5,0.1-0.7-0.1c0.1-0.2,0.3-0.1,0.5-0.2c0.4-0.1,0.3-0.4,0.3-0.7c0-1.9,0-3.7,0-5.6c0-0.1,0-0.2,0-0.2
	C18.3,40.3,18.4,40.6,18.7,40.9z"/>
<path class="st179" d="M13.2,6.2c0.2-0.1,0.4-0.1,0.6-0.2c0.4-0.2,0.4,0.1,0.4,0.4c0,0.7,0,1.3,0,2c0,0.2,0,0.4,0,0.6
	c-0.2,0.5-0.6,0.8-1.1,0.7c-0.1-0.1-0.1-0.3-0.1-0.5c0-0.8,0-1.6,0-2.4C13.1,6.5,13.1,6.4,13.2,6.2z"/>
<path class="st180" d="M15.1,5.5c0.3-0.1,0.6-0.1,0.9-0.2c0.2,0.4,0.1,0.7,0.1,1.1c0,0.4-0.1,0.9,0.1,1.3c0,0.1,0,0.2,0,0.2
	c-0.4,0.2-0.7,0.6-1.2,0.6c-0.2-0.2-0.1-0.4-0.1-0.7c0.1-0.7,0.1-1.5-0.1-2.2C14.9,5.7,15,5.6,15.1,5.5z"/>
<path class="st181" d="M14.7,5.7C15,5.9,15,6.2,15,6.5c0,0.6,0,1.2-0.1,1.8c0,0.1,0,0.2,0.1,0.2c0,0.3-0.3,0.3-0.5,0.5
	c-0.1,0.1-0.2,0.1-0.3,0C14.1,9,14,8.9,14.1,8.8c0.1-0.8,0-1.6,0.1-2.3c0-0.2,0-0.4-0.3-0.4C14.1,5.8,14.4,5.8,14.7,5.7z"/>
<path class="st182" d="M13.2,6.2c0,1,0,1.9,0,2.9c0,0.2-0.1,0.4,0.1,0.5c0,0.1,0,0.2-0.1,0.3c-0.1,0.1-0.3,0.2-0.4,0.3
	c-0.2,0.1-0.3,0.1-0.3-0.1c-0.1-1.1,0-2.2,0-3.2c0-0.2,0.1-0.3,0.1-0.4c0.2-0.1,0.3-0.1,0.5-0.2C13.2,6.2,13.2,6.2,13.2,6.2z"/>
<path class="st183" d="M16.2,7.8c-0.1,0-0.2-0.1-0.2-0.1c0-0.8,0-1.6,0-2.4c0,0,0.1-0.1,0.1-0.1c0.2,0,0.5-0.1,0.7-0.1
	C17,5.4,16.9,5.7,16.9,6c0,0.2,0,0.4,0.2,0.5c0.1,0.3-0.2,0.5-0.3,0.7c-0.1,0.2-0.2,0.4-0.4,0.5C16.4,7.8,16.3,7.8,16.2,7.8z"/>
<path class="st184" d="M10.1,40.6c-0.1-0.1-0.1-0.2-0.2-0.3c-0.1-0.5-0.2-1-0.3-1.5c-0.1-0.6-0.2-1.2-0.1-1.9c0-0.3,0-0.7,0-1
	c-0.1-1.1,0-2.2,0-3.3c0-0.2,0-0.3,0.1-0.4c0.4-0.2,0.4,0.2,0.6,0.3c0.1,0.1,0.1,0.2,0.1,0.3c0.1,1.9,0.1,3.8,0.1,5.7
	c0,0.6,0,1.2-0.1,1.8C10.4,40.4,10.4,40.7,10.1,40.6z"/>
<path class="st185" d="M9.8,32c-0.1,1-0.3,2-0.2,3c0.1,0.7,0.1,1.4,0,2.1c-0.1,0.5,0,1.1,0,1.6c-0.3-0.7-0.3-1.5-0.5-2.2
	c0-0.1-0.1-0.1-0.1-0.2c0-0.2,0-0.4,0-0.6c-0.1-1.5-0.3-3,0-4.6c0.1-0.1,0.2-0.1,0.3-0.1c0.2,0.2,0.3,0.4,0.5,0.6
	C9.8,31.8,9.9,31.9,9.8,32z"/>
<path class="st186" d="M11.1,43.6c-0.1-0.2-0.2-0.4-0.3-0.6c0-0.2-0.1-0.3-0.1-0.5c-0.1-0.3-0.1-0.6-0.1-0.8c0-2.6,0-5.1,0-7.7
	c0-0.2,0-0.4,0.1-0.6c0.2-0.1,0.3,0,0.5,0.1c0.1,0.1,0.2,0.3,0.2,0.5c-0.1,1.3,0,2.6,0,4c0,1.7,0,3.3,0,5
	C11.4,43.1,11.6,43.5,11.1,43.6z"/>
<path class="st187" d="M10.9,33.3c-0.1,0.1-0.2,0.2-0.1,0.3c0.1,2.2,0,4.5,0,6.7c0,0.7,0,1.4-0.1,2.1c-0.3-0.6-0.5-1.2-0.6-1.9
	c0.3-0.2,0.2-0.6,0.2-0.9c0-1.8,0-3.6,0-5.3c0-0.6-0.2-1.1,0-1.7c0.3,0,0.4,0.3,0.6,0.4C10.9,33.2,11,33.2,10.9,33.3z"/>
<path class="st188" d="M8.2,14.8c0.1-0.2,0.2-0.3,0.3-0.5c0.1-0.1,0.1-0.3,0.2-0.4c0.1-0.1,0.3-0.2,0.4,0.1c0.1,0.2,0.1,0.5,0.1,0.7
	c0,3,0,6,0,9c0,0.2,0,0.3,0,0.5c0,0.6-0.1,1.2-0.2,1.8c-0.2,1.4-0.3,2.7-0.3,4.1c0,0.1,0,0.3,0,0.4c0,0.1,0,0.2-0.2,0.2
	c-0.1-0.3-0.1-0.6-0.4-0.8c0-0.1-0.1-0.2-0.1-0.3C8.1,29.3,8,29.1,8,28.9c0-4.4,0-8.8,0-13.2C8,15.4,8.1,15.1,8.2,14.8z"/>
<path class="st189" d="M8.2,14.8c0,3.8,0,7.6,0,11.5c0,0.9,0,1.8,0,2.7c0,0.2,0,0.4-0.1,0.6c-0.2-0.1-0.3-0.4-0.4-0.6
	c0-4.2,0-8.5,0-12.7c0-0.2,0-0.4-0.1-0.6C7.7,15.3,8,15.1,8.2,14.8C8.1,14.8,8.2,14.8,8.2,14.8z"/>
<path class="st190" d="M8.6,30.6c0,0,0.1-0.1,0.1-0.1c0.2,0,0.3,0.2,0.4,0.3c0.1,0.1,0.1,0.2,0,0.3C8.9,32.7,9,34.2,9,35.7
	c-0.2-0.6-0.2-1.2-0.3-1.8C8.6,32.8,8.6,31.7,8.6,30.6z"/>
<path class="st191" d="M16.2,47.3c-0.1-0.3-0.1-0.5-0.1-0.8c0-1.7,0-3.4,0-5.1c0-0.4,0-0.9,0.1-1.3c0.1-0.4-0.1-0.7-0.3-0.9
	c0,0,0.1-0.1,0.2-0.1c0.2,0.1,0.4,0.2,0.5,0.4c0.4,0.4,0.5,0.9,0.5,1.5c0,1.8,0,3.7,0,5.5c0,0.3,0,0.6-0.3,0.8
	C16.6,47.3,16.4,47.3,16.2,47.3z"/>
<path class="st192" d="M16.8,47.3c0.2-1.2,0.1-2.4,0.1-3.5c0-1.2,0.1-2.3-0.1-3.5c0-0.4-0.4-0.5-0.4-0.8c0.4,0,0.6,0.4,0.9,0.6
	c0.2,0.1,0.3,0.3,0.3,0.5c0.1,2.1,0,4.2,0,6.3c0,0.2,0,0.3-0.2,0.5c-0.2,0-0.3,0-0.5,0C17,47.3,16.9,47.3,16.8,47.3z"/>
<path class="st193" d="M15.1,47.1c-0.3,0-0.5-0.1-0.7-0.3c-0.2-0.4-0.2-0.9-0.1-1.3c0-2.4,0-4.8,0-7.3c0-0.2-0.1-0.4-0.1-0.6
	c0-0.3,0.2-0.2,0.3-0.1c0.2,0.2,0.4,0.4,0.5,0.6c0.1,0.2,0.4,0.4,0.4,0.7c-0.1,0.2-0.1,0.4-0.1,0.6c0,2.2,0,4.3,0,6.5
	C15.3,46.3,15.4,46.8,15.1,47.1z"/>
<path class="st194" d="M15.4,38.9c-0.3-0.2-0.4-0.5-0.6-0.8c-0.2-0.2-0.3-0.5-0.6-0.6c-0.4-0.3-0.5-0.7-0.7-1.1
	c0-0.1-0.1-0.2-0.1-0.3c-0.1-0.1-0.1-0.1,0-0.2c0.2-0.1,0.2,0.1,0.3,0.2c0.4,0.5,0.9,1,1.2,1.6c0.3,0.4,0.6,0.9,1,1.2
	c0.1,0.1,0.2,0.2,0.1,0.3c0,0-0.1,0-0.1,0C15.8,39.1,15.6,39,15.4,38.9z"/>
<path class="st195" d="M13.5,36.3c0.3,0.3,0.5,0.7,0.7,1.1c0.3,0.4,0.2,0.8,0.2,1.2c0,2.6,0,5.2,0,7.9c0,0.1,0,0.2,0,0.3
	c-0.4-0.1-0.7-0.3-1-0.5c0.2-0.2,0.2-0.5,0.2-0.7c0-2.7,0-5.4,0-8.1C13.6,37.1,13.4,36.7,13.5,36.3z"/>
<path class="st196" d="M28.4,45.6c-0.1,0.1-0.2,0.1-0.3,0.2c-0.3,0.1-0.7,0.2-1,0.3c0,0,0,0,0,0C27,46,27,46,26.9,45.9
	c-0.1-0.9-0.2-1.9,0.1-2.8c0.1-0.1,0.2-0.1,0.4-0.1c0.2,0.1,0.5,0.1,0.7,0.1c0.2,0.1,0.4,0,0.5,0.3c0,0.5,0,0.9,0,1.4
	C28.6,45.1,28.6,45.4,28.4,45.6z"/>
<path class="st197" d="M27.1,43.1c-0.1,1-0.2,2,0,3c-0.3,0.1-0.7,0.2-1,0.3c-0.1,0-0.1,0.1-0.2,0.1c-0.1-0.1-0.2-0.3-0.2-0.5
	c0-0.8,0-1.7,0-2.5c0-0.2,0-0.4,0.2-0.6c0.2-0.2,0.4-0.1,0.7-0.1C26.8,42.9,27,42.9,27.1,43.1z"/>
<path class="st198" d="M26,42.9c-0.1,0.2-0.1,0.4-0.1,0.7c0,1,0,2,0,2.9c-0.3,0.1-0.5,0.1-0.8,0.2c0,0-0.1,0-0.1,0
	c-0.1-0.1-0.2-0.3-0.2-0.5c0-1,0-2,0-3c0-0.2,0-0.4,0.2-0.6c0.3-0.2,0.6,0,0.9,0.1C25.9,42.7,26,42.8,26,42.9z"/>
<path class="st199" d="M5.5,19.1c0.2-0.3,0.4-0.6,0.5-1c0,0,0.1,0,0.1,0c0.2,0.2,0.2,0.4,0.2,0.6c0,2.2,0,4.4,0,6.6
	c0,0.3,0,0.7-0.3,1c-0.2-0.3-0.3-0.5-0.5-0.8c0,0,0-0.1,0-0.1c0.1-0.2,0.1-0.4,0.1-0.6c0-1.3,0-2.6,0-3.8c0-0.5,0-1.1-0.1-1.6
	C5.5,19.2,5.5,19.1,5.5,19.1z"/>
<path class="st200" d="M22.7,47.1c-0.2,0-0.5,0.1-0.7,0.1c-0.2-0.3-0.1-0.6-0.2-1c0-1.6,0-3.1,0-4.7c0-0.1,0.1-0.1,0.2-0.2
	c0.1,0,0.1,0,0.2,0c0.2,0.1,0.5,0.1,0.6,0.4c0.1,1.7,0.1,3.4,0,5.1C22.8,46.9,22.7,47,22.7,47.1z"/>
<path class="st201" d="M21.9,41.5c0,0.1,0.2,0.2,0.2,0.3c-0.2,1.5,0,3-0.1,4.5c0,0.3,0.2,0.6,0,0.8c-0.1,0-0.1,0-0.2,0
	c-0.2,0-0.4,0.1-0.6,0.1c0.2-0.1,0.2-0.3,0.2-0.5c0-1.5,0-2.9,0-4.4c0-0.4-0.1-0.7-0.3-1C21.3,41.2,21.6,41.3,21.9,41.5z"/>
<path class="st202" d="M22.7,47.1c0-1.8,0-3.6,0-5.4c0.4,0,0.7,0,0.9,0.5c-0.2,1.4-0.1,2.7,0,4.1c0,0.3,0,0.5-0.1,0.8c0,0,0,0,0,0
	C23.1,47,22.9,47.1,22.7,47.1z"/>
<path class="st203" d="M23.4,47c-0.1-1.6-0.2-3.1,0-4.7c0-0.1,0.1-0.1,0.1-0.2c0.1-0.1,0.2-0.1,0.3-0.1c0.2,0.1,0.6,0.1,0.6,0.4
	c0,1.1,0,2.2,0,3.3c0,0.4,0.1,0.9-0.3,1.2C23.8,46.9,23.6,46.9,23.4,47z"/>
<path class="st204" d="M24.1,46.9c0.2-0.4,0.2-0.8,0.2-1.2c0-1,0-2,0-3c0-0.1,0-0.2,0.1-0.3c0.2-0.1,0.3-0.1,0.5,0
	c0.1,0,0.2,0.1,0.2,0.2C24.9,43.3,25,44,25,44.7c0,0.6,0,1.3,0,1.9c-0.2,0-0.5,0.1-0.7,0.2C24.2,46.9,24.1,46.9,24.1,46.9z"/>
<path class="st205" d="M6,26.2c0.1-0.6,0.1-1.2,0.1-1.8c0-2.1,0-4.2,0-6.3c0.1-0.4,0.3-0.6,0.5-0.9c0.1,0.5,0.1,1,0.1,1.5
	c0,2.6,0,5.1,0,7.7c0,0.3,0,0.6-0.1,0.8c-0.1-0.2-0.3-0.3-0.4-0.5C6.1,26.5,6.1,26.4,6,26.2z"/>
<path class="st206" d="M11.1,43.6c0.2-0.1,0.2-0.2,0.2-0.4c0-2.9,0-5.8,0-8.7c0-0.2,0-0.4,0.1-0.6c0.1-0.1,0.2,0,0.2,0.1
	c0.1,0.1,0.2,0.2,0.2,0.3c-0.2,0.5-0.1,0.9-0.1,1.4c0,2.5,0,5,0,7.5c0,0.6,0.2,1.2,0,1.8C11.4,44.5,11.3,44,11.1,43.6z"/>
<path class="st207" d="M11.8,34.2c-0.1-0.1-0.2-0.2-0.2-0.3c0-0.5-0.1-1,0.3-1.4c0.1,0,0.2,0.1,0.2,0.2c0.3,0.9,0.7,1.7,1,2.5
	c0,0.1,0,0.1-0.2,0.1c0,0-0.1,0-0.1,0c-0.1-0.1-0.2-0.2-0.3-0.3C12.3,34.8,12.1,34.5,11.8,34.2z"/>
<path class="st208" d="M9,8c0.3-0.1,0.5-0.3,0.8-0.4c0,0,0.1,0,0.1,0c0.2,0.2,0.2,0.4,0.2,0.6c0,1.4-0.1,2.8,0.1,4.2
	c0,0.2-0.1,0.3-0.2,0.4c-0.2,0.2-0.3,0.5-0.7,0.6c-0.1,0-0.1,0-0.1-0.1c-0.2-0.1-0.2-0.3-0.2-0.5c0-1.5-0.1-3,0-4.5
	C8.9,8.3,9,8.1,9,8z"/>
<path class="st209" d="M10,12.5c-0.2-1.5-0.1-2.9-0.1-4.4c0-0.2,0-0.4,0-0.5c0.3-0.2,0.6-0.3,0.9-0.5c0,0,0,0,0,0
	C10.9,7.2,11,7.4,11,7.5c0,1.4,0,2.7,0,4.1c0,0.2-0.2,0.4-0.3,0.5C10.4,12.3,10.3,12.6,10,12.5z"/>
<path class="st210" d="M9,8c0,1.5,0,2.9,0,4.4c0,0.3,0,0.7,0.2,1c0,0.1-0.1,0.3-0.2,0.3c-0.2,0.1-0.3,0.4-0.5,0.5c0-1.5,0-2.9,0-4.4
	c0-0.5-0.1-1.1,0.1-1.6C8.7,8.2,8.9,8.1,9,8z"/>
<path class="st211" d="M10.8,11.7c0-1.5,0-3.1,0-4.6c0.3,0,0.6-0.3,0.9-0.3c0.2,0.3,0.1,0.7,0.1,1c0,1,0,1.9,0,2.9
	c0,0.3-0.2,0.5-0.4,0.7C11.3,11.5,11.1,11.8,10.8,11.7z"/>
<path class="st212" d="M11.8,10.8c0-0.1-0.1-0.2-0.1-0.3c0-1.2,0-2.5,0-3.7c0.1,0,0.1-0.1,0.2-0.1c0.2-0.1,0.5-0.2,0.7-0.3
	c0,1.3,0,2.5,0,3.8c0,0.1,0,0.1,0,0.2c-0.2,0.2-0.4,0.4-0.6,0.5C11.9,10.9,11.9,10.9,11.8,10.8z"/>
<path class="st213" d="M12.9,35.3c0,0,0.1-0.1,0.1-0.1c0.3,0.1,0.4,0.4,0.4,0.7c0,0.1,0,0.1,0,0.2C13.1,35.9,13.2,35.5,12.9,35.3z"
	/>
<path class="st214" d="M40.3,37.7c0.2-0.7,0.2-1.4,0.6-2c0,0,0-0.1,0-0.1c-0.3-0.6,0.2-1.1,0.3-1.7c0.1-0.2,0-0.3-0.1-0.4
	c-0.1-0.2,0-0.3,0.1-0.5c0.4-0.4,0.9-0.4,1.4-0.3c0.3,0.3,0.2,0.6,0.2,0.9c-0.2,0.7-0.5,1.4-0.6,2.1c0,0.3-0.2,0.5-0.3,0.8
	c0,0.2-0.1,0.3-0.1,0.5C41.4,37.6,40.8,37.5,40.3,37.7z"/>
<path class="st215" d="M42.6,32.8c-0.1,0.1-0.3,0.1-0.5,0.1c-0.3,0-0.6,0.1-0.8,0.3c-0.2-0.2,0-0.4,0.1-0.5c0.2-0.4,0.4-0.7,0.5-1.1
	c0.8-1.7,1.3-3.4,1.8-5.2c0.1-0.2,0-0.6,0.4-0.7c0.1,0.7,0.2,1.3,0.1,2c0,0.6,0,1.2-0.3,1.7C43.4,30.5,43.3,31.8,42.6,32.8z"/>
<path class="st216" d="M44.1,25.7c-0.5,1.6-0.9,3.2-1.6,4.8c-0.2,0.4-0.3,0.8-0.5,1.1c-0.3,0.2-0.4,0-0.5-0.2
	c-0.1-0.1-0.1-0.3-0.1-0.5c0-0.3,0-0.5,0.1-0.7c0.4-1,0.4-2,0.8-2.9c0.1-0.3,0.3-0.5,0.5-0.7c0.4-0.3,0.8-0.6,1.1-1.1
	c0-0.1,0.1-0.1,0.2-0.1c0,0,0.1,0,0.1,0C44.1,25.5,44.1,25.6,44.1,25.7z"/>
<path class="st217" d="M19.6,6.1c-0.1-0.3-0.2-0.6-0.2-1c0-0.2,0.1-0.4-0.1-0.5c0.2-0.2,0.4-0.1,0.6-0.1c0.3-0.1,0.4,0.1,0.5,0.3
	c0.1,0.3,0,0.6,0,1c0,0.1,0,0.1-0.1,0.2C20.1,6.1,19.9,6.3,19.6,6.1z"/>
<path class="st218" d="M20.3,5.8c0-0.2,0-0.5,0-0.7c0-0.3,0-0.6-0.4-0.6c0.2-0.2,0.5,0,0.7-0.2c0.2,0,0.4,0,0.6,0
	c0.2,0.3,0.1,0.7,0.2,1.1c0,0.2-0.2,0.3-0.3,0.3C20.8,5.8,20.5,6,20.3,5.8z"/>
<path class="st219" d="M18.5,4.9c0.3,0.2,0.2,0.5,0.2,0.7c-0.1,0.3-0.1,0.6,0,0.9c0,0,0,0.1,0,0.1C18.4,6.8,18.2,7,17.9,7
	c-0.3-0.3-0.1-0.7-0.2-1C17.8,5.6,18.2,5.3,18.5,4.9z"/>
<path class="st220" d="M17.6,6c0.3,0.2,0.1,0.6,0.2,0.9c0,0,0,0.1,0,0.1c-0.2,0.2-0.4,0.2-0.6,0.3c-0.2,0.1-0.4,0.2-0.6,0.3
	c-0.1,0.1-0.2,0.1-0.3,0C16.6,7.3,17,7,17.1,6.5C17.4,6.4,17.4,6.1,17.6,6z"/>
<path class="st221" d="M18.7,6.6C18.7,6.6,18.7,6.6,18.7,6.6c0.3-0.2,0.6-0.3,0.9-0.4c0.3,0.4,0.3,0.8,0.3,1.2c0,3.2,0,6.3,0,9.5
	c0,0.2,0,0.4-0.1,0.6c-0.3,0.3-0.6,0.5-1,0.3c-0.1-0.4-0.1-0.9-0.1-1.3c0-3.2,0-6.3,0-9.5C18.6,6.9,18.6,6.7,18.7,6.6z"/>
<path class="st222" d="M19.6,17.6c0.1-0.2,0.1-0.4,0.1-0.6c0-3.2,0-6.3,0-9.5c0-0.4-0.2-0.8-0.1-1.2c0,0,0-0.1,0-0.1
	C19.8,6.1,20,6,20.3,5.9c0.3,0,0.2,0.3,0.3,0.5c0,0.3,0,0.6,0,1c0,3.1,0,6.1,0,9.2c0,0.3,0,0.6-0.2,0.9
	C20.1,17.6,19.9,17.8,19.6,17.6z"/>
<path class="st201" d="M21.3,5.4c-0.2-0.4,0-0.7-0.1-1.1c0.2,0,0.3-0.1,0.5-0.1c0.3,0,0.6,0,0.9,0c0.2,0.2,0.2,0.5,0.1,0.7
	c-0.1,0.2-0.4,0.3-0.6,0.4c-0.2,0.1-0.4,0.1-0.6,0.2C21.4,5.5,21.3,5.5,21.3,5.4z"/>
<path class="st223" d="M41.5,30.9c0.2,0.2-0.1,0.7,0.5,0.7c-0.2,0.5-0.5,1.1-0.7,1.6c-0.1,0.1-0.2,0.2-0.2,0.4
	c-0.5,0.8-0.9,1.7-1.5,2.5c-0.2,0-0.2-0.1-0.2-0.3c0-0.2-0.1-0.4-0.2-0.6c-0.1-0.5,0.3-0.9,0.4-1.3c0.3-0.6,0.4-1.3,0.6-1.9
	c0.3-0.3,0.5-0.7,1-1C41.2,31,41.4,30.9,41.5,30.9z"/>
<path class="st224" d="M37.1,42.2C36.9,41.6,37,41,37,40.4c0-0.2,0.1-0.4-0.2-0.6c-0.1-0.2,0.1-0.3,0.2-0.4c0.5-0.5,1-1.1,1.4-1.7
	c0.1-0.1,0.2-0.4,0.4-0.3c0.2,0.2,0.2,0.4,0.1,0.6c-0.2,0.7-0.5,1.4-0.4,2.1C37.9,40.7,37.6,41.5,37.1,42.2z"/>
<path class="st225" d="M38.8,37.4c-0.4,0.6-0.9,1.1-1.3,1.7c-0.1,0.2-0.3,0.3-0.5,0.4c-0.1-0.4,0.2-0.6,0.3-0.8
	c0.3-0.4,0.5-0.8,0.7-1.3c0.3-0.5,0.5-1.1,0.8-1.6c0.1-0.2,0.1-0.5,0.4-0.6c0.5,0.2,0.2,0.6,0.4,0.9C39.4,36.6,39.1,37,38.8,37.4z"
	/>
<path class="st226" d="M35.1,9.5c0.4,0.1,0.5,0.4,0.8,0.6c0.1,0.2,0.2,0.3,0.2,0.5c0.1,0.6,0.1,1.3,0.1,1.9c0,8.4,0,16.8,0,25.3
	c0,0.9,0,1.8-0.1,2.7c0,0,0,0.1,0,0.1c-0.3,0.4-0.6,0.8-1.1,0.9c0,0-0.1-0.1-0.1-0.2c-0.1-3.7,0-7.4,0-11.1c0-6.4,0-12.9,0-19.3
	C34.9,10.5,34.9,10,35.1,9.5z"/>
<path class="st227" d="M36.1,40.6c-0.3-0.2-0.1-0.5-0.1-0.7c0-0.3,0-0.6,0-0.9c0-9.1,0-18.3,0-27.4c0-0.3-0.3-0.7,0-1
	c0,0,0.1,0,0.1,0c0.4,0.5,0.8,1,0.8,1.8c0.1,0.7,0,1.5,0,2.2c0,7.9,0,15.9,0,23.8c0,0.6,0,1.1-0.4,1.6
	C36.6,40.3,36.3,40.4,36.1,40.6z"/>
<path class="st228" d="M36.6,40c0.4-1.6,0.2-3.2,0.2-4.8c0-7.3,0-14.6,0-21.9c0-0.3,0-0.5-0.1-0.8c-0.1-0.2,0-0.3,0.2-0.4
	c0.3,0.1,0.3,0.3,0.4,0.5c0.1,0.2,0.2,0.5,0.2,0.7c-0.1,0.3,0,0.6,0,1c0,7.5,0,15,0,22.5c0,0.6,0.1,1.3-0.1,1.9
	c-0.1,0.3-0.3,0.5-0.4,0.8c-0.1,0.1-0.1,0.2-0.2,0.3C36.8,39.9,36.7,39.9,36.6,40z"/>
<path class="st229" d="M35.1,41.6c0.2-0.4,0.7-0.6,1-0.9c0,0.2-0.2,0.4-0.3,0.6c-0.2,0.2-0.3,0.5-0.6,0.6
	C34.9,41.9,35.1,41.7,35.1,41.6z"/>
<path class="st230" d="M35.1,41.6c0.1,0.1-0.1,0.3,0.1,0.3c-0.4,0.6-0.9,1.2-1.4,1.7c-0.1-0.2-0.1-0.5-0.3-0.7
	c0.1-0.4,0.5-0.5,0.7-0.8C34.5,41.9,34.7,41.7,35.1,41.6C35.1,41.6,35.1,41.6,35.1,41.6z"/>
<path class="st231" d="M32.2,43.7c-0.1,0.1-0.1,0.1-0.2,0.2c-0.1,0-0.1,0-0.2,0c-0.1,0-0.2,0.1-0.3,0c-0.2-0.1-0.2-0.3-0.2-0.5
	c0-0.5,0-1,0-1.6c0-0.5,0.2-0.7,0.6-0.8c0.2,0,0.5-0.1,0.7,0c0.1,0.1,0.1,0.2,0,0.2c-0.6,0.4-0.5,0.9-0.4,1.5
	C32.3,43.1,32.4,43.4,32.2,43.7z"/>
<path class="st232" d="M31.6,43.9c0.1,0,0.1,0,0.2,0c0,0.1-0.1,0.1-0.1,0.2c-0.4,0.2-0.9,0.5-1.3,0.7c-0.1,0-0.3,0.1-0.4,0.1
	c-0.2-0.4-0.3-0.8-0.1-1.2c0.2-0.2,0.5-0.1,0.8-0.1C31,43.6,31.3,43.7,31.6,43.9z"/>
<path class="st233" d="M32.2,43.7c0-0.4-0.1-0.9-0.1-1.3c-0.1-0.5,0.1-1,0.6-1.2c0.1-0.1,0.2-0.1,0.3-0.1c0.2,0,0.4,0,0.7,0.1
	c0.2,0.2,0,0.2-0.1,0.3c-0.3,0.2-0.3,0.4-0.3,0.7c0,0.3,0,0.7-0.1,1C32.8,43.3,32.5,43.5,32.2,43.7z"/>
<path class="st234" d="M33.1,43.1c0-0.5,0-1,0-1.5c0-0.3,0.4-0.2,0.6-0.4c0.2-0.2,0.5-0.1,0.8-0.1c0.1,0,0.2,0.1,0.1,0.2
	c-0.3,0.2-0.2,0.6-0.3,0.9c-0.2,0.3-0.6,0.4-0.8,0.7C33.4,42.9,33.2,43,33.1,43.1z"/>
<path class="st235" d="M28,5.2c0.3,0.1,0.7,0.3,1,0.4c0,0,0.1,0.1,0.1,0.1c0.1,1,0.2,2-0.1,2.9c-0.1,0.1-0.2,0.1-0.4,0.1
	c-0.7,0-0.9-0.1-0.9-0.8c0-0.7,0-1.4,0-2.1C27.7,5.6,27.7,5.4,28,5.2z"/>
<path class="st236" d="M29,8.6c0-0.8,0-1.5,0-2.3c0-0.2,0-0.4,0.1-0.6c0.3,0.1,0.5,0.3,0.8,0.4C30,6.3,30,6.5,30,6.7
	c-0.1,0.7,0,1.4-0.1,2c-0.2,0.1-0.4,0.1-0.6,0.1C29.2,8.7,29.1,8.7,29,8.6z"/>
<path class="st237" d="M29.9,8.6c-0.2-0.3-0.1-0.7-0.1-1c0-0.5,0.1-1,0.1-1.5c0.2,0.1,0.4,0.2,0.6,0.3c0.4,0.7,0.3,1.5,0.1,2.2
	C30.4,8.8,30.1,8.8,29.9,8.6z"/>
<path class="st238" d="M30.6,8.6c0-0.7,0-1.5-0.1-2.2c0.1,0.1,0.3,0.1,0.4,0.2c0.2,0.1,0.3,0.2,0.5,0.3c0.3,0.6,0.2,1.2-0.1,1.8
	C31.1,8.8,30.8,8.8,30.6,8.6z"/>
<path class="st239" d="M26.8,4.7c0.3,0,0.5,0.2,0.8,0.3c0.1,0.2,0,0.5,0.1,0.7c0,4,0,7.9,0,11.9c0,0.4-0.1,0.8-0.1,1.2
	c-0.5,0.1-0.8-0.1-1-0.6c0-4.3,0-8.5,0-12.8C26.5,5.2,26.5,4.9,26.8,4.7z"/>
<path class="st240" d="M26.8,4.7c-0.2,0.4-0.1,0.7-0.1,1.1c0,4,0,7.9,0,11.9c0,0.2,0,0.5-0.1,0.7c-0.3,0.1-0.5,0-0.6-0.3
	c0.2-0.2,0.2-0.5,0.1-0.7c0-0.1,0-0.2,0-0.3c0-3.9,0-7.9,0-11.8c0-0.3,0-0.6,0.1-0.8C26.4,4.5,26.6,4.6,26.8,4.7z"/>
<path class="st241" d="M27.5,18.9c0-2.9,0-5.8,0-8.6c0-1.5,0-3,0-4.5c0-0.3,0-0.5,0.1-0.8c0.1,0.1,0.3,0.1,0.4,0.2
	c-0.2,0.5-0.1,1-0.1,1.4c0,0.5,0,1,0,1.5c0,0.4,0.1,0.5,0.5,0.4c0.2,0,0.4,0,0.6,0c0.1,0,0.2,0,0.3,0c0,0.1,0,0.1-0.1,0.2
	c-0.1,0.1-0.3,0.1-0.4,0.1c-0.7,0.1-0.7,0.1-0.7,0.8c0,2.8,0,5.7,0,8.5c0,0.2,0,0.4,0,0.6c0,0.2,0,0.4-0.3,0.4
	C27.7,19.2,27.5,19.1,27.5,18.9z"/>
<path class="st231" d="M31.4,8.6c0-0.6,0.1-1.1,0-1.7c0.3,0.2,0.7,0.4,1,0.6c0.2,0.1,0.3,0.4,0.6,0.4c0.1,0.1,0.1,0.2,0.2,0.4
	c0.1,0.2,0,0.4-0.2,0.4C32.5,8.8,31.9,8.9,31.4,8.6z"/>
<path class="st242" d="M42.5,19.2c0.1,0.3,0.1,0.5,0.2,0.8c-0.3,0.8-0.6,1.6-1,2.4c-0.2,0.3-0.3,0.7-0.5,1.1
	c-0.1,0.2-0.2,0.5-0.6,0.4c-0.3-0.6-0.3-1.3-0.3-2c0.5-1,0.9-2,1.3-3c0.1-0.3,0-0.6,0.3-0.9C42.1,18.4,42.3,18.8,42.5,19.2z"/>
<path class="st243" d="M41.9,18c-0.3,1.4-0.8,2.6-1.5,3.8c-0.1,0-0.1,0-0.1,0c-0.2-0.7-0.4-1.4-0.5-2.1c0.3-0.9,0.7-1.7,1.1-2.6
	c0.1-0.1,0.1-0.3,0.3-0.4c0.3,0.3,0.4,0.8,0.7,1.1C41.9,17.8,41.9,17.9,41.9,18z"/>
<path class="st244" d="M41.2,16.7c-0.4,1-0.9,1.9-1.3,2.9c-0.2,0-0.2-0.2-0.3-0.3c-0.1-0.5-0.3-0.9-0.3-1.4c0-0.2,0.1-0.4,0.2-0.6
	c0.3-0.5,0.6-1.1,0.7-1.7c0-0.1,0.1-0.3,0.2-0.3c0,0,0.1,0,0.1,0c0.2,0.4,0.4,0.8,0.7,1.2C41.2,16.5,41.2,16.6,41.2,16.7z"/>
<path class="st245" d="M40.4,15.3c-0.1,0.6-0.3,1.2-0.6,1.7c-0.2,0.3-0.3,0.6-0.4,0.9c-0.4-0.2-0.4-0.6-0.5-0.9
	c-0.1-0.2-0.2-0.4-0.2-0.7c0.2-0.6,0.6-1.2,0.8-1.8c0-0.1,0.1-0.2,0.2-0.2C40,14.6,40.2,14.9,40.4,15.3z"/>
<path class="st246" d="M39.7,14.3c-0.1,0.5-0.4,0.9-0.5,1.3c-0.1,0.3-0.2,0.5-0.4,0.7c-0.2,0-0.2-0.2-0.3-0.3
	c-0.2-0.4-0.3-0.8-0.5-1.1c0-0.1,0-0.1,0-0.2c0.1-0.4,0.3-0.7,0.4-1.1c0-0.2,0.2-0.3,0.4-0.4c0.3,0.2,0.4,0.5,0.7,0.7
	C39.6,14,39.7,14.1,39.7,14.3z"/>
<path class="st247" d="M44.1,25.4c-0.3,0.8-1.2,1.1-1.6,1.8c-0.2-0.2-0.2-0.5-0.3-0.7c0.2-0.9,0.5-1.8,0.7-2.6
	c0.1-0.3,0.2-0.7,0.3-1c0-0.2,0.1-0.5,0.4-0.3c0.1,0.5,0.3,1.1,0.4,1.6C44,24.5,44,25,44.1,25.4z"/>
<path class="st248" d="M43.5,22.5c-0.1,0-0.3,0.1-0.3,0.2c-0.2,1-0.5,2-0.8,3.1c-0.1,0.2-0.2,0.4-0.2,0.7c-0.1,0.6-0.7,0.8-1.1,1.2
	c-0.1,0.1-0.2,0.1-0.4,0c-0.1-0.1-0.1-0.3-0.1-0.4c0-0.1,0.1-0.2,0.1-0.3c-0.1-0.9,0.3-1.7,0.7-2.4c0.5-1,1.1-1.9,1.6-2.9
	c0-0.1,0.1-0.1,0.2-0.2c0.2,0.1,0,0.4,0.2,0.5C43.6,22.1,43.4,22.3,43.5,22.5z"/>
<path class="st249" d="M43.3,21.5c-0.1,0.7-0.6,1.2-0.8,1.7c-0.3,0.6-0.5,1.2-0.9,1.7c-0.5,0.6-0.6,1.3-0.5,2.1c0,0.1,0,0.2-0.1,0.3
	c-0.2-0.1-0.2-0.3-0.2-0.5c0-0.8,0-1.6-0.1-2.4c0-0.2,0-0.4,0.1-0.6c0.5-0.2,0.5-0.8,0.7-1.1c0.6-0.8,0.7-1.9,1.3-2.7
	c0.1,0.2,0.2,0.4,0.3,0.6C43.1,20.9,43.2,21.2,43.3,21.5z"/>
<path class="st250" d="M27.5,18.9c0.1,0.1,0.2,0.2,0.4,0.3C28,19,28,18.8,28,18.6c0-3.1,0-6.3,0-9.4c0-0.4,0.1-0.5,0.5-0.5
	c0.3,0,0.6,0,0.9,0c1,0,2.1,0,3.1,0c0.3,0,0.6,0,0.9-0.1c0.2-0.1,0.4,0,0.5,0.1c0.1,0,0.2,0,0.3,0c0.2,0.2,0.2,0.4,0.2,0.7
	c0,0.1,0,0.3,0,0.5c0,9.9,0,19.8,0,29.6c0,0.2,0,0.4,0,0.6c0,0.2-0.1,0.4-0.4,0.5c-0.4,0.1-0.8,0-1.3,0c-0.7,0-1.3,0-2,0
	c-0.7,0-1.4,0-2.1,0c-0.6-0.1-0.6-0.1-0.6-0.7c0-0.3,0.1-0.5-0.1-0.8c-0.5,0.2-1,0.6-1.5,0.8c-0.5,0.3-1.1,0.4-1.6,0.6
	c-0.4,0.1-0.8,0.2-1.2,0.2c-0.5,0.1-1,0.1-1.5,0.1c-0.6,0-1.1-0.1-1.6-0.1c-0.3-0.1-0.6-0.1-0.9-0.2c-0.7-0.2-1.3-0.5-1.9-0.8
	c-1-0.5-1.9-1.1-2.6-2c-0.5-0.6-0.9-1.2-1.4-1.8c-0.1-0.2-0.3-0.4-0.4-0.7c-0.5-0.7-0.7-1.5-1-2.3c0-0.1-0.1-0.2-0.1-0.4
	c-0.4-0.5-0.3-1.2-0.5-1.8c0-0.1,0-0.2,0-0.2c-0.2-1.2-0.1-2.4,0.1-3.6c0.1-0.8,0.4-1.6,0.6-2.4c0.2-0.4,0.4-0.9,0.6-1.3
	c0.2-0.3,0.3-0.6,0.5-0.9c0.2-0.3,0.4-0.6,0.6-0.9c0.2-0.2,0.4-0.5,0.6-0.7c0.2-0.2,0.5-0.5,0.7-0.7c0.2-0.2,0.4-0.4,0.6-0.5
	c0.2-0.1,0.4-0.3,0.5-0.4c0.1-0.1,0.2-0.1,0.3-0.2c0.3-0.2,0.6-0.3,0.9-0.5c0.1-0.1,0.3-0.1,0.4-0.2c0.3-0.1,0.5-0.3,0.8-0.2
	c0.3-0.1,0.5-0.2,0.8-0.3c0.2,0,0.5-0.1,0.7-0.1c0.2-0.1,0.4-0.2,0.6-0.2c0.3,0,0.5-0.1,0.8-0.1c0.2,0,0.4,0,0.7,0
	c0.1,0,0.2,0,0.3,0c0.3,0.1,0.5,0,0.8,0.1c0.2,0,0.4,0.1,0.6,0.1c0.3,0.1,0.6,0.1,0.8,0.3c0.2,0.1,0.4,0.2,0.6,0.2
	c0.2,0.1,0.3,0.1,0.5,0.2c0.2,0.1,0.4,0.2,0.6,0.3C26.9,18.6,27.1,18.8,27.5,18.9z"/>
<path class="st251" d="M24.9,17.7c-0.3,0-0.5-0.1-0.8-0.2c0-0.3,0-0.6,0-0.9c0-3.8,0-7.6,0-11.3c0-0.2,0-0.4,0-0.6
	c0.1-0.4,0.4-0.4,0.7-0.4c0.1,0,0.1,0,0.2,0c0,0.3,0,0.6,0,0.9c0,3.9,0,7.8,0,11.7C25,17.1,25,17.4,24.9,17.7z"/>
<path class="st252" d="M24.8,4.2c-0.2,0.1-0.4,0.2-0.6,0.3c-0.2,0.2-0.4,0.2-0.7,0.3c-0.2,0.1-0.4,0.1-0.6,0.2c-0.1,0-0.2,0-0.3-0.1
	c0.1-0.2,0.1-0.5,0-0.7c0.3,0,0.5-0.1,0.8-0.1C23.8,4.2,24.3,4,24.8,4.2z"/>
<path class="st253" d="M34.1,9.3c0-0.2,0-0.4,0-0.6c0,0,0.1,0,0.1,0c0.3,0.2,0.6,0.5,0.9,0.7c0,0,0,0.1,0,0.1c0.1,0.2,0,0.4,0,0.5
	C35,10.3,35,10.6,35,10.9c0,9.7,0,19.4,0,29.1c0,0.5,0.1,1.1,0,1.6c-0.2,0.3-0.5,0.4-0.7,0.6c-0.1-0.4-0.2-0.8,0.3-1
	c-0.1-0.1-0.1-0.2-0.1-0.4c0-10,0-20.1,0-30.1C34.6,10.2,34.6,9.7,34.1,9.3z"/>
<path class="st254" d="M33.8,8.7c-1.5,0-3,0-4.5,0c0,0,0,0,0-0.1c0.2,0,0.4,0,0.6,0c0.2,0,0.5,0,0.7,0c0.3,0,0.5,0,0.8,0
	c0.4,0,0.9,0,1.3,0c0.2,0,0.7,0.1,0.3-0.4c0-0.1,0-0.2,0-0.3c0.2,0.1,0.4,0.3,0.7,0.4C33.8,8.4,33.9,8.5,33.8,8.7z"/>
<path class="st255" d="M37.2,12.6c-0.1-0.2-0.2-0.3-0.3-0.5c-0.3-0.5-0.5-1.1-0.9-1.6c0-0.1-0.1-0.3-0.1-0.4
	c0.2,0.1,0.3,0.3,0.5,0.4c0.4,0.4,0.8,0.7,1.2,1.1c0,0,0,0.1,0,0.1C37.8,12.2,37.7,12.6,37.2,12.6z"/>
<path class="st256" d="M29.9,43.7c0,0.4,0.2,0.8,0.1,1.2c-0.3,0.3-0.7,0.3-1,0.5c-0.2,0.1-0.4,0.2-0.6,0.2c0.1-0.7,0.2-1.3,0-2
	c0-0.1,0.1-0.1,0.2-0.1c0.1-0.1,0.2-0.1,0.4-0.1c0.3,0.1,0.6,0.1,0.8,0.2C29.8,43.6,29.9,43.6,29.9,43.7z"/>
<path class="st257" d="M37.2,12.6c0.4-0.2,0.4-0.5,0.4-0.9c0.5,0.4,0.8,0.9,1.2,1.3c0,0,0,0.1,0,0.1c-0.4,0.4-0.3,1-0.7,1.4
	c-0.5-0.3-0.5-0.8-0.7-1.3C37.5,13,37.2,12.9,37.2,12.6z"/>
<path class="st258" d="M17.4,39.6c0.6,0.3,1.3,0.5,1.9,0.8c0.1,0.2,0.3,0.4,0.6,0.5c0.1,0.1,0.4,0.1,0.2,0.4c-0.2-0.2-0.4,0-0.6-0.2
	c-0.5-0.2-1.1-0.3-1.6-0.6c-0.1-0.1-0.2-0.3-0.4-0.4C17.4,39.9,17.4,39.7,17.4,39.6z"/>
<path class="st259" d="M20.2,41.3c0-0.3-0.3-0.3-0.4-0.4c-0.2-0.1-0.4-0.3-0.4-0.6c0.3,0.1,0.6,0.1,0.9,0.2c0.5,0.2,0.9,0.4,1.4,0.6
	c0.2,0.1,0.4,0.1,0.4,0.3c-0.1,0-0.1,0-0.2,0c-0.3,0-0.5,0-0.8-0.1c-0.2-0.2-0.5-0.1-0.8-0.1C20.2,41.3,20.2,41.3,20.2,41.3z"/>
<path class="st260" d="M18.1,40.4c0.5,0.2,1,0.5,1.5,0.7c-0.1,0-0.1,0-0.2,0c-0.2-0.1-0.5-0.1-0.7-0.2c-0.2-0.1-0.5-0.2-0.7-0.3
	c-0.2,0-0.3-0.1-0.4-0.2c-0.1-0.1-0.2-0.2-0.3-0.3C17.6,39.8,17.8,40.2,18.1,40.4z"/>
<path class="st261" d="M17.5,40.4c0.2,0,0.3,0.1,0.4,0.2c0.1,0.2,0.1,0.3,0.1,0.5c0,1.9,0,3.8,0,5.7c0,0.4-0.1,0.5-0.5,0.5
	C17.5,45,17.5,42.7,17.5,40.4z"/>
<path class="st195" d="M13.2,9.8c0-0.1,0.1-0.1,0.1-0.2C13.7,9.5,14,9.3,14.2,9c0.1,0,0.2-0.1,0.3-0.1c0.3,0,0.2,0.2,0.2,0.4
	c0,0.2,0,0.5,0,0.7c0,0.4-0.3,0.7-0.4,1c-0.2,0.4-0.5,0.8-0.6,1.2c-0.1,0.1-0.2,0.3-0.4,0.2c-0.1-0.1-0.1-0.1-0.2-0.2
	C13.1,11.4,13,10.6,13.2,9.8z"/>
<path class="st262" d="M16.6,18.9c-0.1,0.1-0.2,0.2-0.3,0.2c-0.3-0.5-0.2-1-0.2-1.5c0-3.1-0.1-6.2,0-9.4c0,0,0-0.1,0-0.1
	c0-0.1,0-0.1,0-0.2c0,0,0.1-0.1,0.1-0.1c0,0,0.1-0.1,0.1-0.1c0.1,0,0.2-0.1,0.3-0.1c0.2-0.1,0.3,0.1,0.3,0.2C17,8.1,17,8.4,17,8.6
	c0,3,0,5.9,0,8.9C17,18,17.1,18.5,16.6,18.9z"/>
<path class="st263" d="M16.1,7.9C16.1,8,16.1,8,16.1,7.9c0,0.5-0.3,0.7-0.4,0.9c-0.2,0.3-0.4,0.6-0.6,0.9c-0.1,0.1-0.2,0.3-0.4,0.4
	c-0.2-0.2-0.1-0.5-0.1-0.7c0-0.2,0.1-0.4-0.1-0.5c0.2-0.1,0.3-0.3,0.5-0.4C15.4,8.3,15.8,8.1,16.1,7.9z"/>
<path class="st264" d="M13.2,9.8c0,0.7,0,1.3,0,2c0,0.2,0.1,0.5,0.2,0.6c0,0.3-0.1,0.5-0.2,0.8c-0.1,0.2-0.2,0.4-0.3,0.6
	c-0.1,0.1-0.2,0.2-0.3,0c-0.1-1.2-0.1-2.3,0-3.5c0,0,0.1-0.1,0.1-0.1C12.8,10.1,13,10,13.2,9.8z"/>
<path class="st265" d="M10.8,33.1c-0.2-0.2-0.3-0.4-0.5-0.5c0-0.1-0.1-0.1-0.1-0.2c-0.1-0.2-0.1-0.5-0.1-0.7c0-3.8,0-7.5,0-11.3
	c0-0.1,0-0.1,0-0.1c-0.1-0.6,0.2-1.1,0.4-1.6c0.1-0.1,0.1-0.4,0.4-0.2c0.1,0.2,0.1,0.4,0.1,0.6c-0.1,4.4,0,8.8,0,13.3
	C11,32.6,11,32.9,10.8,33.1z"/>
<path class="st266" d="M10.2,20.2c0.1,0,0.1,0,0.1,0.2c0,3.8,0,7.6,0,11.4c0,0.2,0,0.5-0.1,0.7c-0.1-0.1-0.3-0.3-0.4-0.4
	c0-0.1-0.1-0.1-0.1-0.2c-0.1-0.5,0-0.9,0-1.4c0.1-2-0.1-4,0-6c0-1,0.1-1.9,0-2.8c0-0.4,0.1-0.7,0.2-1.1C10,20.4,10,20.2,10.2,20.2z"
	/>
<path class="st267" d="M9.8,21.5c0.1,1,0.1,2,0,2.9c-0.1,1.1,0.1,2.2,0.1,3.3c0,0.9,0,1.8-0.1,2.7c0,0.5,0,0.9-0.1,1.4
	c-0.1-0.2-0.3-0.4-0.4-0.6c0-2.1-0.1-4.2,0-6.3c0-0.4-0.1-0.8-0.1-1.1c0-0.5,0.2-0.9,0.2-1.4C9.6,22,9.4,21.6,9.8,21.5z"/>
<path class="st268" d="M9.3,23.7c0.3,0.9,0.1,1.9,0.1,2.8c0,1.4,0,2.9,0.1,4.3c0,0.2,0,0.3-0.2,0.4c-0.1,0-0.1-0.1-0.2-0.1
	C9.1,31,9,30.9,9,30.8c-0.1-0.3-0.2-0.6-0.2-0.9c0-1.3,0-2.7,0.1-4C9,25.3,9,24.8,9.1,24.2C9.2,24,9,23.8,9.3,23.7z"/>
<path class="st269" d="M10.8,33.1c0-4.9,0-9.8,0-14.8c-0.1-0.4,0.2-1.4,0.5-1.6c0.1,0,0.1,0,0.1,0.1c0.1,0.2,0.1,0.5,0.1,0.7
	c0,2.4,0,4.8,0,7.3c0,0.7-0.1,1.3,0,2c-0.2,1.2-0.2,2.5-0.1,3.7c-0.1,0.7,0,1.4,0,2.1c0,0.3,0.1,0.7-0.3,0.9
	c-0.1-0.1-0.2-0.1-0.3-0.2C10.9,33.3,10.9,33.2,10.8,33.1z"/>
<path class="st270" d="M11.2,33.5c0.1-0.2,0.2-0.3,0.2-0.5c0-0.5,0-1-0.1-1.6c0-0.3,0.1-0.6,0.2-1c0.1,0.7,0.3,1.3,0.4,2
	c-0.2,0.4-0.1,1-0.3,1.4c-0.1,0-0.1-0.1-0.2-0.1C11.4,33.7,11.3,33.6,11.2,33.5z"/>
<path class="st271" d="M9.3,23.7c-0.2,0.1,0,0.4-0.2,0.5C8.9,24,9,23.8,9,23.6c0-3.3,0-6.6,0-9.9c0.1-0.1,0.1-0.2,0.2-0.3
	c0,0,0.1,0,0.1,0c0.3,0,0.3,0.3,0.3,0.5c0,0.3,0,0.7,0,1c0,1.9,0,3.8,0,5.7c0,0.6-0.1,1.1-0.2,1.6C9.6,22.8,9.3,23.2,9.3,23.7z"/>
<path class="st272" d="M8.9,25.9C8.9,26,9,26,9,26.1c0,1.6,0,3.1,0,4.7c-0.1-0.1-0.2-0.2-0.3-0.3c-0.2-0.7-0.1-1.5-0.1-2.2
	c0-0.7,0.1-1.4,0.2-2.2C8.8,26.1,8.9,26,8.9,25.9z"/>
<path class="st273" d="M18.1,40.4c-0.3,0-0.5-0.4-0.8-0.3c-0.3-0.2-0.5-0.4-0.8-0.6c-0.1-0.1-0.3-0.2-0.4-0.3
	c-0.2-0.4-0.7-0.5-0.9-0.9c-0.1-0.2-0.3-0.4-0.3-0.6c0.8,0.7,1.7,1.4,2.6,1.9C17.5,39.9,18,40,18.1,40.4z"/>
<path class="st274" d="M27.8,38.9c0.2-0.2,0.2,0,0.2,0.1c0,0.3,0,0.7,0,1c0,0.4,0.1,0.5,0.4,0.4c0.2,0.2,0.2,0.5,0.2,0.8
	c-0.2,0.5-0.2,1-0.2,1.5c0,0.2,0.1,0.5-0.2,0.6c-0.2,0-0.5,0-0.7-0.1c-0.1-0.9,0-1.7,0-2.6c0-0.2,0.1-0.3,0.2-0.4
	c0.1-0.1,0.2-0.3,0.2-0.4C27.8,39.5,27.7,39.2,27.8,38.9z"/>
<path class="st275" d="M27.7,40.2c-0.2,0.2-0.2,0.5-0.2,0.8c0,0.7,0.1,1.5-0.1,2.2c-0.1,0-0.2-0.1-0.3-0.1c-0.2,0-0.3-0.1-0.5-0.1
	c-0.1-0.8-0.1-1.5,0.1-2.3C27,40.4,27.2,40.1,27.7,40.2z"/>
<path class="st276" d="M28.1,43.3c0.2-0.4,0.1-0.8,0.1-1.2c0-0.4,0.1-0.7,0.3-1c0.3-0.2,0.6-0.2,0.9,0c-0.3,0.7-0.2,1.4-0.3,2.1
	c0,0.1,0,0.2-0.1,0.3c-0.1,0-0.3,0-0.4,0C28.5,43.3,28.2,43.5,28.1,43.3z"/>
<path class="st277" d="M26.8,40.7c-0.1,0.5-0.1,1.1-0.1,1.6c0,0.2,0,0.5-0.1,0.7c-0.2,0-0.4-0.1-0.6-0.1c0,0-0.1-0.1-0.1-0.1
	c-0.2-0.6,0-1.2,0-1.7C26.1,40.7,26.4,40.5,26.8,40.7z"/>
<path class="st278" d="M26,41c0,0.6,0,1.2-0.1,1.8c-0.3-0.1-0.5-0.1-0.8-0.2c-0.1,0-0.1-0.1-0.2-0.1c-0.1-0.4-0.1-0.8,0-1.2
	c0.2-0.3,0.6-0.3,0.9-0.4C25.8,40.9,25.9,40.9,26,41z"/>
<path class="st279" d="M22.1,41.5c-0.6-0.3-1.3-0.5-1.8-0.9c0.6,0,1.1,0.1,1.7,0.1c0.4,0.1,0.6,0.4,0.6,0.8c-0.1,0-0.3,0-0.4,0
	C22.1,41.5,22.1,41.5,22.1,41.5z"/>
<path class="st280" d="M22.2,41.5c0.1,0,0.3,0,0.4,0c0.3-0.2,0.6-0.1,1-0.1c0.1,0,0.2,0,0.3,0.1c0.1,0.2,0.1,0.4-0.1,0.6
	c-0.1,0-0.2,0-0.3,0c-0.2-0.2-0.6-0.2-0.8-0.4C22.5,41.6,22.3,41.6,22.2,41.5z"/>
<path class="st281" d="M23.8,42.1c0-0.2,0-0.4,0.1-0.6c0.3-0.2,0.7-0.2,1.1-0.2c0,0.4,0.1,0.8-0.1,1.2c-0.2,0-0.3-0.1-0.5-0.1
	C24.2,42.3,24,42.2,23.8,42.1z"/>
<path class="st282" d="M10.2,20.2c-0.1,0.1-0.1,0.2-0.2,0.3c-0.2-0.1-0.2-0.3-0.2-0.5c-0.1-2.3,0-4.6-0.1-6.9c0-0.1,0-0.2,0.1-0.3
	c0.1-0.1,0.1-0.2,0.2-0.3c0.2-0.1,0.3-0.3,0.5-0.4c0.2,0.1,0.2,0.3,0.2,0.5c0,2,0.1,4-0.1,5.9c0,0.1,0,0.1,0,0.1
	C10.5,19.2,10.3,19.7,10.2,20.2z"/>
<path class="st283" d="M9.8,12.8c0.1,0.2,0.1,0.4,0.1,0.6c0,1.7,0,3.3,0,5c0,0.7,0.1,1.3,0.1,2c-0.1,0.3-0.1,0.7-0.2,1
	c-0.2,0.2-0.1,0.6-0.3,0.8c0-2.7,0-5.4,0-8.1c0-0.3,0-0.5-0.2-0.7C9.5,13.2,9.6,13,9.8,12.8z"/>
<path class="st284" d="M10.6,18.7c0-2,0-3.9,0-5.9c0-0.2,0-0.4-0.1-0.6c0.1-0.1,0.2-0.3,0.3-0.4c0.2-0.1,0.3-0.4,0.6-0.4
	c0.2,0.3,0.1,0.6,0.1,1c0,1.3,0,2.7,0.1,4c0,0.2,0,0.3-0.2,0.5c-0.3,0.5-0.5,1-0.6,1.6C10.8,18.5,10.7,18.6,10.6,18.7z"/>
<path class="st285" d="M11.5,16.4c-0.1-0.7-0.1-1.5-0.1-2.2c0-0.9,0-1.9,0-2.8c0.1-0.2,0.3-0.3,0.4-0.5c0,0,0.1,0,0.1,0
	c0.3,0.2,0.2,0.4,0.3,0.7c0,1.1-0.1,2.2,0.1,3.3c0,0.2,0,0.3-0.1,0.5C11.9,15.7,12,16.2,11.5,16.4z"/>
<path class="st286" d="M12.1,15c-0.2-1.2-0.1-2.3-0.1-3.5c0-0.2,0-0.4-0.1-0.6c0.2-0.2,0.4-0.3,0.6-0.5c0.1,0.2,0.1,0.4,0.1,0.7
	c0,1,0,2,0,2.9c0.1,0.1,0,0.3,0,0.4C12.4,14.6,12.5,14.9,12.1,15z"/>
<path class="st287" d="M40.8,27.7c0.5-0.1,0.8-0.6,1.1-0.9c0.1-0.1,0.2-0.2,0.3-0.3c0.1,0.2,0.2,0.4,0.2,0.7
	c0.1,0.5-0.3,0.9-0.3,1.4c0,0.8-0.5,1.5-0.6,2.3c-0.5,0.2-0.9,0.8-1.3,1.1c-0.1-0.2,0-0.5,0-0.7c0.2-1,0.3-2,0.4-3.1
	C40.7,28,40.7,27.8,40.8,27.7z"/>
<path class="st288" d="M20.9,17.4c-0.2,0-0.4,0.1-0.6,0.1c0.1-0.2,0.1-0.4,0.1-0.6c0-3.5,0-7,0-10.4c0-0.2,0.1-0.4-0.1-0.5
	c0,0,0-0.1,0-0.1c0.2-0.1,0.5-0.1,0.7-0.2c0.2,0.2,0.2,0.5,0.2,0.8c0,3.1,0,6.2,0,9.3c0,0.4,0,0.8,0,1.2
	C21.1,17.1,21.1,17.3,20.9,17.4z"/>
<path class="st289" d="M20.9,17.4c0.2-0.2,0.1-0.4,0.1-0.6c-0.1-3.7,0-7.4,0-11.1c0.1-0.1,0.2-0.1,0.3-0.2c0.1,0,0.1,0,0.2,0
	c0.2,0,0.3,0.2,0.3,0.4c0,0.2,0,0.4,0,0.6c0,3.3,0,6.7,0,10c0,0.3,0.1,0.6-0.2,0.9C21.4,17.3,21.1,17.4,20.9,17.4z"/>
<path class="st290" d="M18.8,17.8c-0.3,0.1-0.5,0.2-0.8,0.3c-0.1-0.2-0.1-0.5-0.1-0.7c0.1-3.2,0-6.3,0-9.5c0-0.3,0-0.6,0-0.9
	c0,0,0-0.1,0-0.1c0.3-0.1,0.5-0.2,0.8-0.3c0.1,0.3,0.1,0.6,0.1,0.8c0,3.1,0,6.2,0,9.3C18.8,17.1,18.8,17.5,18.8,17.8z"/>
<path class="st291" d="M16.6,18.9c0.2-0.4,0.2-0.8,0.2-1.1c0-3.1,0-6.3,0-9.4c0-0.2,0.1-0.6-0.2-0.7c0.2-0.2,0.4-0.3,0.6-0.3
	c0.2,0,0.3,0.2,0.3,0.4c0,0.2,0,0.4,0,0.6c0,3.2,0,6.5,0,9.7c0,0.1,0,0.3-0.1,0.4C17.2,18.5,16.9,18.7,16.6,18.9z"/>
<path class="st292" d="M17.5,18.4c-0.1-0.3-0.1-0.5-0.1-0.8c0-3.2,0-6.4,0-9.6c0-0.2,0.1-0.5-0.2-0.6c0.2-0.2,0.4-0.3,0.6-0.3
	c0.2,0,0.2,0.2,0.2,0.4c0,3.2,0,6.5,0,9.7c0,0.3,0.2,0.7-0.1,1.1C17.8,18.3,17.7,18.3,17.5,18.4z"/>
<path class="st293" d="M22.6,4.9c0.1,0,0.2,0,0.3,0c0.1,0.1,0.1,0.3,0.1,0.4c0,3.7,0,7.4,0,11.1c0,0.2,0,0.5-0.1,0.7
	c0,0.1-0.1,0.1-0.2,0.1c-0.1,0-0.2,0-0.3,0c-0.2-0.1-0.3-0.3-0.3-0.5c0-0.3,0-0.6,0-1c0-3.4,0-6.8,0-10.1c0-0.2,0-0.3,0.1-0.4
	C22.2,5.1,22.5,5.1,22.6,4.9z"/>
<path class="st294" d="M22.1,5.2c0.1,0.2,0.1,0.5,0.1,0.7c0,3.4,0,6.7,0,10.1c0,0.4-0.1,0.9,0.2,1.3c-0.2,0-0.5,0-0.7,0
	c0-3.7,0-7.5,0-11.2c0-0.2,0.1-0.5-0.2-0.6C21.6,5.3,21.8,5.2,22.1,5.2z"/>
<path class="st295" d="M39,16.9c0.1,0.4,0.2,0.7,0.4,1c0,0.5,0.3,0.9,0.3,1.4c0,0.7,0,1.5,0,2.2c0,3.2,0,6.5,0,9.7
	c0,0.3,0,0.7,0.1,1c0.1,0.6-0.1,1.2-0.1,1.7c0,0.5-0.3,0.8-0.4,1.3c-0.1,0.2-0.2,0.4-0.3,0.6c-0.2-0.1-0.2-0.3-0.2-0.5
	c-0.1-5.6,0-11.2,0-16.7c0-0.5,0.1-0.9,0.1-1.4C38.7,17,38.8,16.9,39,16.9z"/>
<path class="st296" d="M39.6,33.9c0-0.1-0.1-0.2-0.1-0.3c0-4.2,0-8.4,0-12.5c0-0.4,0.1-0.8,0-1.3c0-0.2,0-0.4,0.2-0.5
	c0.1,0.1,0.1,0.2,0.2,0.3c0,0.6,0.3,1.1,0.3,1.7c0,0.2,0,0.4,0.1,0.5c0.1,3.2,0.1,6.4,0,9.5c0,0.2,0,0.5-0.1,0.7
	C40.1,32.7,40,33.3,39.6,33.9z"/>
<path class="st297" d="M37.4,13.2c0.3,0.4,0.4,0.9,0.7,1.3c0,0.1,0,0.1,0,0.2c0.1,0.9,0.1,1.7,0.1,2.6c0,5.9,0,11.8,0,17.7
	c0,0.8,0.1,1.6-0.1,2.4c-0.1,0.5-0.4,0.9-0.7,1.3c-0.1-0.5-0.1-1-0.1-1.5c0-7.8,0-15.6,0-23.4C37.3,13.7,37.3,13.4,37.4,13.2z"/>
<path class="st298" d="M38.1,37.5c-0.1-0.7,0-1.4,0-2.1c0-6.1,0-12.2,0-18.3c0-0.8-0.2-1.6,0-2.3c0.3,0.5,0.4,1,0.7,1.5
	c0.1,0.2,0.1,0.4,0.2,0.6C39,16.9,38.9,17,38.9,17c0.2,0.5,0,1,0,1.5c0,5.1,0,10.3,0,15.4c0,0.6-0.1,1.3,0.1,1.9
	C38.7,36.4,38.5,36.9,38.1,37.5z"/>
<path class="st299" d="M31.6,43.9c-0.3,0-0.7-0.1-1-0.1c-0.1-0.7-0.1-1.4,0-2.1c0-0.3,0.3-0.5,0.6-0.6c0.3-0.1,0.5-0.1,0.8,0
	c0,0,0,0,0.1,0.1c-0.4,0.1-0.5,0.4-0.5,0.8c0,0.5,0,1.1,0,1.6C31.5,43.7,31.5,43.8,31.6,43.9z"/>
<path class="st300" d="M32.6,40.4c0.4,0,0.8,0,1.2,0c0.2,0.4,0.1,0.7-0.3,0.7c-0.2,0-0.3,0-0.5,0.1c-0.1,0-0.2,0-0.3,0
	c-0.2,0-0.5,0-0.7,0c0,0,0,0,0,0C32.1,40.9,32.5,40.7,32.6,40.4z"/>
<path class="st301" d="M31.2,41.2c-0.4,0.1-0.5,0.5-0.5,0.9c0,0.6,0.1,1.2-0.1,1.7c-0.2-0.1-0.5-0.1-0.7-0.1c0,0-0.1,0-0.1,0
	c-0.2-0.7,0-1.5,0-2.2c0-0.2,0.2-0.3,0.5-0.4c0.1,0,0.1,0,0.2,0C30.7,41,31,41,31.2,41.2z"/>
<path class="st302" d="M33,41.2c0.1-0.1,0.2-0.1,0.3-0.1c0.4,0,0.6-0.2,0.5-0.7c0.2,0,0.3,0,0.3-0.3c0-0.1,0-0.2,0-0.4
	c0-9.9,0-19.9,0-29.8c0-0.2,0-0.4,0-0.7c0.3-0.1,0.5,0.1,0.5,0.4c0,0.2,0,0.4,0,0.5c0,10,0,20,0,30.1c0,0.3,0,0.5-0.1,0.8
	c-0.3,0-0.6,0-0.9,0C33.5,41.2,33.2,41.2,33,41.2z"/>
<path class="st303" d="M40.3,31.3c-0.1-0.6-0.1-1.2-0.1-1.8c0-1.6-0.1-3.3,0-4.9c0-0.9-0.2-1.9,0.1-2.8c0,0,0.1,0,0.1,0
	c0,0.7,0.1,1.3,0.3,2c0.1,1.2,0.1,2.3,0.1,3.5c0,0.1,0,0.3,0,0.4C40.7,28.9,40.7,30.1,40.3,31.3z"/>
<path class="st304" d="M23.2,35.5c-0.3,0.1-0.6,0.1-0.9,0.1c-0.2-0.2-0.2-0.4-0.2-0.7c0-3.7,0-7.4,0-11.2c0-0.2,0-0.4,0.1-0.6
	c0.3-0.2,0.6-0.2,1,0c0.2,0.2,0.1,0.4,0.1,0.7c0,3.7,0,7.4,0,11.1C23.3,35.1,23.3,35.4,23.2,35.5z"/>
<path class="st305" d="M23.5,4.7c0.2-0.1,0.5-0.2,0.7-0.2c0,4.3,0,8.5,0,12.8c0,0.1-0.1,0.1-0.1,0.2c-0.2,0-0.4,0-0.6-0.1
	c-0.2-0.2-0.2-0.4-0.2-0.7c0-3.8,0-7.5,0-11.3C23.3,5.1,23.3,4.9,23.5,4.7z"/>
<path class="st306" d="M23.5,4.7c0,4.2,0,8.4,0,12.7c-0.3,0-0.6,0-0.8-0.1c0.2-0.2,0.1-0.4,0.1-0.6c0-3.7,0-7.4,0-11.1
	c0-0.2,0-0.5,0.1-0.7C23,4.8,23.3,4.7,23.5,4.7z"/>
<path class="st307" d="M23.2,35.5c0-4.1,0-8.2,0-12.3c0.2-0.1,0.4,0,0.6,0.1C24,23.5,24,23.8,24,24c0,3.5,0,7.1,0,10.6
	c0,0.3-0.1,0.6-0.4,0.8C23.5,35.5,23.4,35.6,23.2,35.5z"/>
<path class="st308" d="M14.7,10.1c0.1-0.1,0.2-0.3,0.3-0.4c0.4,0.1,0.4,0.4,0.4,0.7c-0.1,2.7,0,5.5,0,8.2c0,0.4,0.1,0.9-0.2,1.3
	c-0.2,0.2-0.5,0.5-0.7,0.7c-0.3-0.5-0.2-1-0.3-1.5c0-2.6,0-5.2,0-7.8c0-0.1,0-0.2,0-0.3C14.4,10.7,14.6,10.5,14.7,10.1z"/>
<path class="st309" d="M21.7,35.6c-0.3,0-0.6-0.1-0.8-0.2c-0.1-0.5,0.1-0.9,0.1-1.4c0-2.9,0-5.9,0-8.8c0-0.5,0-1.1-0.2-1.6
	c0-0.1,0-0.2,0.1-0.3c0.2-0.1,0.4-0.2,0.6-0.1c0.4,0.3,0.3,0.7,0.3,1c0,2.7,0,5.3,0,8c0,0.9,0,1.9,0,2.8
	C21.9,35.3,21.8,35.5,21.7,35.6z"/>
<path class="st310" d="M21.7,35.6c0.1-0.3,0-0.7,0-1c0-3.5,0-7,0-10.6c0-0.3,0-0.6-0.3-0.8c0-0.3,0.2-0.2,0.4-0.2
	c0.2,0,0.4,0,0.5,0.1c0,4.2,0,8.3,0,12.5C22.1,35.7,21.9,35.7,21.7,35.6z"/>
<path class="st311" d="M20.8,23.6c0.4,0.3,0.3,0.8,0.3,1.3c0,1.7,0,3.4,0,5.1c0,1.5,0,3,0,4.5c0,0.4,0,0.7-0.2,1
	c-0.3,0-0.5-0.1-0.7-0.3c0.1-0.3,0.2-0.5,0.2-0.8c0-3.1,0-6.3,0-9.4c0-0.3,0-0.6-0.3-0.8C20,23.7,20.3,23.5,20.8,23.6z"/>
<path class="st312" d="M25.9,33.7c-0.3,0.3-0.5,0.7-0.9,0.9c-0.1-0.1-0.1-0.1-0.1-0.2c0-3.2,0-6.4,0-9.6c0-0.3,0-0.5,0.1-0.8
	c0.1-0.1,0.2-0.1,0.3,0c0.2,0.2,0.5,0.3,0.5,0.6c0.1,1.5,0,3,0,4.5C25.8,30.6,25.8,32.2,25.9,33.7z"/>
<path class="st313" d="M11.5,16.4c0.2-0.3,0.3-0.7,0.5-1c0.3,0.1,0.2,0.3,0.2,0.5c0,2.3,0,4.6,0,7c0,0.5,0,1-0.1,1.5
	c-0.2,0.8-0.4,1.6-0.6,2.4c-0.1,0.1-0.2,0-0.2-0.1c0-0.9,0-1.7,0-2.6c0-2.4,0-4.9,0-7.3C11.5,16.6,11.5,16.5,11.5,16.4z"/>
<path class="st314" d="M20,24c0.4,0,0.5,0.2,0.5,0.6c0,1.1,0,2.1,0,3.2c0,2.3,0,4.6,0,6.9c0,0.2,0.1,0.5-0.3,0.5
	c-0.2,0-0.4-0.2-0.5-0.3c0.2-3.2,0-6.4,0.1-9.6c0-0.3,0-0.5-0.3-0.7c-0.1-0.1-0.1-0.2-0.1-0.3C19.6,24.2,19.7,24,20,24z"/>
<path class="st315" d="M25.1,24c-0.1,0.3-0.1,0.7-0.1,1c0,2.6,0,5.3,0,7.9c0,0.6,0.1,1.2,0,1.7c-0.2,0.2-0.5,0.4-0.8,0.5
	c-0.1-0.6,0.1-1.2,0.1-1.8c0-2.9,0-5.7,0-8.6c0-0.4,0-0.7,0.1-1.1c0.3-0.4,0.5,0,0.8,0.2C25.1,23.9,25.1,23.9,25.1,24z"/>
<path class="st316" d="M25.9,33.7c-0.3-0.4-0.2-0.8-0.2-1.2c0-2.7,0-5.3,0-8c0.5,0.1,0.6,0.7,0.9,1c0.1,0.3,0.1,0.6,0.1,0.9
	c0,2.1,0.1,4.2,0,6.3C26.4,33.1,26.2,33.4,25.9,33.7z"/>
<path class="st317" d="M19.4,24.5c0.5-0.2,0.5,0.1,0.5,0.5c0,1.3,0,2.7,0,4c0,1.6,0,3.3,0,4.9c0,0.3,0.1,0.7-0.2,1
	c-0.4-0.2-0.7-0.5-1-0.8c0.3-0.1,0.4-0.3,0.4-0.6c0.1-2.3,0.1-4.6,0.1-6.9c0-0.4,0-0.9-0.2-1.3C18.8,24.9,18.9,24.6,19.4,24.5z"/>
<path class="st318" d="M18.9,25.2c0.5,0.1,0.4,0.6,0.4,0.9c0,2.1,0.1,4.2,0,6.3c0,0.5,0,0.9-0.1,1.4c0,0.4-0.2,0.4-0.5,0.2
	c-0.3-0.3-0.6-0.6-0.7-1c0.3,0,0.4-0.1,0.4-0.4c0-1.4,0.1-2.7,0-4.1c0-0.8,0-1.6-0.2-2.4c0-0.2,0-0.3,0.1-0.4
	C18.5,25.5,18.5,25.2,18.9,25.2z"/>
<path class="st319" d="M18.3,26.1c0.3,0.7,0.3,1.4,0.2,2.2c0,0.4,0.1,0.8,0.1,1.2c0,1.2,0,2.4-0.1,3.6c0,0.2,0,0.3-0.2,0.1
	c-0.1-0.1-0.2-0.1-0.4-0.2c0,0,0-0.1-0.1-0.1c-0.2-0.6-0.4-1.2-0.5-1.8c-0.3-1.6-0.2-3.2,0.5-4.7C18,26.3,18.1,26.2,18.3,26.1z"/>
<path class="st320" d="M14.2,11c0.3,0.1,0.2,0.4,0.2,0.5c0,2.5,0,5,0,7.5c0,0.6,0.2,1.1,0.1,1.6c-0.2,0.2-0.4,0.5-0.6,0.7
	c-0.2-0.3-0.3-0.7-0.3-1c0-2.7,0-5.3,0-8c0-0.1,0-0.2,0-0.2C13.8,11.8,14,11.4,14.2,11z"/>
<path class="st321" d="M24.4,23.6c0.2,0.3,0,0.5,0,0.8c0,3.1,0,6.3,0,9.4c0,0.5,0,0.9-0.2,1.3c-0.1,0.1-0.3,0.2-0.5,0.2
	c0.2-0.3,0.2-0.6,0.2-0.9c0-3.5,0-7,0-10.5c0-0.3,0-0.5-0.2-0.7c0,0,0,0,0.1,0C24,23.3,24.2,23.3,24.4,23.6z"/>
<path class="st322" d="M13.6,12.1c0.2,0.1,0.2,0.3,0.2,0.5c0,2.6,0.1,5.3,0,7.9c0,0.3,0.2,0.5,0.2,0.8c-0.2,0.3-0.4,0.6-0.6,0.9
	c-0.4,0-0.3-0.3-0.3-0.5c0.1-1.1,0-2.2,0-3.4c0-1.6,0-3.2,0-4.8c0-0.2,0-0.4,0.1-0.5c0.1-0.3,0.2-0.5,0.3-0.7
	C13.5,12.3,13.6,12.2,13.6,12.1z"/>
<path class="st323" d="M15.6,8.8C15.8,8.6,16,8.3,16.1,8c0.1,0.1,0.2,0.1,0.2,0.3c-0.2,3,0,6.1-0.1,9.1c0,0.6,0.1,1.1,0.1,1.7
	c-0.2,0.1-0.3,0.3-0.5,0.4c-0.3-0.1-0.3-0.4-0.3-0.6C15.6,15.5,15.5,12.2,15.6,8.8z"/>
<path class="st324" d="M13.1,13.1c0.1,0.5,0.1,1,0.1,1.5c0,2.1,0,4.1,0,6.2c0,0.3,0,0.7-0.1,1c0,0.2-0.1,0.4,0.2,0.5
	c-0.2,0.3-0.3,0.6-0.5,0.9c-0.3,0-0.3-0.3-0.3-0.5c0-0.3,0-0.6,0-0.9c0-2.3,0-4.5,0-6.8c0-0.3,0-0.5,0-0.7c0-0.1,0.1-0.3,0.1-0.4
	C12.8,13.7,13,13.4,13.1,13.1z"/>
<path class="st325" d="M15.6,8.8c0.2,0.2,0.2,0.4,0.1,0.7c0,0.1,0,0.3,0,0.4c0,3,0,5.9,0,8.9c0,0.2,0,0.4,0.1,0.6
	c-0.2,0.2-0.4,0.3-0.6,0.5c0-3,0-5.9,0-8.9c0-0.4,0.2-0.7,0-1.1c0-0.1-0.1-0.2-0.2-0.3C15.3,9.4,15.4,9.1,15.6,8.8z"/>
<path class="st326" d="M26.6,32.6c-0.1-0.2-0.1-0.4-0.1-0.6c0-1.8,0-3.5,0-5.3c0-0.5,0.1-0.9-0.1-1.4c0.1-0.1,0.1-0.1,0.2-0.1
	C27.8,27.7,27.8,30.2,26.6,32.6z"/>
<path class="st327" d="M12.5,14.4c0.2,0.3,0.1,0.6,0.1,0.9c0,2.5,0,5,0,7.5c0,0.2,0,0.4,0.2,0.5c-0.2,0.4-0.4,0.8-0.6,1.2
	c-0.2-0.2-0.1-0.4-0.1-0.6c0-2.1,0-4.2,0-6.4c0-0.5-0.1-1.1,0-1.6c0-0.2,0.1-0.3-0.1-0.5c0-0.1,0.1-0.3,0.1-0.4
	C12.3,14.8,12.4,14.6,12.5,14.4z"/>
<path class="st328" d="M18.3,26.1c-0.8,1.4-1,2.9-0.9,4.5c0.1,0.6,0.3,1.2,0.4,1.7c0.1,0.2,0.3,0.4,0.1,0.6c-0.6-0.8-0.8-1.8-1-2.8
	c-0.2-1.5-0.1-2.9,0.5-4.2c0.5,0,0.5,0,0.9-0.2C18.4,25.8,18.3,26,18.3,26.1z"/>
<path class="st329" d="M18.4,25.7c-0.2,0.4-0.5,0.5-0.9,0.2c0.3-0.8,0.8-1.6,1.5-2.2c0.2-0.1,0.3,0.1,0.2,0.2
	c-0.2,0.3,0.2,0.3,0.3,0.5c0,0.1-0.1,0.1-0.1,0.2c-0.3,0.2-0.3,0.5-0.5,0.7C18.6,25.3,18.6,25.6,18.4,25.7z"/>
<path class="st330" d="M30.4,41.2c0,0-0.1,0-0.1,0c-0.3,0-0.6,0.3-0.9,0c-0.3,0-0.6,0-0.9,0c-0.2-0.2-0.1-0.5-0.1-0.8
	c0.7,0,1.5,0,2.2,0C30.9,40.8,30.8,40.9,30.4,41.2z"/>
<path class="st331" d="M19.5,24.3c-0.5,0.1-0.3-0.5-0.5-0.6c0.4-0.5,0.9-0.8,1.5-1c0.2,0.2,0.3,0.4,0.4,0.7c0,0.1-0.1,0.1-0.1,0.2
	c-0.3,0-0.6,0.2-0.8,0.4C19.8,24.1,19.7,24.3,19.5,24.3z"/>
<path class="st332" d="M30.4,41.2c0.3-0.2,0.3-0.5,0.2-0.8c0.7,0,1.3,0,2,0c0.1,0.5-0.3,0.6-0.6,0.8c-0.3,0-0.5,0-0.8,0
	C30.9,41.2,30.7,41.2,30.4,41.2z"/>
<path class="st333" d="M27.8,38.9c0.2,0.3,0.1,0.7,0.1,1c-0.5,0.3-0.9,0.7-1.4,0.7c-0.2-0.3-0.1-0.6-0.2-0.9
	C26.8,39.4,27.3,39.2,27.8,38.9z"/>
<path class="st334" d="M26.3,39.7c0.3,0.2,0.2,0.5,0.1,0.8c-0.1,0.3-0.4,0.3-0.6,0.4c-0.3,0.1-0.6,0.4-1,0.2
	c-0.1-0.2-0.1-0.5-0.1-0.7C25.2,40.2,25.7,40,26.3,39.7z"/>
<path class="st335" d="M20.9,23.4c-0.3-0.1-0.3-0.5-0.4-0.7c0.3-0.2,0.6-0.3,1-0.3c0.5,0,0.6,0.1,0.7,0.6c0,0.2-0.3,0.1-0.3,0.2
	c-0.1,0-0.3,0-0.4,0.1C21.2,23.3,21,23.4,20.9,23.4z"/>
<path class="st336" d="M22.1,23c-0.1-0.3-0.2-0.6-0.6-0.6c0.7-0.2,1.4-0.1,2,0.1c0,0.2,0.2,0.5-0.2,0.6C22.9,23,22.4,23.2,22.1,23z"
	/>
<path class="st337" d="M23.6,41.5c-0.3,0-0.7,0-1,0c-0.3-0.2-0.2-0.6-0.6-0.8c0.5,0,1-0.1,1.5-0.1c0.2,0.2,0.1,0.5,0.3,0.7
	C23.8,41.4,23.6,41.4,23.6,41.5z"/>
<path class="st338" d="M23.8,41.3c-0.5,0-0.2-0.4-0.3-0.7c0.4-0.1,0.8-0.2,1.2-0.2c0.2,0.2,0.1,0.5,0.1,0.7
	C24.5,41.4,24.2,41.4,23.8,41.3z"/>
<path class="st339" d="M23.4,23c0.1-0.2-0.1-0.3,0.1-0.5c0.8,0.2,1.3,0.7,1.9,1.2c-0.1,0.3-0.2,0.1-0.3,0.1
	c-0.4-0.2-0.9-0.4-1.4-0.5C23.5,23.2,23.4,23.2,23.4,23z"/>
<path class="st340" d="M26.6,25.3c0,0.1-0.1,0.1-0.2,0.1c-0.2-0.3-0.4-0.7-0.7-0.9c-0.1-0.1-0.3-0.3-0.4-0.4c0-0.2,0.2-0.2,0.3-0.1
	c0.2,0.1,0.3,0.3,0.5,0.4C26.3,24.6,26.4,25,26.6,25.3z"/>
<path class="st341" d="M26,24.4c-0.3,0-0.4-0.4-0.7-0.3c-0.1,0-0.1-0.1-0.2-0.1c0,0,0-0.1,0-0.1c-0.1-0.1-0.1-0.1,0-0.2
	c0.1,0,0.2,0.2,0.3,0C25.7,23.9,25.8,24.1,26,24.4z"/>
<path class="st236" d="M29.4,41.2c0.3,0,0.6,0,0.9,0c-0.3,0.1-0.4,0.3-0.4,0.7c0,0.6,0,1.2-0.1,1.8c-0.2-0.2-0.6,0-0.8-0.2
	c0-0.5,0-1,0-1.4C29,41.7,29.1,41.4,29.4,41.2z"/>
<path class="st342" d="M25.8,40.9c0.2-0.1,0.4-0.2,0.6-0.3c0.6-0.1,0.9-0.6,1.5-0.7c0,0.2-0.1,0.2-0.2,0.3c-0.3,0.2-0.6,0.3-0.9,0.5
	c-0.3,0.1-0.5,0.2-0.8,0.3c-0.1,0-0.1,0-0.2,0C25.8,40.9,25.7,40.9,25.8,40.9C25.8,40.9,25.8,40.9,25.8,40.9z"/>
<path class="st343" d="M25.8,40.9c0,0,0,0.1,0,0.1c-0.2,0.2-0.5,0.2-0.8,0.3c-0.3,0.2-0.7,0.1-1.1,0.2c-0.1,0-0.2,0-0.3,0
	c0.1-0.1,0.1-0.1,0.2-0.2c0.4,0,0.7,0,1-0.2C25.1,41.1,25.4,40.9,25.8,40.9z"/>
<path class="st344" d="M23.4,23c0.1,0.1,0.2,0.1,0.3,0.2c0,0,0,0,0,0.1c0,0,0,0,0,0c0,0,0,0,0,0c-0.2,0-0.3-0.1-0.5-0.1
	c-0.3,0-0.6,0-0.9,0c-0.2,0-0.3,0-0.5,0c0.1-0.1,0.2-0.1,0.3-0.2C22.5,23,22.9,23,23.4,23z"/>
<path class="st345" d="M23.7,23.3c0,0,0-0.1,0-0.1c0.5,0,0.9,0.4,1.4,0.5c0,0.1,0,0.1,0,0.2c-0.2-0.1-0.4-0.3-0.7-0.3
	C24.1,23.5,23.9,23.4,23.7,23.3z"/>
</svg>
