<?xml version="1.0" encoding="utf-8"?>
<!-- Generator: Adobe Illustrator 19.1.0, SVG Export Plug-In . SVG Version: 6.00 Build 0)  -->
<svg version="1.1" id="Layer_1" xmlns="http://www.w3.org/2000/svg" xmlns:xlink="http://www.w3.org/1999/xlink" x="0px" y="0px"
	 viewBox="-105 202 1591 390" style="enable-background:new -105 202 1591 390;" xml:space="preserve">
<style type="text/css">
	.st0{fill:#FF2700;}
	.st1{fill:#FF7C00;stroke:#000000;stroke-miterlimit:10;}
	.st2{fill:#FFFFFF;stroke:#000000;stroke-miterlimit:10;}
	.st3{fill:#2148D6;stroke:#000000;stroke-miterlimit:10;}
	.st4{fill:none;stroke:#000000;stroke-miterlimit:10;}
</style>
<path class="st0" d="M282.1,370.2l-1.1,0.2l-41.3,5.3l-0.6,0.1C228.8,305.4,168.2,251.4,95,251.4c-74.2,0-135.4,55.4-144.5,127.1
	l-2.2-0.1l-40-6l-0.7-0.1C-80.3,279.6-1,208,95,208C190.3,208,269.1,278.5,282.1,370.2z"/>
<path class="st1" d="M239.1,375.8c1,6.9,1.5,14,1.5,21.2c0,80.4-65.2,145.7-145.7,145.7S-50.7,477.5-50.7,397
	c0-6.3,0.4-12.5,1.2-18.6c9.1-71.6,70.3-127,144.5-127C168.2,251.4,228.8,305.4,239.1,375.8z"/>
<path class="st2" d="M282.1,370.2c1.2,8.8,1.9,17.7,1.9,26.8c0,104.4-84.6,189-189,189S-94,501.4-94,397c0-8.4,0.6-16.7,1.6-24.8
	l0.7,0.1l40,6l2.2,0.1c-0.8,6.1-1.2,12.3-1.2,18.6c0,80.4,65.2,145.7,145.7,145.7S240.7,477.5,240.7,397c0-7.2-0.5-14.3-1.5-21.2
	l0.6-0.1l41.3-5.3L282.1,370.2z"/>
<g>
	<path d="M-71.5,344.5c0.8-0.3,1.8-0.3,2.8-0.1c1,0.3,1.8,0.8,2.2,1.4c0.3,0.4,0.5,0.9,0.6,1.5c0.5-0.8,1.2-1.3,2-1.5
		c0.8-0.2,1.7-0.2,2.6,0c1,0.3,1.8,0.8,2.4,1.5c0.4,0.5,0.8,1,1,1.5c0.3,0.6,0.4,1.3,0.3,2.1c0,0.8-0.2,1.6-0.4,2.4l-2,7.7
		l-16.6-4.6l2.2-8C-73.9,346.3-72.9,345.1-71.5,344.5z M-72.9,353.9l3.7,1l1.1-4c0.2-0.7,0.2-1.3,0.1-1.9c-0.1-0.6-0.6-0.9-1.3-1.1
		c-0.8-0.2-1.4-0.1-1.8,0.5c-0.3,0.5-0.6,1.1-0.8,1.9L-72.9,353.9z M-66.5,355.7l4.4,1.2l1.1-4c0.2-0.7,0.3-1.3,0.2-1.8
		c-0.2-0.8-0.8-1.4-1.8-1.7c-0.9-0.2-1.6-0.1-2.1,0.6c-0.3,0.3-0.5,0.9-0.7,1.6L-66.5,355.7z"/>
	<path d="M-67.4,328.3l1.6-3.7l18.3,1.3l-1.6,3.6l-3.7-0.4l-2.5,5.8l2.8,2.5l-1.5,3.5L-67.4,328.3z M-57.6,332.9l1.8-4.1l-7.1-0.7
		L-57.6,332.9z"/>
	<path d="M-53.1,302.1c1-0.8,2.1-1.3,3.4-1.4c1-0.1,2.1,0.1,3,0.4c1,0.3,1.8,0.7,2.6,1.2c2,1.2,3.4,2.6,4.2,4.2
		c1.2,2.2,1.1,4.4-0.3,6.6l-3.9,6.3l-14.7-9.1l3.9-6.3C-54.3,303.3-53.7,302.6-53.1,302.1z M-54.4,309.1l9.6,5.9l1.7-2.8
		c0.9-1.5,0.8-2.9-0.3-4.4c-0.6-0.8-1.4-1.5-2.5-2.2c-1.5-0.9-2.8-1.4-3.9-1.4c-1.1,0-2.1,0.7-2.9,2.1L-54.4,309.1z"/>
	<path d="M-42,286.1l2.6-3.1l17.2,6.3l-2.5,3l-3.5-1.4l-4.1,4.9l2,3.2l-2.4,2.9L-42,286.1z M-33.9,293.1l2.8-3.4l-6.6-2.7
		L-33.9,293.1z"/>
	<path d="M-28.9,271.4l2.8-2.6l13.2,4.3l-8.1-8.8l2.5-2.3l11.6,12.8l-2.7,2.4l-13.4-4.3l8.3,9.1l-2.5,2.3L-28.9,271.4z"/>
	<path d="M15.8,250.5c-0.4,1.2-1.5,2.3-3.1,3.3l-3.1,1.8l3.1,5.4l-3.1,1.8l-8.7-14.9l6.4-3.7c1.5-0.9,2.9-1.2,4.2-0.9
		c1.3,0.3,2.5,1.2,3.4,2.8C15.9,247.8,16.2,249.3,15.8,250.5z M10.2,246.5c-0.6-0.1-1.2,0.1-1.9,0.5l-2.8,1.6L8,253l2.8-1.6
		c0.7-0.4,1.2-0.9,1.3-1.5c0.2-0.6,0.1-1.3-0.4-2C11.2,247.2,10.8,246.6,10.2,246.5z"/>
	<path d="M34.2,234.7l-8.4,3.5l1.4,3.4l7.7-3.2l1.2,2.8l-7.7,3.2l1.7,4.1l8.8-3.7l1.2,2.9l-12.1,5l-6.7-15.9l11.7-4.9L34.2,234.7z"
		/>
	<path d="M43,228.4l3.7-1l9.7,9.9l-3.1-11.6l3.3-0.9l4.4,16.7l-3.5,0.9l-9.9-10l3.1,11.8l-3.3,0.9L43,228.4z"/>
	<path d="M72,222.2l4.1-0.5l8.1,16.4l-3.9,0.5l-1.6-3.4l-6.3,0.8l-0.7,3.7l-3.7,0.4L72,222.2z M73.1,232.9l4.4-0.5l-3-6.5
		L73.1,232.9z"/>
	<path d="M91.7,220.7l3.8,0.1l6.6,12.2l0.2-12l3.4,0.1l-0.3,17.3l-3.6-0.1L95,225.9L94.7,238l-3.4-0.1L91.7,220.7z"/>
	<path d="M127,229.1c-0.1-1.2-0.6-2.1-1.6-2.8c-0.5-0.4-1.2-0.6-1.9-0.7c-1.4-0.2-2.6,0.1-3.6,1c-1,0.9-1.8,2.4-2.1,4.4
		c-0.3,2.1-0.1,3.7,0.7,4.7s1.8,1.6,3,1.8s2.2,0,3.1-0.5s1.5-1.4,1.9-2.5l-3.9-0.6l0.5-2.8l7.1,1.2l-1.5,9.1l-2.4-0.4v-2.2
		c-0.8,0.7-1.5,1.2-2.1,1.4c-1,0.4-2.2,0.5-3.6,0.3c-2.3-0.4-4-1.5-5.2-3.3s-1.6-4.1-1.2-6.8c0.5-2.8,1.6-4.8,3.4-6.3
		c1.8-1.4,3.9-1.9,6.4-1.5c2.2,0.4,3.8,1.2,4.9,2.5c1.1,1.3,1.7,2.8,1.6,4.5L127,229.1z"/>
	<path d="M151.5,235.7c0.1-1.2-0.3-2.2-1.1-3c-0.5-0.4-1.1-0.8-1.8-1c-1.3-0.4-2.6-0.3-3.7,0.4c-1.2,0.7-2.1,2.1-2.7,4.1
		c-0.7,2-0.7,3.6,0,4.7c0.7,1.1,1.6,1.9,2.7,2.3c1.2,0.4,2.2,0.3,3.2-0.1c0.9-0.4,1.7-1.1,2.2-2.2l-3.8-1.2l0.9-2.7l6.8,2.2
		l-2.9,8.8l-2.3-0.7l0.3-2.2c-0.9,0.6-1.7,0.9-2.3,1.1c-1.1,0.3-2.3,0.2-3.6-0.2c-2.2-0.7-3.7-2-4.6-4c-1-2-1-4.3-0.2-6.9
		c0.9-2.7,2.3-4.6,4.3-5.7s4.2-1.3,6.6-0.5c2.1,0.7,3.6,1.7,4.5,3.2c0.9,1.5,1.2,3,0.9,4.7L151.5,235.7z"/>
	<path d="M166.7,235.8l3.3,1.6l-4.7,9.5c-0.5,1.1-0.8,1.9-0.8,2.5c0,1.1,0.6,1.9,1.9,2.6c1.3,0.6,2.4,0.6,3.2,0
		c0.5-0.4,1-1.1,1.5-2.1l4.7-9.5l3.3,1.6l-4.7,9.5c-0.8,1.6-1.7,2.8-2.7,3.5c-1.8,1.2-4,1.2-6.7-0.2c-2.7-1.4-4.1-3.1-4.2-5.2
		c-0.1-1.2,0.3-2.6,1.1-4.2L166.7,235.8z"/>
	<path d="M188.4,247.4l3,2l-7.9,11.8l7.2,4.8l-1.7,2.6l-10.2-6.8L188.4,247.4z"/>
	<path d="M209.9,263.4l3.1,2.7l-6.8,17l-2.9-2.6l1.5-3.4l-4.8-4.2l-3.2,1.9l-2.8-2.5L209.9,263.4z M202.7,271.3l3.3,2.9l2.8-6.5
		L202.7,271.3z"/>
	<path d="M224.2,276.9l2.5,2.9l-4.7,13.1l9.1-7.9l2.2,2.6l-13.1,11.3l-2.4-2.7l4.7-13.3l-9.3,8l-2.2-2.6L224.2,276.9z"/>
	<path d="M241.5,308.9c0.8-0.9,1.2-1.9,1-3c-0.1-0.6-0.3-1.3-0.7-1.9c-0.7-1.2-1.8-1.9-3.2-2c-1.4-0.2-2.9,0.3-4.7,1.4
		c-1.8,1.1-2.8,2.4-3,3.6c-0.2,1.3,0,2.5,0.7,3.5c0.6,1,1.5,1.7,2.5,2s2,0.2,3.1-0.3l-2.1-3.4l2.4-1.5l3.9,6.1l-7.8,5l-1.3-2
		l1.6-1.5c-1.1-0.1-1.9-0.4-2.5-0.7c-1-0.5-1.9-1.3-2.6-2.5c-1.2-1.9-1.6-3.9-1-6c0.5-2.1,2-4,4.3-5.4c2.4-1.5,4.7-2.1,6.9-1.7
		c2.2,0.4,4.1,1.7,5.4,3.8c1.2,1.9,1.7,3.6,1.4,5.4c-0.2,1.7-1,3.1-2.3,4.2L241.5,308.9z"/>
	<path d="M255.1,323.2l1.7,3.7l-13.3,12.6l-1.6-3.6l2.8-2.5l-2.6-5.8l-3.7,0.4l-1.5-3.4L255.1,323.2z M245.2,327.4l1.8,4l5.3-4.8
		L245.2,327.4z"/>
	<path d="M262.5,341.5l1,3.6l-9.7,9.9l11.6-3.3l0.9,3.2l-16.6,4.8l-1-3.5l9.8-10.2l-11.8,3.4l-0.9-3.2L262.5,341.5z"/>
</g>
<g>
	<path d="M-56.5,448.7c-0.6,0.8-1.5,1.3-2.6,1.7c-1.1,0.3-2.1,0.3-3-0.1c-0.5-0.2-1-0.6-1.5-1.1c-0.1,1-0.4,1.9-1,2.6
		s-1.4,1.2-2.5,1.5s-2.1,0.3-3.2,0c-0.7-0.2-1.3-0.5-1.8-0.9c-0.6-0.5-1.1-1.1-1.5-1.8c-0.4-0.7-0.7-1.6-1-2.5l-2.4-8.3l18.4-5.3
		l2.6,8.9C-55.3,445.6-55.5,447.4-56.5,448.7z M-67.7,441.2l-4.9,1.4l1.3,4.5c0.2,0.8,0.5,1.4,0.9,1.8c0.6,0.7,1.5,0.9,2.6,0.5
		c1-0.3,1.5-0.9,1.6-1.7c0.1-0.5,0-1.1-0.2-1.9L-67.7,441.2z M-60.6,439.1l-4,1.2l1.3,4.5c0.2,0.8,0.6,1.4,1,1.8s1.1,0.5,1.8,0.3
		c0.9-0.2,1.3-0.7,1.4-1.5c0-0.6-0.1-1.4-0.3-2.3L-60.6,439.1z"/>
	<path d="M-43.4,480.3l-4.8-8.9l-3.6,1.9l4.4,8.2l-2.9,1.6l-4.4-8.2l-4.3,2.3l5,9.3l-3,1.6l-6.9-12.7l16.8-9.1l6.7,12.3L-43.4,480.3
		z"/>
	<path d="M-30.1,493.7l2.7,3.2l-5.2,14.4l10.1-8.7l2.4,2.8l-14.5,12.4l-2.6-3l5.3-14.7l-10.3,8.8l-2.4-2.8L-30.1,493.7z"/>
	<path d="M-6.5,520.8c2.2-0.3,4.2,0.2,6.1,1.7c2.5,1.9,3.7,4.2,3.6,6.7c-0.1,1.4-0.4,2.6-1.1,3.6l-3.2-2.4c0.4-0.9,0.5-1.6,0.5-2.2
		c-0.1-1.1-0.7-2.1-1.8-2.9c-1.1-0.9-2.4-1.1-3.7-0.6c-1.4,0.4-2.7,1.5-4,3.2s-1.9,3.2-1.9,4.6c0,1.4,0.6,2.5,1.7,3.3
		c1.1,0.8,2.2,1.1,3.3,0.8c0.6-0.2,1.3-0.5,2.1-1.2l3.2,2.4c-1.5,1.5-3.3,2.3-5.2,2.5s-3.7-0.4-5.5-1.7c-2.2-1.6-3.3-3.6-3.5-6
		s0.7-4.8,2.6-7.2C-11.2,522.7-9,521.2-6.5,520.8z"/>
	<path d="M26.3,539.2l4.1,1.9l-1.9,20.2l-3.9-1.8l0.5-4.1l-6.4-3l-2.8,3l-3.8-1.8L26.3,539.2z M21,549.9l4.4,2.1l1-7.8L21,549.9z"/>
	<path d="M52.7,549.3l4.1,0.9l4.5,14.7l2.9-13l3.6,0.8l-4.1,18.7l-3.9-0.9l-4.7-14.9l-2.9,13.2l-3.6-0.8L52.7,549.3z"/>
	<path d="M91.9,554.6l4.5,0.1l6.5,19.2l-4.3-0.1l-1.2-4l-7-0.1l-1.4,3.9l-4.2-0.1L91.9,554.6z M91.4,566.5l4.9,0.1L94,559
		L91.4,566.5z"/>
	<path d="M130.8,550.8c1.4,0.2,2.6,0.7,3.7,1.7c0.9,0.8,1.5,1.7,2,2.7s0.8,2,1,3c0.5,2.5,0.5,4.7-0.2,6.6c-0.9,2.6-2.7,4.2-5.5,4.8
		l-8.1,1.7l-4-18.7l8.1-1.7C129,550.8,130,550.8,130.8,550.8z M124.3,555.2l2.6,12.2l3.6-0.8c1.8-0.4,2.9-1.6,3.3-3.6
		c0.2-1.1,0.1-2.3-0.2-3.7c-0.4-1.9-1-3.3-1.8-4.2s-2.1-1.1-3.9-0.8L124.3,555.2z"/>
	<path d="M157.3,541.5l4.1-1.9l14.1,14.6l-3.9,1.8l-2.8-3.1l-6.4,2.9l0.4,4.1l-3.8,1.7L157.3,541.5z M162,552.4l4.5-2l-5.3-5.8
		L162,552.4z"/>
	<path d="M195.5,522.2l-8.1,6l2.4,3.3l7.5-5.5l2,2.7l-7.5,5.5l2.9,3.9l8.5-6.3l2,2.8l-11.6,8.6l-11.4-15.4l11.3-8.4L195.5,522.2z"/>
	<path d="M215.4,498.3c0.7-0.3,1.4-0.5,2.2-0.5c0.6,0,1.2,0.1,1.8,0.3c0.6,0.2,1.2,0.6,1.7,1.1c0.7,0.6,1.2,1.4,1.6,2.3
		s0.3,1.9-0.1,2.9c0.8-0.4,1.6-0.6,2.4-0.4s1.6,0.7,2.6,1.6l1,0.8c0.7,0.6,1.1,0.9,1.4,1.1c0.4,0.2,0.9,0.3,1.3,0.2l0.4,0.3
		l-2.9,3.3c-0.4-0.2-0.7-0.4-0.9-0.5c-0.5-0.3-0.9-0.6-1.3-1l-1.4-1.2c-0.9-0.8-1.7-1.2-2.2-1.1c-0.6,0-1.2,0.5-2,1.3l-2.6,2.9
		l5.6,5l-2.6,2.9L207,507.1l6.1-6.9C213.9,499.3,214.7,498.7,215.4,498.3z M212,506.4l3.9,3.4l2.8-3.2c0.6-0.6,0.9-1.2,1-1.6
		c0.2-0.8-0.1-1.6-0.9-2.3c-0.9-0.8-1.7-1-2.5-0.7c-0.4,0.2-0.9,0.5-1.5,1.2L212,506.4z"/>
	<path d="M230.4,475.8l2.2-3.9l20,3.4l-2.1,3.8l-4-0.8l-3.4,6.2l2.8,3l-2,3.7L230.4,475.8z M240.6,481.8l2.4-4.3l-7.7-1.5
		L240.6,481.8z"/>
	<path d="M260.7,455.7l-18.3-5.5l1.1-3.8l7,2.1l2.1-7.1l-7-2.1l1.1-3.8L265,441l-1.1,3.8l-8.2-2.5l-2.1,7.1l8.2,2.5L260.7,455.7z"/>
</g>
<polygon class="st3" points="5,463.7 183.7,463.7 92.3,301.7 "/>
<g>
	<path class="st4" d="M282.1,370.2c1.2,8.8,1.9,17.7,1.9,26.8c0,104.4-84.6,189-189,189S-94,501.4-94,397c0-8.4,0.6-16.7,1.6-24.8
		C-80.3,279.6-1,208,95,208C190.3,208,269.1,278.5,282.1,370.2z"/>
	<line class="st4" x1="239.7" y1="375.7" x2="281" y2="370.4"/>
	<line class="st4" x1="-51.7" y1="378.4" x2="-91.7" y2="372.4"/>
</g>
<g>
	<path d="M54.2,479.5c0.5,0.8,0.8,1.7,0.8,2.7c0,1.1-0.3,2-0.8,2.6c-0.3,0.4-0.8,0.7-1.4,1c0.9,0.3,1.6,0.9,2.1,1.6s0.7,1.6,0.7,2.6
		c0,1.1-0.3,2-0.8,2.9c-0.3,0.6-0.8,1-1.3,1.4c-0.6,0.4-1.3,0.7-2,0.9s-1.6,0.2-2.5,0.2h-8.1v-18h8.7
		C51.7,477.6,53.3,478.3,54.2,479.5z M44.4,480.7v4h4.4c0.8,0,1.4-0.1,1.9-0.4s0.7-0.8,0.7-1.6c0-0.8-0.3-1.4-1-1.7
		c-0.6-0.2-1.3-0.3-2.1-0.3H44.4z M44.4,487.7v4.8h4.4c0.8,0,1.4-0.1,1.8-0.3c0.8-0.4,1.2-1.1,1.2-2.2c0-0.9-0.4-1.6-1.1-1.9
		c-0.4-0.2-1-0.3-1.8-0.3h-4.5V487.7z"/>
	<path d="M86.2,487.8c-1.1,0.9-2.6,1.3-4.5,1.3H78v6.5h-3.7v-18H82c1.8,0,3.2,0.5,4.3,1.4s1.6,2.4,1.6,4.3
		C87.8,485.4,87.2,486.9,86.2,487.8z M83.3,481.3c-0.5-0.4-1.1-0.6-2-0.6h-3.4v5.3h3.4c0.9,0,1.5-0.2,2-0.6s0.7-1.1,0.7-2.1
		C84,482.4,83.8,481.7,83.3,481.3z"/>
	<path d="M119.4,479.5c0.5,0.8,0.8,1.7,0.8,2.7c0,1.1-0.3,2-0.8,2.6c-0.3,0.4-0.8,0.7-1.4,1c0.9,0.3,1.6,0.9,2.1,1.6
		s0.7,1.6,0.7,2.6c0,1.1-0.3,2-0.8,2.9c-0.3,0.6-0.8,1-1.3,1.4c-0.6,0.4-1.3,0.7-2,0.9s-1.6,0.2-2.5,0.2h-8.1v-18h8.7
		C117,477.6,118.5,478.3,119.4,479.5z M109.7,480.7v4h4.4c0.8,0,1.4-0.1,1.9-0.4s0.7-0.8,0.7-1.6c0-0.8-0.3-1.4-1-1.7
		c-0.6-0.2-1.3-0.3-2.1-0.3H109.7z M109.7,487.7v4.8h4.4c0.8,0,1.4-0.1,1.8-0.3c0.8-0.4,1.2-1.1,1.2-2.2c0-0.9-0.4-1.6-1.1-1.9
		c-0.4-0.2-1-0.3-1.8-0.3h-4.5V487.7z"/>
	<path d="M149.9,478c1.3,0.4,2.3,1.2,3.1,2.3c0.6,0.9,1.1,1.9,1.3,2.9c0.2,1,0.3,2,0.3,3c0,2.4-0.5,4.4-1.4,6.1
		c-1.3,2.2-3.3,3.4-6,3.4h-7.8v-18h7.8C148.2,477.6,149.1,477.8,149.9,478z M143,480.7v11.7h3.5c1.8,0,3-0.9,3.7-2.6
		c0.4-1,0.6-2.1,0.6-3.4c0-1.8-0.3-3.2-0.9-4.2c-0.6-1-1.7-1.5-3.4-1.5H143z"/>
</g>
<g>
	<path d="M392.4,291.5c2.5,3.5,3.8,7.6,3.8,12.5c0,5-1.3,9-3.8,12c-1.4,1.7-3.5,3.3-6.2,4.7c4.2,1.5,7.3,3.9,9.4,7.2
		c2.1,3.3,3.2,7.3,3.2,12c0,4.8-1.2,9.2-3.6,13c-1.5,2.6-3.5,4.7-5.8,6.4c-2.6,2-5.7,3.4-9.2,4.1c-3.6,0.7-7.4,1.1-11.6,1.1h-36.9
		v-81.8h39.5C381.2,283,388.2,285.9,392.4,291.5z M348,297v18h19.9c3.6,0,6.4-0.7,8.6-2c2.2-1.4,3.3-3.7,3.3-7.2
		c0-3.8-1.5-6.3-4.4-7.5c-2.5-0.9-5.8-1.3-9.7-1.3H348z M348,328.6v21.8h19.9c3.6,0,6.3-0.5,8.3-1.4c3.6-1.8,5.4-5.2,5.4-10.2
		c0-4.3-1.7-7.2-5.2-8.8c-1.9-0.9-4.7-1.4-8.2-1.4H348z"/>
	<path d="M468.4,329.2c-4.8,4-11.6,6-20.5,6h-17v29.4h-17v-81.8H449c8.1,0,14.6,2.1,19.4,6.3c4.8,4.2,7.2,10.7,7.2,19.6
		C475.5,318.4,473.2,325.2,468.4,329.2z M455.3,299.7c-2.2-1.8-5.2-2.7-9.1-2.7h-15.4v24.1h15.4c3.9,0,6.9-1,9.1-2.9
		c2.2-2,3.2-5.1,3.2-9.3C458.6,304.6,457.5,301.5,455.3,299.7z"/>
	<path d="M550.2,291.5c2.5,3.5,3.8,7.6,3.8,12.5c0,5-1.3,9-3.8,12c-1.4,1.7-3.5,3.3-6.2,4.7c4.2,1.5,7.3,3.9,9.4,7.2
		c2.1,3.3,3.2,7.3,3.2,12c0,4.8-1.2,9.2-3.6,13c-1.5,2.6-3.5,4.7-5.8,6.4c-2.6,2-5.7,3.4-9.2,4.1c-3.6,0.7-7.4,1.1-11.6,1.1h-36.9
		v-81.8h39.5C539,283,546.1,285.9,550.2,291.5z M505.8,297v18h19.9c3.6,0,6.4-0.7,8.6-2c2.2-1.4,3.3-3.7,3.3-7.2
		c0-3.8-1.5-6.3-4.4-7.5c-2.5-0.9-5.8-1.3-9.7-1.3H505.8z M505.8,328.6v21.8h19.9c3.6,0,6.3-0.5,8.3-1.4c3.6-1.8,5.4-5.2,5.4-10.2
		c0-4.3-1.7-7.2-5.2-8.8c-1.9-0.9-4.7-1.4-8.2-1.4H505.8z"/>
	<path d="M619.2,284.6c5.7,1.9,10.4,5.3,13.9,10.4c2.9,4.1,4.8,8.5,5.8,13.2c1,4.7,1.6,9.2,1.6,13.5c0,10.9-2.2,20.1-6.6,27.6
		c-5.9,10.2-15.1,15.3-27.4,15.3h-35.3v-81.8h35.3C611.6,282.9,615.9,283.5,619.2,284.6z M587.9,297v53.4h15.8
		c8.1,0,13.7-4,16.9-11.9c1.7-4.4,2.6-9.6,2.6-15.6c0-8.3-1.3-14.7-3.9-19.2c-2.6-4.5-7.8-6.7-15.6-6.7H587.9z"/>
	<path d="M379.3,420.9c5.7,1.9,10.4,5.3,13.9,10.4c2.9,4.1,4.8,8.5,5.8,13.2c1,4.7,1.6,9.2,1.6,13.5c0,10.9-2.2,20.1-6.6,27.6
		c-5.9,10.2-15.1,15.3-27.4,15.3h-35.3v-81.8h35.3C371.7,419.2,376,419.8,379.3,420.9z M348,433.4v53.4h15.8c8.1,0,13.7-4,16.9-11.9
		c1.7-4.4,2.6-9.6,2.6-15.6c0-8.3-1.3-14.7-3.9-19.2c-2.6-4.5-7.8-6.7-15.6-6.7H348z"/>
	<path d="M413.7,419.2h16.8v33.7l31.6-33.7h22.1l-33.6,33.6l35.3,48.1h-22l-25.2-35.7l-8.2,8.3v27.4h-16.8V419.2z"/>
	<path d="M511.1,500.9h-17v-81.8h17V500.9z"/>
	<path d="M568.6,469.9v1.9c0.1,6.3,0.8,10.8,2,13.3c1.2,2.6,3.7,3.9,7.5,3.9c3.8,0,6.3-1.4,7.5-4.2c0.7-1.7,1.1-4.5,1.1-8.4v-57.2
		h17.1v56.9c0,7-1.2,12.5-3.5,16.5c-4,6.9-11.2,10.3-21.5,10.3c-10.4,0-17.3-2.8-20.9-8.4c-3.5-5.6-5.3-13.2-5.3-22.8v-1.9H568.6z"
		/>
	<path d="M644.5,464.2c2.9-0.4,5-0.8,6.3-1.4c2.3-1,3.4-2.5,3.4-4.5c0-2.5-0.9-4.2-2.6-5.1c-1.7-0.9-4.3-1.4-7.7-1.4
		c-3.8,0-6.5,0.9-8,2.8c-1.1,1.4-1.9,3.2-2.2,5.5h-15.3c0.3-5.3,1.8-9.6,4.5-13c4.2-5.3,11.4-8,21.6-8c6.6,0,12.6,1.3,17.7,3.9
		c5.2,2.6,7.7,7.6,7.7,14.9v27.7c0,1.9,0,4.3,0.1,7c0.1,2.1,0.4,3.5,0.9,4.2c0.5,0.7,1.3,1.4,2.3,1.8v2.3h-17.2
		c-0.5-1.2-0.8-2.4-1-3.4c-0.2-1.1-0.3-2.3-0.4-3.7c-2.2,2.4-4.7,4.4-7.6,6c-3.4,2-7.3,2.9-11.6,2.9c-5.5,0-10.1-1.6-13.6-4.7
		c-3.6-3.1-5.4-7.6-5.4-13.3c0-7.4,2.9-12.8,8.7-16.1c3.2-1.8,7.8-3.1,14-3.9L644.5,464.2z M654.2,471.5c-1,0.6-2,1.1-3.1,1.5
		c-1,0.4-2.4,0.7-4.2,1.1l-3.6,0.7c-3.4,0.6-5.8,1.3-7.3,2.2c-2.5,1.4-3.7,3.7-3.7,6.7c0,2.7,0.8,4.7,2.3,5.9
		c1.5,1.2,3.4,1.8,5.5,1.8c3.5,0,6.6-1,9.6-3c2.9-2,4.4-5.6,4.5-10.9V471.5z"/>
	<path d="M683.6,419.4h15.5v44.1l19.9-22.8h19.7l-21.7,22.5l22.5,37.7h-19.2l-14.7-25.8l-6.5,6.8v19h-15.5V419.4z"/>
	<path d="M770.9,464.2c2.9-0.4,5-0.8,6.3-1.4c2.3-1,3.4-2.5,3.4-4.5c0-2.5-0.9-4.2-2.6-5.1c-1.7-0.9-4.3-1.4-7.7-1.4
		c-3.8,0-6.5,0.9-8,2.8c-1.1,1.4-1.9,3.2-2.2,5.5h-15.3c0.3-5.3,1.8-9.6,4.5-13c4.2-5.3,11.4-8,21.6-8c6.6,0,12.6,1.3,17.7,3.9
		c5.2,2.6,7.7,7.6,7.7,14.9v27.7c0,1.9,0,4.3,0.1,7c0.1,2.1,0.4,3.5,0.9,4.2c0.5,0.7,1.3,1.4,2.3,1.8v2.3h-17.2
		c-0.5-1.2-0.8-2.4-1-3.4c-0.2-1.1-0.3-2.3-0.4-3.7c-2.2,2.4-4.7,4.4-7.6,6c-3.4,2-7.3,2.9-11.6,2.9c-5.5,0-10.1-1.6-13.6-4.7
		c-3.6-3.1-5.4-7.6-5.4-13.3c0-7.4,2.9-12.8,8.7-16.1c3.2-1.8,7.8-3.1,14-3.9L770.9,464.2z M780.6,471.5c-1,0.6-2,1.1-3.1,1.5
		c-1,0.4-2.4,0.7-4.2,1.1l-3.6,0.7c-3.4,0.6-5.8,1.3-7.3,2.2c-2.5,1.4-3.7,3.7-3.7,6.7c0,2.7,0.8,4.7,2.3,5.9
		c1.5,1.2,3.4,1.8,5.5,1.8c3.5,0,6.6-1,9.6-3c2.9-2,4.4-5.6,4.5-10.9V471.5z"/>
	<path d="M843.8,439.1c0.2,0,0.7,0,1.4,0.1v16.2c-1-0.1-1.9-0.2-2.7-0.2c-0.8,0-1.4-0.1-1.9-0.1c-6.4,0-10.6,2.1-12.8,6.2
		c-1.2,2.3-1.8,5.9-1.8,10.8v28.9H810v-60.5h15.1V451c2.4-4,4.6-6.8,6.4-8.3c3-2.5,6.8-3.7,11.5-3.7
		C843.3,439,843.6,439,843.8,439.1z"/>
	<path d="M848.2,452.3V441h8.4v-16.9h15.6V441h9.8v11.3h-9.8v32c0,2.5,0.3,4,0.9,4.6c0.6,0.6,2.6,0.9,5.8,0.9c0.5,0,1,0,1.5,0
		c0.5,0,1.1,0,1.6-0.1v11.8l-7.5,0.3c-7.5,0.3-12.6-1-15.3-3.9c-1.8-1.8-2.7-4.6-2.7-8.4v-37.2H848.2z"/>
	<path d="M916.2,464.2c2.9-0.4,5-0.8,6.3-1.4c2.3-1,3.4-2.5,3.4-4.5c0-2.5-0.9-4.2-2.6-5.1c-1.7-0.9-4.3-1.4-7.7-1.4
		c-3.8,0-6.5,0.9-8,2.8c-1.1,1.4-1.9,3.2-2.2,5.5h-15.3c0.3-5.3,1.8-9.6,4.5-13c4.2-5.3,11.4-8,21.6-8c6.6,0,12.6,1.3,17.7,3.9
		c5.2,2.6,7.7,7.6,7.7,14.9v27.7c0,1.9,0,4.3,0.1,7c0.1,2.1,0.4,3.5,0.9,4.2s1.3,1.4,2.3,1.8v2.3h-17.2c-0.5-1.2-0.8-2.4-1-3.4
		c-0.2-1.1-0.3-2.3-0.4-3.7c-2.2,2.4-4.7,4.4-7.6,6c-3.4,2-7.3,2.9-11.6,2.9c-5.5,0-10.1-1.6-13.6-4.7c-3.6-3.1-5.4-7.6-5.4-13.3
		c0-7.4,2.9-12.8,8.7-16.1c3.2-1.8,7.8-3.1,14-3.9L916.2,464.2z M925.8,471.5c-1,0.6-2,1.1-3.1,1.5c-1,0.4-2.4,0.7-4.2,1.1l-3.6,0.7
		c-3.4,0.6-5.8,1.3-7.3,2.2c-2.5,1.4-3.7,3.7-3.7,6.7c0,2.7,0.8,4.7,2.3,5.9c1.5,1.2,3.4,1.8,5.5,1.8c3.5,0,6.6-1,9.6-3
		c2.9-2,4.4-5.6,4.5-10.9V471.5z"/>
	<path d="M1043.2,465.5c-4.8,4-11.6,6-20.5,6h-17v29.4h-17v-81.8h35.1c8.1,0,14.6,2.1,19.4,6.3c4.8,4.2,7.2,10.7,7.2,19.6
		C1050.4,454.7,1048,461.5,1043.2,465.5z M1030.1,436.1c-2.2-1.8-5.2-2.7-9.1-2.7h-15.4v24.1h15.4c3.9,0,6.9-1,9.1-2.9
		c2.2-2,3.2-5.1,3.2-9.3S1032.3,437.9,1030.1,436.1z"/>
	<path d="M1096.4,439.1c0.2,0,0.7,0,1.4,0.1v16.2c-1-0.1-1.9-0.2-2.7-0.2c-0.8,0-1.4-0.1-1.9-0.1c-6.4,0-10.6,2.1-12.8,6.2
		c-1.2,2.3-1.8,5.9-1.8,10.8v28.9h-15.9v-60.5h15.1V451c2.4-4,4.6-6.8,6.4-8.3c3-2.5,6.8-3.7,11.5-3.7
		C1095.9,439,1096.2,439,1096.4,439.1z"/>
	<path d="M1157.4,493.5c-5.1,6.3-12.9,9.5-23.2,9.5c-10.4,0-18.1-3.1-23.2-9.5s-7.7-13.9-7.7-22.8c0-8.7,2.6-16.3,7.7-22.7
		c5.1-6.4,12.9-9.6,23.2-9.6c10.4,0,18.1,3.2,23.2,9.6c5.1,6.4,7.7,14,7.7,22.7C1165.1,479.7,1162.5,487.2,1157.4,493.5z
		 M1144.8,484.8c2.5-3.3,3.7-8,3.7-14c0-6.1-1.2-10.7-3.7-14c-2.5-3.3-6-4.9-10.7-4.9c-4.6,0-8.2,1.6-10.7,4.9
		c-2.5,3.3-3.7,7.9-3.7,14c0,6.1,1.2,10.7,3.7,14s6.1,4.9,10.7,4.9C1138.8,489.7,1142.3,488.1,1144.8,484.8z"/>
	<path d="M1213.7,440.5h17l-21.8,60.5h-16.7l-21.7-60.5h17.8l12.6,44.6L1213.7,440.5z"/>
	<path d="M1255.9,433.3h-16v-14.6h16V433.3z M1239.8,440.5h16v60.5h-16V440.5z"/>
	<path d="M1319.9,443.9c4,3.3,5.9,8.7,5.9,16.3v40.7h-16.2v-36.8c0-3.2-0.4-5.6-1.3-7.3c-1.5-3.1-4.5-4.7-8.8-4.7
		c-5.3,0-9,2.3-11,6.8c-1,2.4-1.5,5.5-1.5,9.2v32.7h-15.8v-60.4h15.3v8.8c2-3.1,3.9-5.3,5.7-6.7c3.2-2.4,7.4-3.7,12.3-3.7
		C1310.9,439,1316,440.7,1319.9,443.9z"/>
	<path d="M1376.8,462.2c-0.3-2.3-1.1-4.3-2.3-6.1c-1.8-2.4-4.5-3.7-8.3-3.7c-5.3,0-9,2.6-11,7.9c-1,2.8-1.6,6.5-1.6,11.2
		c0,4.4,0.5,8,1.6,10.7c1.9,5,5.5,7.5,10.7,7.5c3.7,0,6.3-1,7.9-3c1.6-2,2.5-4.6,2.8-7.8h16.1c-0.4,4.8-2.1,9.4-5.2,13.6
		c-5,6.9-12.3,10.4-22,10.4s-16.9-2.9-21.5-8.7c-4.6-5.8-6.9-13.3-6.9-22.4c0-10.4,2.5-18.4,7.6-24.2c5.1-5.8,12.1-8.7,21-8.7
		c7.6,0,13.8,1.7,18.6,5.1c4.8,3.4,7.7,9.4,8.6,18H1376.8z"/>
	<path d="M1443.2,441.7c4.2,1.9,7.7,4.9,10.4,8.9c2.5,3.6,4.1,7.8,4.8,12.5c0.4,2.8,0.6,6.8,0.5,12h-44c0.2,6.1,2.4,10.3,6.3,12.8
		c2.4,1.5,5.3,2.3,8.7,2.3c3.6,0,6.5-0.9,8.8-2.8c1.2-1,2.3-2.4,3.3-4.2h16.1c-0.4,3.6-2.4,7.2-5.9,10.9c-5.4,5.9-13,8.8-22.7,8.8
		c-8.1,0-15.2-2.5-21.3-7.4c-6.1-5-9.2-13-9.2-24.2c0-10.5,2.8-18.5,8.3-24.1c5.6-5.6,12.8-8.4,21.6-8.4
		C1434.2,438.9,1439,439.8,1443.2,441.7z M1419.5,455.3c-2.2,2.3-3.6,5.4-4.2,9.4h27.2c-0.3-4.2-1.7-7.4-4.2-9.6
		c-2.5-2.2-5.6-3.3-9.4-3.3C1424.9,451.9,1421.8,453,1419.5,455.3z"/>
</g>
</svg>
