<?xml version="1.0" encoding="utf-8"?>
<!-- Generator: Adobe Illustrator 19.1.0, SVG Export Plug-In . SVG Version: 6.00 Build 0)  -->
<svg version="1.1" id="Layer_1" xmlns="http://www.w3.org/2000/svg" xmlns:xlink="http://www.w3.org/1999/xlink" x="0px" y="0px"
	 viewBox="-65 184.2 480 480" style="enable-background:new -65 184.2 480 480;" xml:space="preserve">
<style type="text/css">
	.st0{fill:#888888;}
	.st1{fill:#C0C0C0;}
	.st2{fill:#808080;}
</style>
<g id="Layer_2_1_">
	<path class="st0" d="M407.4,612.2c-0.6,0-1.1-0.4-1.1-1.1s0.4-1.1,1.1-1.1h0.1c0.6,0,1.1,0.4,1.1,1.1S408.1,612.2,407.4,612.2z
		 M401,612.2c-0.6,0-1.1-0.4-1.1-1.1s0.4-1.1,1.1-1.1h0.1c0.6,0,1.1,0.4,1.1,1.1S401.6,612.2,401,612.2z M394.5,612.2h-0.1
		c-0.6,0-1.1-0.4-1.1-1.1s0.4-1.1,1.1-1.1h0.1c0.6,0,1.1,0.4,1.1,1.1S395.1,612.2,394.5,612.2z M388,612.2c-0.6,0-1.1-0.4-1.1-1.1
		s0.4-1.1,1.1-1.1h0.1c0.6,0,1.1,0.4,1.1,1.1S388.6,612.2,388,612.2z M381.5,612.2h-0.1c-0.6,0-1.1-0.4-1.1-1.1s0.4-1.1,1.1-1.1h0.1
		c0.6,0,1.1,0.4,1.1,1.1S382.1,612.2,381.5,612.2z M375,612.2c-0.6,0-1.1-0.4-1.1-1.1s0.4-1.1,1.1-1.1h0.1c0.6,0,1.1,0.4,1.1,1.1
		S375.6,612.2,375,612.2z M368.5,612.2c-0.6,0-1.1-0.4-1.1-1.1s0.4-1.1,1.1-1.1h0.1c0.6,0,1.1,0.4,1.1,1.1S369.2,612.2,368.5,612.2z
		 M362,612.2c-0.6,0-1.1-0.4-1.1-1.1s0.4-1.1,1.1-1.1h0.1c0.6,0,1.1,0.4,1.1,1.1S362.7,612.2,362,612.2z M355.5,612.2
		c-0.6,0-1.1-0.4-1.1-1.1s0.4-1.1,1.1-1.1h0.1c0.6,0,1.1,0.4,1.1,1.1S356.2,612.2,355.5,612.2z M349.1,612.2H349
		c-0.6,0-1.1-0.4-1.1-1.1s0.4-1.1,1.1-1.1h0.1c0.6,0,1.1,0.4,1.1,1.1S349.7,612.2,349.1,612.2z M342.6,612.2c-0.6,0-1.1-0.4-1.1-1.1
		s0.4-1.1,1.1-1.1h0.1c0.6,0,1.1,0.4,1.1,1.1S343.2,612.2,342.6,612.2z M336.1,612.2H336c-0.6,0-1.1-0.4-1.1-1.1s0.4-1.1,1.1-1.1
		h0.1c0.6,0,1.1,0.4,1.1,1.1S336.7,612.2,336.1,612.2z M329.6,612.2c-0.6,0-1.1-0.4-1.1-1.1s0.4-1.1,1.1-1.1h0.1
		c0.6,0,1.1,0.4,1.1,1.1S330.2,612.2,329.6,612.2z M323.1,612.2H323c-0.6,0-1.1-0.4-1.1-1.1s0.4-1.1,1.1-1.1h0.1
		c0.6,0,1.1,0.4,1.1,1.1S323.7,612.2,323.1,612.2z M316.6,612.2c-0.6,0-1.1-0.4-1.1-1.1s0.4-1.1,1.1-1.1h0.1c0.6,0,1.1,0.4,1.1,1.1
		S317.3,612.2,316.6,612.2z M310.1,612.2c-0.6,0-1.1-0.4-1.1-1.1s0.4-1.1,1.1-1.1h0.1c0.6,0,1.1,0.4,1.1,1.1
		S310.8,612.2,310.1,612.2z M303.6,612.2h-0.1c-0.6,0-1.1-0.4-1.1-1.1s0.4-1.1,1.1-1.1h0.1c0.6,0,1.1,0.4,1.1,1.1
		S304.3,612.2,303.6,612.2z M297.2,612.2c-0.6,0-1.1-0.4-1.1-1.1s0.4-1.1,1.1-1.1h0.1c0.6,0,1.1,0.4,1.1,1.1
		S297.8,612.2,297.2,612.2z M290.7,612.2h-0.1c-0.6,0-1.1-0.4-1.1-1.1s0.4-1.1,1.1-1.1h0.1c0.6,0,1.1,0.4,1.1,1.1
		S291.3,612.2,290.7,612.2z M284.2,612.2c-0.6,0-1.1-0.4-1.1-1.1s0.4-1.1,1.1-1.1h0.1c0.6,0,1.1,0.4,1.1,1.1
		S284.8,612.2,284.2,612.2z M277.7,612.2h-0.1c-0.6,0-1.1-0.4-1.1-1.1s0.4-1.1,1.1-1.1h0.1c0.6,0,1.1,0.4,1.1,1.1
		S278.3,612.2,277.7,612.2z M271.2,612.2c-0.6,0-1.1-0.4-1.1-1.1s0.4-1.1,1.1-1.1h0.1c0.6,0,1.1,0.4,1.1,1.1
		S271.8,612.2,271.2,612.2z M264.7,612.2c-0.6,0-1.1-0.4-1.1-1.1s0.4-1.1,1.1-1.1h0.1c0.6,0,1.1,0.4,1.1,1.1
		S265.4,612.2,264.7,612.2z M258.2,612.2h-0.1c-0.6,0-1.1-0.4-1.1-1.1s0.4-1.1,1.1-1.1h0.1c0.6,0,1.1,0.4,1.1,1.1
		S258.9,612.2,258.2,612.2z M251.7,612.2c-0.6,0-1.1-0.4-1.1-1.1s0.4-1.1,1.1-1.1h0.1c0.6,0,1.1,0.4,1.1,1.1
		S252.4,612.2,251.7,612.2z M245.3,612.2h-0.1c-0.6,0-1.1-0.4-1.1-1.1s0.4-1.1,1.1-1.1h0.1c0.6,0,1.1,0.4,1.1,1.1
		S245.9,612.2,245.3,612.2z M238.8,612.2c-0.6,0-1.1-0.4-1.1-1.1s0.4-1.1,1.1-1.1h0.1c0.6,0,1.1,0.4,1.1,1.1
		S239.4,612.2,238.8,612.2z M232.3,612.2h-0.1c-0.6,0-1.1-0.4-1.1-1.1s0.4-1.1,1.1-1.1h0.1c0.6,0,1.1,0.4,1.1,1.1
		S232.9,612.2,232.3,612.2z M225.8,612.2c-0.6,0-1.1-0.4-1.1-1.1s0.4-1.1,1.1-1.1h0.1c0.6,0,1.1,0.4,1.1,1.1
		S226.4,612.2,225.8,612.2z M219.3,612.2c-0.6,0-1.1-0.4-1.1-1.1s0.4-1.1,1.1-1.1h0.1c0.6,0,1.1,0.4,1.1,1.1
		S219.9,612.2,219.3,612.2z M212.8,612.2h-0.1c-0.6,0-1.1-0.4-1.1-1.1s0.4-1.1,1.1-1.1h0.1c0.6,0,1.1,0.4,1.1,1.1
		S213.4,612.2,212.8,612.2z M206.3,612.2c-0.6,0-1.1-0.4-1.1-1.1s0.4-1.1,1.1-1.1h0.1c0.6,0,1.1,0.4,1.1,1.1S207,612.2,206.3,612.2z
		 M199.8,612.2h-0.1c-0.6,0-1.1-0.4-1.1-1.1s0.4-1.1,1.1-1.1h0.1c0.6,0,1.1,0.4,1.1,1.1S200.5,612.2,199.8,612.2z M193.3,612.2
		c-0.6,0-1.1-0.4-1.1-1.1s0.4-1.1,1.1-1.1h0.1c0.6,0,1.1,0.4,1.1,1.1S194,612.2,193.3,612.2z M186.9,612.2h-0.1
		c-0.6,0-1.1-0.4-1.1-1.1s0.4-1.1,1.1-1.1h0.1c0.6,0,1.1,0.4,1.1,1.1S187.5,612.2,186.9,612.2z M180.4,612.2c-0.6,0-1.1-0.4-1.1-1.1
		s0.4-1.1,1.1-1.1h0.1c0.6,0,1.1,0.4,1.1,1.1S181,612.2,180.4,612.2z M173.9,612.2c-0.6,0-1.1-0.4-1.1-1.1s0.4-1.1,1.1-1.1h0.1
		c0.6,0,1.1,0.4,1.1,1.1S174.5,612.2,173.9,612.2z M167.5,612.2h-0.1c-0.6,0-1.1-0.4-1.1-1.1s0.4-1.1,1.1-1.1h0.1
		c0.6,0,1.1,0.4,1.1,1.1S168,612.2,167.5,612.2z M161,612.2h-0.1c-0.6,0-1.1-0.4-1.1-1.1s0.4-1.1,1.1-1.1h0.1c0.6,0,1.1,0.4,1.1,1.1
		S161.5,612.2,161,612.2z M154.5,612.2c-0.6,0-1.1-0.4-1.1-1.1s0.4-1.1,1.1-1.1h0.1c0.6,0,1.1,0.4,1.1,1.1S155.1,612.2,154.5,612.2z
		 M148,612.2c-0.6,0-1.1-0.4-1.1-1.1s0.4-1.1,1.1-1.1h0.1c0.6,0,1.1,0.4,1.1,1.1S148.6,612.2,148,612.2z M141.5,612.2h-0.1
		c-0.6,0-1.1-0.4-1.1-1.1s0.4-1.1,1.1-1.1h0.1c0.6,0,1.1,0.4,1.1,1.1S142.1,612.2,141.5,612.2z M135.1,612.2H135
		c-0.6,0-1.1-0.4-1.1-1.1s0.4-1.1,1.1-1.1h0.1c0.6,0,1.1,0.4,1.1,1.1S135.6,612.2,135.1,612.2z M128.6,612.2h-0.1
		c-0.6,0-1.1-0.4-1.1-1.1s0.4-1.1,1.1-1.1h0.1c0.6,0,1.1,0.4,1.1,1.1S129.1,612.2,128.6,612.2z M122.1,612.2H122
		c-0.6,0-1.1-0.4-1.1-1.1s0.4-1.1,1.1-1.1h0.1c0.6,0,1.1,0.4,1.1,1.1S122.6,612.2,122.1,612.2z M115.6,612.2h-0.1
		c-0.6,0-1.1-0.4-1.1-1.1s0.4-1.1,1.1-1.1h0.1c0.6,0,1.1,0.4,1.1,1.1S116.1,612.2,115.6,612.2z M109.1,612.2c-0.6,0-1.1-0.4-1.1-1.1
		s0.4-1.1,1.1-1.1h0.1c0.6,0,1.1,0.4,1.1,1.1S109.6,612.2,109.1,612.2z M102.6,612.2c-0.6,0-1.1-0.4-1.1-1.1s0.4-1.1,1.1-1.1h0.1
		c0.6,0,1.1,0.4,1.1,1.1S103.2,612.2,102.6,612.2z M96.1,612.2H96c-0.6,0-1.1-0.4-1.1-1.1s0.4-1.1,1.1-1.1h0.1
		c0.6,0,1.1,0.4,1.1,1.1S96.7,612.2,96.1,612.2z M89.6,612.2h-0.1c-0.6,0-1.1-0.4-1.1-1.1s0.4-1.1,1.1-1.1h0.1
		c0.6,0,1.1,0.4,1.1,1.1S90.2,612.2,89.6,612.2z M83.2,612.2h-0.1c-0.6,0-1.1-0.4-1.1-1.1s0.4-1.1,1.1-1.1h0.1
		c0.6,0,1.1,0.4,1.1,1.1S83.7,612.2,83.2,612.2z M76.7,612.2h-0.1c-0.6,0-1.1-0.4-1.1-1.1s0.4-1.1,1.1-1.1h0.1
		c0.6,0,1.1,0.4,1.1,1.1S77.2,612.2,76.7,612.2z M70.2,612.2h-0.1c-0.6,0-1.1-0.4-1.1-1.1s0.4-1.1,1.1-1.1h0.1
		c0.6,0,1.1,0.4,1.1,1.1S70.7,612.2,70.2,612.2z M63.7,612.2c-0.6,0-1.1-0.4-1.1-1.1s0.4-1.1,1.1-1.1h0.1c0.6,0,1.1,0.4,1.1,1.1
		S64.2,612.2,63.7,612.2z M57.2,612.2c-0.6,0-1.1-0.4-1.1-1.1s0.4-1.1,1.1-1.1h0.1c0.6,0,1.1,0.4,1.1,1.1S57.7,612.2,57.2,612.2z
		 M50.7,612.2L50.7,612.2c-0.7,0-1.2-0.4-1.2-1.1s0.4-1.1,1.1-1.1h0.1c0.6,0,1.1,0.4,1.1,1.1S51.3,612.2,50.7,612.2z M44.2,612.2
		L44.2,612.2c-0.7,0-1.2-0.4-1.2-1.1s0.4-1.1,1.1-1.1h0.1c0.6,0,1.1,0.4,1.1,1.1S44.8,612.2,44.2,612.2z M37.7,612.2L37.7,612.2
		c-0.7,0-1.2-0.4-1.2-1.1s0.4-1.1,1.1-1.1h0.1c0.6,0,1.1,0.4,1.1,1.1S38.3,612.2,37.7,612.2z M31.3,612.2L31.3,612.2
		c-0.7,0-1.2-0.4-1.2-1.1s0.4-1.1,1.1-1.1h0.1c0.6,0,1.1,0.4,1.1,1.1S31.8,612.2,31.3,612.2z M24.8,612.2L24.8,612.2
		c-0.7,0-1.2-0.4-1.2-1.1s0.4-1.1,1.1-1.1h0.1c0.6,0,1.1,0.4,1.1,1.1S25.3,612.2,24.8,612.2z M18.3,612.2c-0.6,0-1.1-0.4-1.1-1.1
		s0.4-1.1,1.1-1.1h0.1c0.6,0,1.1,0.4,1.1,1.1S18.8,612.2,18.3,612.2z M11.8,612.2c-0.6,0-1.1-0.4-1.1-1.1s0.4-1.1,1.1-1.1h0.1
		c0.6,0,1.1,0.4,1.1,1.1S12.3,612.2,11.8,612.2z M5.3,612.2L5.3,612.2c-0.7,0-1.2-0.4-1.2-1.1s0.4-1.1,1.1-1.1h0.1
		c0.6,0,1.1,0.4,1.1,1.1S5.8,612.2,5.3,612.2z M-1.2,612.2L-1.2,612.2c-0.7,0-1.2-0.4-1.2-1.1S-2,610-1.3,610h0.1
		c0.6,0,1.1,0.4,1.1,1.1S-0.7,612.2-1.2,612.2z M-7.7,612.2L-7.7,612.2c-0.7,0-1.2-0.4-1.2-1.1s0.4-1.1,1.1-1.1h0.1
		c0.6,0,1.1,0.4,1.1,1.1S-7.1,612.2-7.7,612.2z M-14.2,612.2L-14.2,612.2c-0.7,0-1.2-0.4-1.2-1.1s0.4-1.1,1.1-1.1h0.1
		c0.6,0,1.1,0.4,1.1,1.1S-13.6,612.2-14.2,612.2z M-20.6,612.2L-20.6,612.2c-0.7,0-1.2-0.4-1.2-1.1s0.4-1.1,1.1-1.1h0.1
		c0.6,0,1.1,0.4,1.1,1.1S-20.1,612.2-20.6,612.2z M-27.1,612.2c-0.6,0-1.1-0.4-1.1-1.1s0.4-1.1,1.1-1.1l0,0c0.6,0,1.1,0.4,1.1,1.1
		S-26.6,612.2-27.1,612.2z M-33.6,612.2c-0.6,0-1.1-0.4-1.1-1.1s0.4-1.1,1.1-1.1h0.1c0.6,0,1.1,0.4,1.1,1.1S-33.1,612.2-33.6,612.2z
		 M-40.1,612.2h-0.1c-0.6,0-1.1-0.4-1.1-1.1s0.4-1.1,1.1-1.1h0.1c0.6,0,1.1,0.4,1.1,1.1S-39.6,612.2-40.1,612.2z M-46.6,612.2h-0.1
		c-0.6,0-1.1-0.4-1.1-1.1s0.4-1.1,1.1-1.1h0.1c0.6,0,1.1,0.4,1.1,1.1S-46.1,612.2-46.6,612.2z M-53.1,612.2h-0.1
		c-0.6,0-1.1-0.4-1.1-1.1s0.4-1.1,1.1-1.1h0.1c0.6,0,1.1,0.4,1.1,1.1S-52.6,612.2-53.1,612.2z M-59.6,612.2L-59.6,612.2
		c-0.7,0-1.2-0.4-1.2-1.1s0.4-1.1,1.1-1.1h0.1c0.6,0,1.1,0.4,1.1,1.1S-59,612.2-59.6,612.2z"/>
	<path class="st0" d="M413.9,612.2c-0.6,0-1.1-0.4-1.1-1.1s0.4-1.1,1.1-1.1l0,0c0.6,0,1.1,0.4,1.1,1.1S414.5,612.2,413.9,612.2z"/>
	<path class="st0" d="M407.4,559c-0.6,0-1.1-0.4-1.1-1.1c0-0.6,0.4-1.1,1.1-1.1h0.1c0.6,0,1.1,0.4,1.1,1.1S408.1,559,407.4,559z
		 M401,559c-0.6,0-1.1-0.4-1.1-1.1c0-0.6,0.4-1.1,1.1-1.1h0.1c0.6,0,1.1,0.4,1.1,1.1C402.1,558.6,401.6,559,401,559z M394.5,559
		h-0.1c-0.6,0-1.1-0.4-1.1-1.1c0-0.6,0.4-1.1,1.1-1.1h0.1c0.6,0,1.1,0.4,1.1,1.1C395.5,558.6,395.1,559,394.5,559z M388,559
		c-0.6,0-1.1-0.4-1.1-1.1c0-0.6,0.4-1.1,1.1-1.1h0.1c0.6,0,1.1,0.4,1.1,1.1S388.6,559,388,559z M381.5,559h-0.1
		c-0.6,0-1.1-0.4-1.1-1.1c0-0.6,0.4-1.1,1.1-1.1h0.1c0.6,0,1.1,0.4,1.1,1.1S382.1,559,381.5,559z M375,559c-0.6,0-1.1-0.4-1.1-1.1
		c0-0.6,0.4-1.1,1.1-1.1h0.1c0.6,0,1.1,0.4,1.1,1.1S375.6,559,375,559z M368.5,559c-0.6,0-1.1-0.4-1.1-1.1c0-0.6,0.4-1.1,1.1-1.1
		h0.1c0.6,0,1.1,0.4,1.1,1.1S369.2,559,368.5,559z M362,559c-0.6,0-1.1-0.4-1.1-1.1c0-0.6,0.4-1.1,1.1-1.1h0.1
		c0.6,0,1.1,0.4,1.1,1.1S362.7,559,362,559z M355.5,559c-0.6,0-1.1-0.4-1.1-1.1c0-0.6,0.4-1.1,1.1-1.1h0.1c0.6,0,1.1,0.4,1.1,1.1
		S356.2,559,355.5,559z M349.1,559H349c-0.6,0-1.1-0.4-1.1-1.1c0-0.6,0.4-1.1,1.1-1.1h0.1c0.6,0,1.1,0.4,1.1,1.1
		C350.1,558.6,349.7,559,349.1,559z M342.6,559c-0.6,0-1.1-0.4-1.1-1.1c0-0.6,0.4-1.1,1.1-1.1h0.1c0.6,0,1.1,0.4,1.1,1.1
		C343.7,558.6,343.2,559,342.6,559z M336.1,559H336c-0.6,0-1.1-0.4-1.1-1.1c0-0.6,0.4-1.1,1.1-1.1h0.1c0.6,0,1.1,0.4,1.1,1.1
		C337.1,558.6,336.7,559,336.1,559z M329.6,559c-0.6,0-1.1-0.4-1.1-1.1c0-0.6,0.4-1.1,1.1-1.1h0.1c0.6,0,1.1,0.4,1.1,1.1
		C330.8,558.6,330.2,559,329.6,559z M323.1,559H323c-0.6,0-1.1-0.4-1.1-1.1c0-0.6,0.4-1.1,1.1-1.1h0.1c0.6,0,1.1,0.4,1.1,1.1
		S323.7,559,323.1,559z M316.6,559c-0.6,0-1.1-0.4-1.1-1.1c0-0.6,0.4-1.1,1.1-1.1h0.1c0.6,0,1.1,0.4,1.1,1.1
		C317.8,558.6,317.3,559,316.6,559z M310.1,559c-0.6,0-1.1-0.4-1.1-1.1c0-0.6,0.4-1.1,1.1-1.1h0.1c0.6,0,1.1,0.4,1.1,1.1
		C311.3,558.6,310.8,559,310.1,559z M303.6,559h-0.1c-0.6,0-1.1-0.4-1.1-1.1c0-0.6,0.4-1.1,1.1-1.1h0.1c0.6,0,1.1,0.4,1.1,1.1
		S304.3,559,303.6,559z M297.2,559c-0.6,0-1.1-0.4-1.1-1.1c0-0.6,0.4-1.1,1.1-1.1h0.1c0.6,0,1.1,0.4,1.1,1.1
		C298.3,558.6,297.8,559,297.2,559z M290.7,559h-0.1c-0.6,0-1.1-0.4-1.1-1.1c0-0.6,0.4-1.1,1.1-1.1h0.1c0.6,0,1.1,0.4,1.1,1.1
		C291.7,558.6,291.3,559,290.7,559z M284.2,559c-0.6,0-1.1-0.4-1.1-1.1c0-0.6,0.4-1.1,1.1-1.1h0.1c0.6,0,1.1,0.4,1.1,1.1
		C285.3,558.6,284.8,559,284.2,559z M277.7,559h-0.1c-0.6,0-1.1-0.4-1.1-1.1c0-0.6,0.4-1.1,1.1-1.1h0.1c0.6,0,1.1,0.4,1.1,1.1
		C278.8,558.6,278.3,559,277.7,559z M271.2,559c-0.6,0-1.1-0.4-1.1-1.1c0-0.6,0.4-1.1,1.1-1.1h0.1c0.6,0,1.1,0.4,1.1,1.1
		C272.4,558.6,271.8,559,271.2,559z M264.7,559c-0.6,0-1.1-0.4-1.1-1.1c0-0.6,0.4-1.1,1.1-1.1h0.1c0.6,0,1.1,0.4,1.1,1.1
		C265.9,558.6,265.4,559,264.7,559z M258.2,559h-0.1c-0.6,0-1.1-0.4-1.1-1.1c0-0.6,0.4-1.1,1.1-1.1h0.1c0.6,0,1.1,0.4,1.1,1.1
		C259.3,558.6,258.9,559,258.2,559z M251.7,559c-0.6,0-1.1-0.4-1.1-1.1c0-0.6,0.4-1.1,1.1-1.1h0.1c0.6,0,1.1,0.4,1.1,1.1
		C252.9,558.6,252.4,559,251.7,559z M245.3,559h-0.1c-0.6,0-1.1-0.4-1.1-1.1c0-0.6,0.4-1.1,1.1-1.1h0.1c0.6,0,1.1,0.4,1.1,1.1
		C246.3,558.6,245.9,559,245.3,559z M238.8,559c-0.6,0-1.1-0.4-1.1-1.1c0-0.6,0.4-1.1,1.1-1.1h0.1c0.6,0,1.1,0.4,1.1,1.1
		C239.9,558.6,239.4,559,238.8,559z M232.3,559h-0.1c-0.6,0-1.1-0.4-1.1-1.1c0-0.6,0.4-1.1,1.1-1.1h0.1c0.6,0,1.1,0.4,1.1,1.1
		C233.3,558.6,232.9,559,232.3,559z M225.8,559c-0.6,0-1.1-0.4-1.1-1.1c0-0.6,0.4-1.1,1.1-1.1h0.1c0.6,0,1.1,0.4,1.1,1.1
		S226.4,559,225.8,559z M219.3,559c-0.6,0-1.1-0.4-1.1-1.1c0-0.6,0.4-1.1,1.1-1.1h0.1c0.6,0,1.1,0.4,1.1,1.1S219.9,559,219.3,559z
		 M212.8,559h-0.1c-0.6,0-1.1-0.4-1.1-1.1c0-0.6,0.4-1.1,1.1-1.1h0.1c0.6,0,1.1,0.4,1.1,1.1S213.4,559,212.8,559z M206.3,559
		c-0.6,0-1.1-0.4-1.1-1.1c0-0.6,0.4-1.1,1.1-1.1h0.1c0.6,0,1.1,0.4,1.1,1.1S207,559,206.3,559z M199.8,559h-0.1
		c-0.6,0-1.1-0.4-1.1-1.1c0-0.6,0.4-1.1,1.1-1.1h0.1c0.6,0,1.1,0.4,1.1,1.1S200.5,559,199.8,559z M193.3,559c-0.6,0-1.1-0.4-1.1-1.1
		c0-0.6,0.4-1.1,1.1-1.1h0.1c0.6,0,1.1,0.4,1.1,1.1S194,559,193.3,559z M186.9,559h-0.1c-0.6,0-1.1-0.4-1.1-1.1
		c0-0.6,0.4-1.1,1.1-1.1h0.1c0.6,0,1.1,0.4,1.1,1.1C187.9,558.6,187.5,559,186.9,559z M180.4,559c-0.6,0-1.1-0.4-1.1-1.1
		c0-0.6,0.4-1.1,1.1-1.1h0.1c0.6,0,1.1,0.4,1.1,1.1C181.5,558.6,181,559,180.4,559z M173.9,559c-0.6,0-1.1-0.4-1.1-1.1
		c0-0.6,0.4-1.1,1.1-1.1h0.1c0.6,0,1.1,0.4,1.1,1.1S174.5,559,173.9,559z M167.5,559h-0.1c-0.6,0-1.1-0.4-1.1-1.1
		c0-0.6,0.4-1.1,1.1-1.1h0.1c0.6,0,1.1,0.4,1.1,1.1S168,559,167.5,559z M161,559h-0.1c-0.6,0-1.1-0.4-1.1-1.1c0-0.6,0.4-1.1,1.1-1.1
		h0.1c0.6,0,1.1,0.4,1.1,1.1S161.5,559,161,559z M154.5,559c-0.6,0-1.1-0.4-1.1-1.1c0-0.6,0.4-1.1,1.1-1.1h0.1
		c0.6,0,1.1,0.4,1.1,1.1C155.7,558.6,155.1,559,154.5,559z M148,559c-0.6,0-1.1-0.4-1.1-1.1c0-0.6,0.4-1.1,1.1-1.1h0.1
		c0.6,0,1.1,0.4,1.1,1.1C149.2,558.6,148.6,559,148,559z M141.5,559h-0.1c-0.6,0-1.1-0.4-1.1-1.1c0-0.6,0.4-1.1,1.1-1.1h0.1
		c0.6,0,1.1,0.4,1.1,1.1S142.1,559,141.5,559z M135.1,559H135c-0.6,0-1.1-0.4-1.1-1.1c0-0.6,0.4-1.1,1.1-1.1h0.1
		c0.6,0,1.1,0.4,1.1,1.1C136.1,558.6,135.6,559,135.1,559z M128.6,559h-0.1c-0.6,0-1.1-0.4-1.1-1.1c0-0.6,0.4-1.1,1.1-1.1h0.1
		c0.6,0,1.1,0.4,1.1,1.1C129.6,558.6,129.1,559,128.6,559z M122.1,559H122c-0.6,0-1.1-0.4-1.1-1.1c0-0.6,0.4-1.1,1.1-1.1h0.1
		c0.6,0,1.1,0.4,1.1,1.1C123.1,558.6,122.6,559,122.1,559z M115.6,559h-0.1c-0.6,0-1.1-0.4-1.1-1.1c0-0.6,0.4-1.1,1.1-1.1h0.1
		c0.6,0,1.1,0.4,1.1,1.1C116.7,558.6,116.1,559,115.6,559z M109.1,559c-0.6,0-1.1-0.4-1.1-1.1c0-0.6,0.4-1.1,1.1-1.1h0.1
		c0.6,0,1.1,0.4,1.1,1.1C110.3,558.6,109.6,559,109.1,559z M102.6,559c-0.6,0-1.1-0.4-1.1-1.1c0-0.6,0.4-1.1,1.1-1.1h0.1
		c0.6,0,1.1,0.4,1.1,1.1C103.8,558.6,103.2,559,102.6,559z M96.1,559H96c-0.6,0-1.1-0.4-1.1-1.1c0-0.6,0.4-1.1,1.1-1.1h0.1
		c0.6,0,1.1,0.4,1.1,1.1C97.2,558.6,96.7,559,96.1,559z M89.6,559h-0.1c-0.6,0-1.1-0.4-1.1-1.1c0-0.6,0.4-1.1,1.1-1.1h0.1
		c0.6,0,1.1,0.4,1.1,1.1C90.7,558.6,90.2,559,89.6,559z M83.2,559h-0.1c-0.6,0-1.1-0.4-1.1-1.1c0-0.6,0.4-1.1,1.1-1.1h0.1
		c0.6,0,1.1,0.4,1.1,1.1C84.2,558.6,83.7,559,83.2,559z M76.7,559h-0.1c-0.6,0-1.1-0.4-1.1-1.1c0-0.6,0.4-1.1,1.1-1.1h0.1
		c0.6,0,1.1,0.4,1.1,1.1C77.7,558.6,77.2,559,76.7,559z M70.2,559h-0.1c-0.6,0-1.1-0.4-1.1-1.1c0-0.6,0.4-1.1,1.1-1.1h0.1
		c0.6,0,1.1,0.4,1.1,1.1C71.2,558.6,70.7,559,70.2,559z M63.7,559c-0.6,0-1.1-0.4-1.1-1.1c0-0.6,0.4-1.1,1.1-1.1h0.1
		c0.6,0,1.1,0.4,1.1,1.1C64.9,558.6,64.2,559,63.7,559z M57.2,559c-0.6,0-1.1-0.4-1.1-1.1c0-0.6,0.4-1.1,1.1-1.1h0.1
		c0.6,0,1.1,0.4,1.1,1.1C58.4,558.6,57.7,559,57.2,559z M50.7,559L50.7,559c-0.7,0-1.2-0.4-1.2-1.1c0-0.6,0.4-1.1,1.1-1.1h0.1
		c0.6,0,1.1,0.4,1.1,1.1C51.8,558.6,51.3,559,50.7,559z M44.2,559L44.2,559c-0.7,0-1.2-0.4-1.2-1.1c0-0.6,0.4-1.1,1.1-1.1h0.1
		c0.6,0,1.1,0.4,1.1,1.1C45.3,558.6,44.8,559,44.2,559z M37.7,559L37.7,559c-0.7,0-1.2-0.4-1.2-1.1c0-0.6,0.4-1.1,1.1-1.1h0.1
		c0.6,0,1.1,0.4,1.1,1.1C38.8,558.6,38.3,559,37.7,559z M31.3,559L31.3,559c-0.7,0-1.2-0.4-1.2-1.1c0-0.6,0.4-1.1,1.1-1.1h0.1
		c0.6,0,1.1,0.4,1.1,1.1C32.3,558.6,31.8,559,31.3,559z M24.8,559L24.8,559c-0.7,0-1.2-0.4-1.2-1.1c0-0.6,0.4-1.1,1.1-1.1h0.1
		c0.6,0,1.1,0.4,1.1,1.1C25.8,558.6,25.3,559,24.8,559z M18.3,559c-0.6,0-1.1-0.4-1.1-1.1c0-0.6,0.4-1.1,1.1-1.1h0.1
		c0.6,0,1.1,0.4,1.1,1.1C19.4,558.6,18.8,559,18.3,559z M11.8,559c-0.6,0-1.1-0.4-1.1-1.1c0-0.6,0.4-1.1,1.1-1.1h0.1
		c0.6,0,1.1,0.4,1.1,1.1S12.3,559,11.8,559z M5.3,559L5.3,559c-0.7,0-1.2-0.4-1.2-1.1c0-0.6,0.4-1.1,1.1-1.1h0.1
		c0.6,0,1.1,0.4,1.1,1.1S5.8,559,5.3,559z M-1.2,559L-1.2,559c-0.7,0-1.2-0.4-1.2-1.1c0-0.6,0.4-1.1,1.1-1.1h0.1
		c0.6,0,1.1,0.4,1.1,1.1S-0.7,559-1.2,559z M-7.7,559L-7.7,559c-0.7,0-1.2-0.4-1.2-1.1c0-0.6,0.4-1.1,1.1-1.1h0.1
		c0.6,0,1.1,0.4,1.1,1.1C-6.6,558.6-7.1,559-7.7,559z M-14.2,559L-14.2,559c-0.7,0-1.2-0.4-1.2-1.1c0-0.6,0.4-1.1,1.1-1.1h0.1
		c0.6,0,1.1,0.4,1.1,1.1C-13.1,558.6-13.6,559-14.2,559z M-20.6,559L-20.6,559c-0.7,0-1.2-0.4-1.2-1.1c0-0.6,0.4-1.1,1.1-1.1h0.1
		c0.6,0,1.1,0.4,1.1,1.1C-19.6,558.6-20.1,559-20.6,559z M-27.1,559c-0.6,0-1.1-0.4-1.1-1.1c0-0.6,0.4-1.1,1.1-1.1l0,0
		c0.6,0,1.1,0.4,1.1,1.1C-26.1,558.6-26.6,559-27.1,559z M-33.6,559c-0.6,0-1.1-0.4-1.1-1.1c0-0.6,0.4-1.1,1.1-1.1h0.1
		c0.6,0,1.1,0.4,1.1,1.1C-32.5,558.6-33.1,559-33.6,559z M-40.1,559h-0.1c-0.6,0-1.1-0.4-1.1-1.1c0-0.6,0.4-1.1,1.1-1.1h0.1
		c0.6,0,1.1,0.4,1.1,1.1S-39.6,559-40.1,559z M-46.6,559h-0.1c-0.6,0-1.1-0.4-1.1-1.1c0-0.6,0.4-1.1,1.1-1.1h0.1
		c0.6,0,1.1,0.4,1.1,1.1S-46.1,559-46.6,559z M-53.1,559h-0.1c-0.6,0-1.1-0.4-1.1-1.1c0-0.6,0.4-1.1,1.1-1.1h0.1
		c0.6,0,1.1,0.4,1.1,1.1S-52.6,559-53.1,559z M-59.6,559L-59.6,559c-0.7,0-1.2-0.4-1.2-1.1c0-0.6,0.4-1.1,1.1-1.1h0.1
		c0.6,0,1.1,0.4,1.1,1.1S-59,559-59.6,559z"/>
	<path class="st0" d="M413.9,559c-0.6,0-1.1-0.4-1.1-1.1c0-0.6,0.4-1.1,1.1-1.1l0,0c0.6,0,1.1,0.4,1.1,1.1S414.5,559,413.9,559z"/>
	<path class="st0" d="M407.4,452.6c-0.6,0-1.1-0.4-1.1-1.1c0-0.6,0.4-1.1,1.1-1.1h0.1c0.6,0,1.1,0.4,1.1,1.1
		C408.6,452.2,408.1,452.6,407.4,452.6z M401,452.6c-0.6,0-1.1-0.4-1.1-1.1c0-0.6,0.4-1.1,1.1-1.1h0.1c0.6,0,1.1,0.4,1.1,1.1
		C402.1,452.2,401.6,452.6,401,452.6z M394.5,452.6h-0.1c-0.6,0-1.1-0.4-1.1-1.1c0-0.6,0.4-1.1,1.1-1.1h0.1c0.6,0,1.1,0.4,1.1,1.1
		C395.5,452.2,395.1,452.6,394.5,452.6z M388,452.6c-0.6,0-1.1-0.4-1.1-1.1c0-0.6,0.4-1.1,1.1-1.1h0.1c0.6,0,1.1,0.4,1.1,1.1
		C389.2,452.2,388.6,452.6,388,452.6z M381.5,452.6h-0.1c-0.6,0-1.1-0.4-1.1-1.1c0-0.6,0.4-1.1,1.1-1.1h0.1c0.6,0,1.1,0.4,1.1,1.1
		C382.6,452.2,382.1,452.6,381.5,452.6z M375,452.6c-0.6,0-1.1-0.4-1.1-1.1c0-0.6,0.4-1.1,1.1-1.1h0.1c0.6,0,1.1,0.4,1.1,1.1
		C376.2,452.2,375.6,452.6,375,452.6z M368.5,452.6c-0.6,0-1.1-0.4-1.1-1.1c0-0.6,0.4-1.1,1.1-1.1h0.1c0.6,0,1.1,0.4,1.1,1.1
		C369.7,452.2,369.2,452.6,368.5,452.6z M362,452.6c-0.6,0-1.1-0.4-1.1-1.1c0-0.6,0.4-1.1,1.1-1.1h0.1c0.6,0,1.1,0.4,1.1,1.1
		C363.2,452.2,362.7,452.6,362,452.6z M355.5,452.6c-0.6,0-1.1-0.4-1.1-1.1c0-0.6,0.4-1.1,1.1-1.1h0.1c0.6,0,1.1,0.4,1.1,1.1
		C356.7,452.2,356.2,452.6,355.5,452.6z M349.1,452.6H349c-0.6,0-1.1-0.4-1.1-1.1c0-0.6,0.4-1.1,1.1-1.1h0.1c0.6,0,1.1,0.4,1.1,1.1
		C350.1,452.2,349.7,452.6,349.1,452.6z M342.6,452.6c-0.6,0-1.1-0.4-1.1-1.1c0-0.6,0.4-1.1,1.1-1.1h0.1c0.6,0,1.1,0.4,1.1,1.1
		C343.7,452.2,343.2,452.6,342.6,452.6z M336.1,452.6H336c-0.6,0-1.1-0.4-1.1-1.1c0-0.6,0.4-1.1,1.1-1.1h0.1c0.6,0,1.1,0.4,1.1,1.1
		C337.1,452.2,336.7,452.6,336.1,452.6z M329.6,452.6c-0.6,0-1.1-0.4-1.1-1.1c0-0.6,0.4-1.1,1.1-1.1h0.1c0.6,0,1.1,0.4,1.1,1.1
		C330.8,452.2,330.2,452.6,329.6,452.6z M323.1,452.6H323c-0.6,0-1.1-0.4-1.1-1.1c0-0.6,0.4-1.1,1.1-1.1h0.1c0.6,0,1.1,0.4,1.1,1.1
		C324.2,452.2,323.7,452.6,323.1,452.6z M316.6,452.6c-0.6,0-1.1-0.4-1.1-1.1c0-0.6,0.4-1.1,1.1-1.1h0.1c0.6,0,1.1,0.4,1.1,1.1
		C317.8,452.2,317.3,452.6,316.6,452.6z M310.1,452.6c-0.6,0-1.1-0.4-1.1-1.1c0-0.6,0.4-1.1,1.1-1.1h0.1c0.6,0,1.1,0.4,1.1,1.1
		C311.3,452.2,310.8,452.6,310.1,452.6z M303.6,452.6h-0.1c-0.6,0-1.1-0.4-1.1-1.1c0-0.6,0.4-1.1,1.1-1.1h0.1c0.6,0,1.1,0.4,1.1,1.1
		C304.7,452.2,304.3,452.6,303.6,452.6z M297.2,452.6c-0.6,0-1.1-0.4-1.1-1.1c0-0.6,0.4-1.1,1.1-1.1h0.1c0.6,0,1.1,0.4,1.1,1.1
		C298.3,452.2,297.8,452.6,297.2,452.6z M290.7,452.6h-0.1c-0.6,0-1.1-0.4-1.1-1.1c0-0.6,0.4-1.1,1.1-1.1h0.1c0.6,0,1.1,0.4,1.1,1.1
		C291.7,452.2,291.3,452.6,290.7,452.6z M284.2,452.6c-0.6,0-1.1-0.4-1.1-1.1c0-0.6,0.4-1.1,1.1-1.1h0.1c0.6,0,1.1,0.4,1.1,1.1
		C285.3,452.2,284.8,452.6,284.2,452.6z M277.7,452.6h-0.1c-0.6,0-1.1-0.4-1.1-1.1c0-0.6,0.4-1.1,1.1-1.1h0.1c0.6,0,1.1,0.4,1.1,1.1
		C278.8,452.2,278.3,452.6,277.7,452.6z M271.2,452.6c-0.6,0-1.1-0.4-1.1-1.1c0-0.6,0.4-1.1,1.1-1.1h0.1c0.6,0,1.1,0.4,1.1,1.1
		C272.4,452.2,271.8,452.6,271.2,452.6z M264.7,452.6c-0.6,0-1.1-0.4-1.1-1.1c0-0.6,0.4-1.1,1.1-1.1h0.1c0.6,0,1.1,0.4,1.1,1.1
		C265.9,452.2,265.4,452.6,264.7,452.6z M258.2,452.6h-0.1c-0.6,0-1.1-0.4-1.1-1.1c0-0.6,0.4-1.1,1.1-1.1h0.1c0.6,0,1.1,0.4,1.1,1.1
		C259.3,452.2,258.9,452.6,258.2,452.6z M251.7,452.6c-0.6,0-1.1-0.4-1.1-1.1c0-0.6,0.4-1.1,1.1-1.1h0.1c0.6,0,1.1,0.4,1.1,1.1
		C252.9,452.2,252.4,452.6,251.7,452.6z M245.3,452.6h-0.1c-0.6,0-1.1-0.4-1.1-1.1c0-0.6,0.4-1.1,1.1-1.1h0.1c0.6,0,1.1,0.4,1.1,1.1
		C246.3,452.2,245.9,452.6,245.3,452.6z M238.8,452.6c-0.6,0-1.1-0.4-1.1-1.1c0-0.6,0.4-1.1,1.1-1.1h0.1c0.6,0,1.1,0.4,1.1,1.1
		C239.9,452.2,239.4,452.6,238.8,452.6z M232.3,452.6h-0.1c-0.6,0-1.1-0.4-1.1-1.1c0-0.6,0.4-1.1,1.1-1.1h0.1c0.6,0,1.1,0.4,1.1,1.1
		C233.3,452.2,232.9,452.6,232.3,452.6z M225.8,452.6c-0.6,0-1.1-0.4-1.1-1.1c0-0.6,0.4-1.1,1.1-1.1h0.1c0.6,0,1.1,0.4,1.1,1.1
		C227,452.2,226.4,452.6,225.8,452.6z M219.3,452.6c-0.6,0-1.1-0.4-1.1-1.1c0-0.6,0.4-1.1,1.1-1.1h0.1c0.6,0,1.1,0.4,1.1,1.1
		C220.5,452.2,219.9,452.6,219.3,452.6z M212.8,452.6h-0.1c-0.6,0-1.1-0.4-1.1-1.1c0-0.6,0.4-1.1,1.1-1.1h0.1c0.6,0,1.1,0.4,1.1,1.1
		C213.9,452.2,213.4,452.6,212.8,452.6z M206.3,452.6c-0.6,0-1.1-0.4-1.1-1.1c0-0.6,0.4-1.1,1.1-1.1h0.1c0.6,0,1.1,0.4,1.1,1.1
		C207.5,452.2,207,452.6,206.3,452.6z M199.8,452.6h-0.1c-0.6,0-1.1-0.4-1.1-1.1c0-0.6,0.4-1.1,1.1-1.1h0.1c0.6,0,1.1,0.4,1.1,1.1
		C200.9,452.2,200.5,452.6,199.8,452.6z M193.3,452.6c-0.6,0-1.1-0.4-1.1-1.1c0-0.6,0.4-1.1,1.1-1.1h0.1c0.6,0,1.1,0.4,1.1,1.1
		C194.5,452.2,194,452.6,193.3,452.6z M186.9,452.6h-0.1c-0.6,0-1.1-0.4-1.1-1.1c0-0.6,0.4-1.1,1.1-1.1h0.1c0.6,0,1.1,0.4,1.1,1.1
		C187.9,452.2,187.5,452.6,186.9,452.6z M180.4,452.6c-0.6,0-1.1-0.4-1.1-1.1c0-0.6,0.4-1.1,1.1-1.1h0.1c0.6,0,1.1,0.4,1.1,1.1
		C181.5,452.2,181,452.6,180.4,452.6z M173.9,452.6c-0.6,0-1.1-0.4-1.1-1.1c0-0.6,0.4-1.1,1.1-1.1h0.1c0.6,0,1.1,0.4,1.1,1.1
		C175.1,452.2,174.5,452.6,173.9,452.6z M167.5,452.6h-0.1c-0.6,0-1.1-0.4-1.1-1.1c0-0.6,0.4-1.1,1.1-1.1h0.1c0.6,0,1.1,0.4,1.1,1.1
		C168.6,452.2,168,452.6,167.5,452.6z M161,452.6h-0.1c-0.6,0-1.1-0.4-1.1-1.1c0-0.6,0.4-1.1,1.1-1.1h0.1c0.6,0,1.1,0.4,1.1,1.1
		C162.1,452.2,161.5,452.6,161,452.6z M154.5,452.6c-0.6,0-1.1-0.4-1.1-1.1c0-0.6,0.4-1.1,1.1-1.1h0.1c0.6,0,1.1,0.4,1.1,1.1
		C155.7,452.2,155.1,452.6,154.5,452.6z M148,452.6c-0.6,0-1.1-0.4-1.1-1.1c0-0.6,0.4-1.1,1.1-1.1h0.1c0.6,0,1.1,0.4,1.1,1.1
		C149.2,452.2,148.6,452.6,148,452.6z M141.5,452.6h-0.1c-0.6,0-1.1-0.4-1.1-1.1c0-0.6,0.4-1.1,1.1-1.1h0.1c0.6,0,1.1,0.4,1.1,1.1
		C142.6,452.2,142.1,452.6,141.5,452.6z M135.1,452.6H135c-0.6,0-1.1-0.4-1.1-1.1c0-0.6,0.4-1.1,1.1-1.1h0.1c0.6,0,1.1,0.4,1.1,1.1
		C136.1,452.2,135.6,452.6,135.1,452.6z M128.6,452.6h-0.1c-0.6,0-1.1-0.4-1.1-1.1c0-0.6,0.4-1.1,1.1-1.1h0.1c0.6,0,1.1,0.4,1.1,1.1
		C129.6,452.2,129.1,452.6,128.6,452.6z M122.1,452.6H122c-0.6,0-1.1-0.4-1.1-1.1c0-0.6,0.4-1.1,1.1-1.1h0.1c0.6,0,1.1,0.4,1.1,1.1
		C123.1,452.2,122.6,452.6,122.1,452.6z M115.6,452.6h-0.1c-0.6,0-1.1-0.4-1.1-1.1c0-0.6,0.4-1.1,1.1-1.1h0.1c0.6,0,1.1,0.4,1.1,1.1
		C116.7,452.2,116.1,452.6,115.6,452.6z M109.1,452.6c-0.6,0-1.1-0.4-1.1-1.1c0-0.6,0.4-1.1,1.1-1.1h0.1c0.6,0,1.1,0.4,1.1,1.1
		C110.3,452.2,109.6,452.6,109.1,452.6z M102.6,452.6c-0.6,0-1.1-0.4-1.1-1.1c0-0.6,0.4-1.1,1.1-1.1h0.1c0.6,0,1.1,0.4,1.1,1.1
		C103.8,452.2,103.2,452.6,102.6,452.6z M96.1,452.6H96c-0.6,0-1.1-0.4-1.1-1.1c0-0.6,0.4-1.1,1.1-1.1h0.1c0.6,0,1.1,0.4,1.1,1.1
		C97.2,452.2,96.7,452.6,96.1,452.6z M89.6,452.6h-0.1c-0.6,0-1.1-0.4-1.1-1.1c0-0.6,0.4-1.1,1.1-1.1h0.1c0.6,0,1.1,0.4,1.1,1.1
		C90.7,452.2,90.2,452.6,89.6,452.6z M83.2,452.6h-0.1c-0.6,0-1.1-0.4-1.1-1.1c0-0.6,0.4-1.1,1.1-1.1h0.1c0.6,0,1.1,0.4,1.1,1.1
		C84.2,452.2,83.7,452.6,83.2,452.6z M76.7,452.6h-0.1c-0.6,0-1.1-0.4-1.1-1.1c0-0.6,0.4-1.1,1.1-1.1h0.1c0.6,0,1.1,0.4,1.1,1.1
		C77.7,452.2,77.2,452.6,76.7,452.6z M70.2,452.6h-0.1c-0.6,0-1.1-0.4-1.1-1.1c0-0.6,0.4-1.1,1.1-1.1h0.1c0.6,0,1.1,0.4,1.1,1.1
		C71.2,452.2,70.7,452.6,70.2,452.6z M63.7,452.6c-0.6,0-1.1-0.4-1.1-1.1c0-0.6,0.4-1.1,1.1-1.1h0.1c0.6,0,1.1,0.4,1.1,1.1
		C64.9,452.2,64.2,452.6,63.7,452.6z M57.2,452.6c-0.6,0-1.1-0.4-1.1-1.1c0-0.6,0.4-1.1,1.1-1.1h0.1c0.6,0,1.1,0.4,1.1,1.1
		C58.4,452.2,57.7,452.6,57.2,452.6z M50.7,452.6L50.7,452.6c-0.7,0-1.2-0.4-1.2-1.1c0-0.6,0.4-1.1,1.1-1.1h0.1
		c0.6,0,1.1,0.4,1.1,1.1C51.8,452.2,51.3,452.6,50.7,452.6z M44.2,452.6L44.2,452.6c-0.7,0-1.2-0.4-1.2-1.1c0-0.6,0.4-1.1,1.1-1.1
		h0.1c0.6,0,1.1,0.4,1.1,1.1C45.3,452.2,44.8,452.6,44.2,452.6z M37.7,452.6L37.7,452.6c-0.7,0-1.2-0.4-1.2-1.1
		c0-0.6,0.4-1.1,1.1-1.1h0.1c0.6,0,1.1,0.4,1.1,1.1C38.8,452.2,38.3,452.6,37.7,452.6z M31.3,452.6L31.3,452.6
		c-0.7,0-1.2-0.4-1.2-1.1c0-0.6,0.4-1.1,1.1-1.1h0.1c0.6,0,1.1,0.4,1.1,1.1C32.3,452.2,31.8,452.6,31.3,452.6z M24.8,452.6
		L24.8,452.6c-0.7,0-1.2-0.4-1.2-1.1c0-0.6,0.4-1.1,1.1-1.1h0.1c0.6,0,1.1,0.4,1.1,1.1C25.8,452.2,25.3,452.6,24.8,452.6z
		 M18.3,452.6c-0.6,0-1.1-0.4-1.1-1.1c0-0.6,0.4-1.1,1.1-1.1h0.1c0.6,0,1.1,0.4,1.1,1.1C19.4,452.2,18.8,452.6,18.3,452.6z
		 M11.8,452.6c-0.6,0-1.1-0.4-1.1-1.1c0-0.6,0.4-1.1,1.1-1.1h0.1c0.6,0,1.1,0.4,1.1,1.1C13,452.2,12.3,452.6,11.8,452.6z M5.3,452.6
		L5.3,452.6c-0.7,0-1.2-0.4-1.2-1.1c0-0.6,0.4-1.1,1.1-1.1h0.1c0.6,0,1.1,0.4,1.1,1.1C6.4,452.2,5.8,452.6,5.3,452.6z M-1.2,452.6
		L-1.2,452.6c-0.7,0-1.2-0.4-1.2-1.1c0-0.6,0.4-1.1,1.1-1.1h0.1c0.6,0,1.1,0.4,1.1,1.1C-0.1,452.2-0.7,452.6-1.2,452.6z M-7.7,452.6
		L-7.7,452.6c-0.7,0-1.2-0.4-1.2-1.1c0-0.6,0.4-1.1,1.1-1.1h0.1c0.6,0,1.1,0.4,1.1,1.1C-6.6,452.2-7.1,452.6-7.7,452.6z
		 M-14.2,452.6L-14.2,452.6c-0.7,0-1.2-0.4-1.2-1.1c0-0.6,0.4-1.1,1.1-1.1h0.1c0.6,0,1.1,0.4,1.1,1.1
		C-13.1,452.2-13.6,452.6-14.2,452.6z M-20.6,452.6L-20.6,452.6c-0.7,0-1.2-0.4-1.2-1.1c0-0.6,0.4-1.1,1.1-1.1h0.1
		c0.6,0,1.1,0.4,1.1,1.1C-19.6,452.2-20.1,452.6-20.6,452.6z M-27.1,452.6c-0.6,0-1.1-0.4-1.1-1.1c0-0.6,0.4-1.1,1.1-1.1l0,0
		c0.6,0,1.1,0.4,1.1,1.1C-26.1,452.2-26.6,452.6-27.1,452.6z M-33.6,452.6c-0.6,0-1.1-0.4-1.1-1.1c0-0.6,0.4-1.1,1.1-1.1h0.1
		c0.6,0,1.1,0.4,1.1,1.1C-32.5,452.2-33.1,452.6-33.6,452.6z M-40.1,452.6h-0.1c-0.6,0-1.1-0.4-1.1-1.1c0-0.6,0.4-1.1,1.1-1.1h0.1
		c0.6,0,1.1,0.4,1.1,1.1C-39,452.2-39.6,452.6-40.1,452.6z M-46.6,452.6h-0.1c-0.6,0-1.1-0.4-1.1-1.1c0-0.6,0.4-1.1,1.1-1.1h0.1
		c0.6,0,1.1,0.4,1.1,1.1C-45.5,452.2-46.1,452.6-46.6,452.6z M-53.1,452.6h-0.1c-0.6,0-1.1-0.4-1.1-1.1c0-0.6,0.4-1.1,1.1-1.1h0.1
		c0.6,0,1.1,0.4,1.1,1.1C-52,452.2-52.6,452.6-53.1,452.6z M-59.6,452.6L-59.6,452.6c-0.7,0-1.2-0.4-1.2-1.1c0-0.6,0.4-1.1,1.1-1.1
		h0.1c0.6,0,1.1,0.4,1.1,1.1C-58.5,452.2-59,452.6-59.6,452.6z"/>
	<path class="st0" d="M413.9,452.6c-0.6,0-1.1-0.4-1.1-1.1c0-0.6,0.4-1.1,1.1-1.1l0,0c0.6,0,1.1,0.4,1.1,1.1
		C415,452.2,414.5,452.6,413.9,452.6z"/>
	<path class="st0" d="M407.4,346.3c-0.6,0-1.1-0.4-1.1-1.1c0-0.6,0.4-1.1,1.1-1.1h0.1c0.6,0,1.1,0.4,1.1,1.1
		S408.1,346.3,407.4,346.3z M401,346.3c-0.6,0-1.1-0.4-1.1-1.1c0-0.6,0.4-1.1,1.1-1.1h0.1c0.6,0,1.1,0.4,1.1,1.1
		C402.1,345.9,401.6,346.3,401,346.3z M394.5,346.3h-0.1c-0.6,0-1.1-0.4-1.1-1.1c0-0.6,0.4-1.1,1.1-1.1h0.1c0.6,0,1.1,0.4,1.1,1.1
		C395.5,345.9,395.1,346.3,394.5,346.3z M388,346.3c-0.6,0-1.1-0.4-1.1-1.1c0-0.6,0.4-1.1,1.1-1.1h0.1c0.6,0,1.1,0.4,1.1,1.1
		S388.6,346.3,388,346.3z M381.5,346.3h-0.1c-0.6,0-1.1-0.4-1.1-1.1c0-0.6,0.4-1.1,1.1-1.1h0.1c0.6,0,1.1,0.4,1.1,1.1
		S382.1,346.3,381.5,346.3z M375,346.3c-0.6,0-1.1-0.4-1.1-1.1c0-0.6,0.4-1.1,1.1-1.1h0.1c0.6,0,1.1,0.4,1.1,1.1
		S375.6,346.3,375,346.3z M368.5,346.3c-0.6,0-1.1-0.4-1.1-1.1c0-0.6,0.4-1.1,1.1-1.1h0.1c0.6,0,1.1,0.4,1.1,1.1
		S369.2,346.3,368.5,346.3z M362,346.3c-0.6,0-1.1-0.4-1.1-1.1c0-0.6,0.4-1.1,1.1-1.1h0.1c0.6,0,1.1,0.4,1.1,1.1
		S362.7,346.3,362,346.3z M355.5,346.3c-0.6,0-1.1-0.4-1.1-1.1c0-0.6,0.4-1.1,1.1-1.1h0.1c0.6,0,1.1,0.4,1.1,1.1
		S356.2,346.3,355.5,346.3z M349.1,346.3H349c-0.6,0-1.1-0.4-1.1-1.1c0-0.6,0.4-1.1,1.1-1.1h0.1c0.6,0,1.1,0.4,1.1,1.1
		C350.1,345.9,349.7,346.3,349.1,346.3z M342.6,346.3c-0.6,0-1.1-0.4-1.1-1.1c0-0.6,0.4-1.1,1.1-1.1h0.1c0.6,0,1.1,0.4,1.1,1.1
		C343.7,345.9,343.2,346.3,342.6,346.3z M336.1,346.3H336c-0.6,0-1.1-0.4-1.1-1.1c0-0.6,0.4-1.1,1.1-1.1h0.1c0.6,0,1.1,0.4,1.1,1.1
		C337.1,345.9,336.7,346.3,336.1,346.3z M329.6,346.3c-0.6,0-1.1-0.4-1.1-1.1c0-0.6,0.4-1.1,1.1-1.1h0.1c0.6,0,1.1,0.4,1.1,1.1
		C330.8,345.9,330.2,346.3,329.6,346.3z M323.1,346.3H323c-0.6,0-1.1-0.4-1.1-1.1c0-0.6,0.4-1.1,1.1-1.1h0.1c0.6,0,1.1,0.4,1.1,1.1
		S323.7,346.3,323.1,346.3z M316.6,346.3c-0.6,0-1.1-0.4-1.1-1.1c0-0.6,0.4-1.1,1.1-1.1h0.1c0.6,0,1.1,0.4,1.1,1.1
		C317.8,345.9,317.3,346.3,316.6,346.3z M310.1,346.3c-0.6,0-1.1-0.4-1.1-1.1c0-0.6,0.4-1.1,1.1-1.1h0.1c0.6,0,1.1,0.4,1.1,1.1
		C311.3,345.9,310.8,346.3,310.1,346.3z M303.6,346.3h-0.1c-0.6,0-1.1-0.4-1.1-1.1c0-0.6,0.4-1.1,1.1-1.1h0.1c0.6,0,1.1,0.4,1.1,1.1
		S304.3,346.3,303.6,346.3z M297.2,346.3c-0.6,0-1.1-0.4-1.1-1.1c0-0.6,0.4-1.1,1.1-1.1h0.1c0.6,0,1.1,0.4,1.1,1.1
		C298.3,345.9,297.8,346.3,297.2,346.3z M290.7,346.3h-0.1c-0.6,0-1.1-0.4-1.1-1.1c0-0.6,0.4-1.1,1.1-1.1h0.1c0.6,0,1.1,0.4,1.1,1.1
		C291.7,345.9,291.3,346.3,290.7,346.3z M284.2,346.3c-0.6,0-1.1-0.4-1.1-1.1c0-0.6,0.4-1.1,1.1-1.1h0.1c0.6,0,1.1,0.4,1.1,1.1
		C285.3,345.9,284.8,346.3,284.2,346.3z M277.7,346.3h-0.1c-0.6,0-1.1-0.4-1.1-1.1c0-0.6,0.4-1.1,1.1-1.1h0.1c0.6,0,1.1,0.4,1.1,1.1
		C278.8,345.9,278.3,346.3,277.7,346.3z M271.2,346.3c-0.6,0-1.1-0.4-1.1-1.1c0-0.6,0.4-1.1,1.1-1.1h0.1c0.6,0,1.1,0.4,1.1,1.1
		C272.4,345.9,271.8,346.3,271.2,346.3z M264.7,346.3c-0.6,0-1.1-0.4-1.1-1.1c0-0.6,0.4-1.1,1.1-1.1h0.1c0.6,0,1.1,0.4,1.1,1.1
		C265.9,345.9,265.4,346.3,264.7,346.3z M258.2,346.3h-0.1c-0.6,0-1.1-0.4-1.1-1.1c0-0.6,0.4-1.1,1.1-1.1h0.1c0.6,0,1.1,0.4,1.1,1.1
		C259.3,345.9,258.9,346.3,258.2,346.3z M251.7,346.3c-0.6,0-1.1-0.4-1.1-1.1c0-0.6,0.4-1.1,1.1-1.1h0.1c0.6,0,1.1,0.4,1.1,1.1
		C252.9,345.9,252.4,346.3,251.7,346.3z M245.3,346.3h-0.1c-0.6,0-1.1-0.4-1.1-1.1c0-0.6,0.4-1.1,1.1-1.1h0.1c0.6,0,1.1,0.4,1.1,1.1
		C246.3,345.9,245.9,346.3,245.3,346.3z M238.8,346.3c-0.6,0-1.1-0.4-1.1-1.1c0-0.6,0.4-1.1,1.1-1.1h0.1c0.6,0,1.1,0.4,1.1,1.1
		C239.9,345.9,239.4,346.3,238.8,346.3z M232.3,346.3h-0.1c-0.6,0-1.1-0.4-1.1-1.1c0-0.6,0.4-1.1,1.1-1.1h0.1c0.6,0,1.1,0.4,1.1,1.1
		C233.3,345.9,232.9,346.3,232.3,346.3z M225.8,346.3c-0.6,0-1.1-0.4-1.1-1.1c0-0.6,0.4-1.1,1.1-1.1h0.1c0.6,0,1.1,0.4,1.1,1.1
		S226.4,346.3,225.8,346.3z M219.3,346.3c-0.6,0-1.1-0.4-1.1-1.1c0-0.6,0.4-1.1,1.1-1.1h0.1c0.6,0,1.1,0.4,1.1,1.1
		S219.9,346.3,219.3,346.3z M212.8,346.3h-0.1c-0.6,0-1.1-0.4-1.1-1.1c0-0.6,0.4-1.1,1.1-1.1h0.1c0.6,0,1.1,0.4,1.1,1.1
		S213.4,346.3,212.8,346.3z M206.3,346.3c-0.6,0-1.1-0.4-1.1-1.1c0-0.6,0.4-1.1,1.1-1.1h0.1c0.6,0,1.1,0.4,1.1,1.1
		S207,346.3,206.3,346.3z M199.8,346.3h-0.1c-0.6,0-1.1-0.4-1.1-1.1c0-0.6,0.4-1.1,1.1-1.1h0.1c0.6,0,1.1,0.4,1.1,1.1
		S200.5,346.3,199.8,346.3z M193.3,346.3c-0.6,0-1.1-0.4-1.1-1.1c0-0.6,0.4-1.1,1.1-1.1h0.1c0.6,0,1.1,0.4,1.1,1.1
		S194,346.3,193.3,346.3z M186.9,346.3h-0.1c-0.6,0-1.1-0.4-1.1-1.1c0-0.6,0.4-1.1,1.1-1.1h0.1c0.6,0,1.1,0.4,1.1,1.1
		C187.9,345.9,187.5,346.3,186.9,346.3z M180.4,346.3c-0.6,0-1.1-0.4-1.1-1.1c0-0.6,0.4-1.1,1.1-1.1h0.1c0.6,0,1.1,0.4,1.1,1.1
		C181.5,345.9,181,346.3,180.4,346.3z M173.9,346.3c-0.6,0-1.1-0.4-1.1-1.1c0-0.6,0.4-1.1,1.1-1.1h0.1c0.6,0,1.1,0.4,1.1,1.1
		S174.5,346.3,173.9,346.3z M167.5,346.3h-0.1c-0.6,0-1.1-0.4-1.1-1.1c0-0.6,0.4-1.1,1.1-1.1h0.1c0.6,0,1.1,0.4,1.1,1.1
		S168,346.3,167.5,346.3z M161,346.3h-0.1c-0.6,0-1.1-0.4-1.1-1.1c0-0.6,0.4-1.1,1.1-1.1h0.1c0.6,0,1.1,0.4,1.1,1.1
		S161.5,346.3,161,346.3z M154.5,346.3c-0.6,0-1.1-0.4-1.1-1.1c0-0.6,0.4-1.1,1.1-1.1h0.1c0.6,0,1.1,0.4,1.1,1.1
		C155.7,345.9,155.1,346.3,154.5,346.3z M148,346.3c-0.6,0-1.1-0.4-1.1-1.1c0-0.6,0.4-1.1,1.1-1.1h0.1c0.6,0,1.1,0.4,1.1,1.1
		C149.2,345.9,148.6,346.3,148,346.3z M141.5,346.3h-0.1c-0.6,0-1.1-0.4-1.1-1.1c0-0.6,0.4-1.1,1.1-1.1h0.1c0.6,0,1.1,0.4,1.1,1.1
		S142.1,346.3,141.5,346.3z M135.1,346.3H135c-0.6,0-1.1-0.4-1.1-1.1c0-0.6,0.4-1.1,1.1-1.1h0.1c0.6,0,1.1,0.4,1.1,1.1
		C136.1,345.9,135.6,346.3,135.1,346.3z M128.6,346.3h-0.1c-0.6,0-1.1-0.4-1.1-1.1c0-0.6,0.4-1.1,1.1-1.1h0.1c0.6,0,1.1,0.4,1.1,1.1
		C129.6,345.9,129.1,346.3,128.6,346.3z M122.1,346.3H122c-0.6,0-1.1-0.4-1.1-1.1c0-0.6,0.4-1.1,1.1-1.1h0.1c0.6,0,1.1,0.4,1.1,1.1
		C123.1,345.9,122.6,346.3,122.1,346.3z M115.6,346.3h-0.1c-0.6,0-1.1-0.4-1.1-1.1c0-0.6,0.4-1.1,1.1-1.1h0.1c0.6,0,1.1,0.4,1.1,1.1
		C116.7,345.9,116.1,346.3,115.6,346.3z M109.1,346.3c-0.6,0-1.1-0.4-1.1-1.1c0-0.6,0.4-1.1,1.1-1.1h0.1c0.6,0,1.1,0.4,1.1,1.1
		C110.3,345.9,109.6,346.3,109.1,346.3z M102.6,346.3c-0.6,0-1.1-0.4-1.1-1.1c0-0.6,0.4-1.1,1.1-1.1h0.1c0.6,0,1.1,0.4,1.1,1.1
		C103.8,345.9,103.2,346.3,102.6,346.3z M96.1,346.3H96c-0.6,0-1.1-0.4-1.1-1.1c0-0.6,0.4-1.1,1.1-1.1h0.1c0.6,0,1.1,0.4,1.1,1.1
		C97.2,345.9,96.7,346.3,96.1,346.3z M89.6,346.3h-0.1c-0.6,0-1.1-0.4-1.1-1.1c0-0.6,0.4-1.1,1.1-1.1h0.1c0.6,0,1.1,0.4,1.1,1.1
		C90.7,345.9,90.2,346.3,89.6,346.3z M83.2,346.3h-0.1c-0.6,0-1.1-0.4-1.1-1.1c0-0.6,0.4-1.1,1.1-1.1h0.1c0.6,0,1.1,0.4,1.1,1.1
		C84.2,345.9,83.7,346.3,83.2,346.3z M76.7,346.3h-0.1c-0.6,0-1.1-0.4-1.1-1.1c0-0.6,0.4-1.1,1.1-1.1h0.1c0.6,0,1.1,0.4,1.1,1.1
		C77.7,345.9,77.2,346.3,76.7,346.3z M70.2,346.3h-0.1c-0.6,0-1.1-0.4-1.1-1.1c0-0.6,0.4-1.1,1.1-1.1h0.1c0.6,0,1.1,0.4,1.1,1.1
		C71.2,345.9,70.7,346.3,70.2,346.3z M63.7,346.3c-0.6,0-1.1-0.4-1.1-1.1c0-0.6,0.4-1.1,1.1-1.1h0.1c0.6,0,1.1,0.4,1.1,1.1
		C64.9,345.9,64.2,346.3,63.7,346.3z M57.2,346.3c-0.6,0-1.1-0.4-1.1-1.1c0-0.6,0.4-1.1,1.1-1.1h0.1c0.6,0,1.1,0.4,1.1,1.1
		C58.4,345.9,57.7,346.3,57.2,346.3z M50.7,346.3L50.7,346.3c-0.7,0-1.2-0.4-1.2-1.1c0-0.6,0.4-1.1,1.1-1.1h0.1
		c0.6,0,1.1,0.4,1.1,1.1C51.8,345.9,51.3,346.3,50.7,346.3z M44.2,346.3L44.2,346.3c-0.7,0-1.2-0.4-1.2-1.1c0-0.6,0.4-1.1,1.1-1.1
		h0.1c0.6,0,1.1,0.4,1.1,1.1C45.3,345.9,44.8,346.3,44.2,346.3z M37.7,346.3L37.7,346.3c-0.7,0-1.2-0.4-1.2-1.1
		c0-0.6,0.4-1.1,1.1-1.1h0.1c0.6,0,1.1,0.4,1.1,1.1C38.8,345.9,38.3,346.3,37.7,346.3z M31.3,346.3L31.3,346.3
		c-0.7,0-1.2-0.4-1.2-1.1c0-0.6,0.4-1.1,1.1-1.1h0.1c0.6,0,1.1,0.4,1.1,1.1C32.3,345.9,31.8,346.3,31.3,346.3z M24.8,346.3
		L24.8,346.3c-0.7,0-1.2-0.4-1.2-1.1c0-0.6,0.4-1.1,1.1-1.1h0.1c0.6,0,1.1,0.4,1.1,1.1C25.8,345.9,25.3,346.3,24.8,346.3z
		 M18.3,346.3c-0.6,0-1.1-0.4-1.1-1.1c0-0.6,0.4-1.1,1.1-1.1h0.1c0.6,0,1.1,0.4,1.1,1.1C19.4,345.9,18.8,346.3,18.3,346.3z
		 M11.8,346.3c-0.6,0-1.1-0.4-1.1-1.1c0-0.6,0.4-1.1,1.1-1.1h0.1c0.6,0,1.1,0.4,1.1,1.1S12.3,346.3,11.8,346.3z M5.3,346.3
		L5.3,346.3c-0.7,0-1.2-0.4-1.2-1.1c0-0.6,0.4-1.1,1.1-1.1h0.1c0.6,0,1.1,0.4,1.1,1.1S5.8,346.3,5.3,346.3z M-1.2,346.3L-1.2,346.3
		c-0.7,0-1.2-0.4-1.2-1.1c0-0.6,0.4-1.1,1.1-1.1h0.1c0.6,0,1.1,0.4,1.1,1.1S-0.7,346.3-1.2,346.3z M-7.7,346.3L-7.7,346.3
		c-0.7,0-1.2-0.4-1.2-1.1c0-0.6,0.4-1.1,1.1-1.1h0.1c0.6,0,1.1,0.4,1.1,1.1C-6.6,345.9-7.1,346.3-7.7,346.3z M-14.2,346.3
		L-14.2,346.3c-0.7,0-1.2-0.4-1.2-1.1c0-0.6,0.4-1.1,1.1-1.1h0.1c0.6,0,1.1,0.4,1.1,1.1C-13.1,345.9-13.6,346.3-14.2,346.3z
		 M-20.6,346.3L-20.6,346.3c-0.7,0-1.2-0.4-1.2-1.1c0-0.6,0.4-1.1,1.1-1.1h0.1c0.6,0,1.1,0.4,1.1,1.1
		C-19.6,345.9-20.1,346.3-20.6,346.3z M-27.1,346.3c-0.6,0-1.1-0.4-1.1-1.1c0-0.6,0.4-1.1,1.1-1.1l0,0c0.6,0,1.1,0.4,1.1,1.1
		C-26.1,345.9-26.6,346.3-27.1,346.3z M-33.6,346.3c-0.6,0-1.1-0.4-1.1-1.1c0-0.6,0.4-1.1,1.1-1.1h0.1c0.6,0,1.1,0.4,1.1,1.1
		C-32.5,345.9-33.1,346.3-33.6,346.3z M-40.1,346.3h-0.1c-0.6,0-1.1-0.4-1.1-1.1c0-0.6,0.4-1.1,1.1-1.1h0.1c0.6,0,1.1,0.4,1.1,1.1
		S-39.6,346.3-40.1,346.3z M-46.6,346.3h-0.1c-0.6,0-1.1-0.4-1.1-1.1c0-0.6,0.4-1.1,1.1-1.1h0.1c0.6,0,1.1,0.4,1.1,1.1
		S-46.1,346.3-46.6,346.3z M-53.1,346.3h-0.1c-0.6,0-1.1-0.4-1.1-1.1c0-0.6,0.4-1.1,1.1-1.1h0.1c0.6,0,1.1,0.4,1.1,1.1
		S-52.6,346.3-53.1,346.3z M-59.6,346.3L-59.6,346.3c-0.7,0-1.2-0.4-1.2-1.1c0-0.6,0.4-1.1,1.1-1.1h0.1c0.6,0,1.1,0.4,1.1,1.1
		S-59,346.3-59.6,346.3z"/>
	<path class="st0" d="M413.9,346.3c-0.6,0-1.1-0.4-1.1-1.1c0-0.6,0.4-1.1,1.1-1.1l0,0c0.6,0,1.1,0.4,1.1,1.1
		S414.5,346.3,413.9,346.3z"/>
</g>
<g id="Layer_1_3_">
	<g id="Layer_1_2_">
		<g id="Layer_1_1_">
			<path class="st1" d="M217.9,655c-1.5-3.5-3.4-7-2.4-12.7c3-18.4,7-34.6,10.1-53.5c1.6-9.6-0.5-21.4-2-29.5
				c-0.6-3.3-1.6-9.8-0.5-13.8c4.8,0,11.1-1.3,12.9-4.3c2.4-3.9,0.9-17.4,1.8-22.9c3-17.7,6-43.6,2.4-62.6
				c-0.9-5.1-3.1-9.9-3.8-14.5c-0.6-3.9,1.3-9.3,0.5-14.4c-0.9-3.7-1.5-7.6-2.3-11.2c1.8-3.4,3.5-6.8,5.3-10.2
				c3.2-7.2,5.7-14.9,7.2-23.7c0.2-3.6,0.3-7.2,0.5-10.8c0.5-3.1,1.2-8.1,0.2-11.5c-1.8-7.2-6-10.7-12.3-13.2
				c-2.1-0.9-5.1-1.7-7.9-3l11.5-29.2l30.3,12.3l47.8,16.7c0,0,44.8,14,41.2,11.1c-3.6-3-33.8-63.4-38.1-64
				c-4.3-0.6-54.6-39.1-54.6-39.1l0.3-5l-3.2-1.6l-2.4,3.1l-2.7,0.5c-2.7,0.5-47.4-5.6-89.1-9.3c-4.5-0.4-53.9,22-53.9,22l15.7,7.2
				l39,16.5l25.6,11.1c-0.1,1.7-0.1,3.4-0.2,5.1c-1,4.5-2.7,10.5-1.5,16.8c1,6,5.1,9.4,4.1,15.8c-8.1,8.3-23.1,2.7-32.8,8.4
				c-5.2,3.1-6.5,10.6-8.6,17.1c-3.9,12.1-17.1,41.3-8.4,55.2c3.9,1.3,12.1-0.9,12.2-0.9c-0.6,2-1.2,4.1-1.8,6.1
				c-1.3,1.5-2.4,3.1-3.8,4.6c-1.2,7.2-2.1,14.7-3.3,21.9c-1.4,7.4-5.3,18.3-3,27.4c0.2,0.1,0.3,0.2,0.5,0.2
				c3.9-0.4,7.1-3.1,11.9-2.3c-0.1,16.5-2.7,35.5,0.3,51.9c0.2,3.2,0.3,6.4,0.5,9.7c1.2,1.9,2.4,3.9,3.5,5.7
				c0.1,3.6,0.2,7.1,0.2,10.7c1.5,9,1.9,17.8,4.3,25.5c4.1,13.3,9.4,25.6,14.7,37.9c1.9,4.6,5,9,6.3,14.1c3,11.6-4.6,17.4-7.9,23.4
				c-0.2,1.5-0.4,3.1-0.6,4.6h-66.9c0.4-1.2,0.5-2.4,0.4-3.9l2.1-133.6l-1.7-3c0,0.1,0,0.2-0.1,0.3c0-0.1,0-0.2,0.1-0.3
				c0.5-2.4,0.9-4.5,1.2-5.7c0.4-1.5,0.9-2.3,0.9-2.7l0,0c0-0.1,0.1-0.2,0.1-0.2v-11.8c0,0-1.4-2.1-3.4-5.2l0,0
				c-2-14-4.3-22.9-6.1-28.1c-1.7-5-3-6.8-3.1-7.1l0,0l0,0l16-1.6c11.6-1.6,8.8-9.4,8.8-9.4c-1.2-19-21.6-19-21.6-19l-11.9-0.4
				c-4.5-0.9-3.2,4.3-3.2,4.3l-1.3,9.9l0,0c-3.3-1.5-27.8-66.3-27.8-66.3c-3.3-7.8-6.9-13.2-9.8-16.7c-3.8-4.6-6.6-6.4-6.6-6.4
				c-2-0.5-5.4-0.9-9.8-1.3l0,0l0,0v0.1c-0.1,0-0.2,0-0.3,0l0,0c-25.4-2.1-84.5-3.9-102.7-4.5v27l103,3.6
				c12.3,0.9,11.5,6.1,11.5,6.1l19.6,55.7c1.2,3.8,0.6,6-0.4,7.2c-0.3,0.4-0.6,0.6-1,0.9c-1.7,1.2-3.8,0.9-3.8,0.9l-8.1-0.2
				l-74.4-2.3l-14.3-0.3l-3.8-0.1l-26.3-0.9h-1.7v53.2h1.2h0.5L2,492.2c14.7,0,14.4,5.6,14.4,5.6l-0.1,3.8L12.5,528l-3.2,3.2
				l-72.2-0.6h-0.4h-1.2v40.9h1h0.5l72.1-0.4l-1.6,20.3c-6,12.6-8.8,10.1-8.8,10.1l-62-0.9h-1.2v24.1h1.5L67.2,624v0.3l1.2,29.6
				c0,0,0.3,0.4,0.6,1.2H-64.5v9h146c0.1,0,0.2,0,0.4,0.1l2-0.1h46H415v-9.3L217.9,655z M226,319.3c1.5-1.2,3.5-1,4.6-2.4
				c1-1.5,1.9-3.3,2.7-5.2l3.3,1.4l-11.4,29.1c-2.3-1.3-3.9-2.8-4.5-4.9C219.1,330.7,223.2,321.3,226,319.3z M38.4,347.3L38.4,347.3
				L38.4,347.3L38.4,347.3L38.4,347.3z M96.3,526.8l-41,0.4v-0.1l0,0l-6.3,0.1h-0.1l-8.2,0.1c-1,0-2-0.1-3-0.3
				c-0.2,0-0.5-0.1-0.6-0.2l0,0c-0.9-0.2-1.7-0.5-2.4-0.9l0,0c-0.6-0.3-1.2-0.6-1.7-1c-1.2-0.6-2.1-1.6-3-2.7
				c-1.9-2.4-3.1-5.4-3.1-8.7v-9.8c-0.1-0.5-0.1-1-0.1-1.5c0.2-1.6,1.6-3.2,3-4.5c1.5-1.3,3-2.1,3-2.1l15.8-0.2l32.8-0.9v0.2
				l2.7-0.1c10,0.9,11.9,4.7,11.9,4.7v0.1L96.3,526.8L96.3,526.8z M201.5,620.5c-2.4-5.4-4.6-11.2-5.7-18.1
				c-1.4-8.2,0-17.1-1.5-24.7c-1.5-7.2-5.6-13.6-6.8-20.4c-0.5-3,1.9-5,2.4-7.1c0.3-3.2,0.6-6.5,1-9.7c3.3-1.2,6.6-2.1,9.9-3.3
				c-0.3,5.7-0.5,11.4-0.9,17.1c1.4,5.3,2.7,10.5,4.1,15.8c-0.1,6-0.2,11.7-0.2,17.7c1,13.4,2,26.8,3,40.2
				C203.8,625.9,203.1,623.8,201.5,620.5z"/>
		</g>
	</g>
</g>
<path class="st2" d="M414,185.2v478H-64v-478H414 M415,184.2H-65v480h480V184.2L415,184.2z"/>
</svg>
