<?xml version="1.0" encoding="utf-8"?>
<!-- Generator: Adobe Illustrator 18.0.0, SVG Export Plug-In . SVG Version: 6.00 Build 0)  -->
<!DOCTYPE svg PUBLIC "-//W3C//DTD SVG 1.1//EN" "http://www.w3.org/Graphics/SVG/1.1/DTD/svg11.dtd">
<svg version="1.1" id="Layer_1" xmlns="http://www.w3.org/2000/svg" xmlns:xlink="http://www.w3.org/1999/xlink" x="0px" y="0px"
	 viewBox="0 54.4 480 425.6" enable-background="new 0 54.4 480 425.6" xml:space="preserve">
<g id="Layer_2_1_">
	<path fill="#888888" d="M472.4,427.8c-0.6,0-1.1-0.4-1.1-1.1s0.4-1.1,1.1-1.1h0.1c0.6,0,1.1,0.4,1.1,1.1S473.1,427.8,472.4,427.8z
		 M466,427.8c-0.6,0-1.1-0.4-1.1-1.1s0.4-1.1,1.1-1.1h0.1c0.6,0,1.1,0.4,1.1,1.1S466.6,427.8,466,427.8z M459.5,427.8h-0.1
		c-0.6,0-1.1-0.4-1.1-1.1s0.4-1.1,1.1-1.1h0.1c0.6,0,1.1,0.4,1.1,1.1S460.1,427.8,459.5,427.8z M453,427.8c-0.6,0-1.1-0.4-1.1-1.1
		s0.4-1.1,1.1-1.1h0.1c0.6,0,1.1,0.4,1.1,1.1S453.6,427.8,453,427.8z M446.5,427.8h-0.1c-0.6,0-1.1-0.4-1.1-1.1s0.4-1.1,1.1-1.1h0.1
		c0.6,0,1.1,0.4,1.1,1.1S447.1,427.8,446.5,427.8z M440,427.8c-0.6,0-1.1-0.4-1.1-1.1s0.4-1.1,1.1-1.1h0.1c0.6,0,1.1,0.4,1.1,1.1
		S440.6,427.8,440,427.8z M433.5,427.8c-0.6,0-1.1-0.4-1.1-1.1s0.4-1.1,1.1-1.1h0.1c0.6,0,1.1,0.4,1.1,1.1S434.2,427.8,433.5,427.8z
		 M427,427.8c-0.6,0-1.1-0.4-1.1-1.1s0.4-1.1,1.1-1.1h0.1c0.6,0,1.1,0.4,1.1,1.1S427.7,427.8,427,427.8z M420.5,427.8
		c-0.6,0-1.1-0.4-1.1-1.1s0.4-1.1,1.1-1.1h0.1c0.6,0,1.1,0.4,1.1,1.1S421.2,427.8,420.5,427.8z M414.1,427.8H414
		c-0.6,0-1.1-0.4-1.1-1.1s0.4-1.1,1.1-1.1h0.1c0.6,0,1.1,0.4,1.1,1.1S414.7,427.8,414.1,427.8z M407.6,427.8c-0.6,0-1.1-0.4-1.1-1.1
		s0.4-1.1,1.1-1.1h0.1c0.6,0,1.1,0.4,1.1,1.1S408.2,427.8,407.6,427.8z M401.1,427.8H401c-0.6,0-1.1-0.4-1.1-1.1s0.4-1.1,1.1-1.1
		h0.1c0.6,0,1.1,0.4,1.1,1.1S401.7,427.8,401.1,427.8z M394.6,427.8c-0.6,0-1.1-0.4-1.1-1.1s0.4-1.1,1.1-1.1h0.1
		c0.6,0,1.1,0.4,1.1,1.1S395.2,427.8,394.6,427.8z M388.1,427.8H388c-0.6,0-1.1-0.4-1.1-1.1s0.4-1.1,1.1-1.1h0.1
		c0.6,0,1.1,0.4,1.1,1.1S388.7,427.8,388.1,427.8z M381.6,427.8c-0.6,0-1.1-0.4-1.1-1.1s0.4-1.1,1.1-1.1h0.1c0.6,0,1.1,0.4,1.1,1.1
		S382.3,427.8,381.6,427.8z M375.1,427.8c-0.6,0-1.1-0.4-1.1-1.1s0.4-1.1,1.1-1.1h0.1c0.6,0,1.1,0.4,1.1,1.1
		S375.8,427.8,375.1,427.8z M368.6,427.8h-0.1c-0.6,0-1.1-0.4-1.1-1.1s0.4-1.1,1.1-1.1h0.1c0.6,0,1.1,0.4,1.1,1.1
		S369.3,427.8,368.6,427.8z M362.2,427.8c-0.6,0-1.1-0.4-1.1-1.1s0.4-1.1,1.1-1.1h0.1c0.6,0,1.1,0.4,1.1,1.1
		S362.8,427.8,362.2,427.8z M355.7,427.8h-0.1c-0.6,0-1.1-0.4-1.1-1.1s0.4-1.1,1.1-1.1h0.1c0.6,0,1.1,0.4,1.1,1.1
		S356.3,427.8,355.7,427.8z M349.2,427.8c-0.6,0-1.1-0.4-1.1-1.1s0.4-1.1,1.1-1.1h0.1c0.6,0,1.1,0.4,1.1,1.1
		S349.8,427.8,349.2,427.8z M342.7,427.8h-0.1c-0.6,0-1.1-0.4-1.1-1.1s0.4-1.1,1.1-1.1h0.1c0.6,0,1.1,0.4,1.1,1.1
		S343.3,427.8,342.7,427.8z M336.2,427.8c-0.6,0-1.1-0.4-1.1-1.1s0.4-1.1,1.1-1.1h0.1c0.6,0,1.1,0.4,1.1,1.1
		S336.8,427.8,336.2,427.8z M329.7,427.8c-0.6,0-1.1-0.4-1.1-1.1s0.4-1.1,1.1-1.1h0.1c0.6,0,1.1,0.4,1.1,1.1
		S330.4,427.8,329.7,427.8z M323.2,427.8h-0.1c-0.6,0-1.1-0.4-1.1-1.1s0.4-1.1,1.1-1.1h0.1c0.6,0,1.1,0.4,1.1,1.1
		S323.9,427.8,323.2,427.8z M316.7,427.8c-0.6,0-1.1-0.4-1.1-1.1s0.4-1.1,1.1-1.1h0.1c0.6,0,1.1,0.4,1.1,1.1
		S317.4,427.8,316.7,427.8z M310.3,427.8h-0.1c-0.6,0-1.1-0.4-1.1-1.1s0.4-1.1,1.1-1.1h0.1c0.6,0,1.1,0.4,1.1,1.1
		S310.9,427.8,310.3,427.8z M303.8,427.8c-0.6,0-1.1-0.4-1.1-1.1s0.4-1.1,1.1-1.1h0.1c0.6,0,1.1,0.4,1.1,1.1
		S304.4,427.8,303.8,427.8z M297.3,427.8h-0.1c-0.6,0-1.1-0.4-1.1-1.1s0.4-1.1,1.1-1.1h0.1c0.6,0,1.1,0.4,1.1,1.1
		S297.9,427.8,297.3,427.8z M290.8,427.8c-0.6,0-1.1-0.4-1.1-1.1s0.4-1.1,1.1-1.1h0.1c0.6,0,1.1,0.4,1.1,1.1
		S291.4,427.8,290.8,427.8z M284.3,427.8c-0.6,0-1.1-0.4-1.1-1.1s0.4-1.1,1.1-1.1h0.1c0.6,0,1.1,0.4,1.1,1.1
		S284.9,427.8,284.3,427.8z M277.8,427.8h-0.1c-0.6,0-1.1-0.4-1.1-1.1s0.4-1.1,1.1-1.1h0.1c0.6,0,1.1,0.4,1.1,1.1
		S278.4,427.8,277.8,427.8z M271.3,427.8c-0.6,0-1.1-0.4-1.1-1.1s0.4-1.1,1.1-1.1h0.1c0.6,0,1.1,0.4,1.1,1.1S272,427.8,271.3,427.8z
		 M264.8,427.8h-0.1c-0.6,0-1.1-0.4-1.1-1.1s0.4-1.1,1.1-1.1h0.1c0.6,0,1.1,0.4,1.1,1.1S265.5,427.8,264.8,427.8z M258.3,427.8
		c-0.6,0-1.1-0.4-1.1-1.1s0.4-1.1,1.1-1.1h0.1c0.6,0,1.1,0.4,1.1,1.1S259,427.8,258.3,427.8z M251.9,427.8h-0.1
		c-0.6,0-1.1-0.4-1.1-1.1s0.4-1.1,1.1-1.1h0.1c0.6,0,1.1,0.4,1.1,1.1S252.5,427.8,251.9,427.8z M245.4,427.8c-0.6,0-1.1-0.4-1.1-1.1
		s0.4-1.1,1.1-1.1h0.1c0.6,0,1.1,0.4,1.1,1.1S246,427.8,245.4,427.8z M238.9,427.8c-0.6,0-1.1-0.4-1.1-1.1s0.4-1.1,1.1-1.1h0.1
		c0.6,0,1.1,0.4,1.1,1.1S239.5,427.8,238.9,427.8z M232.5,427.8h-0.1c-0.6,0-1.1-0.4-1.1-1.1s0.4-1.1,1.1-1.1h0.1
		c0.6,0,1.1,0.4,1.1,1.1S233,427.8,232.5,427.8z M226,427.8h-0.1c-0.6,0-1.1-0.4-1.1-1.1s0.4-1.1,1.1-1.1h0.1c0.6,0,1.1,0.4,1.1,1.1
		S226.5,427.8,226,427.8z M219.5,427.8c-0.6,0-1.1-0.4-1.1-1.1s0.4-1.1,1.1-1.1h0.1c0.6,0,1.1,0.4,1.1,1.1S220.1,427.8,219.5,427.8z
		 M213,427.8c-0.6,0-1.1-0.4-1.1-1.1s0.4-1.1,1.1-1.1h0.1c0.6,0,1.1,0.4,1.1,1.1S213.6,427.8,213,427.8z M206.5,427.8h-0.1
		c-0.6,0-1.1-0.4-1.1-1.1s0.4-1.1,1.1-1.1h0.1c0.6,0,1.1,0.4,1.1,1.1S207.1,427.8,206.5,427.8z M200.1,427.8H200
		c-0.6,0-1.1-0.4-1.1-1.1s0.4-1.1,1.1-1.1h0.1c0.6,0,1.1,0.4,1.1,1.1S200.6,427.8,200.1,427.8z M193.6,427.8h-0.1
		c-0.6,0-1.1-0.4-1.1-1.1s0.4-1.1,1.1-1.1h0.1c0.6,0,1.1,0.4,1.1,1.1S194.1,427.8,193.6,427.8z M187.1,427.8H187
		c-0.6,0-1.1-0.4-1.1-1.1s0.4-1.1,1.1-1.1h0.1c0.6,0,1.1,0.4,1.1,1.1S187.6,427.8,187.1,427.8z M180.6,427.8h-0.1
		c-0.6,0-1.1-0.4-1.1-1.1s0.4-1.1,1.1-1.1h0.1c0.6,0,1.1,0.4,1.1,1.1S181.1,427.8,180.6,427.8z M174.1,427.8c-0.6,0-1.1-0.4-1.1-1.1
		s0.4-1.1,1.1-1.1h0.1c0.6,0,1.1,0.4,1.1,1.1S174.6,427.8,174.1,427.8z M167.6,427.8c-0.6,0-1.1-0.4-1.1-1.1s0.4-1.1,1.1-1.1h0.1
		c0.6,0,1.1,0.4,1.1,1.1S168.2,427.8,167.6,427.8z M161.1,427.8H161c-0.6,0-1.1-0.4-1.1-1.1s0.4-1.1,1.1-1.1h0.1
		c0.6,0,1.1,0.4,1.1,1.1S161.7,427.8,161.1,427.8z M154.6,427.8h-0.1c-0.6,0-1.1-0.4-1.1-1.1s0.4-1.1,1.1-1.1h0.1
		c0.6,0,1.1,0.4,1.1,1.1S155.2,427.8,154.6,427.8z M148.2,427.8h-0.1c-0.6,0-1.1-0.4-1.1-1.1s0.4-1.1,1.1-1.1h0.1
		c0.6,0,1.1,0.4,1.1,1.1S148.7,427.8,148.2,427.8z M141.7,427.8h-0.1c-0.6,0-1.1-0.4-1.1-1.1s0.4-1.1,1.1-1.1h0.1
		c0.6,0,1.1,0.4,1.1,1.1S142.2,427.8,141.7,427.8z M135.2,427.8h-0.1c-0.6,0-1.1-0.4-1.1-1.1s0.4-1.1,1.1-1.1h0.1
		c0.6,0,1.1,0.4,1.1,1.1S135.7,427.8,135.2,427.8z M128.7,427.8c-0.6,0-1.1-0.4-1.1-1.1s0.4-1.1,1.1-1.1h0.1c0.6,0,1.1,0.4,1.1,1.1
		S129.2,427.8,128.7,427.8z M122.2,427.8c-0.6,0-1.1-0.4-1.1-1.1s0.4-1.1,1.1-1.1h0.1c0.6,0,1.1,0.4,1.1,1.1
		S122.7,427.8,122.2,427.8z M115.7,427.8L115.7,427.8c-0.7,0-1.2-0.4-1.2-1.1s0.4-1.1,1.1-1.1h0.1c0.6,0,1.1,0.4,1.1,1.1
		S116.3,427.8,115.7,427.8z M109.2,427.8L109.2,427.8c-0.7,0-1.2-0.4-1.2-1.1s0.4-1.1,1.1-1.1h0.1c0.6,0,1.1,0.4,1.1,1.1
		S109.8,427.8,109.2,427.8z M102.7,427.8L102.7,427.8c-0.7,0-1.2-0.4-1.2-1.1s0.4-1.1,1.1-1.1h0.1c0.6,0,1.1,0.4,1.1,1.1
		S103.3,427.8,102.7,427.8z M96.3,427.8L96.3,427.8c-0.7,0-1.2-0.4-1.2-1.1s0.4-1.1,1.1-1.1h0.1c0.6,0,1.1,0.4,1.1,1.1
		S96.8,427.8,96.3,427.8z M89.8,427.8L89.8,427.8c-0.7,0-1.2-0.4-1.2-1.1s0.4-1.1,1.1-1.1h0.1c0.6,0,1.1,0.4,1.1,1.1
		S90.3,427.8,89.8,427.8z M83.3,427.8c-0.6,0-1.1-0.4-1.1-1.1s0.4-1.1,1.1-1.1h0.1c0.6,0,1.1,0.4,1.1,1.1S83.8,427.8,83.3,427.8z
		 M76.8,427.8c-0.6,0-1.1-0.4-1.1-1.1s0.4-1.1,1.1-1.1h0.1c0.6,0,1.1,0.4,1.1,1.1S77.3,427.8,76.8,427.8z M70.3,427.8L70.3,427.8
		c-0.7,0-1.2-0.4-1.2-1.1s0.4-1.1,1.1-1.1h0.1c0.6,0,1.1,0.4,1.1,1.1S70.8,427.8,70.3,427.8z M63.8,427.8L63.8,427.8
		c-0.7,0-1.2-0.4-1.2-1.1s0.4-1.1,1.1-1.1h0.1c0.6,0,1.1,0.4,1.1,1.1S64.3,427.8,63.8,427.8z M57.3,427.8L57.3,427.8
		c-0.7,0-1.2-0.4-1.2-1.1s0.4-1.1,1.1-1.1h0.1c0.6,0,1.1,0.4,1.1,1.1S57.9,427.8,57.3,427.8z M50.8,427.8L50.8,427.8
		c-0.7,0-1.2-0.4-1.2-1.1s0.4-1.1,1.1-1.1h0.1c0.6,0,1.1,0.4,1.1,1.1S51.4,427.8,50.8,427.8z M44.4,427.8L44.4,427.8
		c-0.7,0-1.2-0.4-1.2-1.1s0.4-1.1,1.1-1.1h0.1c0.6,0,1.1,0.4,1.1,1.1S44.9,427.8,44.4,427.8z M37.9,427.8c-0.6,0-1.1-0.4-1.1-1.1
		s0.4-1.1,1.1-1.1l0,0c0.6,0,1.1,0.4,1.1,1.1S38.4,427.8,37.9,427.8z M31.4,427.8c-0.6,0-1.1-0.4-1.1-1.1s0.4-1.1,1.1-1.1h0.1
		c0.6,0,1.1,0.4,1.1,1.1S31.9,427.8,31.4,427.8z M24.9,427.8h-0.1c-0.6,0-1.1-0.4-1.1-1.1s0.4-1.1,1.1-1.1h0.1
		c0.6,0,1.1,0.4,1.1,1.1S25.4,427.8,24.9,427.8z M18.4,427.8h-0.1c-0.6,0-1.1-0.4-1.1-1.1s0.4-1.1,1.1-1.1h0.1
		c0.6,0,1.1,0.4,1.1,1.1S18.9,427.8,18.4,427.8z M11.9,427.8h-0.1c-0.6,0-1.1-0.4-1.1-1.1s0.4-1.1,1.1-1.1h0.1
		c0.6,0,1.1,0.4,1.1,1.1S12.4,427.8,11.9,427.8z M5.4,427.8L5.4,427.8c-0.7,0-1.2-0.4-1.2-1.1s0.4-1.1,1.1-1.1h0.1
		c0.6,0,1.1,0.4,1.1,1.1S6,427.8,5.4,427.8z"/>
	<path fill="#888888" d="M478.9,427.8c-0.6,0-1.1-0.4-1.1-1.1s0.4-1.1,1.1-1.1l0,0c0.6,0,1.1,0.4,1.1,1.1S479.5,427.8,478.9,427.8z"
		/>
	<path fill="#888888" d="M472.4,374.6c-0.6,0-1.1-0.4-1.1-1.1c0-0.6,0.4-1.1,1.1-1.1h0.1c0.6,0,1.1,0.4,1.1,1.1
		S473.1,374.6,472.4,374.6z M466,374.6c-0.6,0-1.1-0.4-1.1-1.1c0-0.6,0.4-1.1,1.1-1.1h0.1c0.6,0,1.1,0.4,1.1,1.1
		C467.1,374.2,466.6,374.6,466,374.6z M459.5,374.6h-0.1c-0.6,0-1.1-0.4-1.1-1.1c0-0.6,0.4-1.1,1.1-1.1h0.1c0.6,0,1.1,0.4,1.1,1.1
		C460.5,374.2,460.1,374.6,459.5,374.6z M453,374.6c-0.6,0-1.1-0.4-1.1-1.1c0-0.6,0.4-1.1,1.1-1.1h0.1c0.6,0,1.1,0.4,1.1,1.1
		S453.6,374.6,453,374.6z M446.5,374.6h-0.1c-0.6,0-1.1-0.4-1.1-1.1c0-0.6,0.4-1.1,1.1-1.1h0.1c0.6,0,1.1,0.4,1.1,1.1
		S447.1,374.6,446.5,374.6z M440,374.6c-0.6,0-1.1-0.4-1.1-1.1c0-0.6,0.4-1.1,1.1-1.1h0.1c0.6,0,1.1,0.4,1.1,1.1
		S440.6,374.6,440,374.6z M433.5,374.6c-0.6,0-1.1-0.4-1.1-1.1c0-0.6,0.4-1.1,1.1-1.1h0.1c0.6,0,1.1,0.4,1.1,1.1
		S434.2,374.6,433.5,374.6z M427,374.6c-0.6,0-1.1-0.4-1.1-1.1c0-0.6,0.4-1.1,1.1-1.1h0.1c0.6,0,1.1,0.4,1.1,1.1
		S427.7,374.6,427,374.6z M420.5,374.6c-0.6,0-1.1-0.4-1.1-1.1c0-0.6,0.4-1.1,1.1-1.1h0.1c0.6,0,1.1,0.4,1.1,1.1
		S421.2,374.6,420.5,374.6z M414.1,374.6H414c-0.6,0-1.1-0.4-1.1-1.1c0-0.6,0.4-1.1,1.1-1.1h0.1c0.6,0,1.1,0.4,1.1,1.1
		C415.1,374.2,414.7,374.6,414.1,374.6z M407.6,374.6c-0.6,0-1.1-0.4-1.1-1.1c0-0.6,0.4-1.1,1.1-1.1h0.1c0.6,0,1.1,0.4,1.1,1.1
		C408.7,374.2,408.2,374.6,407.6,374.6z M401.1,374.6H401c-0.6,0-1.1-0.4-1.1-1.1c0-0.6,0.4-1.1,1.1-1.1h0.1c0.6,0,1.1,0.4,1.1,1.1
		C402.1,374.2,401.7,374.6,401.1,374.6z M394.6,374.6c-0.6,0-1.1-0.4-1.1-1.1c0-0.6,0.4-1.1,1.1-1.1h0.1c0.6,0,1.1,0.4,1.1,1.1
		C395.8,374.2,395.2,374.6,394.6,374.6z M388.1,374.6H388c-0.6,0-1.1-0.4-1.1-1.1c0-0.6,0.4-1.1,1.1-1.1h0.1c0.6,0,1.1,0.4,1.1,1.1
		S388.7,374.6,388.1,374.6z M381.6,374.6c-0.6,0-1.1-0.4-1.1-1.1c0-0.6,0.4-1.1,1.1-1.1h0.1c0.6,0,1.1,0.4,1.1,1.1
		C382.8,374.2,382.3,374.6,381.6,374.6z M375.1,374.6c-0.6,0-1.1-0.4-1.1-1.1c0-0.6,0.4-1.1,1.1-1.1h0.1c0.6,0,1.1,0.4,1.1,1.1
		C376.3,374.2,375.8,374.6,375.1,374.6z M368.6,374.6h-0.1c-0.6,0-1.1-0.4-1.1-1.1c0-0.6,0.4-1.1,1.1-1.1h0.1c0.6,0,1.1,0.4,1.1,1.1
		S369.3,374.6,368.6,374.6z M362.2,374.6c-0.6,0-1.1-0.4-1.1-1.1c0-0.6,0.4-1.1,1.1-1.1h0.1c0.6,0,1.1,0.4,1.1,1.1
		C363.3,374.2,362.8,374.6,362.2,374.6z M355.7,374.6h-0.1c-0.6,0-1.1-0.4-1.1-1.1c0-0.6,0.4-1.1,1.1-1.1h0.1c0.6,0,1.1,0.4,1.1,1.1
		C356.7,374.2,356.3,374.6,355.7,374.6z M349.2,374.6c-0.6,0-1.1-0.4-1.1-1.1c0-0.6,0.4-1.1,1.1-1.1h0.1c0.6,0,1.1,0.4,1.1,1.1
		C350.3,374.2,349.8,374.6,349.2,374.6z M342.7,374.6h-0.1c-0.6,0-1.1-0.4-1.1-1.1c0-0.6,0.4-1.1,1.1-1.1h0.1c0.6,0,1.1,0.4,1.1,1.1
		C343.8,374.2,343.3,374.6,342.7,374.6z M336.2,374.6c-0.6,0-1.1-0.4-1.1-1.1c0-0.6,0.4-1.1,1.1-1.1h0.1c0.6,0,1.1,0.4,1.1,1.1
		C337.4,374.2,336.8,374.6,336.2,374.6z M329.7,374.6c-0.6,0-1.1-0.4-1.1-1.1c0-0.6,0.4-1.1,1.1-1.1h0.1c0.6,0,1.1,0.4,1.1,1.1
		C330.9,374.2,330.4,374.6,329.7,374.6z M323.2,374.6h-0.1c-0.6,0-1.1-0.4-1.1-1.1c0-0.6,0.4-1.1,1.1-1.1h0.1c0.6,0,1.1,0.4,1.1,1.1
		C324.3,374.2,323.9,374.6,323.2,374.6z M316.7,374.6c-0.6,0-1.1-0.4-1.1-1.1c0-0.6,0.4-1.1,1.1-1.1h0.1c0.6,0,1.1,0.4,1.1,1.1
		C317.9,374.2,317.4,374.6,316.7,374.6z M310.3,374.6h-0.1c-0.6,0-1.1-0.4-1.1-1.1c0-0.6,0.4-1.1,1.1-1.1h0.1c0.6,0,1.1,0.4,1.1,1.1
		C311.3,374.2,310.9,374.6,310.3,374.6z M303.8,374.6c-0.6,0-1.1-0.4-1.1-1.1c0-0.6,0.4-1.1,1.1-1.1h0.1c0.6,0,1.1,0.4,1.1,1.1
		C304.9,374.2,304.4,374.6,303.8,374.6z M297.3,374.6h-0.1c-0.6,0-1.1-0.4-1.1-1.1c0-0.6,0.4-1.1,1.1-1.1h0.1c0.6,0,1.1,0.4,1.1,1.1
		C298.3,374.2,297.9,374.6,297.3,374.6z M290.8,374.6c-0.6,0-1.1-0.4-1.1-1.1c0-0.6,0.4-1.1,1.1-1.1h0.1c0.6,0,1.1,0.4,1.1,1.1
		S291.4,374.6,290.8,374.6z M284.3,374.6c-0.6,0-1.1-0.4-1.1-1.1c0-0.6,0.4-1.1,1.1-1.1h0.1c0.6,0,1.1,0.4,1.1,1.1
		S284.9,374.6,284.3,374.6z M277.8,374.6h-0.1c-0.6,0-1.1-0.4-1.1-1.1c0-0.6,0.4-1.1,1.1-1.1h0.1c0.6,0,1.1,0.4,1.1,1.1
		S278.4,374.6,277.8,374.6z M271.3,374.6c-0.6,0-1.1-0.4-1.1-1.1c0-0.6,0.4-1.1,1.1-1.1h0.1c0.6,0,1.1,0.4,1.1,1.1
		S272,374.6,271.3,374.6z M264.8,374.6h-0.1c-0.6,0-1.1-0.4-1.1-1.1c0-0.6,0.4-1.1,1.1-1.1h0.1c0.6,0,1.1,0.4,1.1,1.1
		S265.5,374.6,264.8,374.6z M258.3,374.6c-0.6,0-1.1-0.4-1.1-1.1c0-0.6,0.4-1.1,1.1-1.1h0.1c0.6,0,1.1,0.4,1.1,1.1
		S259,374.6,258.3,374.6z M251.9,374.6h-0.1c-0.6,0-1.1-0.4-1.1-1.1c0-0.6,0.4-1.1,1.1-1.1h0.1c0.6,0,1.1,0.4,1.1,1.1
		C252.9,374.2,252.5,374.6,251.9,374.6z M245.4,374.6c-0.6,0-1.1-0.4-1.1-1.1c0-0.6,0.4-1.1,1.1-1.1h0.1c0.6,0,1.1,0.4,1.1,1.1
		C246.5,374.2,246,374.6,245.4,374.6z M238.9,374.6c-0.6,0-1.1-0.4-1.1-1.1c0-0.6,0.4-1.1,1.1-1.1h0.1c0.6,0,1.1,0.4,1.1,1.1
		S239.5,374.6,238.9,374.6z M232.5,374.6h-0.1c-0.6,0-1.1-0.4-1.1-1.1c0-0.6,0.4-1.1,1.1-1.1h0.1c0.6,0,1.1,0.4,1.1,1.1
		S233,374.6,232.5,374.6z M226,374.6h-0.1c-0.6,0-1.1-0.4-1.1-1.1c0-0.6,0.4-1.1,1.1-1.1h0.1c0.6,0,1.1,0.4,1.1,1.1
		S226.5,374.6,226,374.6z M219.5,374.6c-0.6,0-1.1-0.4-1.1-1.1c0-0.6,0.4-1.1,1.1-1.1h0.1c0.6,0,1.1,0.4,1.1,1.1
		C220.7,374.2,220.1,374.6,219.5,374.6z M213,374.6c-0.6,0-1.1-0.4-1.1-1.1c0-0.6,0.4-1.1,1.1-1.1h0.1c0.6,0,1.1,0.4,1.1,1.1
		C214.2,374.2,213.6,374.6,213,374.6z M206.5,374.6h-0.1c-0.6,0-1.1-0.4-1.1-1.1c0-0.6,0.4-1.1,1.1-1.1h0.1c0.6,0,1.1,0.4,1.1,1.1
		S207.1,374.6,206.5,374.6z M200.1,374.6H200c-0.6,0-1.1-0.4-1.1-1.1c0-0.6,0.4-1.1,1.1-1.1h0.1c0.6,0,1.1,0.4,1.1,1.1
		C201.1,374.2,200.6,374.6,200.1,374.6z M193.6,374.6h-0.1c-0.6,0-1.1-0.4-1.1-1.1c0-0.6,0.4-1.1,1.1-1.1h0.1c0.6,0,1.1,0.4,1.1,1.1
		C194.6,374.2,194.1,374.6,193.6,374.6z M187.1,374.6H187c-0.6,0-1.1-0.4-1.1-1.1c0-0.6,0.4-1.1,1.1-1.1h0.1c0.6,0,1.1,0.4,1.1,1.1
		C188.1,374.2,187.6,374.6,187.1,374.6z M180.6,374.6h-0.1c-0.6,0-1.1-0.4-1.1-1.1c0-0.6,0.4-1.1,1.1-1.1h0.1c0.6,0,1.1,0.4,1.1,1.1
		C181.7,374.2,181.1,374.6,180.6,374.6z M174.1,374.6c-0.6,0-1.1-0.4-1.1-1.1c0-0.6,0.4-1.1,1.1-1.1h0.1c0.6,0,1.1,0.4,1.1,1.1
		C175.3,374.2,174.6,374.6,174.1,374.6z M167.6,374.6c-0.6,0-1.1-0.4-1.1-1.1c0-0.6,0.4-1.1,1.1-1.1h0.1c0.6,0,1.1,0.4,1.1,1.1
		C168.8,374.2,168.2,374.6,167.6,374.6z M161.1,374.6H161c-0.6,0-1.1-0.4-1.1-1.1c0-0.6,0.4-1.1,1.1-1.1h0.1c0.6,0,1.1,0.4,1.1,1.1
		C162.2,374.2,161.7,374.6,161.1,374.6z M154.6,374.6h-0.1c-0.6,0-1.1-0.4-1.1-1.1c0-0.6,0.4-1.1,1.1-1.1h0.1c0.6,0,1.1,0.4,1.1,1.1
		C155.7,374.2,155.2,374.6,154.6,374.6z M148.2,374.6h-0.1c-0.6,0-1.1-0.4-1.1-1.1c0-0.6,0.4-1.1,1.1-1.1h0.1c0.6,0,1.1,0.4,1.1,1.1
		C149.2,374.2,148.7,374.6,148.2,374.6z M141.7,374.6h-0.1c-0.6,0-1.1-0.4-1.1-1.1c0-0.6,0.4-1.1,1.1-1.1h0.1c0.6,0,1.1,0.4,1.1,1.1
		C142.7,374.2,142.2,374.6,141.7,374.6z M135.2,374.6h-0.1c-0.6,0-1.1-0.4-1.1-1.1c0-0.6,0.4-1.1,1.1-1.1h0.1c0.6,0,1.1,0.4,1.1,1.1
		C136.2,374.2,135.7,374.6,135.2,374.6z M128.7,374.6c-0.6,0-1.1-0.4-1.1-1.1c0-0.6,0.4-1.1,1.1-1.1h0.1c0.6,0,1.1,0.4,1.1,1.1
		C129.9,374.2,129.2,374.6,128.7,374.6z M122.2,374.6c-0.6,0-1.1-0.4-1.1-1.1c0-0.6,0.4-1.1,1.1-1.1h0.1c0.6,0,1.1,0.4,1.1,1.1
		C123.4,374.2,122.7,374.6,122.2,374.6z M115.7,374.6L115.7,374.6c-0.7,0-1.2-0.4-1.2-1.1c0-0.6,0.4-1.1,1.1-1.1h0.1
		c0.6,0,1.1,0.4,1.1,1.1C116.8,374.2,116.3,374.6,115.7,374.6z M109.2,374.6L109.2,374.6c-0.7,0-1.2-0.4-1.2-1.1
		c0-0.6,0.4-1.1,1.1-1.1h0.1c0.6,0,1.1,0.4,1.1,1.1C110.3,374.2,109.8,374.6,109.2,374.6z M102.7,374.6L102.7,374.6
		c-0.7,0-1.2-0.4-1.2-1.1c0-0.6,0.4-1.1,1.1-1.1h0.1c0.6,0,1.1,0.4,1.1,1.1C103.8,374.2,103.3,374.6,102.7,374.6z M96.3,374.6
		L96.3,374.6c-0.7,0-1.2-0.4-1.2-1.1c0-0.6,0.4-1.1,1.1-1.1h0.1c0.6,0,1.1,0.4,1.1,1.1C97.3,374.2,96.8,374.6,96.3,374.6z
		 M89.8,374.6L89.8,374.6c-0.7,0-1.2-0.4-1.2-1.1c0-0.6,0.4-1.1,1.1-1.1h0.1c0.6,0,1.1,0.4,1.1,1.1
		C90.8,374.2,90.3,374.6,89.8,374.6z M83.3,374.6c-0.6,0-1.1-0.4-1.1-1.1c0-0.6,0.4-1.1,1.1-1.1h0.1c0.6,0,1.1,0.4,1.1,1.1
		C84.4,374.2,83.8,374.6,83.3,374.6z M76.8,374.6c-0.6,0-1.1-0.4-1.1-1.1c0-0.6,0.4-1.1,1.1-1.1h0.1c0.6,0,1.1,0.4,1.1,1.1
		S77.3,374.6,76.8,374.6z M70.3,374.6L70.3,374.6c-0.7,0-1.2-0.4-1.2-1.1c0-0.6,0.4-1.1,1.1-1.1h0.1c0.6,0,1.1,0.4,1.1,1.1
		S70.8,374.6,70.3,374.6z M63.8,374.6L63.8,374.6c-0.7,0-1.2-0.4-1.2-1.1c0-0.6,0.4-1.1,1.1-1.1h0.1c0.6,0,1.1,0.4,1.1,1.1
		S64.3,374.6,63.8,374.6z M57.3,374.6L57.3,374.6c-0.7,0-1.2-0.4-1.2-1.1c0-0.6,0.4-1.1,1.1-1.1h0.1c0.6,0,1.1,0.4,1.1,1.1
		C58.4,374.2,57.9,374.6,57.3,374.6z M50.8,374.6L50.8,374.6c-0.7,0-1.2-0.4-1.2-1.1c0-0.6,0.4-1.1,1.1-1.1h0.1
		c0.6,0,1.1,0.4,1.1,1.1C51.9,374.2,51.4,374.6,50.8,374.6z M44.4,374.6L44.4,374.6c-0.7,0-1.2-0.4-1.2-1.1c0-0.6,0.4-1.1,1.1-1.1
		h0.1c0.6,0,1.1,0.4,1.1,1.1C45.4,374.2,44.9,374.6,44.4,374.6z M37.9,374.6c-0.6,0-1.1-0.4-1.1-1.1c0-0.6,0.4-1.1,1.1-1.1l0,0
		c0.6,0,1.1,0.4,1.1,1.1C38.9,374.2,38.4,374.6,37.9,374.6z M31.4,374.6c-0.6,0-1.1-0.4-1.1-1.1c0-0.6,0.4-1.1,1.1-1.1h0.1
		c0.6,0,1.1,0.4,1.1,1.1C32.5,374.2,31.9,374.6,31.4,374.6z M24.9,374.6h-0.1c-0.6,0-1.1-0.4-1.1-1.1c0-0.6,0.4-1.1,1.1-1.1h0.1
		c0.6,0,1.1,0.4,1.1,1.1S25.4,374.6,24.9,374.6z M18.4,374.6h-0.1c-0.6,0-1.1-0.4-1.1-1.1c0-0.6,0.4-1.1,1.1-1.1h0.1
		c0.6,0,1.1,0.4,1.1,1.1S18.9,374.6,18.4,374.6z M11.9,374.6h-0.1c-0.6,0-1.1-0.4-1.1-1.1c0-0.6,0.4-1.1,1.1-1.1h0.1
		c0.6,0,1.1,0.4,1.1,1.1S12.4,374.6,11.9,374.6z M5.4,374.6L5.4,374.6c-0.7,0-1.2-0.4-1.2-1.1c0-0.6,0.4-1.1,1.1-1.1h0.1
		c0.6,0,1.1,0.4,1.1,1.1S6,374.6,5.4,374.6z"/>
	<path fill="#888888" d="M478.9,374.6c-0.6,0-1.1-0.4-1.1-1.1c0-0.6,0.4-1.1,1.1-1.1l0,0c0.6,0,1.1,0.4,1.1,1.1
		S479.5,374.6,478.9,374.6z"/>
	<path fill="#888888" d="M472.4,268.2c-0.6,0-1.1-0.4-1.1-1.1c0-0.6,0.4-1.1,1.1-1.1h0.1c0.6,0,1.1,0.4,1.1,1.1
		C473.6,267.8,473.1,268.2,472.4,268.2z M466,268.2c-0.6,0-1.1-0.4-1.1-1.1c0-0.6,0.4-1.1,1.1-1.1h0.1c0.6,0,1.1,0.4,1.1,1.1
		C467.1,267.8,466.6,268.2,466,268.2z M459.5,268.2h-0.1c-0.6,0-1.1-0.4-1.1-1.1c0-0.6,0.4-1.1,1.1-1.1h0.1c0.6,0,1.1,0.4,1.1,1.1
		C460.5,267.8,460.1,268.2,459.5,268.2z M453,268.2c-0.6,0-1.1-0.4-1.1-1.1c0-0.6,0.4-1.1,1.1-1.1h0.1c0.6,0,1.1,0.4,1.1,1.1
		C454.2,267.8,453.6,268.2,453,268.2z M446.5,268.2h-0.1c-0.6,0-1.1-0.4-1.1-1.1c0-0.6,0.4-1.1,1.1-1.1h0.1c0.6,0,1.1,0.4,1.1,1.1
		C447.6,267.8,447.1,268.2,446.5,268.2z M440,268.2c-0.6,0-1.1-0.4-1.1-1.1c0-0.6,0.4-1.1,1.1-1.1h0.1c0.6,0,1.1,0.4,1.1,1.1
		C441.2,267.8,440.6,268.2,440,268.2z M433.5,268.2c-0.6,0-1.1-0.4-1.1-1.1c0-0.6,0.4-1.1,1.1-1.1h0.1c0.6,0,1.1,0.4,1.1,1.1
		C434.7,267.8,434.2,268.2,433.5,268.2z M427,268.2c-0.6,0-1.1-0.4-1.1-1.1c0-0.6,0.4-1.1,1.1-1.1h0.1c0.6,0,1.1,0.4,1.1,1.1
		C428.2,267.8,427.7,268.2,427,268.2z M420.5,268.2c-0.6,0-1.1-0.4-1.1-1.1c0-0.6,0.4-1.1,1.1-1.1h0.1c0.6,0,1.1,0.4,1.1,1.1
		C421.7,267.8,421.2,268.2,420.5,268.2z M414.1,268.2H414c-0.6,0-1.1-0.4-1.1-1.1c0-0.6,0.4-1.1,1.1-1.1h0.1c0.6,0,1.1,0.4,1.1,1.1
		C415.1,267.8,414.7,268.2,414.1,268.2z M407.6,268.2c-0.6,0-1.1-0.4-1.1-1.1c0-0.6,0.4-1.1,1.1-1.1h0.1c0.6,0,1.1,0.4,1.1,1.1
		C408.7,267.8,408.2,268.2,407.6,268.2z M401.1,268.2H401c-0.6,0-1.1-0.4-1.1-1.1c0-0.6,0.4-1.1,1.1-1.1h0.1c0.6,0,1.1,0.4,1.1,1.1
		C402.1,267.8,401.7,268.2,401.1,268.2z M394.6,268.2c-0.6,0-1.1-0.4-1.1-1.1c0-0.6,0.4-1.1,1.1-1.1h0.1c0.6,0,1.1,0.4,1.1,1.1
		C395.8,267.8,395.2,268.2,394.6,268.2z M388.1,268.2H388c-0.6,0-1.1-0.4-1.1-1.1c0-0.6,0.4-1.1,1.1-1.1h0.1c0.6,0,1.1,0.4,1.1,1.1
		C389.2,267.8,388.7,268.2,388.1,268.2z M381.6,268.2c-0.6,0-1.1-0.4-1.1-1.1c0-0.6,0.4-1.1,1.1-1.1h0.1c0.6,0,1.1,0.4,1.1,1.1
		C382.8,267.8,382.3,268.2,381.6,268.2z M375.1,268.2c-0.6,0-1.1-0.4-1.1-1.1c0-0.6,0.4-1.1,1.1-1.1h0.1c0.6,0,1.1,0.4,1.1,1.1
		C376.3,267.8,375.8,268.2,375.1,268.2z M368.6,268.2h-0.1c-0.6,0-1.1-0.4-1.1-1.1c0-0.6,0.4-1.1,1.1-1.1h0.1c0.6,0,1.1,0.4,1.1,1.1
		C369.7,267.8,369.3,268.2,368.6,268.2z M362.2,268.2c-0.6,0-1.1-0.4-1.1-1.1c0-0.6,0.4-1.1,1.1-1.1h0.1c0.6,0,1.1,0.4,1.1,1.1
		C363.3,267.8,362.8,268.2,362.2,268.2z M355.7,268.2h-0.1c-0.6,0-1.1-0.4-1.1-1.1c0-0.6,0.4-1.1,1.1-1.1h0.1c0.6,0,1.1,0.4,1.1,1.1
		C356.7,267.8,356.3,268.2,355.7,268.2z M349.2,268.2c-0.6,0-1.1-0.4-1.1-1.1c0-0.6,0.4-1.1,1.1-1.1h0.1c0.6,0,1.1,0.4,1.1,1.1
		C350.3,267.8,349.8,268.2,349.2,268.2z M342.7,268.2h-0.1c-0.6,0-1.1-0.4-1.1-1.1c0-0.6,0.4-1.1,1.1-1.1h0.1c0.6,0,1.1,0.4,1.1,1.1
		C343.8,267.8,343.3,268.2,342.7,268.2z M336.2,268.2c-0.6,0-1.1-0.4-1.1-1.1c0-0.6,0.4-1.1,1.1-1.1h0.1c0.6,0,1.1,0.4,1.1,1.1
		C337.4,267.8,336.8,268.2,336.2,268.2z M329.7,268.2c-0.6,0-1.1-0.4-1.1-1.1c0-0.6,0.4-1.1,1.1-1.1h0.1c0.6,0,1.1,0.4,1.1,1.1
		C330.9,267.8,330.4,268.2,329.7,268.2z M323.2,268.2h-0.1c-0.6,0-1.1-0.4-1.1-1.1c0-0.6,0.4-1.1,1.1-1.1h0.1c0.6,0,1.1,0.4,1.1,1.1
		C324.3,267.8,323.9,268.2,323.2,268.2z M316.7,268.2c-0.6,0-1.1-0.4-1.1-1.1c0-0.6,0.4-1.1,1.1-1.1h0.1c0.6,0,1.1,0.4,1.1,1.1
		C317.9,267.8,317.4,268.2,316.7,268.2z M310.3,268.2h-0.1c-0.6,0-1.1-0.4-1.1-1.1c0-0.6,0.4-1.1,1.1-1.1h0.1c0.6,0,1.1,0.4,1.1,1.1
		C311.3,267.8,310.9,268.2,310.3,268.2z M303.8,268.2c-0.6,0-1.1-0.4-1.1-1.1c0-0.6,0.4-1.1,1.1-1.1h0.1c0.6,0,1.1,0.4,1.1,1.1
		C304.9,267.8,304.4,268.2,303.8,268.2z M297.3,268.2h-0.1c-0.6,0-1.1-0.4-1.1-1.1c0-0.6,0.4-1.1,1.1-1.1h0.1c0.6,0,1.1,0.4,1.1,1.1
		C298.3,267.8,297.9,268.2,297.3,268.2z M290.8,268.2c-0.6,0-1.1-0.4-1.1-1.1c0-0.6,0.4-1.1,1.1-1.1h0.1c0.6,0,1.1,0.4,1.1,1.1
		C292,267.8,291.4,268.2,290.8,268.2z M284.3,268.2c-0.6,0-1.1-0.4-1.1-1.1c0-0.6,0.4-1.1,1.1-1.1h0.1c0.6,0,1.1,0.4,1.1,1.1
		C285.5,267.8,284.9,268.2,284.3,268.2z M277.8,268.2h-0.1c-0.6,0-1.1-0.4-1.1-1.1c0-0.6,0.4-1.1,1.1-1.1h0.1c0.6,0,1.1,0.4,1.1,1.1
		C278.9,267.8,278.4,268.2,277.8,268.2z M271.3,268.2c-0.6,0-1.1-0.4-1.1-1.1c0-0.6,0.4-1.1,1.1-1.1h0.1c0.6,0,1.1,0.4,1.1,1.1
		C272.5,267.8,272,268.2,271.3,268.2z M264.8,268.2h-0.1c-0.6,0-1.1-0.4-1.1-1.1c0-0.6,0.4-1.1,1.1-1.1h0.1c0.6,0,1.1,0.4,1.1,1.1
		C265.9,267.8,265.5,268.2,264.8,268.2z M258.3,268.2c-0.6,0-1.1-0.4-1.1-1.1c0-0.6,0.4-1.1,1.1-1.1h0.1c0.6,0,1.1,0.4,1.1,1.1
		C259.5,267.8,259,268.2,258.3,268.2z M251.9,268.2h-0.1c-0.6,0-1.1-0.4-1.1-1.1c0-0.6,0.4-1.1,1.1-1.1h0.1c0.6,0,1.1,0.4,1.1,1.1
		C252.9,267.8,252.5,268.2,251.9,268.2z M245.4,268.2c-0.6,0-1.1-0.4-1.1-1.1c0-0.6,0.4-1.1,1.1-1.1h0.1c0.6,0,1.1,0.4,1.1,1.1
		C246.5,267.8,246,268.2,245.4,268.2z M238.9,268.2c-0.6,0-1.1-0.4-1.1-1.1c0-0.6,0.4-1.1,1.1-1.1h0.1c0.6,0,1.1,0.4,1.1,1.1
		C240.1,267.8,239.5,268.2,238.9,268.2z M232.5,268.2h-0.1c-0.6,0-1.1-0.4-1.1-1.1c0-0.6,0.4-1.1,1.1-1.1h0.1c0.6,0,1.1,0.4,1.1,1.1
		C233.6,267.8,233,268.2,232.5,268.2z M226,268.2h-0.1c-0.6,0-1.1-0.4-1.1-1.1c0-0.6,0.4-1.1,1.1-1.1h0.1c0.6,0,1.1,0.4,1.1,1.1
		C227.1,267.8,226.5,268.2,226,268.2z M219.5,268.2c-0.6,0-1.1-0.4-1.1-1.1c0-0.6,0.4-1.1,1.1-1.1h0.1c0.6,0,1.1,0.4,1.1,1.1
		C220.7,267.8,220.1,268.2,219.5,268.2z M213,268.2c-0.6,0-1.1-0.4-1.1-1.1c0-0.6,0.4-1.1,1.1-1.1h0.1c0.6,0,1.1,0.4,1.1,1.1
		C214.2,267.8,213.6,268.2,213,268.2z M206.5,268.2h-0.1c-0.6,0-1.1-0.4-1.1-1.1c0-0.6,0.4-1.1,1.1-1.1h0.1c0.6,0,1.1,0.4,1.1,1.1
		C207.6,267.8,207.1,268.2,206.5,268.2z M200.1,268.2H200c-0.6,0-1.1-0.4-1.1-1.1c0-0.6,0.4-1.1,1.1-1.1h0.1c0.6,0,1.1,0.4,1.1,1.1
		C201.1,267.8,200.6,268.2,200.1,268.2z M193.6,268.2h-0.1c-0.6,0-1.1-0.4-1.1-1.1c0-0.6,0.4-1.1,1.1-1.1h0.1c0.6,0,1.1,0.4,1.1,1.1
		C194.6,267.8,194.1,268.2,193.6,268.2z M187.1,268.2H187c-0.6,0-1.1-0.4-1.1-1.1c0-0.6,0.4-1.1,1.1-1.1h0.1c0.6,0,1.1,0.4,1.1,1.1
		C188.1,267.8,187.6,268.2,187.1,268.2z M180.6,268.2h-0.1c-0.6,0-1.1-0.4-1.1-1.1c0-0.6,0.4-1.1,1.1-1.1h0.1c0.6,0,1.1,0.4,1.1,1.1
		C181.7,267.8,181.1,268.2,180.6,268.2z M174.1,268.2c-0.6,0-1.1-0.4-1.1-1.1c0-0.6,0.4-1.1,1.1-1.1h0.1c0.6,0,1.1,0.4,1.1,1.1
		C175.3,267.8,174.6,268.2,174.1,268.2z M167.6,268.2c-0.6,0-1.1-0.4-1.1-1.1c0-0.6,0.4-1.1,1.1-1.1h0.1c0.6,0,1.1,0.4,1.1,1.1
		C168.8,267.8,168.2,268.2,167.6,268.2z M161.1,268.2H161c-0.6,0-1.1-0.4-1.1-1.1c0-0.6,0.4-1.1,1.1-1.1h0.1c0.6,0,1.1,0.4,1.1,1.1
		C162.2,267.8,161.7,268.2,161.1,268.2z M154.6,268.2h-0.1c-0.6,0-1.1-0.4-1.1-1.1c0-0.6,0.4-1.1,1.1-1.1h0.1c0.6,0,1.1,0.4,1.1,1.1
		C155.7,267.8,155.2,268.2,154.6,268.2z M148.2,268.2h-0.1c-0.6,0-1.1-0.4-1.1-1.1c0-0.6,0.4-1.1,1.1-1.1h0.1c0.6,0,1.1,0.4,1.1,1.1
		C149.2,267.8,148.7,268.2,148.2,268.2z M141.7,268.2h-0.1c-0.6,0-1.1-0.4-1.1-1.1c0-0.6,0.4-1.1,1.1-1.1h0.1c0.6,0,1.1,0.4,1.1,1.1
		C142.7,267.8,142.2,268.2,141.7,268.2z M135.2,268.2h-0.1c-0.6,0-1.1-0.4-1.1-1.1c0-0.6,0.4-1.1,1.1-1.1h0.1c0.6,0,1.1,0.4,1.1,1.1
		C136.2,267.8,135.7,268.2,135.2,268.2z M128.7,268.2c-0.6,0-1.1-0.4-1.1-1.1c0-0.6,0.4-1.1,1.1-1.1h0.1c0.6,0,1.1,0.4,1.1,1.1
		C129.9,267.8,129.2,268.2,128.7,268.2z M122.2,268.2c-0.6,0-1.1-0.4-1.1-1.1c0-0.6,0.4-1.1,1.1-1.1h0.1c0.6,0,1.1,0.4,1.1,1.1
		C123.4,267.8,122.7,268.2,122.2,268.2z M115.7,268.2L115.7,268.2c-0.7,0-1.2-0.4-1.2-1.1c0-0.6,0.4-1.1,1.1-1.1h0.1
		c0.6,0,1.1,0.4,1.1,1.1C116.8,267.8,116.3,268.2,115.7,268.2z M109.2,268.2L109.2,268.2c-0.7,0-1.2-0.4-1.2-1.1
		c0-0.6,0.4-1.1,1.1-1.1h0.1c0.6,0,1.1,0.4,1.1,1.1C110.3,267.8,109.8,268.2,109.2,268.2z M102.7,268.2L102.7,268.2
		c-0.7,0-1.2-0.4-1.2-1.1c0-0.6,0.4-1.1,1.1-1.1h0.1c0.6,0,1.1,0.4,1.1,1.1C103.8,267.8,103.3,268.2,102.7,268.2z M96.3,268.2
		L96.3,268.2c-0.7,0-1.2-0.4-1.2-1.1c0-0.6,0.4-1.1,1.1-1.1h0.1c0.6,0,1.1,0.4,1.1,1.1C97.3,267.8,96.8,268.2,96.3,268.2z
		 M89.8,268.2L89.8,268.2c-0.7,0-1.2-0.4-1.2-1.1c0-0.6,0.4-1.1,1.1-1.1h0.1c0.6,0,1.1,0.4,1.1,1.1
		C90.8,267.8,90.3,268.2,89.8,268.2z M83.3,268.2c-0.6,0-1.1-0.4-1.1-1.1c0-0.6,0.4-1.1,1.1-1.1h0.1c0.6,0,1.1,0.4,1.1,1.1
		C84.4,267.8,83.8,268.2,83.3,268.2z M76.8,268.2c-0.6,0-1.1-0.4-1.1-1.1c0-0.6,0.4-1.1,1.1-1.1h0.1c0.6,0,1.1,0.4,1.1,1.1
		C78,267.8,77.3,268.2,76.8,268.2z M70.3,268.2L70.3,268.2c-0.7,0-1.2-0.4-1.2-1.1c0-0.6,0.4-1.1,1.1-1.1h0.1c0.6,0,1.1,0.4,1.1,1.1
		C71.4,267.8,70.8,268.2,70.3,268.2z M63.8,268.2L63.8,268.2c-0.7,0-1.2-0.4-1.2-1.1c0-0.6,0.4-1.1,1.1-1.1h0.1
		c0.6,0,1.1,0.4,1.1,1.1C64.9,267.8,64.3,268.2,63.8,268.2z M57.3,268.2L57.3,268.2c-0.7,0-1.2-0.4-1.2-1.1c0-0.6,0.4-1.1,1.1-1.1
		h0.1c0.6,0,1.1,0.4,1.1,1.1C58.4,267.8,57.9,268.2,57.3,268.2z M50.8,268.2L50.8,268.2c-0.7,0-1.2-0.4-1.2-1.1
		c0-0.6,0.4-1.1,1.1-1.1h0.1c0.6,0,1.1,0.4,1.1,1.1C51.9,267.8,51.4,268.2,50.8,268.2z M44.4,268.2L44.4,268.2
		c-0.7,0-1.2-0.4-1.2-1.1c0-0.6,0.4-1.1,1.1-1.1h0.1c0.6,0,1.1,0.4,1.1,1.1C45.4,267.8,44.9,268.2,44.4,268.2z M37.9,268.2
		c-0.6,0-1.1-0.4-1.1-1.1c0-0.6,0.4-1.1,1.1-1.1l0,0c0.6,0,1.1,0.4,1.1,1.1C38.9,267.8,38.4,268.2,37.9,268.2z M31.4,268.2
		c-0.6,0-1.1-0.4-1.1-1.1c0-0.6,0.4-1.1,1.1-1.1h0.1c0.6,0,1.1,0.4,1.1,1.1C32.5,267.8,31.9,268.2,31.4,268.2z M24.9,268.2h-0.1
		c-0.6,0-1.1-0.4-1.1-1.1c0-0.6,0.4-1.1,1.1-1.1h0.1c0.6,0,1.1,0.4,1.1,1.1C26,267.8,25.4,268.2,24.9,268.2z M18.4,268.2h-0.1
		c-0.6,0-1.1-0.4-1.1-1.1c0-0.6,0.4-1.1,1.1-1.1h0.1c0.6,0,1.1,0.4,1.1,1.1C19.5,267.8,18.9,268.2,18.4,268.2z M11.9,268.2h-0.1
		c-0.6,0-1.1-0.4-1.1-1.1c0-0.6,0.4-1.1,1.1-1.1h0.1c0.6,0,1.1,0.4,1.1,1.1C13,267.8,12.4,268.2,11.9,268.2z M5.4,268.2L5.4,268.2
		c-0.7,0-1.2-0.4-1.2-1.1c0-0.6,0.4-1.1,1.1-1.1h0.1c0.6,0,1.1,0.4,1.1,1.1C6.5,267.8,6,268.2,5.4,268.2z"/>
	<path fill="#888888" d="M478.9,268.2c-0.6,0-1.1-0.4-1.1-1.1c0-0.6,0.4-1.1,1.1-1.1l0,0c0.6,0,1.1,0.4,1.1,1.1
		C480,267.8,479.5,268.2,478.9,268.2z"/>
	<path fill="#888888" d="M472.4,161.9c-0.6,0-1.1-0.4-1.1-1.1c0-0.6,0.4-1.1,1.1-1.1h0.1c0.6,0,1.1,0.4,1.1,1.1
		S473.1,161.9,472.4,161.9z M466,161.9c-0.6,0-1.1-0.4-1.1-1.1c0-0.6,0.4-1.1,1.1-1.1h0.1c0.6,0,1.1,0.4,1.1,1.1
		C467.1,161.5,466.6,161.9,466,161.9z M459.5,161.9h-0.1c-0.6,0-1.1-0.4-1.1-1.1c0-0.6,0.4-1.1,1.1-1.1h0.1c0.6,0,1.1,0.4,1.1,1.1
		C460.5,161.5,460.1,161.9,459.5,161.9z M453,161.9c-0.6,0-1.1-0.4-1.1-1.1c0-0.6,0.4-1.1,1.1-1.1h0.1c0.6,0,1.1,0.4,1.1,1.1
		S453.6,161.9,453,161.9z M446.5,161.9h-0.1c-0.6,0-1.1-0.4-1.1-1.1c0-0.6,0.4-1.1,1.1-1.1h0.1c0.6,0,1.1,0.4,1.1,1.1
		S447.1,161.9,446.5,161.9z M440,161.9c-0.6,0-1.1-0.4-1.1-1.1c0-0.6,0.4-1.1,1.1-1.1h0.1c0.6,0,1.1,0.4,1.1,1.1
		S440.6,161.9,440,161.9z M433.5,161.9c-0.6,0-1.1-0.4-1.1-1.1c0-0.6,0.4-1.1,1.1-1.1h0.1c0.6,0,1.1,0.4,1.1,1.1
		S434.2,161.9,433.5,161.9z M427,161.9c-0.6,0-1.1-0.4-1.1-1.1c0-0.6,0.4-1.1,1.1-1.1h0.1c0.6,0,1.1,0.4,1.1,1.1
		S427.7,161.9,427,161.9z M420.5,161.9c-0.6,0-1.1-0.4-1.1-1.1c0-0.6,0.4-1.1,1.1-1.1h0.1c0.6,0,1.1,0.4,1.1,1.1
		S421.2,161.9,420.5,161.9z M414.1,161.9H414c-0.6,0-1.1-0.4-1.1-1.1c0-0.6,0.4-1.1,1.1-1.1h0.1c0.6,0,1.1,0.4,1.1,1.1
		C415.1,161.5,414.7,161.9,414.1,161.9z M407.6,161.9c-0.6,0-1.1-0.4-1.1-1.1c0-0.6,0.4-1.1,1.1-1.1h0.1c0.6,0,1.1,0.4,1.1,1.1
		C408.7,161.5,408.2,161.9,407.6,161.9z M401.1,161.9H401c-0.6,0-1.1-0.4-1.1-1.1c0-0.6,0.4-1.1,1.1-1.1h0.1c0.6,0,1.1,0.4,1.1,1.1
		C402.1,161.5,401.7,161.9,401.1,161.9z M394.6,161.9c-0.6,0-1.1-0.4-1.1-1.1c0-0.6,0.4-1.1,1.1-1.1h0.1c0.6,0,1.1,0.4,1.1,1.1
		C395.8,161.5,395.2,161.9,394.6,161.9z M388.1,161.9H388c-0.6,0-1.1-0.4-1.1-1.1c0-0.6,0.4-1.1,1.1-1.1h0.1c0.6,0,1.1,0.4,1.1,1.1
		S388.7,161.9,388.1,161.9z M381.6,161.9c-0.6,0-1.1-0.4-1.1-1.1c0-0.6,0.4-1.1,1.1-1.1h0.1c0.6,0,1.1,0.4,1.1,1.1
		C382.8,161.5,382.3,161.9,381.6,161.9z M375.1,161.9c-0.6,0-1.1-0.4-1.1-1.1c0-0.6,0.4-1.1,1.1-1.1h0.1c0.6,0,1.1,0.4,1.1,1.1
		C376.3,161.5,375.8,161.9,375.1,161.9z M368.6,161.9h-0.1c-0.6,0-1.1-0.4-1.1-1.1c0-0.6,0.4-1.1,1.1-1.1h0.1c0.6,0,1.1,0.4,1.1,1.1
		S369.3,161.9,368.6,161.9z M362.2,161.9c-0.6,0-1.1-0.4-1.1-1.1c0-0.6,0.4-1.1,1.1-1.1h0.1c0.6,0,1.1,0.4,1.1,1.1
		C363.3,161.5,362.8,161.9,362.2,161.9z M355.7,161.9h-0.1c-0.6,0-1.1-0.4-1.1-1.1c0-0.6,0.4-1.1,1.1-1.1h0.1c0.6,0,1.1,0.4,1.1,1.1
		C356.7,161.5,356.3,161.9,355.7,161.9z M349.2,161.9c-0.6,0-1.1-0.4-1.1-1.1c0-0.6,0.4-1.1,1.1-1.1h0.1c0.6,0,1.1,0.4,1.1,1.1
		C350.3,161.5,349.8,161.9,349.2,161.9z M342.7,161.9h-0.1c-0.6,0-1.1-0.4-1.1-1.1c0-0.6,0.4-1.1,1.1-1.1h0.1c0.6,0,1.1,0.4,1.1,1.1
		C343.8,161.5,343.3,161.9,342.7,161.9z M336.2,161.9c-0.6,0-1.1-0.4-1.1-1.1c0-0.6,0.4-1.1,1.1-1.1h0.1c0.6,0,1.1,0.4,1.1,1.1
		C337.4,161.5,336.8,161.9,336.2,161.9z M329.7,161.9c-0.6,0-1.1-0.4-1.1-1.1c0-0.6,0.4-1.1,1.1-1.1h0.1c0.6,0,1.1,0.4,1.1,1.1
		C330.9,161.5,330.4,161.9,329.7,161.9z M323.2,161.9h-0.1c-0.6,0-1.1-0.4-1.1-1.1c0-0.6,0.4-1.1,1.1-1.1h0.1c0.6,0,1.1,0.4,1.1,1.1
		C324.3,161.5,323.9,161.9,323.2,161.9z M316.7,161.9c-0.6,0-1.1-0.4-1.1-1.1c0-0.6,0.4-1.1,1.1-1.1h0.1c0.6,0,1.1,0.4,1.1,1.1
		C317.9,161.5,317.4,161.9,316.7,161.9z M310.3,161.9h-0.1c-0.6,0-1.1-0.4-1.1-1.1c0-0.6,0.4-1.1,1.1-1.1h0.1c0.6,0,1.1,0.4,1.1,1.1
		C311.3,161.5,310.9,161.9,310.3,161.9z M303.8,161.9c-0.6,0-1.1-0.4-1.1-1.1c0-0.6,0.4-1.1,1.1-1.1h0.1c0.6,0,1.1,0.4,1.1,1.1
		C304.9,161.5,304.4,161.9,303.8,161.9z M297.3,161.9h-0.1c-0.6,0-1.1-0.4-1.1-1.1c0-0.6,0.4-1.1,1.1-1.1h0.1c0.6,0,1.1,0.4,1.1,1.1
		C298.3,161.5,297.9,161.9,297.3,161.9z M290.8,161.9c-0.6,0-1.1-0.4-1.1-1.1c0-0.6,0.4-1.1,1.1-1.1h0.1c0.6,0,1.1,0.4,1.1,1.1
		S291.4,161.9,290.8,161.9z M284.3,161.9c-0.6,0-1.1-0.4-1.1-1.1c0-0.6,0.4-1.1,1.1-1.1h0.1c0.6,0,1.1,0.4,1.1,1.1
		S284.9,161.9,284.3,161.9z M277.8,161.9h-0.1c-0.6,0-1.1-0.4-1.1-1.1c0-0.6,0.4-1.1,1.1-1.1h0.1c0.6,0,1.1,0.4,1.1,1.1
		S278.4,161.9,277.8,161.9z M271.3,161.9c-0.6,0-1.1-0.4-1.1-1.1c0-0.6,0.4-1.1,1.1-1.1h0.1c0.6,0,1.1,0.4,1.1,1.1
		S272,161.9,271.3,161.9z M264.8,161.9h-0.1c-0.6,0-1.1-0.4-1.1-1.1c0-0.6,0.4-1.1,1.1-1.1h0.1c0.6,0,1.1,0.4,1.1,1.1
		S265.5,161.9,264.8,161.9z M258.3,161.9c-0.6,0-1.1-0.4-1.1-1.1c0-0.6,0.4-1.1,1.1-1.1h0.1c0.6,0,1.1,0.4,1.1,1.1
		S259,161.9,258.3,161.9z M251.9,161.9h-0.1c-0.6,0-1.1-0.4-1.1-1.1c0-0.6,0.4-1.1,1.1-1.1h0.1c0.6,0,1.1,0.4,1.1,1.1
		C252.9,161.5,252.5,161.9,251.9,161.9z M245.4,161.9c-0.6,0-1.1-0.4-1.1-1.1c0-0.6,0.4-1.1,1.1-1.1h0.1c0.6,0,1.1,0.4,1.1,1.1
		C246.5,161.5,246,161.9,245.4,161.9z M238.9,161.9c-0.6,0-1.1-0.4-1.1-1.1c0-0.6,0.4-1.1,1.1-1.1h0.1c0.6,0,1.1,0.4,1.1,1.1
		S239.5,161.9,238.9,161.9z M232.5,161.9h-0.1c-0.6,0-1.1-0.4-1.1-1.1c0-0.6,0.4-1.1,1.1-1.1h0.1c0.6,0,1.1,0.4,1.1,1.1
		S233,161.9,232.5,161.9z M226,161.9h-0.1c-0.6,0-1.1-0.4-1.1-1.1c0-0.6,0.4-1.1,1.1-1.1h0.1c0.6,0,1.1,0.4,1.1,1.1
		S226.5,161.9,226,161.9z M219.5,161.9c-0.6,0-1.1-0.4-1.1-1.1c0-0.6,0.4-1.1,1.1-1.1h0.1c0.6,0,1.1,0.4,1.1,1.1
		C220.7,161.5,220.1,161.9,219.5,161.9z M213,161.9c-0.6,0-1.1-0.4-1.1-1.1c0-0.6,0.4-1.1,1.1-1.1h0.1c0.6,0,1.1,0.4,1.1,1.1
		C214.2,161.5,213.6,161.9,213,161.9z M206.5,161.9h-0.1c-0.6,0-1.1-0.4-1.1-1.1c0-0.6,0.4-1.1,1.1-1.1h0.1c0.6,0,1.1,0.4,1.1,1.1
		S207.1,161.9,206.5,161.9z M200.1,161.9H200c-0.6,0-1.1-0.4-1.1-1.1c0-0.6,0.4-1.1,1.1-1.1h0.1c0.6,0,1.1,0.4,1.1,1.1
		C201.1,161.5,200.6,161.9,200.1,161.9z M193.6,161.9h-0.1c-0.6,0-1.1-0.4-1.1-1.1c0-0.6,0.4-1.1,1.1-1.1h0.1c0.6,0,1.1,0.4,1.1,1.1
		C194.6,161.5,194.1,161.9,193.6,161.9z M187.1,161.9H187c-0.6,0-1.1-0.4-1.1-1.1c0-0.6,0.4-1.1,1.1-1.1h0.1c0.6,0,1.1,0.4,1.1,1.1
		C188.1,161.5,187.6,161.9,187.1,161.9z M180.6,161.9h-0.1c-0.6,0-1.1-0.4-1.1-1.1c0-0.6,0.4-1.1,1.1-1.1h0.1c0.6,0,1.1,0.4,1.1,1.1
		C181.7,161.5,181.1,161.9,180.6,161.9z M174.1,161.9c-0.6,0-1.1-0.4-1.1-1.1c0-0.6,0.4-1.1,1.1-1.1h0.1c0.6,0,1.1,0.4,1.1,1.1
		C175.3,161.5,174.6,161.9,174.1,161.9z M167.6,161.9c-0.6,0-1.1-0.4-1.1-1.1c0-0.6,0.4-1.1,1.1-1.1h0.1c0.6,0,1.1,0.4,1.1,1.1
		C168.8,161.5,168.2,161.9,167.6,161.9z M161.1,161.9H161c-0.6,0-1.1-0.4-1.1-1.1c0-0.6,0.4-1.1,1.1-1.1h0.1c0.6,0,1.1,0.4,1.1,1.1
		C162.2,161.5,161.7,161.9,161.1,161.9z M154.6,161.9h-0.1c-0.6,0-1.1-0.4-1.1-1.1c0-0.6,0.4-1.1,1.1-1.1h0.1c0.6,0,1.1,0.4,1.1,1.1
		C155.7,161.5,155.2,161.9,154.6,161.9z M148.2,161.9h-0.1c-0.6,0-1.1-0.4-1.1-1.1c0-0.6,0.4-1.1,1.1-1.1h0.1c0.6,0,1.1,0.4,1.1,1.1
		C149.2,161.5,148.7,161.9,148.2,161.9z M141.7,161.9h-0.1c-0.6,0-1.1-0.4-1.1-1.1c0-0.6,0.4-1.1,1.1-1.1h0.1c0.6,0,1.1,0.4,1.1,1.1
		C142.7,161.5,142.2,161.9,141.7,161.9z M135.2,161.9h-0.1c-0.6,0-1.1-0.4-1.1-1.1c0-0.6,0.4-1.1,1.1-1.1h0.1c0.6,0,1.1,0.4,1.1,1.1
		C136.2,161.5,135.7,161.9,135.2,161.9z M128.7,161.9c-0.6,0-1.1-0.4-1.1-1.1c0-0.6,0.4-1.1,1.1-1.1h0.1c0.6,0,1.1,0.4,1.1,1.1
		C129.9,161.5,129.2,161.9,128.7,161.9z M122.2,161.9c-0.6,0-1.1-0.4-1.1-1.1c0-0.6,0.4-1.1,1.1-1.1h0.1c0.6,0,1.1,0.4,1.1,1.1
		C123.4,161.5,122.7,161.9,122.2,161.9z M115.7,161.9L115.7,161.9c-0.7,0-1.2-0.4-1.2-1.1c0-0.6,0.4-1.1,1.1-1.1h0.1
		c0.6,0,1.1,0.4,1.1,1.1C116.8,161.5,116.3,161.9,115.7,161.9z M109.2,161.9L109.2,161.9c-0.7,0-1.2-0.4-1.2-1.1
		c0-0.6,0.4-1.1,1.1-1.1h0.1c0.6,0,1.1,0.4,1.1,1.1C110.3,161.5,109.8,161.9,109.2,161.9z M102.7,161.9L102.7,161.9
		c-0.7,0-1.2-0.4-1.2-1.1c0-0.6,0.4-1.1,1.1-1.1h0.1c0.6,0,1.1,0.4,1.1,1.1C103.8,161.5,103.3,161.9,102.7,161.9z M96.3,161.9
		L96.3,161.9c-0.7,0-1.2-0.4-1.2-1.1c0-0.6,0.4-1.1,1.1-1.1h0.1c0.6,0,1.1,0.4,1.1,1.1C97.3,161.5,96.8,161.9,96.3,161.9z
		 M89.8,161.9L89.8,161.9c-0.7,0-1.2-0.4-1.2-1.1c0-0.6,0.4-1.1,1.1-1.1h0.1c0.6,0,1.1,0.4,1.1,1.1
		C90.8,161.5,90.3,161.9,89.8,161.9z M83.3,161.9c-0.6,0-1.1-0.4-1.1-1.1c0-0.6,0.4-1.1,1.1-1.1h0.1c0.6,0,1.1,0.4,1.1,1.1
		C84.4,161.5,83.8,161.9,83.3,161.9z M76.8,161.9c-0.6,0-1.1-0.4-1.1-1.1c0-0.6,0.4-1.1,1.1-1.1h0.1c0.6,0,1.1,0.4,1.1,1.1
		S77.3,161.9,76.8,161.9z M70.3,161.9L70.3,161.9c-0.7,0-1.2-0.4-1.2-1.1c0-0.6,0.4-1.1,1.1-1.1h0.1c0.6,0,1.1,0.4,1.1,1.1
		S70.8,161.9,70.3,161.9z M63.8,161.9L63.8,161.9c-0.7,0-1.2-0.4-1.2-1.1c0-0.6,0.4-1.1,1.1-1.1h0.1c0.6,0,1.1,0.4,1.1,1.1
		S64.3,161.9,63.8,161.9z M57.3,161.9L57.3,161.9c-0.7,0-1.2-0.4-1.2-1.1c0-0.6,0.4-1.1,1.1-1.1h0.1c0.6,0,1.1,0.4,1.1,1.1
		C58.4,161.5,57.9,161.9,57.3,161.9z M50.8,161.9L50.8,161.9c-0.7,0-1.2-0.4-1.2-1.1c0-0.6,0.4-1.1,1.1-1.1h0.1
		c0.6,0,1.1,0.4,1.1,1.1C51.9,161.5,51.4,161.9,50.8,161.9z M44.4,161.9L44.4,161.9c-0.7,0-1.2-0.4-1.2-1.1c0-0.6,0.4-1.1,1.1-1.1
		h0.1c0.6,0,1.1,0.4,1.1,1.1C45.4,161.5,44.9,161.9,44.4,161.9z M37.9,161.9c-0.6,0-1.1-0.4-1.1-1.1c0-0.6,0.4-1.1,1.1-1.1l0,0
		c0.6,0,1.1,0.4,1.1,1.1C38.9,161.5,38.4,161.9,37.9,161.9z M31.4,161.9c-0.6,0-1.1-0.4-1.1-1.1c0-0.6,0.4-1.1,1.1-1.1h0.1
		c0.6,0,1.1,0.4,1.1,1.1C32.5,161.5,31.9,161.9,31.4,161.9z M24.9,161.9h-0.1c-0.6,0-1.1-0.4-1.1-1.1c0-0.6,0.4-1.1,1.1-1.1h0.1
		c0.6,0,1.1,0.4,1.1,1.1S25.4,161.9,24.9,161.9z M18.4,161.9h-0.1c-0.6,0-1.1-0.4-1.1-1.1c0-0.6,0.4-1.1,1.1-1.1h0.1
		c0.6,0,1.1,0.4,1.1,1.1S18.9,161.9,18.4,161.9z M11.9,161.9h-0.1c-0.6,0-1.1-0.4-1.1-1.1c0-0.6,0.4-1.1,1.1-1.1h0.1
		c0.6,0,1.1,0.4,1.1,1.1S12.4,161.9,11.9,161.9z M5.4,161.9L5.4,161.9c-0.7,0-1.2-0.4-1.2-1.1c0-0.6,0.4-1.1,1.1-1.1h0.1
		c0.6,0,1.1,0.4,1.1,1.1S6,161.9,5.4,161.9z"/>
	<path fill="#888888" d="M478.9,161.9c-0.6,0-1.1-0.4-1.1-1.1c0-0.6,0.4-1.1,1.1-1.1l0,0c0.6,0,1.1,0.4,1.1,1.1
		S479.5,161.9,478.9,161.9z"/>
</g>
<g id="Layer_1_3_">
	<g id="Layer_1_2_">
		<g id="Layer_1_1_">
			<path fill="#C0C0C0" d="M283.1,470.7c-1.5-3.5-3.4-7-2.4-12.7c3-18.4,7-34.6,10.1-53.5c1.6-9.6-0.5-21.4-2-29.5
				c-0.6-3.3-1.6-9.8-0.5-13.8c4.8,0,11.1-1.3,12.9-4.3c2.4-3.9,0.9-17.4,1.8-22.9c3-17.7,6-43.6,2.4-62.6
				c-0.9-5.1-3.1-9.9-3.8-14.5c-0.6-3.9,1.3-9.3,0.5-14.4c-0.9-3.7-1.5-7.6-2.3-11.2c1.8-3.4,3.5-6.8,5.3-10.2
				c3.2-7.2,5.7-14.9,7.2-23.7c0.2-3.6,0.3-7.2,0.5-10.8c0.5-3.1,1.2-8.1,0.2-11.5c-1.8-7.2-6-10.7-12.3-13.2
				c-2.1-0.9-5.1-1.7-7.9-3l11.5-29.2l30.3,12.3l47.9,16.7c0,0,44.9,14,41.3,11.1c-3.6-3-33.8-63.4-38.2-64
				c-4.3-0.6-54.7-39.1-54.7-39.1l0.3-5l-3.2-1.6l-2.4,3.1l-2.7,0.5c-2.7,0.5-47.5-5.6-89.2-9.3c-4.5-0.4-54,22-54,22l15.7,7.2
				l39.1,16.5l25.6,11.1c-0.1,1.7-0.1,3.4-0.2,5.1c-1,4.5-2.7,10.5-1.5,16.8c1,6,5.1,9.4,4.1,15.8c-8.1,8.3-23.1,2.7-32.8,8.4
				c-5.2,3.1-6.5,10.6-8.6,17.1c-3.9,12.1-17.1,41.3-8.4,55.2c3.9,1.3,12.1-0.9,12.2-0.9c-0.6,2-1.2,4.1-1.8,6.1
				c-1.3,1.5-2.4,3.1-3.8,4.6c-1.2,7.2-2.1,14.7-3.3,21.9c-1.4,7.4-5.3,18.3-3,27.4c0.2,0.1,0.3,0.2,0.5,0.2
				c3.9-0.4,7.1-3.1,11.9-2.3c-0.1,16.5-2.7,35.5,0.3,51.9c0.2,3.2,0.3,6.4,0.5,9.7c1.2,1.9,2.4,3.9,3.5,5.7
				c0.1,3.6,0.2,7.1,0.2,10.7c1.5,9,1.9,17.8,4.3,25.5c4.1,13.3,9.4,25.6,14.7,37.9c1.9,4.6,5,9,6.3,14.1c3,11.6-4.6,17.4-7.9,23.4
				c-0.2,1.5-0.4,3.1-0.6,4.6h-67c0.4-1.2,0.5-2.4,0.4-3.9l2.1-133.6l-1.7-3c0,0.1,0,0.2-0.1,0.3c0-0.1,0-0.2,0.1-0.3
				c0.5-2.4,0.9-4.5,1.2-5.7c0.4-1.5,0.9-2.3,0.9-2.7l0,0c0-0.1,0.1-0.2,0.1-0.2v-11.8c0,0-1.4-2.1-3.4-5.2l0,0
				c-2-14-4.3-22.9-6.1-28.1c-1.7-5-3-6.8-3.1-7.1l0,0l0,0l16-1.6c11.6-1.6,8.8-9.4,8.8-9.4c-1.2-19-21.6-19-21.6-19l-11.9-0.4
				c-4.5-0.9-3.2,4.3-3.2,4.3l-1.3,9.9l0,0c-3.3-1.5-27.8-66.3-27.8-66.3c-3.3-7.8-6.9-13.2-9.8-16.7c-3.8-4.6-6.6-6.4-6.6-6.4
				c-2-0.5-5.4-0.9-9.8-1.3l0,0l0,0v0.1c-0.1,0-0.2,0-0.3,0l0,0c-25.4-2.1-84.6-3.9-102.8-4.5v27l103.2,3.6
				c12.3,0.9,11.5,6.1,11.5,6.1l19.6,55.7c1.2,3.8,0.6,6-0.4,7.2c-0.3,0.4-0.6,0.6-1,0.9c-1.7,1.2-3.8,0.9-3.8,0.9l-8.1-0.2
				l-74.5-2.3L32,256.1l-3.8-0.1l-26.3-0.9H0.2v53.2h1.2h0.5l65-0.4c14.7,0,14.4,5.6,14.4,5.6l-0.1,3.8l-3.8,26.4l-3.2,3.2
				l-72.3-0.6H1.5H0.3v40.9h1h0.5l72.2-0.4l-1.6,20.3c-6,12.6-8.8,10.1-8.8,10.1l-62.1-0.9H0.3v24.1h1.5l130.4-0.7v0.3l1.2,29.6
				c0,0,0.3,0.4,0.6,1.2H0.3v9h146.2c0.1,0,0.2,0,0.4,0.1l2-0.1H195h285.5v-9.3L283.1,470.7z M291.2,135c1.5-1.2,3.5-1,4.6-2.4
				c1-1.5,1.9-3.3,2.7-5.2l3.3,1.4l-11.4,29.1c-2.3-1.3-3.9-2.8-4.5-4.9C284.3,146.4,288.4,137,291.2,135z M103.4,163L103.4,163
				L103.4,163L103.4,163L103.4,163z M161.3,342.5l-41.1,0.4v-0.1l0,0l-6.3,0.1h-0.1l-8.2,0.1c-1,0-2-0.1-3-0.3
				c-0.2,0-0.5-0.1-0.6-0.2l0,0c-0.9-0.2-1.7-0.5-2.4-0.9l0,0c-0.6-0.3-1.2-0.6-1.7-1c-1.2-0.6-2.1-1.6-3-2.7
				c-1.9-2.4-3.1-5.4-3.1-8.7v-9.8c-0.1-0.5-0.1-1-0.1-1.5c0.2-1.6,1.6-3.2,3-4.5c1.5-1.3,3-2.1,3-2.1l15.8-0.2l32.8-0.9v0.2
				l2.7-0.1c10,0.9,11.9,4.7,11.9,4.7v0.1L161.3,342.5L161.3,342.5z M266.7,436.2c-2.4-5.4-4.6-11.2-5.7-18.1
				c-1.4-8.2,0-17.1-1.5-24.7c-1.5-7.2-5.6-13.6-6.8-20.4c-0.5-3,1.9-5,2.4-7.1c0.3-3.2,0.6-6.5,1-9.7c3.3-1.2,6.6-2.1,9.9-3.3
				c-0.3,5.7-0.5,11.4-0.9,17.1c1.4,5.3,2.7,10.5,4.1,15.8c-0.1,6-0.2,11.7-0.2,17.7c1,13.4,2,26.8,3,40.2
				C269,441.6,268.3,439.5,266.7,436.2z"/>
		</g>
	</g>
</g>
</svg>
