<?xml version="1.0" encoding="utf-8"?>
<!-- Generator: Adobe Illustrator 18.0.0, SVG Export Plug-In . SVG Version: 6.00 Build 0)  -->
<!DOCTYPE svg PUBLIC "-//W3C//DTD SVG 1.1//EN" "http://www.w3.org/Graphics/SVG/1.1/DTD/svg11.dtd">
<svg version="1.1" id="Layer_1" xmlns="http://www.w3.org/2000/svg" xmlns:xlink="http://www.w3.org/1999/xlink" x="0px" y="0px"
	 viewBox="0 0 48 48" enable-background="new 0 0 48 48" xml:space="preserve">
<path fill="#D50000" d="M4,14.5H0v-10C0,2,2,0,4.5,0h10v4h-9C4.7,4,4,4.7,4,5.5V14.5z"/>
<path fill="#D50000" d="M43.5,48h-10v-4h9c0.8,0,1.5-0.7,1.5-1.5v-9h4v10C48,46,46,48,43.5,48z"/>
<path fill="#D50000" d="M14.5,48h-10C2,48,0,46,0,43.5v-10h4v9C4,43.3,4.7,44,5.5,44h9V48z"/>
<path fill="#D50000" d="M48,14.5h-4v-9C44,4.7,43.3,4,42.5,4h-9V0h10C46,0,48,2,48,4.5V14.5z"/>
<path fill="#D50000" d="M24,38c-7.9,0-14-6.1-14-14s6.1-14,14-14s14,6.1,14,14S31.9,38,24,38z M24,16c-4.6,0-8,3.4-8,8s3.4,8,8,8
	s8-3.4,8-8S28.6,16,24,16z"/>
</svg>
