<?xml version="1.0" encoding="utf-8"?>
<!-- Generator: Adobe Illustrator 18.0.0, SVG Export Plug-In . SVG Version: 6.00 Build 0)  -->
<!DOCTYPE svg PUBLIC "-//W3C//DTD SVG 1.1//EN" "http://www.w3.org/Graphics/SVG/1.1/DTD/svg11.dtd">
<svg version="1.1" xmlns="http://www.w3.org/2000/svg" xmlns:xlink="http://www.w3.org/1999/xlink" x="0px" y="0px"
	 viewBox="0 0 48 48" enable-background="new 0 0 48 48" xml:space="preserve">
<g id="Base_x2F_shadow">
	<path opacity="0.25" d="M40.9,39.5c-6.2-0.7-13.9,0.1-17.1,1.6c-0.7,0.3-1.1,0.6-1.2,0.9c-0.1,0.2-0.2,0.4-0.2,0.6l0,0.2l0.9,3.6
		l0.5,1.6l5.6-1l12.5-2.2l0.5-0.1c0.7-0.1,1.4-0.3,2-0.5c0.8-0.2,1.6-0.5,2.1-0.8C49.7,42,47.2,40.2,40.9,39.5z"/>
</g>
<g id="Marker">
</g>
<g id="Water">
	<g id="XMLID_2_">
		<g>
			<path fill="#FFFFFF" d="M21.5,19c-0.1,0.3,0,0.5,0.3,0.7c0.2,0.1,0.4,0.2,0.7,0.2v-2.6h3V19c0,0,0.1-0.1,0.1-0.1
				c0.3-0.2,0.6-0.5,0.9-0.6v-1.5c0-0.3-0.2-0.5-0.5-0.5H22c-0.3,0-0.5,0.2-0.5,0.5v1.8C21.5,18.8,21.6,18.9,21.5,19z M23.9,20.9
				c-1.9,0.4-3.4-0.4-3.1-1.8c-2-0.3-1.8,1.3-4.2,1.8c-0.1,0-0.1,0-0.2,0c0,0,0,0,0,0l-0.1-1c0.1,0,0.2,0,0.2,0
				c0.3-0.1,0.6-0.1,0.8-0.2v-3.1c0-0.3-0.2-0.5-0.5-0.5h-1.1l2.6-2.6c0.1-0.1,0.1-0.2,0.1-0.4V9.3h1.7v1c0,0.5,0.6,0.7,0.9,0.4
				l2.9-2.9l8.2,8.2H31c-0.3,0-0.5,0.2-0.5,0.5V20c0.1,0,0.2,0,0.3,0l0.1,1c-1.8,0.2-3.1-0.6-2.8-1.8C26.1,18.9,26.3,20.5,23.9,20.9
				z"/>
			<path fill="#FFFFFF" d="M37.2,21c-2,5.4-7.2,9.2-13.2,9.2c-6.3,0-11.6-4.1-13.4-9.7c-0.5-1.4-0.7-2.9-0.7-4.5
				C9.9,8.2,16.2,1.9,24,1.9c7.8,0,14.1,6.3,14.1,14.1C38.1,17.8,37.8,19.5,37.2,21z M24,29.4c5.7,0,10.5-3.6,12.4-8.6
				c-0.8-0.3-1.2-0.9-1-1.6c-2-0.3-1.8,1.3-4.2,1.8c-0.1,0-0.2,0-0.2,0c0,0,0,0,0,0l-0.1-1c0.1,0,0.2,0,0.3,0c0.2,0,0.4-0.1,0.5-0.1
				v-2.7h1.8c0.5,0,0.7-0.5,0.4-0.9l-9.5-9.5c-0.2-0.2-0.5-0.2-0.7,0l-2.4,2.4V8.8c0-0.3-0.2-0.5-0.5-0.5h-2.7
				c-0.3,0-0.5,0.2-0.5,0.5v4.1L14,16.2c-0.3,0.3-0.1,0.9,0.4,0.9h1.8v2.9l0.1,1c-1.8,0.3-3.1-0.5-2.8-1.8c-1.2-0.1-1.6,0.3-2.2,0.8
				C12.9,25.4,18,29.4,24,29.4z"/>
			<path fill="#009588" d="M21.5,18.6v-1.8c0-0.3,0.2-0.5,0.5-0.5h4.1c0.3,0,0.5,0.2,0.5,0.5v1.5c-0.4,0.2-0.7,0.4-0.9,0.6
				c0,0-0.1,0-0.1,0.1v-1.6h-3v2.6c-0.3,0-0.5-0.1-0.7-0.2c-0.3-0.2-0.4-0.4-0.3-0.7C21.6,18.9,21.5,18.8,21.5,18.6z"/>
			<path fill="#009588" d="M20.8,19.2c-0.3,1.3,1.1,2.1,3.1,1.8c2.4-0.5,2.2-2,4.2-1.8c-0.3,1.2,1,2,2.8,1.8c0,0,0,0,0,0
				c0.1,0,0.2,0,0.2,0c2.4-0.5,2.2-2,4.2-1.8c-0.2,0.8,0.2,1.4,1,1.6c-1.9,5-6.7,8.6-12.4,8.6c-6,0-11.1-4-12.7-9.4
				c0.6-0.5,1-0.9,2.2-0.8c-0.3,1.2,1,2.1,2.8,1.8c0,0,0,0,0,0c0.1,0,0.1,0,0.2,0C19,20.5,18.8,18.9,20.8,19.2z"/>
			<path fill="#009588" d="M21.1,9.1l2.4-2.4c0.2-0.2,0.5-0.2,0.7,0l9.5,9.5c0.3,0.3,0.1,0.9-0.4,0.9h-1.8v2.7
				c-0.2,0-0.3,0.1-0.5,0.1c-0.1,0-0.2,0-0.3,0c-0.1,0-0.2,0-0.3,0v-3.4c0-0.3,0.2-0.5,0.5-0.5h1.1l-8.2-8.2L21,10.7
				c-0.3,0.3-0.9,0.1-0.9-0.4v-1h-1.7v3.8c0,0.1,0,0.3-0.1,0.4L15.6,16h1.1c0.3,0,0.5,0.2,0.5,0.5v3.1c-0.2,0.1-0.5,0.2-0.8,0.2
				c-0.1,0-0.2,0-0.2,0v-2.9h-1.8c-0.5,0-0.7-0.5-0.4-0.9l3.3-3.3V8.8c0-0.3,0.2-0.5,0.5-0.5h2.7c0.3,0,0.5,0.2,0.5,0.5V9.1z"/>
			<path fill="#009588" d="M37.2,21c0.6-1.5,0.9-3.2,0.9-5c0-7.8-6.3-14.1-14.1-14.1C16.2,1.9,9.9,8.2,9.9,16c0,1.6,0.2,3.1,0.7,4.5
				c1.9,5.6,7.2,9.7,13.4,9.7C30.1,30.2,35.2,26.4,37.2,21z M8,16C8,7.2,15.2,0,24,0s16,7.2,16,16c0,1.6-0.2,3.2-0.7,4.6
				c-0.2,0.7-0.5,1.4-0.8,2c-0.2,0.4-0.3,0.7-0.5,1l-0.4,0.7l-4,6.9l-1.8,3.1l-3.7,6.3L23.9,48l-4.3-7.4l-5.4-9.4l-4-6.9l-0.4-0.7
				c-0.2-0.4-0.5-0.9-0.6-1.3c-0.3-0.6-0.5-1.2-0.7-1.8C8.1,19.2,7.9,17.7,8,16z"/>
		</g>
	</g>
</g>
<g id="House">
</g>
<g id="WhitePanel">
</g>
</svg>
