<?xml version="1.0" encoding="utf-8"?>
<!-- Generator: Adobe Illustrator 18.0.0, SVG Export Plug-In . SVG Version: 6.00 Build 0)  -->
<!DOCTYPE svg PUBLIC "-//W3C//DTD SVG 1.1//EN" "http://www.w3.org/Graphics/SVG/1.1/DTD/svg11.dtd">
<svg version="1.1" xmlns="http://www.w3.org/2000/svg" xmlns:xlink="http://www.w3.org/1999/xlink" x="0px" y="0px"
	 viewBox="0 0 240 240" enable-background="new 0 0 240 240" xml:space="preserve">
<g id="Layer_2" display="none">
	<rect x="0" display="inline" fill="#404040" width="240" height="240"/>
</g>
<g id="Layer_5">
	<path opacity="0.5" fill="#FFFFFF" d="M158.7,134.8c0,0.3-0.2,0.5-0.5,0.5c-0.3,0-0.5-0.2-0.5-0.5l-1.9-44
		c2.2-5.3,4.1-10.8,5.6-16.3L158.7,134.8z M158.2,0.6l16.9,24.2L163.8,19l-0.9,21.2c-1.5-0.5-3-0.7-4.7-0.7s-3.2,0.2-4.6,0.7
		L152.7,19l-11.3,5.8L158.2,0.6z"/>
</g>
<g id="Layer_4">
	<path fill="#80CBC4" d="M158.2,39.5c8.5,0,15.4,6.9,15.4,15.4c0,6.5-4.1,12.4-10.3,14.5l-0.7,0.2c0.2-1,0.5-1.9,0.7-2.9
		c4.7-2,7.9-6.7,7.9-11.9c0-7.1-5.8-12.9-12.9-12.9c-7.1,0-12.9,5.8-12.9,12.9c0,1.6,0.3,3.2,0.9,4.7c-0.4,1.1-0.8,2.1-1.3,3.1
		l-0.5-1c-1-2.1-1.5-4.4-1.5-6.8C142.8,46.4,149.8,39.5,158.2,39.5z"/>
</g>
<g id="Layer_3">
	<g id="XMLID_1_" opacity="0.9">
		<g>
			<path fill="#707070" d="M134.3,211.2c-7.4,3.6-9.1,13.4-14.4,19.7c-3.9,4.7-10.1,7.4-16.2,7.1c-3.4-0.1-6.6-1.2-9.5-2.8
				c-3-1.6-5.8-3.5-8.9-4.7c-7.1-2.7-14.4-5.6-21.2-9c-2.7-1.4-6.3-4.2-8-5.3c-3.3-1.9-3.9-6.8-2.5-10.8c1.5-4,4.4-7.4,6-11.3
				c1.2-3,2-7.2,1.9-10.4c-0.5-13,0.4-23,0.8-37c0.1-3.4-0.1-6.8,0.5-10.1c0.6-3.3,2.8-6.4,4-9.6c1.4-3.4,2.7-6.9,4.1-10.3
				c1.1-2.8,2.3-5.7,4.4-7.8c2.1-2.1,5.5-3.2,8.2-1.9l0.4,0.1c1.5-4.6,3.1-9.2,6.2-12.9c1.1-1.3,2.4-2.6,4-3.2
				c1.6-0.6,3.4-0.6,5.1-0.6l0.2,0c0.9-4.8,2.3-9.4,5-13.5c1.2-1.9,2.8-3.7,4.8-4.6c2.8-1.3,6.2-0.8,9,0.6c2.8,1.4,5.1,3.5,7.3,5.7
				c2.3,2.2,4.6,4.4,6.9,6.6l0.3,0.1c1.9-4.9,3.9-9.7,7.1-13.8c1.2-1.6,2.5-4,3.6-5.7c1.9-3,2.9-5.6,4.1-9c1.3-3.3,3.1-6.7,6-8.7
				c3-2,7.4-2.2,9.9,0.5c2.3,2.5,2.1,6.3,1.6,9.6c-2,13.5-6,26.7-11.8,39c-1.4,3-2.8,6.1-3.4,9.4c-2.7,14.7-1.8,30,2.6,44.3
				c0.3,1.1,0.7,2.1,1.4,2.9c0.8,0.8,3,2,3.7,1.2c0.4-0.5,0.8-1,1.2-1.6c5.5-7.5,5.1-17.7,8.4-26.3c1.6-4.1,4-7.8,7-11
				c1.9-1.9,4.1-3.7,6.8-4.3c2.6-0.7,5.7-0.1,7.4,2c1.7,2,1.8,5,1.3,7.6c-0.5,2.6-1.6,5.1-1.9,7.7c-0.7,5.3,1.6,10.7,1,16
				c-0.3,2.6-1.3,5-2.3,7.5c-2.6,6.8-4.6,13.8-6.1,20.9c-0.3,1.3-0.5,2.7-1.1,3.9c-0.6,1.2-1.5,2.3-2.4,3.4
				c-7.1,8.1-15.4,15.1-24.6,20.9c-3.9,2.4-6.6,6.1-10.9,7.5C138.8,209.8,136.5,210.2,134.3,211.2z"/>
		</g>
	</g>
	<g>
		<path fill="none" stroke="#000000" stroke-linecap="round" stroke-linejoin="round" d="M132.3,85.1c-2.3-2.2-4.6-4.4-6.9-6.6
			c-2.2-2.1-4.5-4.3-7.3-5.7c-2.8-1.4-6.2-1.9-9-0.6c-2,0.9-3.6,2.7-4.8,4.6c-7.4,11.4-5,26.6-10,39.3"/>
		<path fill="none" stroke="#000000" stroke-linecap="round" stroke-linejoin="round" d="M99.1,90.4c-1.7,0-3.5-0.1-5.1,0.6
			c-1.6,0.6-2.9,1.8-4,3.2c-5.9,7.1-6.3,17.4-11.2,25.3"/>
		<path fill="none" stroke="#000000" stroke-linecap="round" stroke-linejoin="round" d="M83.5,106.9c-2.7-1.4-6.1-0.2-8.2,1.9
			c-2.1,2.1-3.3,5-4.4,7.8c-1.4,3.4-2.7,6.9-4.1,10.3c-1.2,3.1-3.4,6.3-4,9.6c-0.6,3.3-0.4,6.8-0.5,10.1c-0.3,13.9-1.2,24-0.8,37
			c0.1,3.2-0.7,7.4-1.9,10.4c-1.6,4-4.5,7.3-6,11.3c-1.5,4-0.9,8.9,2.5,10.8c1.7,1.2,5.3,4,7.9,5.3c6.8,3.4,14.1,6.3,21.2,9
			c3.2,1.2,6,3.1,8.9,4.7c3,1.6,6.2,2.7,9.5,2.8c6.1,0.3,12.3-2.4,16.2-7.1c5.3-6.3,7-16,14.4-19.7c2.1-1,4.5-1.4,6.8-2.1
			c4.3-1.4,7.1-5.1,10.9-7.5c9.1-5.8,17.4-12.8,24.6-20.9c0.9-1,1.8-2.1,2.4-3.4c0.6-1.2,0.8-2.6,1.1-3.9c1.4-7.1,3.5-14.1,6.1-20.9
			c0.9-2.4,1.9-4.9,2.3-7.5c0.7-5.3-1.7-10.7-1-16c0.3-2.6,1.4-5.1,1.9-7.7c0.5-2.6,0.4-5.5-1.3-7.6c-1.8-2.1-4.8-2.7-7.4-2
			c-2.6,0.7-4.8,2.4-6.8,4.3c-3.1,3.1-5.5,6.9-7.1,11c-3.3,8.7-3,18.8-8.4,26.3c-0.4,0.5-0.8,1.1-1.2,1.6c-0.7,0.9-2.9-0.4-3.7-1.2
			c-0.8-0.8-1.1-1.9-1.4-2.9c-4.4-14.3-5.3-29.6-2.6-44.3c0.6-3.2,2-6.4,3.4-9.4c5.9-12.3,9.9-25.5,11.8-39c0.5-3.3,0.7-7.2-1.6-9.6
			c-2.4-2.6-6.9-2.5-9.9-0.5c-3,2-4.7,5.4-6,8.7c-1.3,3.3-2.2,5.9-4.1,9c-1.1,1.7-2.4,4.1-3.6,5.7c-8.1,10.9-9.3,25.8-17.4,36.6
			c-0.3,0.4-0.6,0.7-1,0.8c-1.2,0.3-1.7-1.4-1.7-2.6c0.1-6.6,0.2-13.3,0.4-19.9"/>
	</g>
</g>
</svg>
