<?xml version="1.0" encoding="utf-8"?>
<!-- Generator: Adobe Illustrator 21.0.2, SVG Export Plug-In . SVG Version: 6.00 Build 0)  -->
<!DOCTYPE svg PUBLIC "-//W3C//DTD SVG 1.1//EN" "http://www.w3.org/Graphics/SVG/1.1/DTD/svg11.dtd">
<svg version="1.1" id="Layer_1" xmlns="http://www.w3.org/2000/svg" xmlns:xlink="http://www.w3.org/1999/xlink" x="0px" y="0px"
	 viewBox="0 0 294 105" style="enable-background:new 0 0 294 105;" xml:space="preserve">
<style type="text/css">
	.st0{fill:#31AADE;}
	.st1{fill:#303030;stroke:#000000;stroke-width:0.5;stroke-miterlimit:10;}
</style>
<g id="Layer_1_1_">
</g>
<g id="Isolation_Mode">
	<g>
		<g>
			<path class="st0" d="M99.6,67.1L94,55.6h-4V67h-5.6V38.4h11.3c5.9,0,9.3,4,9.3,8.7c0,4-2.4,6.5-5.2,7.5l6.4,12.4h-6.5V67.1z
				 M95.3,43.3H90v7.5h5.3c2.4,0,4.1-1.5,4.1-3.8C99.4,44.9,97.7,43.3,95.3,43.3z"/>
			<path class="st0" d="M110.2,42.5v-4.3h5.3v4.3H110.2z M110.3,67.1v-21h5.2v21H110.3z"/>
			<path class="st0" d="M128.2,67.3c-3.3,0-6.3-0.3-8.9-3l3.4-3.5c1.8,1.8,4,2,5.6,2c1.8,0,3.8-0.6,3.8-2.2c0-1-0.6-1.8-2.2-1.9
				l-3.3-0.3c-3.8-0.3-6.1-2-6.1-5.9c0-4.3,3.9-6.6,8.1-6.6c3.2,0,6,0.6,7.9,2.4l-3.2,3.2c-1.2-1.1-3.1-1.4-4.9-1.4c-2.1,0-3,1-3,2
				c0,0.8,0.3,1.7,2.2,1.8l3.3,0.3c4.2,0.4,6.2,2.6,6.2,6.2C137.2,65.1,133.2,67.3,128.2,67.3z"/>
			<path class="st0" d="M154.2,67.1l-5.2-8.7l-2.2,2.5v6.2h-5.2V38.4h5.2v16.2l7-8.6h6.3l-7.5,8.4l8.1,12.5h-6.4V67.1z"/>
			<path class="st1" d="M190.7,55c0-3.8-1.9-5.7-5.3-5.7c-3.4,0-5.5,2.1-5.5,5.4v12.4h-2V55c0-3.8-1.9-5.7-5.3-5.7
				c-3.4,0-5.5,2.1-5.5,5.7v12H165V47.6h2.1V50c1.4-1.7,3.4-2.5,5.7-2.5c2.9,0,5.1,1.2,6.2,3.5c1.4-2.3,3.8-3.5,6.6-3.5
				c2.1,0,3.9,0.7,5.1,1.9c1.3,1.3,2,3.1,2,5.4v12.4h-2V55z"/>
			<path class="st1" d="M211.7,65.1c-1.7,1.7-3.2,2.2-6,2.2c-2.9,0-4.4-0.4-5.7-1.8c-0.9-0.9-1.4-2.3-1.4-3.8c0-3.5,2.5-5.6,6.7-5.6
				h6.3v-2.2c0-3.1-1.4-4.7-5.5-4.7c-2.8,0-4.1,0.7-5.3,2.4l-1.4-1.3c1.7-2.3,3.6-3,6.8-3c5.2,0,7.5,2.3,7.5,6.4V67h-2.1v-1.9H211.7
				z M205.7,57.8c-3.3,0-5,1.3-5,3.9c0,2.5,1.5,3.8,5.1,3.8c1.8,0,3.4-0.1,4.9-1.4c0.8-0.7,1.1-1.9,1.1-3.6v-2.5H205.7z"/>
			<path class="st1" d="M234,65.5c-1,1-2.6,1.7-4.7,1.7c-2.2,0-4-0.4-5.7-2.8v11.8h-2.1V47.6h2.1v2.5c1.8-2.2,3.5-2.8,5.7-2.8
				c2.1,0,3.8,0.7,4.7,1.7c2,2,2.5,5.2,2.5,8.3C236.4,60.3,236,63.7,234,65.5z M228.9,49.2c-4.7,0-5.5,4.1-5.5,8.2
				c0,4,0.8,8.2,5.5,8.2s5.5-4.1,5.5-8.2S233.6,49.2,228.9,49.2z"/>
			<path class="st1" d="M243,64.1h3v3h-3V64.1z"/>
			<path class="st1" d="M266.3,64.8c-1.4,1.7-3.3,2.5-5.7,2.5c-2.1,0-3.9-0.6-5.2-1.9c-1.3-1.3-2-3.1-2-5.4V47.6h2.1v12
				c0,3.8,1.9,5.7,5.3,5.7s5.5-2.1,5.5-5.7v-12h2.1v19.4h-2.1V64.8z"/>
			<path class="st1" d="M282.2,67.3c-3.4,0-5.9-0.9-7.8-2.8l1.4-1.4c1.4,1.5,3.6,2.3,6.4,2.3c3.9,0,5.9-1.3,5.9-4
				c0-2.1-1.1-3-3.6-3.3l-3.2-0.3c-3.9-0.3-5.9-2-5.9-5.1c0-3.4,2.8-5.5,7-5.5c2.6,0,5.1,0.8,6.8,2.1l-1.3,1.3
				c-1.4-1.1-3.3-1.7-5.4-1.7c-3.2,0-5,1.3-5,3.8c0,2.1,1.2,3,4,3.2l3.1,0.3c3.2,0.3,5.6,1.3,5.6,5.1C290,65.1,287,67.3,282.2,67.3z
				"/>
		</g>
		<g>
			<g>
				<g>
					<path class="st0" d="M34.8,32.9c-2.5-0.6-4.7-1-6.6-2.9c-3.6-3.6-3.5-9.5,0.1-13.1c3.1-3.1,7.3-3.2,11.3-1.9
						c5.7,1.9,11.2,5.2,15.3,9.5c7.5,7.6,11.3,17.6,11.3,27.4c0,9.9-3.9,19.8-11.4,27.4c-6.3,6.3-14.1,9.9-22.3,11
						c-1.8,0.3-4.7,0.9-10.3,0.2c6,0.2,8.5-0.3,10-0.8c19.3-5.1,28.3-27.9,18.3-44.2C47.1,39.7,41.6,34.4,34.8,32.9z"/>
					<path class="st0" d="M35.5,68.8c0.4-5.1-0.9-10.2-3.8-14.4c-1.3-2-2.5-3.5-2.6-6.1c-0.1-2.2,0.8-4.3,2.3-5.9
						c3.2-3.2,8.5-3.1,11.8,0.3c0.6,0.6,0.9,1,1.4,1.8c1.4,1.8,3.4,6.1,4.4,9.7c2,7.6,0.7,15.3-3,21.5s-9.8,10.9-17.3,12.8
						c-6.3,1.5-12.7,0.8-18.2-1.7c-1.2-0.6-3.3-1.3-6.5-3.9c3.8,2.4,20.4,9.5,30.4-9.3C35.1,72.2,35.4,70.5,35.5,68.8z"/>
				</g>
			</g>
		</g>
	</g>
</g>
</svg>
