<svg id="Layer_1" data-name="Layer 1" xmlns="http://www.w3.org/2000/svg" viewBox="0 0 256 78.99"><defs><style>.cls-1{fill:#4c4c4c;}.cls-2{fill:#a61d37;}</style></defs><title>TataCenter_Logo_Web</title><path class="cls-1" d="M18.24,38.83H10.68V35H30v3.83H22.42V63.48H18.24Z" transform="translate(-8 -34.77)"/><path class="cls-1" d="M47.12,57.11H36.66l-2.12,6.37H30.11L40.14,35h3.5l10,28.48H49.26Zm-1.19-3.82-4-12.46h-.08l-4,12.46Z" transform="translate(-8 -34.77)"/><path class="cls-1" d="M61.5,38.83H53.94V35h19.3v3.83H65.67V63.48H61.5Z" transform="translate(-8 -34.77)"/><path class="cls-1" d="M90.38,57.11H79.91L77.8,63.48H73.37L83.4,35h3.5l10,28.48H92.51Zm-1.19-3.82-4-12.46h-.08l-4,12.46Z" transform="translate(-8 -34.77)"/><path class="cls-1" d="M133.63,55.52a10.74,10.74,0,0,1-3.46,6.08,9.66,9.66,0,0,1-6.23,2.11,9.92,9.92,0,0,1-8.64-5.12q-.3-.64-.55-1.23a8.23,8.23,0,0,1-.38-1.52,49.22,49.22,0,0,1-.28-6.6,49.11,49.11,0,0,1,.28-6.64,8,8,0,0,1,.93-2.71,9.72,9.72,0,0,1,3.22-3.52,9.95,9.95,0,0,1,11.94.84,10.83,10.83,0,0,1,3.18,6H129.2a6.3,6.3,0,0,0-1.86-2.94,5.36,5.36,0,0,0-3.41-1.19,5.64,5.64,0,0,0-2.54.61,5.32,5.32,0,0,0-1.74,1.47,4.79,4.79,0,0,0-1.08,2.37,35.17,35.17,0,0,0-.3,5.73,34.3,34.3,0,0,0,.3,5.7,4.81,4.81,0,0,0,1.08,2.41,4.93,4.93,0,0,0,1.74,1.43,4.79,4.79,0,0,0,2.54.65q3.53,0,5.27-3.9Z" transform="translate(-8 -34.77)"/><path class="cls-1" d="M139.67,35h17.62v4.06H143.85v8.15h11.48V51H143.85v8.38h13.44v4.06H139.67Z" transform="translate(-8 -34.77)"/><path class="cls-1" d="M164.32,35h3.94l12.49,20.24h.08V35H185V63.48h-4L168.57,43.24h-.08V63.48h-4.18Z" transform="translate(-8 -34.77)"/><path class="cls-1" d="M198.77,38.83h-7.56V35h19.3v3.83h-7.56V63.48h-4.18Z" transform="translate(-8 -34.77)"/><path class="cls-1" d="M216.48,35H234.1v4.06H220.66v8.15h11.48V51H220.66v8.38H234.1v4.06H216.48Z" transform="translate(-8 -34.77)"/><path class="cls-1" d="M241.13,35H251.9a8.32,8.32,0,0,1,5.63,1.88A7.68,7.68,0,0,1,260.26,43a7.91,7.91,0,0,1-5.33,7.89l6.38,12.64h-5l-5.71-12.17H245.3V63.48h-4.18Zm4.18,12.48h6.33a4.4,4.4,0,0,0,4.68-4.54,3.85,3.85,0,0,0-1.38-3.23,4.7,4.7,0,0,0-3.07-.88H245.3Z" transform="translate(-8 -34.77)"/><path class="cls-1" d="M15.15,99.17H10.72V96.92H22v2.24H17.6v14.45H15.15Z" transform="translate(-8 -34.77)"/><path class="cls-1" d="M24.86,96.92H35.19v2.38H27.31v4.78H34v2.24H27.31v4.91h7.88v2.38H24.86Z" transform="translate(-8 -34.77)"/><path class="cls-1" d="M49.54,109a6.3,6.3,0,0,1-2,3.57,5.67,5.67,0,0,1-3.65,1.23,5.81,5.81,0,0,1-5.07-3c-.12-.25-.23-.49-.32-.72a4.79,4.79,0,0,1-.22-.89,28.82,28.82,0,0,1-.17-3.87,28.83,28.83,0,0,1,.17-3.89,4.7,4.7,0,0,1,.54-1.59,5.68,5.68,0,0,1,1.89-2.06,5.83,5.83,0,0,1,7,.49,6.35,6.35,0,0,1,1.86,3.51h-2.6A3.7,3.7,0,0,0,45.85,100a3.14,3.14,0,0,0-2-.7,3.31,3.31,0,0,0-1.49.35,3.12,3.12,0,0,0-1,.86,2.81,2.81,0,0,0-.63,1.39,20.61,20.61,0,0,0-.18,3.36,20.17,20.17,0,0,0,.18,3.34,2.82,2.82,0,0,0,.63,1.41,2.88,2.88,0,0,0,1,.84,2.81,2.81,0,0,0,1.49.38A3.3,3.3,0,0,0,46.94,109Z" transform="translate(-8 -34.77)"/><path class="cls-1" d="M61.26,106.32H54.85v7.3H52.4V96.92h2.45v7.16h6.41V96.92h2.45v16.7H61.26Z" transform="translate(-8 -34.77)"/><path class="cls-1" d="M68.32,96.92h2.31L78,108.79h0V96.92h2.45v16.7H78.13l-7.31-11.87h0v11.87H68.32Z" transform="translate(-8 -34.77)"/><path class="cls-1" d="M84.54,105.27a28.85,28.85,0,0,1,.17-3.9,4.73,4.73,0,0,1,.54-1.6,5.69,5.69,0,0,1,1.88-2.05,5.45,5.45,0,0,1,3.18-.94,5.56,5.56,0,0,1,5.06,3,3.91,3.91,0,0,1,.57,1.59,33.3,33.3,0,0,1,.14,3.89,33.38,33.38,0,0,1-.14,3.87,3.94,3.94,0,0,1-.57,1.61,5.38,5.38,0,0,1-1.84,2,5.65,5.65,0,0,1-3.21,1,5.81,5.81,0,0,1-5.07-3c-.12-.25-.23-.49-.32-.72a4.79,4.79,0,0,1-.22-.89A28.82,28.82,0,0,1,84.54,105.27Zm2.45,0a20.17,20.17,0,0,0,.18,3.34A2.82,2.82,0,0,0,87.8,110a2.87,2.87,0,0,0,1,.84,2.8,2.8,0,0,0,1.49.38,3,3,0,0,0,1.52-.38,2.72,2.72,0,0,0,1-.84,3,3,0,0,0,.66-1.41,21.58,21.58,0,0,0,.17-3.34,22.05,22.05,0,0,0-.17-3.36,3.51,3.51,0,0,0-1.63-2.25,3.49,3.49,0,0,0-1.52-.35,3.31,3.31,0,0,0-1.49.35,3.12,3.12,0,0,0-1,.86,2.81,2.81,0,0,0-.63,1.39A20.61,20.61,0,0,0,87,105.27Z" transform="translate(-8 -34.77)"/><path class="cls-1" d="M100.12,96.92h2.45v14.31h7.88v2.38H100.12Z" transform="translate(-8 -34.77)"/><path class="cls-1" d="M113.34,105.27a28.85,28.85,0,0,1,.17-3.9,4.73,4.73,0,0,1,.54-1.6,5.69,5.69,0,0,1,1.88-2.05,5.45,5.45,0,0,1,3.18-.94,5.56,5.56,0,0,1,5.06,3,3.91,3.91,0,0,1,.57,1.59,33.3,33.3,0,0,1,.14,3.89,33.38,33.38,0,0,1-.14,3.87,3.94,3.94,0,0,1-.57,1.61,5.38,5.38,0,0,1-1.84,2,5.65,5.65,0,0,1-3.21,1,5.81,5.81,0,0,1-5.07-3c-.12-.25-.23-.49-.32-.72a4.79,4.79,0,0,1-.22-.89A28.82,28.82,0,0,1,113.34,105.27Zm2.45,0a20.17,20.17,0,0,0,.18,3.34,2.82,2.82,0,0,0,.63,1.41,2.87,2.87,0,0,0,1,.84,2.8,2.8,0,0,0,1.49.38,3,3,0,0,0,1.52-.38,2.72,2.72,0,0,0,1-.84,3,3,0,0,0,.66-1.41,21.58,21.58,0,0,0,.17-3.34,22.05,22.05,0,0,0-.17-3.36,3.51,3.51,0,0,0-1.63-2.25,3.49,3.49,0,0,0-1.52-.35,3.31,3.31,0,0,0-1.49.35,3.12,3.12,0,0,0-1,.86,2.81,2.81,0,0,0-.63,1.39A20.61,20.61,0,0,0,115.79,105.27Z" transform="translate(-8 -34.77)"/><path class="cls-1" d="M134.16,104.44h5.75v3.4a6,6,0,0,1-1.66,4.2,5.63,5.63,0,0,1-4.1,1.73,5.81,5.81,0,0,1-5.07-3c-.12-.25-.23-.49-.32-.72a4.79,4.79,0,0,1-.22-.89,28.82,28.82,0,0,1-.17-3.87,28.75,28.75,0,0,1,.17-3.89,4.7,4.7,0,0,1,.54-1.59A5.69,5.69,0,0,1,131,97.73a5.82,5.82,0,0,1,7,.49,6.36,6.36,0,0,1,1.86,3.51h-2.6a3.71,3.71,0,0,0-1.09-1.73,3.14,3.14,0,0,0-2-.7,3.31,3.31,0,0,0-1.49.35,3.12,3.12,0,0,0-1,.86,2.8,2.8,0,0,0-.63,1.39,20.61,20.61,0,0,0-.18,3.36,20.17,20.17,0,0,0,.18,3.34,2.82,2.82,0,0,0,.63,1.41,2.87,2.87,0,0,0,1,.84,2.8,2.8,0,0,0,1.49.38,3.08,3.08,0,0,0,2.37-1,3.57,3.57,0,0,0,1-2.54v-.87h-3.3Z" transform="translate(-8 -34.77)"/><path class="cls-1" d="M146.77,106.75l-4.87-9.83h2.6l3.43,7.41,3.43-7.41h2.6l-4.87,9.83v6.87h-2.31Z" transform="translate(-8 -34.77)"/><path class="cls-1" d="M167,101.76h1.76v5h4.85v1.83h-4.85v5H167v-5h-4.87v-1.83H167Z" transform="translate(-8 -34.77)"/><path class="cls-1" d="M183.9,96.92h5.66a5.4,5.4,0,0,1,4.93,2.82,5.13,5.13,0,0,1,.74,2,35,35,0,0,1,.12,3.56,25.08,25.08,0,0,1-.19,3.76,4.33,4.33,0,0,1-.27,1,9.09,9.09,0,0,1-.46.86,5.73,5.73,0,0,1-2,1.95,5.47,5.47,0,0,1-3.07.82H183.9Zm2.45,14.31h2.93a3.3,3.3,0,0,0,3-1.46,2.83,2.83,0,0,0,.52-1.37,30.08,30.08,0,0,0,.1-3.05q0-2.18-.1-3.12a2.93,2.93,0,0,0-.63-1.53,3.22,3.22,0,0,0-2.89-1.41h-2.93Z" transform="translate(-8 -34.77)"/><path class="cls-1" d="M199.4,96.92h10.33v2.38h-7.88v4.78h6.73v2.24h-6.73v4.91h7.88v2.38H199.4Z" transform="translate(-8 -34.77)"/><path class="cls-1" d="M213.37,109.58a7,7,0,0,0,4.6,1.66q3.15,0,3.2-2.33,0-1.87-2.11-2.25l-2.14-.31a5.23,5.23,0,0,1-3.17-1.59,4.52,4.52,0,0,1-1.12-3.09A4.65,4.65,0,0,1,214,98.14a5.38,5.38,0,0,1,3.87-1.35,8.9,8.9,0,0,1,5.24,1.72l-1.37,2.08a7.24,7.24,0,0,0-4-1.28,3,3,0,0,0-1.89.58,2.2,2.2,0,0,0-.81,1.81,1.87,1.87,0,0,0,.54,1.31,3.08,3.08,0,0,0,1.74.83q.66.11,1.82.26a5,5,0,0,1,3.36,1.68,4.84,4.84,0,0,1,1.08,3.12q-.12,4.79-5.67,4.86a9,9,0,0,1-6.17-2.28Z" transform="translate(-8 -34.77)"/><path class="cls-1" d="M227.35,96.92h2.45v16.7h-2.45Z" transform="translate(-8 -34.77)"/><path class="cls-1" d="M239.37,104.44h5.75v3.4a6,6,0,0,1-1.66,4.2,5.63,5.63,0,0,1-4.1,1.73,5.81,5.81,0,0,1-5.07-3c-.12-.25-.23-.49-.32-.72a4.8,4.8,0,0,1-.22-.89,28.73,28.73,0,0,1-.17-3.87,28.66,28.66,0,0,1,.17-3.89,4.68,4.68,0,0,1,.54-1.59,5.68,5.68,0,0,1,1.88-2.06,5.82,5.82,0,0,1,7,.49,6.35,6.35,0,0,1,1.86,3.51h-2.6a3.72,3.72,0,0,0-1.09-1.73,3.14,3.14,0,0,0-2-.7,3.31,3.31,0,0,0-1.49.35,3.12,3.12,0,0,0-1,.86,2.81,2.81,0,0,0-.63,1.39,20.59,20.59,0,0,0-.18,3.36,20.15,20.15,0,0,0,.18,3.34,2.82,2.82,0,0,0,.63,1.41,2.87,2.87,0,0,0,1,.84,2.81,2.81,0,0,0,1.49.38,3.08,3.08,0,0,0,2.37-1,3.57,3.57,0,0,0,1-2.54v-.87h-3.3Z" transform="translate(-8 -34.77)"/><path class="cls-1" d="M249.15,96.92h2.31l7.32,11.87h0V96.92h2.45v16.7H259l-7.31-11.87h0v11.87h-2.45Z" transform="translate(-8 -34.77)"/><rect class="cls-2" y="40.23" width="256" height="10.5"/></svg>