<?xml version="1.0" encoding="utf-8"?>
<!-- Generator: Adobe Illustrator 19.1.0, SVG Export Plug-In . SVG Version: 6.00 Build 0)  -->
<svg version="1.1" xmlns="http://www.w3.org/2000/svg" xmlns:xlink="http://www.w3.org/1999/xlink" x="0px" y="0px"
	 viewBox="0 0 447.9 94.1" style="enable-background:new 0 0 447.9 94.1;" xml:space="preserve">
<style type="text/css">
	.st0{fill:#010101;}
	.st1{opacity:0.6;fill:#010101;enable-background:new    ;}
	.st2{fill:none;stroke:#F05224;stroke-width:2;stroke-miterlimit:10;}
</style>
<g id="Layer_1">
	<g id="Layer_1_1_">
		<g>
			<rect x="79.8" y="30.3" class="st0" width="16.4" height="7"/>
			<rect x="44.5" y="30.3" class="st0" width="7" height="22.3"/>
			<rect x="56.2" y="30.3" class="st0" width="7" height="32.9"/>
			<rect x="32.8" y="30.3" class="st0" width="7" height="32.9"/>
			<rect x="79.8" y="42" class="st0" width="7" height="21.1"/>
			<rect x="68" y="30.3" class="st0" width="7" height="7"/>
			<rect x="68" y="42" class="st1" width="7" height="21.1"/>
		</g>
	</g>
	<g id="Layer_3">
		<line class="st2" x1="108.9" y1="26" x2="108.9" y2="67"/>
	</g>
	<g id="Isolation_Mode">
	</g>
</g>
<g id="Layer_3_1_">
	<g>
		<path d="M127.7,31.7v19.8c0,1.8,0.2,3.4,0.6,4.7c0.4,1.3,1,2.4,1.8,3.2c0.8,0.8,1.8,1.4,3,1.8c1.2,0.4,2.5,0.6,3.9,0.6
			c1.5,0,2.8-0.2,4-0.6c1.2-0.4,2.1-1,3-1.8c0.8-0.8,1.4-1.9,1.8-3.2c0.4-1.3,0.6-2.9,0.6-4.7V31.7h3v20.4c0,1.6-0.2,3.2-0.7,4.7
			s-1.2,2.8-2.2,3.9c-1,1.1-2.3,2-3.8,2.6c-1.6,0.6-3.5,1-5.7,1c-2.2,0-4.1-0.3-5.7-1c-1.6-0.6-2.8-1.5-3.8-2.6
			c-1-1.1-1.7-2.4-2.2-3.9c-0.5-1.5-0.7-3-0.7-4.7V31.7H127.7z"/>
		<path d="M157.7,40.6V46h0.1c0.7-1.9,1.8-3.3,3.3-4.3c1.5-1,3.3-1.5,5.4-1.4v2.8c-1.3-0.1-2.4,0.1-3.5,0.5c-1,0.4-1.9,1-2.7,1.7
			c-0.8,0.7-1.3,1.6-1.8,2.7c-0.4,1-0.6,2.2-0.6,3.4v12.3h-2.8V40.6H157.7z"/>
		<path d="M172,31.7v13.2h0.1c0.3-0.8,0.7-1.6,1.3-2.2c0.6-0.6,1.2-1.2,1.9-1.6c0.7-0.4,1.5-0.8,2.3-1c0.8-0.2,1.7-0.3,2.5-0.3
			c1.8,0,3.3,0.3,4.6,1c1.3,0.7,2.4,1.5,3.2,2.7c0.9,1.1,1.5,2.4,1.9,3.9c0.4,1.5,0.6,3,0.6,4.7c0,1.6-0.2,3.2-0.6,4.7
			c-0.4,1.5-1.1,2.8-1.9,3.9c-0.9,1.1-1.9,2-3.2,2.6c-1.3,0.6-2.8,1-4.6,1c-1.9,0-3.6-0.4-5-1.3c-1.5-0.9-2.5-2.1-3.2-3.7h-0.1v4.4
			h-2.6V31.7H172z M187.2,48.5c-0.3-1.2-0.7-2.2-1.3-3.2c-0.6-0.9-1.4-1.7-2.3-2.3c-1-0.6-2.1-0.9-3.4-0.9c-1.5,0-2.8,0.3-3.8,0.9
			c-1,0.6-1.9,1.3-2.5,2.3c-0.6,0.9-1.1,2-1.4,3.2s-0.4,2.4-0.4,3.6c0,1.2,0.1,2.4,0.4,3.6c0.3,1.2,0.7,2.2,1.4,3.2
			c0.6,0.9,1.5,1.7,2.5,2.3c1,0.6,2.3,0.9,3.8,0.9c1.3,0,2.5-0.3,3.4-0.9c1-0.6,1.7-1.3,2.3-2.3s1.1-2,1.3-3.2
			c0.3-1.2,0.4-2.4,0.4-3.6C187.6,50.9,187.5,49.7,187.2,48.5z"/>
		<path d="M195.4,44.1c0.5-1,1.1-1.8,1.9-2.4c0.8-0.6,1.8-1.1,2.9-1.4s2.3-0.4,3.7-0.4c1,0,2,0.1,3,0.3c1,0.2,1.9,0.6,2.7,1.1
			s1.5,1.3,2,2.3c0.5,1,0.8,2.2,0.8,3.8v12.2c0,1.1,0.6,1.7,1.7,1.7c0.3,0,0.6-0.1,0.9-0.2v2.4c-0.3,0.1-0.6,0.1-0.9,0.1
			c-0.3,0-0.6,0-1,0c-0.7,0-1.3-0.1-1.7-0.3c-0.4-0.2-0.8-0.5-1-0.8c-0.2-0.4-0.4-0.8-0.5-1.3c-0.1-0.5-0.1-1-0.1-1.6h-0.1
			c-0.5,0.7-1,1.4-1.5,2c-0.5,0.6-1.1,1.1-1.7,1.5s-1.4,0.7-2.2,0.9c-0.8,0.2-1.8,0.3-2.9,0.3c-1.1,0-2.1-0.1-3-0.4
			c-0.9-0.3-1.8-0.7-2.5-1.2c-0.7-0.6-1.3-1.3-1.7-2.1c-0.4-0.8-0.6-1.9-0.6-3c0-1.6,0.4-2.9,1.1-3.8c0.7-0.9,1.7-1.6,2.8-2.1
			c1.2-0.5,2.5-0.8,4-1c1.5-0.2,3-0.4,4.5-0.6c0.6-0.1,1.1-0.1,1.6-0.2c0.4-0.1,0.8-0.2,1.1-0.5c0.3-0.2,0.5-0.5,0.7-0.9
			c0.2-0.4,0.2-0.9,0.2-1.5c0-1-0.2-1.7-0.5-2.3c-0.3-0.6-0.7-1.1-1.3-1.5c-0.6-0.4-1.2-0.6-1.9-0.7c-0.7-0.1-1.5-0.2-2.4-0.2
			c-1.8,0-3.2,0.4-4.4,1.3c-1.1,0.8-1.7,2.2-1.8,4.1h-2.8C194.6,46.3,194.9,45.1,195.4,44.1z M209.5,51c-0.2,0.3-0.5,0.6-1,0.7
			c-0.5,0.1-1,0.3-1.3,0.3c-1.2,0.2-2.4,0.4-3.7,0.6c-1.3,0.2-2.4,0.4-3.5,0.7c-1,0.3-1.9,0.8-2.6,1.4c-0.7,0.6-1,1.5-1,2.6
			c0,0.7,0.1,1.3,0.4,1.9c0.3,0.6,0.7,1,1.1,1.4c0.5,0.4,1,0.7,1.7,0.9c0.6,0.2,1.3,0.3,1.9,0.3c1.1,0,2.1-0.2,3.1-0.5
			c1-0.3,1.8-0.8,2.6-1.4c0.7-0.6,1.3-1.4,1.7-2.3c0.4-0.9,0.6-1.9,0.6-3L209.5,51L209.5,51z"/>
		<path d="M220.8,40.6v4h0.1c0.5-1.4,1.5-2.5,2.9-3.4c1.4-0.8,2.9-1.3,4.5-1.3c1.6,0,3,0.2,4,0.6c1.1,0.4,2,1,2.6,1.8
			c0.7,0.8,1.1,1.7,1.4,2.8s0.4,2.3,0.4,3.7v14.8h-2.8V49.2c0-1-0.1-1.9-0.3-2.8c-0.2-0.8-0.5-1.6-0.9-2.2c-0.4-0.6-1.1-1.1-1.8-1.5
			c-0.8-0.4-1.7-0.5-2.8-0.5c-1.1,0-2.1,0.2-3,0.6c-0.9,0.4-1.6,1-2.2,1.7s-1.1,1.5-1.4,2.5c-0.3,1-0.5,2-0.6,3.2v13.5H218V40.6
			H220.8z"/>
		<path d="M259.6,31.7c1.4,0,2.7,0.2,3.9,0.7c1.1,0.5,2.1,1.1,3,1.9c0.8,0.8,1.4,1.7,1.9,2.8c0.4,1.1,0.6,2.2,0.6,3.4
			c0,1.9-0.4,3.5-1.2,4.9c-0.8,1.4-2.1,2.4-3.9,3.1v0.1c0.9,0.2,1.6,0.6,2.1,1.1c0.6,0.5,1,1.1,1.4,1.7c0.4,0.7,0.6,1.4,0.8,2.2
			c0.2,0.8,0.3,1.6,0.3,2.4c0,0.5,0.1,1.1,0.1,1.8s0.1,1.4,0.2,2.1c0.1,0.7,0.2,1.4,0.4,2c0.2,0.6,0.4,1.2,0.7,1.6h-7
			c-0.4-1-0.6-2.2-0.7-3.6c-0.1-1.4-0.2-2.7-0.4-4c-0.2-1.7-0.7-2.9-1.5-3.7c-0.8-0.8-2-1.2-3.8-1.2h-7v12.5h-7V31.7H259.6z
			 M257.1,46.1c1.6,0,2.8-0.4,3.6-1.1s1.2-1.9,1.2-3.5c0-1.5-0.4-2.7-1.2-3.4s-2-1.1-3.6-1.1h-7.7v9H257.1z"/>
		<path d="M281.7,31.7v31.9h-7V31.7H281.7z"/>
		<path d="M293.2,55.8c0.4,0.7,0.9,1.3,1.5,1.8c0.6,0.5,1.4,0.8,2.3,1c0.9,0.2,1.8,0.3,2.7,0.3c0.6,0,1.3-0.1,2-0.2
			c0.7-0.1,1.4-0.3,2-0.6c0.6-0.3,1.1-0.7,1.6-1.2c0.4-0.5,0.6-1.2,0.6-2c0-0.9-0.3-1.6-0.8-2.1c-0.6-0.5-1.3-1-2.2-1.3
			c-0.9-0.4-1.9-0.7-3-0.9c-1.1-0.3-2.3-0.6-3.4-0.9c-1.2-0.3-2.4-0.7-3.5-1.1c-1.1-0.4-2.1-1-3-1.7c-0.9-0.7-1.6-1.5-2.2-2.6
			c-0.6-1-0.8-2.3-0.8-3.7c0-1.6,0.3-3.1,1.1-4.3c0.7-1.2,1.6-2.2,2.7-3c1.1-0.8,2.4-1.4,3.8-1.8c1.4-0.4,2.9-0.6,4.3-0.6
			c1.7,0,3.3,0.2,4.8,0.6c1.5,0.4,2.9,1,4.1,1.8c1.2,0.8,2.1,1.9,2.8,3.2c0.7,1.3,1.1,2.9,1.1,4.7h-6.8c-0.1-1-0.3-1.7-0.6-2.4
			c-0.3-0.6-0.8-1.1-1.4-1.5c-0.6-0.4-1.2-0.6-1.9-0.8c-0.7-0.1-1.5-0.2-2.4-0.2c-0.6,0-1.1,0.1-1.7,0.2c-0.6,0.1-1.1,0.3-1.5,0.6
			c-0.5,0.3-0.8,0.7-1.1,1.1s-0.4,1-0.4,1.7c0,0.6,0.1,1.1,0.4,1.5c0.2,0.4,0.7,0.7,1.4,1.1c0.7,0.3,1.7,0.7,2.9,1
			c1.2,0.3,2.9,0.7,4.8,1.3c0.6,0.1,1.4,0.3,2.5,0.6s2.1,0.8,3.2,1.5s1.9,1.6,2.7,2.7c0.8,1.1,1.1,2.6,1.1,4.4
			c0,1.5-0.3,2.8-0.8,4.1c-0.6,1.3-1.4,2.3-2.5,3.2c-1.1,0.9-2.5,1.6-4.2,2.1c-1.7,0.5-3.6,0.8-5.7,0.8c-1.8,0-3.5-0.2-5.1-0.6
			c-1.7-0.4-3.1-1.1-4.4-2s-2.3-2.1-3-3.5c-0.7-1.4-1.1-3.1-1.1-5.1h6.8C292.7,54.1,292.9,55,293.2,55.8z"/>
		<path d="M323.9,31.7v13.2l12.5-13.2h8.8l-12.5,12.6l13.7,19.3h-8.8l-9.6-14.4l-4,4.1v10.3h-7V31.7H323.9z"/>
		<path d="M352.3,31.7V61h17.9v2.6h-20.9V31.7H352.3z"/>
		<path d="M373.4,44.1c0.5-1,1.1-1.8,1.9-2.4c0.8-0.6,1.8-1.1,2.9-1.4c1.1-0.3,2.3-0.4,3.7-0.4c1,0,2,0.1,3,0.3
			c1,0.2,1.9,0.6,2.7,1.1s1.5,1.3,2,2.3c0.5,1,0.8,2.2,0.8,3.8v12.2c0,1.1,0.6,1.7,1.7,1.7c0.3,0,0.6-0.1,0.9-0.2v2.4
			c-0.3,0.1-0.6,0.1-0.9,0.1c-0.3,0-0.6,0-1,0c-0.7,0-1.3-0.1-1.7-0.3c-0.4-0.2-0.8-0.5-1-0.8c-0.2-0.4-0.4-0.8-0.5-1.3
			c-0.1-0.5-0.1-1-0.1-1.6h-0.1c-0.5,0.7-1,1.4-1.5,2c-0.5,0.6-1.1,1.1-1.7,1.5s-1.4,0.7-2.2,0.9c-0.8,0.2-1.8,0.3-2.9,0.3
			c-1.1,0-2.1-0.1-3-0.4c-0.9-0.3-1.8-0.7-2.5-1.2c-0.7-0.6-1.3-1.3-1.7-2.1c-0.4-0.8-0.6-1.9-0.6-3c0-1.6,0.4-2.9,1.1-3.8
			c0.7-0.9,1.7-1.6,2.8-2.1c1.2-0.5,2.5-0.8,4-1c1.5-0.2,3-0.4,4.5-0.6c0.6-0.1,1.1-0.1,1.6-0.2c0.4-0.1,0.8-0.2,1.1-0.5
			c0.3-0.2,0.5-0.5,0.7-0.9c0.2-0.4,0.2-0.9,0.2-1.5c0-1-0.2-1.7-0.5-2.3c-0.3-0.6-0.7-1.1-1.3-1.5c-0.6-0.4-1.2-0.6-1.9-0.7
			c-0.7-0.1-1.5-0.2-2.4-0.2c-1.8,0-3.2,0.4-4.4,1.3c-1.1,0.8-1.7,2.2-1.8,4.1h-2.8C372.6,46.3,372.9,45.1,373.4,44.1z M387.4,51
			c-0.2,0.3-0.5,0.6-1,0.7s-1,0.3-1.3,0.3c-1.2,0.2-2.4,0.4-3.7,0.6c-1.3,0.2-2.4,0.4-3.5,0.7c-1,0.3-1.9,0.8-2.6,1.4
			c-0.7,0.6-1,1.5-1,2.6c0,0.7,0.1,1.3,0.4,1.9s0.7,1,1.1,1.4c0.5,0.4,1,0.7,1.7,0.9c0.6,0.2,1.3,0.3,1.9,0.3c1.1,0,2.1-0.2,3.1-0.5
			c1-0.3,1.8-0.8,2.6-1.4c0.7-0.6,1.3-1.4,1.7-2.3c0.4-0.9,0.6-1.9,0.6-3L387.4,51L387.4,51z"/>
		<path d="M398.8,31.7v13.2h0.1c0.3-0.8,0.7-1.6,1.3-2.2c0.6-0.6,1.2-1.2,1.9-1.6c0.7-0.4,1.5-0.8,2.3-1c0.8-0.2,1.7-0.3,2.5-0.3
			c1.8,0,3.3,0.3,4.6,1c1.3,0.7,2.4,1.5,3.2,2.7c0.9,1.1,1.5,2.4,1.9,3.9c0.4,1.5,0.6,3,0.6,4.7c0,1.6-0.2,3.2-0.6,4.7
			c-0.4,1.5-1.1,2.8-1.9,3.9c-0.9,1.1-1.9,2-3.2,2.6c-1.3,0.6-2.8,1-4.6,1c-1.9,0-3.6-0.4-5-1.3c-1.5-0.9-2.5-2.1-3.2-3.7h-0.1v4.4
			H396V31.7H398.8z M414,48.5c-0.3-1.2-0.7-2.2-1.3-3.2c-0.6-0.9-1.4-1.7-2.3-2.3c-1-0.6-2.1-0.9-3.4-0.9c-1.5,0-2.8,0.3-3.8,0.9
			c-1,0.6-1.9,1.3-2.5,2.3c-0.6,0.9-1.1,2-1.4,3.2s-0.4,2.4-0.4,3.6c0,1.2,0.1,2.4,0.4,3.6c0.3,1.2,0.7,2.2,1.4,3.2s1.5,1.7,2.5,2.3
			c1,0.6,2.3,0.9,3.8,0.9c1.3,0,2.5-0.3,3.4-0.9c1-0.6,1.7-1.3,2.3-2.3c0.6-0.9,1.1-2,1.3-3.2c0.3-1.2,0.4-2.4,0.4-3.6
			C414.4,50.9,414.3,49.7,414,48.5z"/>
	</g>
</g>
</svg>
