<?xml version="1.0" encoding="utf-8"?>
<!-- Generator: Adobe Illustrator 19.1.0, SVG Export Plug-In . SVG Version: 6.00 Build 0)  -->
<svg version="1.0" id="Layer_1" xmlns="http://www.w3.org/2000/svg" xmlns:xlink="http://www.w3.org/1999/xlink" x="0px" y="0px"
	 width="15px" height="15px" viewBox="-17 18 15 15" enable-background="new -17 18 15 15" xml:space="preserve">
<title>marker-11.svg</title>
<rect x="-17" y="18" fill="none" width="15" height="15"/>
<g>
	<path d="M-9.9,24.6v-0.4c0-0.1,0-0.1,0.1-0.1h1c0.1,0,0.1,0,0.1,0.1v0.4c-0.1,0-0.2,0.1-0.2,0.1l0,0v-0.4h-0.7v0.6
		c-0.1,0-0.1,0-0.2,0c-0.1,0-0.1-0.1-0.1-0.2C-9.9,24.7-9.9,24.6-9.9,24.6z"/>
	<path d="M-10.1,24.7c-0.1,0.3,0.3,0.5,0.8,0.4c0.6-0.1,0.5-0.5,1-0.4c-0.1,0.3,0.2,0.5,0.7,0.4l0,0l0,0c0.6-0.1,0.5-0.5,1-0.4
		c0,0.2,0,0.4,0.2,0.5c-0.5,1.2-1.7,2-3.1,2c-1.5,0-2.7-0.9-3.1-2.2c0.1-0.1,0.3-0.3,0.6-0.3c-0.1,0.3,0.2,0.5,0.7,0.4l0,0l0,0
		C-10.5,25.1-10.6,24.7-10.1,24.7z"/>
	<path d="M-10,22.3l0.6-0.6c0,0,0.1,0,0.2,0l2.3,2.3c0.1,0.1,0,0.2-0.1,0.2h-0.4v0.7h-0.1c0,0,0,0-0.1,0c0,0,0,0-0.1,0v-0.8
		c0-0.1,0-0.1,0.1-0.1h0.3l-2-2l-0.7,0.7c-0.1,0.1-0.2,0-0.2-0.1v-0.3h-0.4v1v0.1l-0.7,0.6h0.3c0.1,0,0.1,0,0.1,0.1v0.8
		c0,0-0.1,0-0.2,0l0,0v-0.7h-0.4c-0.1,0-0.2-0.1-0.1-0.2l0.8-0.8v-1c0-0.1,0-0.1,0.1-0.1h0.7C-10.1,22.1-10,22.1-10,22.3L-10,22.3
		L-10,22.3L-10,22.3z"/>
</g>
<path d="M-9.5,20c-1.8,0-3.9,1.1-3.9,3.9c0,1.9,3,6.1,3.9,7.1c0.8-1.1,3.9-5.2,3.9-7.1C-5.6,21.1-7.7,20-9.5,20z M-6.1,23.8
	c0,1.9-1.5,3.4-3.4,3.4s-3.4-1.5-3.4-3.4s1.5-3.4,3.4-3.4S-6.1,21.9-6.1,23.8z"/>
</svg>
