<?xml version="1.0" encoding="utf-8"?>
<!-- Generator: Adobe Illustrator 19.1.0, SVG Export Plug-In . SVG Version: 6.00 Build 0)  -->
<svg version="1.1" id="Layer_1" xmlns="http://www.w3.org/2000/svg" xmlns:xlink="http://www.w3.org/1999/xlink" x="0px" y="0px"
	 viewBox="187.3 554.4 417.3 115.3" style="enable-background:new 187.3 554.4 417.3 115.3;" xml:space="preserve">
<style type="text/css">
	.st0{fill:none;stroke:#000000;stroke-width:1.485;}
</style>
<path d="M210.8,628.4h-16v33.2h7.9v-11.9h8.3c2.2,0,4.2-0.4,5.7-1c1.6-0.6,2.8-1.4,3.8-2.4c1-1,1.8-2.2,2.2-3.4
	c0.4-1.2,0.6-2.6,0.6-4s-0.2-2.8-0.6-4c-0.4-1.2-1.2-2.4-2.2-3.4s-2.2-1.8-3.8-2.4C215,628.6,213.2,628.4,210.8,628.4 M202.7,644
	v-9.9h6.1c1,0,1.8,0,2.6,0.2c0.8,0.2,1.6,0.4,2.2,0.8c0.6,0.4,1.2,0.8,1.6,1.6c0.4,0.6,0.6,1.6,0.6,2.6s-0.2,2-0.6,2.6
	c-0.4,0.6-0.8,1.2-1.6,1.6c-0.6,0.4-1.4,0.6-2.2,0.8c-0.8,0.2-1.8,0.2-2.6,0.2h-6.1V644z"/>
<path d="M240.5,636.9c-2,0-3.8,0.4-5.3,1c-1.6,0.6-3,1.6-4.2,2.8c-1.2,1.2-2,2.6-2.8,4c-0.6,1.6-1,3.2-1,4.9c0,1.8,0.4,3.6,1,5.1
	c0.6,1.6,1.6,3,2.6,4c1.2,1.2,2.6,2,4.2,2.6c1.6,0.6,3.4,1,5.5,1c3,0,5.3-0.6,7.5-1.8c2-1.2,3.6-3.4,4.5-6.1h-6.1
	c-0.2,0.8-0.8,1.4-2,2.2c-1,0.6-2.2,1-3.8,1c-2,0-3.6-0.4-4.5-1.4c-1-1-1.6-2.6-1.8-4.7H253c0.2-1.8,0-3.6-0.6-5.3
	c-0.4-1.8-1.2-3.2-2.2-4.5c-1-1.4-2.4-2.4-4-3.2C244.7,637.3,242.7,636.9,240.5,636.9 M234.4,647c0-0.4,0.2-1,0.4-1.6s0.6-1.2,1-1.6
	c0.4-0.6,1-1,1.8-1.4c0.8-0.4,1.8-0.6,2.8-0.6c1.8,0,3,0.4,4,1.4c0.8,0.8,1.4,2.2,1.8,3.8L234.4,647L234.4,647z"/>
<path d="M267.4,630.4h-7.1v7.3h-4.4v4.4h4.4v14.2c0,1.2,0.2,2.2,0.6,3c0.4,0.8,1,1.4,1.8,1.8c0.8,0.4,1.6,0.6,2.6,0.8
	c1,0.2,2,0.2,3.2,0.2c0.8,0,1.4,0,2.2,0s1.4,0,2-0.2v-5.1c-0.4,0-0.6,0.2-1,0.2s-0.8,0-1.2,0c-1.2,0-2-0.2-2.4-0.6
	c-0.4-0.4-0.6-1.2-0.6-2.2v-11.9h5.1v-4.4h-5.1L267.4,630.4L267.4,630.4z"/>
<path d="M289,636.9c-1.4,0-2.8,0.2-4.4,0.4c-1.4,0.2-2.8,0.8-3.8,1.4c-1.2,0.6-2,1.4-2.8,2.4c-0.8,1-1.2,2.4-1.2,4h7.1
	c0.2-1.4,0.6-2.2,1.4-2.8c0.8-0.6,2-0.8,3.4-0.8c0.6,0,1.2,0,1.8,0.2c0.6,0,1,0.2,1.4,0.4c0.4,0.2,0.8,0.6,1,1
	c0.2,0.4,0.4,1,0.4,1.8c0,0.6-0.2,1.2-0.6,1.6c-0.4,0.4-1.2,0.6-2,0.8c-0.8,0.2-1.8,0.4-2.8,0.4c-1,0-2.2,0.2-3.2,0.4
	c-1,0.2-2.2,0.4-3.2,0.6c-1,0.2-2,0.6-2.8,1.2s-1.4,1.2-2,2.2c-0.6,0.8-0.8,2-0.8,3.4c0,1.2,0.2,2.4,0.6,3.2c0.4,1,1,1.6,1.8,2.2
	c0.8,0.6,1.8,1,2.8,1.4c1,0.2,2.2,0.4,3.4,0.4c1.6,0,3.2-0.2,4.7-0.6c1.6-0.4,2.8-1.2,4-2.4c0,0.4,0,0.8,0.2,1.2
	c0,0.4,0.2,0.8,0.4,1.2h7.1c-0.4-0.6-0.6-1.2-0.8-2.2c-0.2-1-0.2-2-0.2-3.2V644c0-1.4-0.4-2.6-1-3.6c-0.8-0.8-1.6-1.6-2.8-2
	c-1.2-0.4-2.4-0.8-3.6-1C291.7,636.9,290.4,636.9,289,636.9 M287.6,657.9c-0.6,0-1.2,0-1.6-0.2c-0.6,0-1-0.2-1.4-0.4
	c-0.4-0.2-0.8-0.6-1-1c-0.2-0.4-0.4-1-0.4-1.6c0-0.6,0.2-1.2,0.4-1.6c0.2-0.4,0.6-0.8,1-1c0.4-0.2,0.8-0.4,1.4-0.6
	c0.6-0.2,1-0.2,1.6-0.4c0.6,0,1.2-0.2,1.8-0.2s1.2-0.2,1.6-0.2c0.6,0,1-0.2,1.4-0.4c0.4-0.2,0.8-0.4,1.2-0.6v2.4
	c0,0.4,0,0.8-0.2,1.6c0,0.6-0.4,1.2-0.6,1.8c-0.4,0.6-1,1.2-1.8,1.6C290,657.7,289,657.9,287.6,657.9"/>
<path d="M324.6,628.4h-16.8v33.2H325c1.6,0,3.2-0.2,4.7-0.6c1.6-0.4,2.8-1,4-1.8c1.2-0.8,2.2-1.8,2.8-3c0.8-1.2,1-2.8,1-4.4
	c0-2.2-0.6-3.8-1.6-5.3c-1-1.4-2.8-2.6-4.9-3.2c1.6-0.8,2.8-1.6,3.6-2.8c0.8-1.2,1.2-2.6,1.2-4.2c0-1.6-0.2-2.8-0.8-4
	c-0.6-1-1.4-2-2.4-2.6c-1-0.6-2.2-1.2-3.6-1.4C327.9,628.4,326.4,628.4,324.6,628.4 M315.7,641.8v-7.9h7.3c0.8,0,1.4,0,2,0.2
	c0.6,0.2,1.2,0.4,1.8,0.6c0.6,0.2,1,0.6,1.2,1.2c0.4,0.6,0.4,1.2,0.4,2c0,1.4-0.4,2.4-1.4,3c-1,0.6-2,1-3.4,1L315.7,641.8
	L315.7,641.8z M315.7,655.9v-9.1h8.5c1.8,0,3,0.4,4.2,1.2c1,0.8,1.6,2,1.6,3.6c0,0.8-0.2,1.6-0.4,2.2c-0.4,0.6-0.8,1-1.2,1.4
	c-0.6,0.4-1.2,0.6-1.8,0.8c-0.8,0.2-1.4,0.2-2.2,0.2h-8.7V655.9z"/>
<path d="M355.4,636.9c-2,0-3.8,0.4-5.3,1c-1.6,0.6-3,1.6-4.2,2.8c-1.2,1.2-2,2.6-2.8,4c-0.6,1.6-1,3.2-1,4.9c0,1.8,0.4,3.6,1,5.1
	c0.6,1.6,1.6,3,2.6,4c1.2,1.2,2.6,2,4.2,2.6c1.6,0.6,3.4,1,5.5,1c3,0,5.3-0.6,7.5-1.8c2-1.2,3.6-3.4,4.5-6.1h-6.3
	c-0.2,0.8-0.8,1.4-2,2.2c-1,0.6-2.2,1-3.8,1c-2,0-3.6-0.4-4.5-1.4c-1-1-1.6-2.6-1.8-4.7h18.6c0.2-1.8,0-3.6-0.6-5.3
	c-0.4-1.8-1.2-3.2-2.2-4.5c-1-1.4-2.4-2.4-4-3.2C359.4,637.3,357.6,636.9,355.4,636.9 M349.3,647c0-0.4,0.2-1,0.4-1.6
	c0.2-0.6,0.6-1.2,1-1.6c0.4-0.6,1-1,1.8-1.4c0.8-0.4,1.8-0.6,2.8-0.6c1.8,0,3,0.4,4,1.4c0.8,0.8,1.4,2.2,1.8,3.8L349.3,647
	L349.3,647z"/>
<path d="M388.1,636.9c-1.6,0-3,0.4-4.4,1c-1.4,0.6-2.6,1.6-3.6,3H380v-3.4h-6.7v24.1h7.1V649c0-2.4,0.4-4.2,1.4-5.3
	c0.8-1,2.2-1.6,4.2-1.6c1.8,0,3,0.4,3.6,1.4c0.6,1,1,2.4,1,4.4v13.6h7.1v-14.8c0-1.6-0.2-2.8-0.4-4.2c-0.2-1.2-0.8-2.2-1.4-3.2
	c-0.8-0.8-1.6-1.6-2.8-2C391.4,637.1,390.1,636.9,388.1,636.9"/>
<path d="M416.6,636.9c-2.2,0-4,0.4-5.5,1c-1.6,0.6-3,1.6-4.2,2.8c-1.2,1.2-2,2.6-2.6,4.2c-0.6,1.6-0.8,3.4-0.8,5.1
	c0,1.8,0.4,3.4,1,4.9c0.6,1.6,1.6,2.8,2.6,4c1.2,1.2,2.6,2,4.2,2.6c1.6,0.6,3.4,1,5.3,1c3.4,0,6.3-0.8,8.5-2.6
	c2.2-1.8,3.6-4.2,4-7.3h-6.9c-0.2,1.6-0.8,2.8-1.8,3.6c-1,0.8-2.2,1.4-4,1.4c-1.2,0-2-0.2-2.8-0.8c-0.8-0.4-1.4-1-1.8-1.8
	c-0.4-0.8-0.8-1.6-1-2.4c-0.2-1-0.4-1.8-0.4-2.6c0-1,0-1.8,0.4-2.8c0.2-1,0.6-1.8,1-2.6c0.4-0.8,1.2-1.4,1.8-1.8
	c0.8-0.4,1.8-0.8,2.8-0.8c3,0,4.7,1.4,5.1,4.2h6.9c-0.2-1.6-0.6-3-1.2-4c-0.8-1.2-1.6-2.2-2.8-2.8c-1.2-0.8-2.4-1.4-3.8-1.8
	C419.5,637.1,417.9,636.9,416.6,636.9"/>
<path d="M445.8,636.9c-1.4,0-2.8,0.2-4.4,0.4c-1.4,0.2-2.8,0.8-3.8,1.4c-1.2,0.6-2,1.4-2.8,2.4c-0.8,1-1.2,2.4-1.2,4h7.1
	c0.2-1.4,0.6-2.2,1.4-2.8c0.8-0.6,2-0.8,3.4-0.8c0.6,0,1.2,0,1.8,0.2c0.6,0,1,0.2,1.4,0.4c0.4,0.2,0.8,0.6,1,1
	c0.2,0.4,0.4,1,0.4,1.8c0,0.6-0.2,1.2-0.6,1.6c-0.4,0.4-1.2,0.6-2,0.8c-0.8,0.2-1.8,0.4-2.8,0.4c-1,0-2.2,0.2-3.2,0.4
	c-1,0.2-2.2,0.4-3.2,0.6c-1,0.2-2,0.6-2.8,1.2s-1.4,1.2-2,2.2c-0.6,0.8-0.8,2-0.8,3.4c0,1.2,0.2,2.4,0.6,3.2c0.4,1,1,1.6,1.8,2.2
	c0.8,0.6,1.8,1,2.8,1.4c1,0.2,2.2,0.4,3.4,0.4c1.6,0,3.2-0.2,4.7-0.6c1.6-0.4,2.8-1.2,4-2.4c0,0.4,0,0.8,0.2,1.2
	c0,0.4,0.2,0.8,0.4,1.2h7.1c-0.4-0.6-0.6-1.2-0.8-2.2c-0.2-1-0.2-2-0.2-3.2V644c0-1.4-0.4-2.6-1-3.6c-0.8-0.8-1.6-1.6-2.8-2
	c-1.2-0.4-2.4-0.8-3.6-1C448.4,636.9,447,636.9,445.8,636.9 M444.3,657.9c-0.6,0-1.2,0-1.6-0.2c-0.6,0-1-0.2-1.4-0.4
	c-0.4-0.2-0.8-0.6-1-1c-0.2-0.4-0.4-1-0.4-1.6c0-0.6,0.2-1.2,0.4-1.6c0.2-0.4,0.6-0.8,1-1s0.8-0.4,1.4-0.6c0.6-0.2,1-0.2,1.6-0.4
	c0.6,0,1.2-0.2,1.8-0.2c0.6,0,1.2-0.2,1.6-0.2c0.6,0,1-0.2,1.4-0.4c0.4-0.2,0.8-0.4,1.2-0.6v2.4c0,0.4,0,0.8-0.2,1.6
	c0,0.6-0.4,1.2-0.6,1.8c-0.4,0.6-1,1.2-1.8,1.6C446.8,657.7,445.6,657.9,444.3,657.9"/>
<path d="M478.7,636.9c-1.6,0-3,0.4-4.4,1c-1.4,0.6-2.6,1.6-3.6,3h-0.2v-3.4h-6.7v24.1h7.1V649c0-2.4,0.4-4.2,1.4-5.3
	c0.8-1,2.2-1.6,4.2-1.6c1.8,0,3,0.4,3.6,1.4c0.6,1,1,2.4,1,4.4v13.6h7.1v-14.8c0-1.6-0.2-2.8-0.4-4.2c-0.2-1.2-0.8-2.2-1.4-3.2
	c-0.8-0.8-1.6-1.6-2.8-2C482,637.1,480.5,636.9,478.7,636.9"/>
<path d="M506.6,636.9c-1.4,0-2.8,0.2-4.4,0.4c-1.4,0.2-2.8,0.8-3.8,1.4c-1.2,0.6-2,1.4-2.8,2.4c-0.8,1-1.2,2.4-1.2,4h7.1
	c0.2-1.4,0.6-2.2,1.4-2.8c0.8-0.6,2-0.8,3.4-0.8c0.6,0,1.2,0,1.8,0.2c0.6,0,1,0.2,1.4,0.4c0.4,0.2,0.8,0.6,1,1
	c0.2,0.4,0.4,1,0.4,1.8c0,0.6-0.2,1.2-0.6,1.6c-0.4,0.4-1.2,0.6-2,0.8c-0.8,0.2-1.8,0.4-2.8,0.4c-1,0-2,0.2-3.2,0.4
	c-1,0.2-2.2,0.4-3.2,0.6c-1,0.2-2,0.6-2.8,1.2s-1.4,1.2-2,2.2c-0.6,0.8-0.8,2-0.8,3.4c0,1.2,0.2,2.4,0.6,3.2c0.4,1,1,1.6,1.8,2.2
	c0.8,0.6,1.8,1,2.8,1.4c1,0.2,2.2,0.4,3.4,0.4c1.6,0,3.2-0.2,4.7-0.6c1.6-0.4,2.8-1.2,4-2.4c0,0.4,0,0.8,0.2,1.2
	c0,0.4,0.2,0.8,0.4,1.2h7.1c-0.4-0.6-0.6-1.2-0.8-2.2c-0.2-1-0.2-2-0.2-3.2V644c0-1.4-0.4-2.6-1-3.6c-0.8-0.8-1.6-1.6-2.8-2
	c-1.2-0.4-2.4-0.8-3.6-1C509.1,636.9,507.8,636.9,506.6,636.9 M505,657.9c-0.6,0-1.2,0-1.6-0.2c-0.6,0-1-0.2-1.4-0.4
	c-0.4-0.2-0.8-0.6-1-1c-0.2-0.4-0.4-1-0.4-1.6c0-0.6,0.2-1.2,0.4-1.6c0.2-0.4,0.6-0.8,1-1s0.8-0.4,1.4-0.6c0.6-0.2,1-0.2,1.6-0.4
	c0.6,0,1.2-0.2,1.8-0.2c0.6,0,1.2-0.2,1.6-0.2c0.6,0,1-0.2,1.4-0.4c0.4-0.2,0.8-0.4,1.2-0.6v2.4c0,0.4,0,0.8-0.2,1.6
	c0,0.6-0.4,1.2-0.6,1.8c-0.4,0.6-1,1.2-1.8,1.6C507.6,657.7,506.4,657.9,505,657.9"/>
<path d="M563.9,628.4h-7.1v5.5h7.1V628.4z M563.9,637.5h-7.1v24.1h7.1V637.5z"/>
<path d="M595.8,628.4h-7.1v12.1l0,0c-0.8-1.2-2-2-3.4-2.8c-1.4-0.6-2.8-1-4.4-1c-2,0-3.6,0.4-4.9,1c-1.4,0.8-2.6,1.6-3.6,2.8
	c-1,1.2-1.6,2.6-2.2,4c-0.4,1.6-0.8,3.2-0.8,4.7c0,1.6,0.2,3.4,0.8,4.7c0.4,1.6,1.2,3,2.2,4.2c1,1.2,2.2,2.2,3.6,2.8
	c1.4,0.8,3.2,1,5.1,1c1.8,0,3.2-0.2,4.5-0.8c1.4-0.6,2.4-1.6,3.4-2.8h0.2v3.2h6.7v-33H595.8z M582.9,657.3c-1.2,0-2-0.2-2.8-0.6
	c-0.8-0.4-1.4-1-2-1.8s-1-1.6-1.2-2.6c-0.2-1-0.4-1.8-0.4-2.8c0-1,0.2-2,0.4-2.8c0.2-0.8,0.6-1.8,1-2.4c0.4-0.8,1.2-1.4,2-1.8
	c0.8-0.4,1.8-0.6,3-0.6c1.2,0,2.2,0.2,3,0.6c0.8,0.4,1.4,1,1.8,1.8c0.4,0.8,0.8,1.6,1,2.4c0.2,1,0.4,1.8,0.4,2.8c0,1,0,2-0.4,3
	c-0.2,1-0.6,1.8-1,2.6c-0.4,0.8-1,1.4-1.8,1.8C585.1,657.1,584.1,657.3,582.9,657.3"/>
<path d="M536.4,559.3c-17.8,0-32.4,13.6-32.4,30.3c-0.2,3.2,0.2,6.1,1.2,8.7c0.8,2,1.4,3.8,2.6,5.7l0.8,1.4l19,30.7l8.7,13.8
	l8.7-13.8l7.5-11.9l11.7-18.8l0.8-1.4c1-1.8,2-3.8,2.6-5.7c1-2.8,1.4-5.5,1.4-8.7C568.9,573,554.2,559.3,536.4,559.3"/>
<path d="M536.4,655.1H536c-4.4,0-7.9,1.4-7.9,3s3.6,3,7.9,3h0.4c4.4,0,7.9-1.4,7.9-3S540.8,655.1,536.4,655.1"/>
<ellipse class="st0" cx="536.4" cy="589.8" rx="27.3" ry="25.5"/>
<path class="st0" d="M563.7,589.8c0-14-12.3-25.5-27.3-25.5s-27.3,11.5-27.3,25.5"/>
</svg>
