<svg xmlns="http://www.w3.org/2000/svg" viewBox="0 0 313.43 65.2"><defs><style>.cls-1{fill:#e5e6e6;}.cls-2{font-size:21px;font-family:DIN-Light, DIN;}.cls-3{letter-spacing:-0.04em;}.cls-4{letter-spacing:-0.03em;}.cls-5{font-size:32px;font-family:DIN-Bold, DIN;}.cls-6,.cls-7,.cls-8{fill:#bc202e;}.cls-7{letter-spacing:-0.06em;}.cls-8{letter-spacing:-0.01em;}.cls-9{fill:#fff;}.cls-10{fill:#c0272d;}</style></defs><title>Asset 1b</title><g id="Layer_2" data-name="Layer 2"><g id="Layer_18" data-name="Layer 18"><circle class="cls-1" cx="32.45" cy="32.45" r="32.45"/><text class="cls-2" transform="translate(74.75 19.72)"><tspan class="cls-3">Y</tspan><tspan class="cls-4" x="9.53" y="0">A</tspan><tspan class="cls-3" x="21.44" y="0">Y</tspan><tspan x="30.98" y="0">ASAN </tspan><tspan class="cls-5"><tspan class="cls-6" x="0" y="38.4">PE</tspan><tspan class="cls-7" x="39.46" y="38.4">T</tspan><tspan class="cls-6" x="55.81" y="38.4">A</tspan><tspan x="76.22" y="38.4"> </tspan><tspan class="cls-6" x="83.65" y="38.4">BEN</tspan><tspan class="cls-8" x="146.81" y="38.4">C</tspan><tspan class="cls-6" x="166.33" y="38.4">ANA</tspan></tspan></text><path d="M18.63,31.45l13.73,18.3,13.86-18.3a17.24,17.24,0,1,0-27.59,0"/><path class="cls-9" d="M47.44,21.1a15,15,0,1,1-30,0"/><path class="cls-10" d="M17.42,21.1a15,15,0,1,1,30,0"/><path d="M35.73,58.54a3.31,3.31,0,1,1-3.3-3.3A3.3,3.3,0,0,1,35.73,58.54Z"/></g></g></svg>