<?xml version="1.0" encoding="utf-8"?>
<!-- Generator: Adobe Illustrator 18.0.0, SVG Export Plug-In . SVG Version: 6.00 Build 0)  -->
<!DOCTYPE svg PUBLIC "-//W3C//DTD SVG 1.1//EN" "http://www.w3.org/Graphics/SVG/1.1/DTD/svg11.dtd">
<svg version="1.1" id="Layer_1" xmlns="http://www.w3.org/2000/svg" xmlns:xlink="http://www.w3.org/1999/xlink" x="0px" y="0px"
	 viewBox="246.6 0 595.3 595.3" enable-background="new 246.6 0 595.3 595.3" xml:space="preserve">
<path opacity="0.4" fill="#FFFFFF" enable-background="new    " d="M696,528.1L696,528.1c-1,0-1.5,0.5-1.5,1.4
	c0,0.9,0.6,1.4,1.4,1.4s1.5-0.5,1.5-1.4C697.4,528.6,696.8,528.1,696,528.1z M639.6,528.1L639.6,528.1c-1,0-1.5,0.5-1.5,1.4
	c0,0.9,0.6,1.4,1.4,1.4c0.9,0,1.5-0.5,1.5-1.4C641,528.6,640.4,528.1,639.6,528.1z M687.9,528.1L687.9,528.1c-1,0-1.5,0.5-1.5,1.4
	c0,0.9,0.6,1.4,1.4,1.4h0.1c0.7,0,1.4-0.5,1.4-1.4C689.3,528.6,688.6,528.1,687.9,528.1z M671.7,528.1L671.7,528.1
	c-1,0-1.5,0.5-1.5,1.4c0,0.9,0.6,1.4,1.4,1.4h0.1c0.7,0,1.4-0.5,1.4-1.4C673.1,528.6,672.5,528.1,671.7,528.1z M663.8,528.1
	L663.8,528.1c-1,0-1.5,0.5-1.5,1.4c0,0.9,0.6,1.4,1.4,1.4c0.7,0,1.5-0.5,1.5-1.4C665.2,528.6,664.5,528.1,663.8,528.1z M647.5,528.1
	L647.5,528.1c-1,0-1.5,0.5-1.5,1.4c0,0.9,0.6,1.4,1.4,1.4h0.1c0.9,0,1.4-0.5,1.4-1.4C648.9,528.6,648.3,528.1,647.5,528.1z
	 M752.3,528.1L752.3,528.1c-1,0-1.5,0.5-1.5,1.4c0,0.9,0.6,1.4,1.4,1.4c0.7,0,1.5-0.5,1.5-1.4C753.7,528.6,753.1,528.1,752.3,528.1z
	 M679.9,528.1L679.9,528.1c-1,0-1.5,0.5-1.5,1.4c0,0.9,0.6,1.4,1.4,1.4c0.7,0,1.5-0.5,1.5-1.4C681.3,528.6,680.7,528.1,679.9,528.1z
	 M736.2,528.1L736.2,528.1c-1,0-1.5,0.5-1.5,1.4c0,0.9,0.6,1.4,1.4,1.4c0.7,0,1.5-0.5,1.5-1.4C737.6,528.6,737,528.1,736.2,528.1z
	 M744.2,528.1L744.2,528.1c-1,0-1.5,0.5-1.5,1.4c0,0.9,0.6,1.4,1.4,1.4h0.1c0.7,0,1.4-0.5,1.4-1.4
	C745.6,528.6,744.9,528.1,744.2,528.1z M703.8,528.1L703.8,528.1c-1,0-1.5,0.5-1.5,1.4c0,0.9,0.6,1.4,1.4,1.4h0.1
	c0.9,0,1.4-0.5,1.4-1.4C705.2,528.6,704.6,528.1,703.8,528.1z M728,528.1L728,528.1c-1,0-1.5,0.5-1.5,1.4c0,0.9,0.6,1.4,1.4,1.4h0.1
	c0.7,0,1.4-0.5,1.4-1.4C729.4,528.6,728.8,528.1,728,528.1z M720.1,528.1L720.1,528.1c-1,0-1.5,0.5-1.5,1.4c0,0.9,0.6,1.4,1.4,1.4
	c0.9,0,1.5-0.5,1.5-1.4C721.5,528.6,720.8,528.1,720.1,528.1z M712,528.1L712,528.1c-1,0-1.5,0.5-1.5,1.4c0,0.9,0.6,1.4,1.4,1.4
	c0.9,0,1.5-0.5,1.5-1.4C713.4,528.6,712.8,528.1,712,528.1z M655.7,528.1L655.7,528.1c-1,0-1.5,0.5-1.5,1.4c0,0.9,0.6,1.4,1.4,1.4
	c0.9,0,1.5-0.5,1.5-1.4C657.1,528.6,656.5,528.1,655.7,528.1z M543,530.8c0.7,0,1.5-0.5,1.5-1.4c0-0.9-0.6-1.4-1.4-1.4H543
	c-0.9,0-1.4,0.5-1.4,1.4C541.6,530.3,542.3,530.8,543,530.8z M526.9,530.8L526.9,530.8c0.7,0,1.5-0.5,1.5-1.4c0-0.9-0.6-1.4-1.4-1.4
	h-0.1c-0.9,0-1.4,0.5-1.4,1.4C525.5,530.3,526.1,530.8,526.9,530.8z M631.5,528.1h-0.1c-0.9,0-1.4,0.5-1.4,1.4
	c0,0.9,0.6,1.4,1.4,1.4h0.1c0.7,0,1.4-0.5,1.4-1.4C632.9,528.6,632.3,528.1,631.5,528.1z M551.1,530.8c0.7,0,1.5-0.5,1.5-1.4
	c0-0.9-0.6-1.4-1.4-1.4h-0.1c-0.9,0-1.4,0.5-1.4,1.4C549.7,530.3,550.3,530.8,551.1,530.8z M575,530.8L575,530.8
	c1,0,1.5-0.5,1.5-1.4c0-0.9-0.6-1.4-1.4-1.4H575c-0.9,0-1.4,0.5-1.4,1.4C573.6,530.3,574.3,530.8,575,530.8z M486.8,528.1h-0.1
	c-0.9,0-1.4,0.5-1.4,1.4c0,0.9,0.6,1.4,1.4,1.4h0.1c0.6,0,1.4-0.5,1.4-1.4C488.2,528.6,487.6,528.1,486.8,528.1z M478.8,528.1h-0.2
	c-0.9,0-1.4,0.5-1.4,1.4c0,0.9,0.6,1.4,1.4,1.4h0.1c0.6,0,1.4-0.5,1.4-1.4C480.1,528.6,479.5,528.1,478.8,528.1z M534.9,530.8
	L534.9,530.8c0.7,0,1.5-0.5,1.5-1.4c0-0.9-0.6-1.4-1.4-1.4h-0.1c-0.9,0-1.4,0.5-1.4,1.4C533.5,530.3,534.2,530.8,534.9,530.8z
	 M615.4,528.1L615.4,528.1c-1,0-1.5,0.5-1.5,1.4c0,0.9,0.6,1.4,1.4,1.4h0.1c0.7,0,1.4-0.5,1.4-1.4
	C616.8,528.6,616.2,528.1,615.4,528.1z M607.5,528.1h-0.1c-0.9,0-1.4,0.5-1.4,1.4c0,0.9,0.6,1.4,1.4,1.4c0.8,0,1.5-0.5,1.5-1.4
	C608.9,528.6,608.2,528.1,607.5,528.1z M518.9,530.8c0.7,0,1.5-0.5,1.5-1.4c0-0.9-0.6-1.4-1.4-1.4h-0.1c-0.9,0-1.4,0.5-1.4,1.4
	C517.5,530.3,518.2,530.8,518.9,530.8z M623.6,528.1L623.6,528.1c-1,0-1.5,0.5-1.5,1.4c0,0.9,0.6,1.4,1.4,1.4c0.7,0,1.5-0.5,1.5-1.4
	C625,528.6,624.4,528.1,623.6,528.1z M510.9,530.8c0.7,0,1.5-0.5,1.5-1.4c0-0.9-0.6-1.4-1.4-1.4h-0.1c-0.9,0-1.4,0.5-1.4,1.4
	C509.5,530.3,510.1,530.8,510.9,530.8z M494.8,530.8L494.8,530.8c0.7,0,1.5-0.5,1.5-1.4c0-0.9-0.6-1.4-1.4-1.4h-0.1
	c-0.9,0-1.4,0.5-1.4,1.4C493.4,530.3,494,530.8,494.8,530.8z M502.7,530.8h0.1c0.7,0,1.4-0.5,1.4-1.4c0-0.9-0.6-1.4-1.4-1.4h-0.1
	c-0.9,0-1.4,0.5-1.4,1.4C501.3,530.3,502,530.8,502.7,530.8z M768.3,528.1L768.3,528.1c-1,0-1.5,0.5-1.5,1.4c0,0.9,0.6,1.4,1.4,1.4
	c0.9,0,1.5-0.5,1.5-1.4C769.7,528.6,769.1,528.1,768.3,528.1z M800.5,528.1L800.5,528.1c-1,0-1.5,0.5-1.5,1.4c0,0.9,0.6,1.4,1.4,1.4
	h0.1c0.7,0,1.4-0.5,1.4-1.4C801.9,528.6,801.2,528.1,800.5,528.1z M808.6,528.1L808.6,528.1c-1,0-1.5,0.5-1.5,1.4
	c0,0.9,0.6,1.4,1.4,1.4c0.7,0,1.5-0.5,1.5-1.4C810,528.6,809.4,528.1,808.6,528.1z M792.5,528.1L792.5,528.1c-1,0-1.5,0.5-1.5,1.4
	c0,0.9,0.6,1.4,1.4,1.4c0.7,0,1.5-0.5,1.5-1.4C793.9,528.6,793.3,528.1,792.5,528.1z M784.5,528.1L784.5,528.1c-1,0-1.5,0.5-1.5,1.4
	c0,0.9,0.6,1.4,1.4,1.4c0.9,0,1.5-0.5,1.5-1.4C785.9,528.6,785.2,528.1,784.5,528.1z M832.7,528.1L832.7,528.1c-1,0-1.5,0.5-1.5,1.4
	c0,0.9,0.6,1.4,1.4,1.4c0.9,0,1.5-0.5,1.5-1.4C834.1,528.6,833.4,528.1,832.7,528.1z M776.4,528.1L776.4,528.1c-1,0-1.5,0.5-1.5,1.4
	c0,0.9,0.6,1.4,1.4,1.4c0.9,0,1.5-0.5,1.5-1.4C777.8,528.6,777.1,528.1,776.4,528.1z M816.6,528.1L816.6,528.1c-1,0-1.5,0.5-1.5,1.4
	c0,0.9,0.6,1.4,1.4,1.4h0.1c0.7,0,1.4-0.5,1.4-1.4C818,528.6,817.3,528.1,816.6,528.1z M824.8,528.1h-0.2c-0.9,0-1.4,0.5-1.4,1.4
	c0,0.9,0.6,1.4,1.4,1.4c0.7,0,1.5-0.5,1.5-1.4C826.1,528.6,825.5,528.1,824.8,528.1z M760.3,528.1L760.3,528.1c-1,0-1.5,0.5-1.5,1.4
	c0,0.9,0.6,1.4,1.4,1.4h0.1c0.7,0,1.4-0.5,1.4-1.4C761.7,528.6,761,528.1,760.3,528.1z M631.5,462.1h-0.1c-0.9,0-1.4,0.6-1.4,1.4
	c0,0.9,0.6,1.4,1.4,1.4h0.1c0.7,0,1.2-0.5,1.4-1.4C632.9,462.6,632.3,462.1,631.5,462.1z M671.7,462.1L671.7,462.1
	c-1,0-1.5,0.6-1.5,1.4c0,0.9,0.6,1.4,1.4,1.4h0.1c0.7,0,1.4-0.5,1.4-1.4S672.5,462.1,671.7,462.1z M502.7,464.8h0.1
	c0.7,0,1.4-0.5,1.4-1.4s-0.6-1.4-1.4-1.4h-0.1c-0.9,0-1.4,0.6-1.4,1.4C501.3,464.3,502,464.8,502.7,464.8z M687.9,462.1L687.9,462.1
	c-1,0-1.5,0.6-1.5,1.4c0,0.9,0.6,1.4,1.4,1.4h0.1c0.7,0,1.2-0.5,1.4-1.4C689.2,462.6,688.6,462.1,687.9,462.1z M808.6,462.1
	L808.6,462.1c-1,0-1.5,0.6-1.5,1.4c0,0.9,0.6,1.4,1.4,1.4c0.7,0,1.5-0.5,1.5-1.4S809.4,462.1,808.6,462.1z M679.9,462.1L679.9,462.1
	c-1,0-1.5,0.6-1.5,1.4c0,0.9,0.6,1.4,1.4,1.4c0.7,0,1.4-0.5,1.5-1.4C681.3,462.6,680.7,462.1,679.9,462.1z M510.9,464.8
	c0.7,0,1.5-0.5,1.5-1.4s-0.6-1.4-1.4-1.4h-0.1c-0.9,0-1.4,0.6-1.4,1.4C509.5,464.3,510.1,464.8,510.9,464.8z M518.9,464.8
	c0.7,0,1.5-0.5,1.5-1.4s-0.6-1.4-1.4-1.4h-0.1c-0.9,0-1.4,0.6-1.4,1.4C517.6,464.3,518.2,464.8,518.9,464.8z M647.5,462.1
	L647.5,462.1c-1,0-1.5,0.6-1.5,1.4c0,0.9,0.6,1.4,1.4,1.4h0.1c0.9,0,1.4-0.5,1.4-1.4S648.3,462.1,647.5,462.1z M623.6,462.1
	L623.6,462.1c-1,0-1.5,0.6-1.5,1.4c0,0.9,0.6,1.4,1.4,1.4c0.7,0,1.4-0.5,1.5-1.4C625,462.6,624.4,462.1,623.6,462.1z M663.8,462.1
	L663.8,462.1c-1,0-1.5,0.6-1.5,1.4c0,0.9,0.6,1.4,1.4,1.4c0.7,0,1.5-0.5,1.5-1.4S664.5,462.1,663.8,462.1z M792.5,462.1L792.5,462.1
	c-1,0-1.5,0.6-1.5,1.4c0,0.9,0.6,1.4,1.4,1.4c0.7,0,1.5-0.5,1.5-1.4S793.3,462.1,792.5,462.1z M639.6,462.1L639.6,462.1
	c-1,0-1.5,0.6-1.5,1.4c0,0.9,0.6,1.4,1.4,1.4c0.9,0,1.5-0.5,1.5-1.4S640.4,462.1,639.6,462.1z M615.4,462.1L615.4,462.1
	c-1,0-1.5,0.6-1.5,1.4c0,0.9,0.6,1.4,1.4,1.4h0.1c0.7,0,1.2-0.5,1.4-1.4C616.8,462.6,616.2,462.1,615.4,462.1z M494.8,464.8
	L494.8,464.8c0.7,0,1.3-0.5,1.5-1.4c0-0.9-0.6-1.4-1.4-1.4h-0.1c-0.9,0-1.4,0.6-1.4,1.4C493.4,464.3,494,464.8,494.8,464.8z
	 M800.5,462.1L800.5,462.1c-1,0-1.5,0.6-1.5,1.4c0,0.9,0.6,1.4,1.4,1.4h0.1c0.7,0,1.4-0.5,1.4-1.4
	C801.8,462.6,801.2,462.1,800.5,462.1z M655.7,462.1L655.7,462.1c-1,0-1.5,0.6-1.5,1.4c0,0.9,0.6,1.4,1.4,1.4c0.9,0,1.5-0.5,1.5-1.4
	S656.5,462.1,655.7,462.1z M607.5,462.1h-0.1c-0.9,0-1.4,0.6-1.4,1.4c0,0.9,0.6,1.4,1.4,1.4c0.8,0,1.5-0.5,1.5-1.4
	S608.2,462.1,607.5,462.1z M784.5,462.1L784.5,462.1c-1,0-1.5,0.6-1.5,1.4c0,0.9,0.6,1.4,1.4,1.4c0.9,0,1.5-0.5,1.5-1.4
	C785.8,462.6,785.2,462.1,784.5,462.1z M728,462.1L728,462.1c-1,0-1.5,0.6-1.5,1.4c0,0.9,0.6,1.4,1.4,1.4h0.1c0.7,0,1.4-0.5,1.4-1.4
	S728.8,462.1,728,462.1z M832.7,462.1L832.7,462.1c-1,0-1.5,0.6-1.5,1.4c0,0.9,0.6,1.4,1.4,1.4c0.9,0,1.5-0.5,1.5-1.4
	S833.4,462.1,832.7,462.1z M768.3,462.1L768.3,462.1c-1,0-1.5,0.6-1.5,1.4c0,0.9,0.6,1.4,1.4,1.4c0.9,0,1.5-0.5,1.5-1.4
	S769.1,462.1,768.3,462.1z M824.8,462.1h-0.2c-0.9,0-1.4,0.6-1.4,1.4c0,0.9,0.6,1.4,1.4,1.4c0.7,0,1.4-0.5,1.5-1.4
	C826.1,462.6,825.5,462.1,824.8,462.1z M720.1,462.1L720.1,462.1c-1,0-1.5,0.6-1.5,1.4c0,0.9,0.6,1.4,1.4,1.4c0.9,0,1.5-0.5,1.5-1.4
	S720.8,462.1,720.1,462.1z M478.8,462.1h-0.2c-0.9,0-1.4,0.6-1.4,1.4c0,0.9,0.6,1.4,1.4,1.4h0.1c0.6,0,1.2-0.5,1.4-1.4
	C480.1,462.6,479.5,462.1,478.8,462.1z M744.2,462.1L744.2,462.1c-1,0-1.5,0.6-1.5,1.4c0,0.9,0.6,1.4,1.4,1.4h0.1
	c0.7,0,1.2-0.5,1.4-1.4C745.5,462.6,744.9,462.1,744.2,462.1z M752.3,462.1L752.3,462.1c-1,0-1.5,0.6-1.5,1.4c0,0.9,0.6,1.4,1.4,1.4
	c0.7,0,1.4-0.5,1.5-1.4C753.7,462.6,753.1,462.1,752.3,462.1z M736.2,462.1L736.2,462.1c-1,0-1.5,0.6-1.5,1.4c0,0.9,0.6,1.4,1.4,1.4
	c0.7,0,1.5-0.5,1.5-1.4S737,462.1,736.2,462.1z M567.2,462.1h-0.1c-0.9,0-1.4,0.6-1.4,1.4c0,0.9,0.6,1.4,1.4,1.4
	c0.9,0,1.5-0.5,1.5-1.4C568.5,462.6,567.9,462.1,567.2,462.1z M760.3,462.1L760.3,462.1c-1,0-1.5,0.6-1.5,1.4c0,0.9,0.6,1.4,1.4,1.4
	h0.1c0.7,0,1.2-0.5,1.4-1.4C761.6,462.6,761,462.1,760.3,462.1z M696,462.1L696,462.1c-1,0-1.5,0.6-1.5,1.4c0,0.9,0.6,1.4,1.4,1.4
	s1.4-0.5,1.5-1.4C697.4,462.6,696.8,462.1,696,462.1z M486.8,462.1h-0.1c-0.9,0-1.4,0.6-1.4,1.4c0,0.9,0.6,1.4,1.4,1.4h0.1
	c0.6,0,1.2-0.5,1.4-1.4C488.2,462.6,487.6,462.1,486.8,462.1z M776.4,462.1L776.4,462.1c-1,0-1.5,0.6-1.5,1.4c0,0.9,0.6,1.4,1.4,1.4
	c0.9,0,1.5-0.5,1.5-1.4S777.1,462.1,776.4,462.1z M703.8,462.1L703.8,462.1c-1,0-1.5,0.6-1.5,1.4c0,0.9,0.6,1.4,1.4,1.4h0.1
	c0.9,0,1.4-0.5,1.4-1.4S704.6,462.1,703.8,462.1z M816.6,462.1L816.6,462.1c-1,0-1.5,0.6-1.5,1.4c0,0.9,0.6,1.4,1.4,1.4h0.1
	c0.7,0,1.2-0.5,1.4-1.4C817.9,462.6,817.3,462.1,816.6,462.1z M526.9,464.8L526.9,464.8c0.7,0,1.5-0.5,1.5-1.4s-0.6-1.4-1.4-1.4
	h-0.1c-0.9,0-1.4,0.6-1.4,1.4C525.5,464.3,526.1,464.8,526.9,464.8z M712,462.1L712,462.1c-1,0-1.5,0.6-1.5,1.4
	c0,0.9,0.6,1.4,1.4,1.4c0.9,0,1.5-0.5,1.5-1.4S712.8,462.1,712,462.1z M792.5,330.1L792.5,330.1c-1,0-1.5,0.6-1.5,1.4
	c0,0.9,0.6,1.4,1.4,1.4c0.7,0,1.5-0.5,1.5-1.4S793.3,330.1,792.5,330.1z M824.8,330.1h-0.2c-0.9,0-1.4,0.6-1.4,1.4
	c0,0.9,0.6,1.4,1.4,1.4c0.7,0,1.4-0.5,1.5-1.4C826.1,330.6,825.5,330.1,824.8,330.1z M494.8,332.9L494.8,332.9
	c0.7,0,1.3-0.5,1.5-1.4c0-0.9-0.6-1.4-1.4-1.4h-0.1c-0.9,0-1.4,0.6-1.4,1.4C493.4,332.4,494,332.9,494.8,332.9z M816.6,330.1
	L816.6,330.1c-1,0-1.5,0.6-1.5,1.4c0,0.9,0.6,1.4,1.4,1.4h0.1c0.7,0,1.2-0.5,1.4-1.4C817.9,330.6,817.3,330.1,816.6,330.1z
	 M832.7,330.1L832.7,330.1c-1,0-1.5,0.6-1.5,1.4c0,0.9,0.6,1.4,1.4,1.4c0.9,0,1.5-0.5,1.5-1.4S833.4,330.1,832.7,330.1z
	 M808.6,330.1L808.6,330.1c-1,0-1.5,0.6-1.5,1.4c0,0.9,0.6,1.4,1.4,1.4c0.7,0,1.5-0.5,1.5-1.4S809.4,330.1,808.6,330.1z
	 M800.5,330.1L800.5,330.1c-1,0-1.5,0.6-1.5,1.4c0,0.9,0.6,1.4,1.4,1.4h0.1c0.7,0,1.4-0.5,1.4-1.4S801.2,330.1,800.5,330.1z
	 M510.9,332.9c0.7,0,1.5-0.5,1.5-1.4s-0.6-1.4-1.4-1.4h-0.1c-0.9,0-1.4,0.6-1.4,1.4C509.5,332.4,510.1,332.9,510.9,332.9z
	 M486.8,330.1h-0.1c-0.9,0-1.4,0.6-1.4,1.4c0,0.9,0.6,1.4,1.4,1.4h0.1c0.6,0,1.2-0.5,1.4-1.4C488.2,330.6,487.6,330.1,486.8,330.1z
	 M502.7,332.9h0.1c0.7,0,1.4-0.5,1.4-1.4s-0.6-1.4-1.4-1.4h-0.1c-0.9,0-1.4,0.6-1.4,1.4C501.3,332.4,502,332.9,502.7,332.9z
	 M631.5,330.1h-0.1c-0.9,0-1.4,0.6-1.4,1.4c0,0.9,0.6,1.4,1.4,1.4h0.1c0.7,0,1.2-0.5,1.4-1.4C632.9,330.6,632.3,330.1,631.5,330.1z
	 M687.9,330.1L687.9,330.1c-1,0-1.5,0.6-1.5,1.4c0,0.9,0.6,1.4,1.4,1.4h0.1c0.7,0,1.2-0.5,1.4-1.4
	C689.2,330.6,688.6,330.1,687.9,330.1z M703.8,330.1L703.8,330.1c-1,0-1.5,0.6-1.5,1.4c0,0.9,0.6,1.4,1.4,1.4h0.1
	c0.9,0,1.4-0.5,1.4-1.4S704.6,330.1,703.8,330.1z M696,330.1L696,330.1c-1,0-1.5,0.6-1.5,1.4c0,0.9,0.6,1.4,1.4,1.4s1.4-0.5,1.5-1.4
	C697.4,330.6,696.8,330.1,696,330.1z M776.4,330.1L776.4,330.1c-1,0-1.5,0.6-1.5,1.4c0,0.9,0.6,1.4,1.4,1.4c0.9,0,1.5-0.5,1.5-1.4
	S777.1,330.1,776.4,330.1z M663.8,330.1L663.8,330.1c-1,0-1.5,0.6-1.5,1.4c0,0.9,0.6,1.4,1.4,1.4c0.7,0,1.5-0.5,1.5-1.4
	S664.5,330.1,663.8,330.1z M679.9,330.1L679.9,330.1c-1,0-1.5,0.6-1.5,1.4c0,0.9,0.6,1.4,1.4,1.4c0.7,0,1.4-0.5,1.5-1.4
	C681.3,330.6,680.7,330.1,679.9,330.1z M671.7,330.1L671.7,330.1c-1,0-1.5,0.6-1.5,1.4c0,0.9,0.6,1.4,1.4,1.4h0.1
	c0.7,0,1.4-0.5,1.4-1.4S672.5,330.1,671.7,330.1z M784.5,330.1L784.5,330.1c-1,0-1.5,0.6-1.5,1.4c0,0.9,0.6,1.4,1.4,1.4
	c0.9,0,1.5-0.5,1.5-1.4S785.2,330.1,784.5,330.1z M712,330.1L712,330.1c-1,0-1.5,0.6-1.5,1.4c0,0.9,0.6,1.4,1.4,1.4
	c0.9,0,1.5-0.5,1.5-1.4S712.8,330.1,712,330.1z M744.2,330.1L744.2,330.1c-1,0-1.5,0.6-1.5,1.4c0,0.9,0.6,1.4,1.4,1.4h0.1
	c0.7,0,1.2-0.5,1.4-1.4C745.5,330.6,744.9,330.1,744.2,330.1z M752.3,330.1L752.3,330.1c-1,0-1.5,0.6-1.5,1.4c0,0.9,0.6,1.4,1.4,1.4
	c0.7,0,1.4-0.5,1.5-1.4C753.7,330.6,753.1,330.1,752.3,330.1z M736.2,330.1L736.2,330.1c-1,0-1.5,0.6-1.5,1.4c0,0.9,0.6,1.4,1.4,1.4
	c0.7,0,1.5-0.5,1.5-1.4S737,330.1,736.2,330.1z M768.3,330.1L768.3,330.1c-1,0-1.5,0.6-1.5,1.4c0,0.9,0.6,1.4,1.4,1.4
	c0.9,0,1.5-0.5,1.5-1.4S769.1,330.1,768.3,330.1z M728,330.1L728,330.1c-1,0-1.5,0.6-1.5,1.4c0,0.9,0.6,1.4,1.4,1.4h0.1
	c0.7,0,1.4-0.5,1.4-1.4S728.8,330.1,728,330.1z M720.1,330.1L720.1,330.1c-1,0-1.5,0.6-1.5,1.4c0,0.9,0.6,1.4,1.4,1.4
	c0.9,0,1.5-0.5,1.5-1.4S720.8,330.1,720.1,330.1z M760.3,330.1L760.3,330.1c-1,0-1.5,0.6-1.5,1.4c0,0.9,0.6,1.4,1.4,1.4h0.1
	c0.7,0,1.2-0.5,1.4-1.4C761.6,330.6,761,330.1,760.3,330.1z M647.5,330.1L647.5,330.1c-1,0-1.5,0.6-1.5,1.4c0,0.9,0.6,1.4,1.4,1.4
	h0.1c0.9,0,1.4-0.5,1.4-1.4S648.3,330.1,647.5,330.1z M639.6,330.1L639.6,330.1c-1,0-1.5,0.6-1.5,1.4c0,0.9,0.6,1.4,1.4,1.4
	c0.9,0,1.5-0.5,1.5-1.4S640.4,330.1,639.6,330.1z M655.7,330.1L655.7,330.1c-1,0-1.5,0.6-1.5,1.4c0,0.9,0.6,1.4,1.4,1.4
	c0.9,0,1.5-0.5,1.5-1.4S656.5,330.1,655.7,330.1z M703.8,198.3L703.8,198.3c-1,0-1.5,0.6-1.5,1.4c0,0.9,0.6,1.4,1.4,1.4h0.1
	c0.9,0,1.4-0.5,1.4-1.4S704.6,198.3,703.8,198.3z M422.5,198.3h-0.1c-0.9,0-1.4,0.6-1.4,1.4c0,0.9,0.6,1.4,1.4,1.4h0.1
	c0.6,0,1.2-0.5,1.4-1.4C423.8,198.8,423.2,198.3,422.5,198.3z M414.4,198.3h-0.1c-0.9,0-1.4,0.6-1.4,1.4c0,0.9,0.6,1.4,1.4,1.4h0.1
	c0.6,0,1.2-0.5,1.4-1.4C415.8,198.8,415.1,198.3,414.4,198.3z M406.5,198.3L406.5,198.3c-1,0-1.5,0.6-1.5,1.4c0,0.9,0.6,1.4,1.4,1.4
	c0.6,0,1.5-0.5,1.5-1.4C407.8,198.8,407.2,198.3,406.5,198.3z M438.5,198.3h-0.1c-0.9,0-1.4,0.6-1.4,1.4c0,0.9,0.6,1.4,1.4,1.4h0.1
	c0.7,0,1.4-0.5,1.4-1.4C439.8,198.8,439.2,198.3,438.5,198.3z M816.6,198.3L816.6,198.3c-1,0-1.5,0.6-1.5,1.4c0,0.9,0.6,1.4,1.4,1.4
	h0.1c0.7,0,1.2-0.5,1.4-1.4C817.9,198.8,817.3,198.3,816.6,198.3z M712,198.3L712,198.3c-1,0-1.5,0.6-1.5,1.4c0,0.9,0.6,1.4,1.4,1.4
	c0.9,0,1.5-0.5,1.5-1.4S712.8,198.3,712,198.3z M398.4,198.3L398.4,198.3c-1,0-1.5,0.6-1.5,1.4c0,0.9,0.6,1.4,1.4,1.4
	c0.6,0,1.5-0.5,1.5-1.4S399.1,198.3,398.4,198.3z M430.5,198.3h-0.1c-0.9,0-1.4,0.6-1.4,1.4c0,0.9,0.6,1.4,1.4,1.4h0.1
	c0.6,0,1.2-0.5,1.4-1.4C431.9,198.8,431.3,198.3,430.5,198.3z M639.6,198.3L639.6,198.3c-1,0-1.5,0.6-1.5,1.4c0,0.9,0.6,1.4,1.4,1.4
	c0.9,0,1.5-0.5,1.5-1.4S640.4,198.3,639.6,198.3z M792.5,198.3L792.5,198.3c-1,0-1.5,0.6-1.5,1.4c0,0.9,0.6,1.4,1.4,1.4
	c0.7,0,1.5-0.5,1.5-1.4S793.3,198.3,792.5,198.3z M832.7,198.3L832.7,198.3c-1,0-1.5,0.6-1.5,1.4c0,0.9,0.6,1.4,1.4,1.4
	c0.9,0,1.5-0.5,1.5-1.4S833.4,198.3,832.7,198.3z M840.5,528.1L840.5,528.1c-1,0-1.5,0.5-1.5,1.4c0,0.9,0.6,1.4,1.4,1.4
	c0.9,0,1.5-0.5,1.5-1.4C841.9,528.6,841.2,528.1,840.5,528.1z M840.5,462.1L840.5,462.1c-1,0-1.5,0.6-1.5,1.4c0,0.9,0.6,1.4,1.4,1.4
	c0.9,0,1.5-0.5,1.5-1.4S841.2,462.1,840.5,462.1z M840.5,330.1L840.5,330.1c-1,0-1.5,0.6-1.5,1.4c0,0.9,0.6,1.4,1.4,1.4
	c0.9,0,1.5-0.5,1.5-1.4S841.2,330.1,840.5,330.1z M840.5,198.3L840.5,198.3c-1,0-1.5,0.6-1.5,1.4c0,0.9,0.6,1.4,1.4,1.4
	c0.9,0,1.5-0.5,1.5-1.4S841.2,198.3,840.5,198.3z M390.2,198.3L390.2,198.3c-1,0-1.5,0.6-1.5,1.4c0,0.9,0.6,1.4,1.5,1.4
	c0.7,0,1.4-0.5,1.4-1.4S391,198.3,390.2,198.3z M824.8,198.3h-0.2c-0.9,0-1.4,0.6-1.4,1.4c0,0.9,0.6,1.4,1.4,1.4
	c0.7,0,1.4-0.5,1.5-1.4C826.1,198.8,825.5,198.3,824.8,198.3z M382.2,198.3h-0.1c-0.9,0-1.4,0.6-1.4,1.4c0,0.9,0.6,1.4,1.5,1.4
	c0.7,0,1.4-0.5,1.4-1.4C383.5,198.8,382.9,198.3,382.2,198.3z M784.5,198.3L784.5,198.3c-1,0-1.5,0.6-1.5,1.4c0,0.9,0.6,1.4,1.4,1.4
	c0.9,0,1.5-0.5,1.5-1.4C785.8,198.8,785.2,198.3,784.5,198.3z M720.1,198.3L720.1,198.3c-1,0-1.5,0.6-1.5,1.4c0,0.9,0.6,1.4,1.4,1.4
	c0.9,0,1.5-0.5,1.5-1.4S720.8,198.3,720.1,198.3z M647.5,198.3L647.5,198.3c-1,0-1.5,0.6-1.5,1.4c0,0.9,0.6,1.4,1.4,1.4h0.1
	c0.9,0,1.4-0.5,1.4-1.4S648.3,198.3,647.5,198.3z M655.7,198.3L655.7,198.3c-1,0-1.5,0.6-1.5,1.4c0,0.9,0.6,1.4,1.4,1.4
	c0.9,0,1.5-0.5,1.5-1.4S656.5,198.3,655.7,198.3z M663.8,198.3L663.8,198.3c-1,0-1.5,0.6-1.5,1.4c0,0.9,0.6,1.4,1.4,1.4
	c0.7,0,1.5-0.5,1.5-1.4S664.5,198.3,663.8,198.3z M462.8,198.3h-0.2c-0.9,0-1.4,0.6-1.4,1.4c0,0.9,0.6,1.4,1.4,1.4
	c0.6,0,1.5-0.5,1.5-1.4S463.5,198.3,462.8,198.3z M502.7,201h0.1c0.7,0,1.4-0.5,1.4-1.4s-0.6-1.4-1.4-1.4h-0.1
	c-0.9,0-1.4,0.6-1.4,1.4C501.3,200.5,502,201,502.7,201z M510.9,201c0.7,0,1.5-0.5,1.5-1.4s-0.6-1.4-1.4-1.4h-0.1
	c-0.9,0-1.4,0.6-1.4,1.4C509.5,200.5,510.1,201,510.9,201z M800.5,198.3L800.5,198.3c-1,0-1.5,0.6-1.5,1.4c0,0.9,0.6,1.4,1.4,1.4
	h0.1c0.7,0,1.4-0.5,1.4-1.4C801.8,198.8,801.2,198.3,800.5,198.3z M486.7,201h0.1c0.6,0,1.2-0.5,1.4-1.4c0-0.9-0.6-1.4-1.4-1.4h-0.1
	c-0.9,0-1.4,0.6-1.4,1.4C485.3,200.5,486,201,486.7,201z M494.8,201L494.8,201c0.7,0,1.3-0.5,1.5-1.4c0-0.9-0.6-1.4-1.4-1.4h-0.1
	c-0.9,0-1.4,0.6-1.4,1.4C493.4,200.5,494,201,494.8,201z M446.5,198.3h-0.1c-0.9,0-1.4,0.6-1.4,1.4c0,0.9,0.6,1.4,1.4,1.4h0.1
	c0.7,0,1.4-0.5,1.4-1.4S447.3,198.3,446.5,198.3z M631.5,198.3h-0.1c-0.9,0-1.4,0.6-1.4,1.4c0,0.9,0.6,1.4,1.4,1.4h0.1
	c0.7,0,1.2-0.5,1.4-1.4C632.9,198.8,632.3,198.3,631.5,198.3z M454.7,198.3h-0.1c-0.9,0-1.4,0.6-1.4,1.4c0,0.9,0.6,1.4,1.4,1.4
	c0.7,0,1.5-0.5,1.5-1.4S455.4,198.3,454.7,198.3z M518.9,201c0.7,0,1.5-0.5,1.5-1.4s-0.6-1.4-1.4-1.4h-0.1c-0.9,0-1.4,0.6-1.4,1.4
	C517.6,200.5,518.2,201,518.9,201z M687.9,198.3L687.9,198.3c-1,0-1.5,0.6-1.5,1.4c0,0.9,0.6,1.4,1.4,1.4h0.1c0.7,0,1.2-0.5,1.4-1.4
	C689.2,198.8,688.6,198.3,687.9,198.3z M808.6,198.3L808.6,198.3c-1,0-1.5,0.6-1.5,1.4c0,0.9,0.6,1.4,1.4,1.4c0.7,0,1.5-0.5,1.5-1.4
	S809.4,198.3,808.6,198.3z M768.3,198.3L768.3,198.3c-1,0-1.5,0.6-1.5,1.4c0,0.9,0.6,1.4,1.4,1.4c0.9,0,1.5-0.5,1.5-1.4
	S769.1,198.3,768.3,198.3z M623.6,198.3L623.6,198.3c-1,0-1.5,0.6-1.5,1.4c0,0.9,0.6,1.4,1.4,1.4c0.7,0,1.4-0.5,1.5-1.4
	C625,198.8,624.4,198.3,623.6,198.3z M696,198.3L696,198.3c-1,0-1.5,0.6-1.5,1.4c0,0.9,0.6,1.4,1.4,1.4s1.4-0.5,1.5-1.4
	C697.4,198.8,696.8,198.3,696,198.3z M679.9,198.3L679.9,198.3c-1,0-1.5,0.6-1.5,1.4c0,0.9,0.6,1.4,1.4,1.4c0.7,0,1.4-0.5,1.5-1.4
	C681.3,198.8,680.7,198.3,679.9,198.3z M478.6,201h0.1c0.6,0,1.2-0.5,1.4-1.4c0-0.9-0.6-1.4-1.4-1.4h-0.1c-0.9,0-1.4,0.6-1.4,1.4
	C477.3,200.5,477.9,201,478.6,201z M671.7,198.3L671.7,198.3c-1,0-1.5,0.6-1.5,1.4c0,0.9,0.6,1.4,1.4,1.4h0.1c0.7,0,1.4-0.5,1.4-1.4
	S672.5,198.3,671.7,198.3z M776.4,198.3L776.4,198.3c-1,0-1.5,0.6-1.5,1.4c0,0.9,0.6,1.4,1.4,1.4c0.9,0,1.5-0.5,1.5-1.4
	S777.1,198.3,776.4,198.3z M469.2,199.7c0,0.9,0.6,1.4,1.4,1.4h0.1c0.6,0,1.4-0.5,1.4-1.4s-0.6-1.4-1.4-1.4h-0.1
	C469.7,198.3,469.2,198.9,469.2,199.7z M246.6,546.3l164.1-0.9v0.4l1.5,36.7c0,0,0.4,0.5,0.7,1.5H246.6l0,11.3h595.3v-11.4H597.6
	c-1.9-4.3-4.2-8.7-3-15.8c3.7-22.8,8.7-42.9,12.5-66.3c2-11.9-0.6-26.5-2.5-36.6c-0.7-4.1-2-12.2-0.6-17.1c6,0,13.8-1.6,16-5.3
	c3-4.8,1.1-21.6,2.2-28.4c3.7-22,7.4-54.1,3-77.6c-0.2-1.4-0.6-2.7-0.9-4.1c0.3-0.2,0.6-0.6,0.7-1.1c0-0.9-0.6-1.4-1.4-1.4
	c-1.2-3.9-2.5-7.7-3.1-11.4c-0.7-4.8,1.6-11.5,0.6-17.9c-1.1-4.6-1.9-9.4-2.9-13.9c2.2-4.2,4.3-8.4,6.6-12.6
	c4-8.9,7.1-18.5,8.9-29.4c0.2-4.5,0.4-8.9,0.6-13.4c0.6-3.8,1.5-10,0.2-14.3c-2.2-8.9-7.4-13.3-15.3-16.4c-0.8-0.3-1.7-0.7-2.7-1
	c0-0.1,0.1-0.1,0.1-0.2c0-0.9-0.6-1.4-1.4-1.4h-0.1c-0.6,0-1,0.3-1.2,0.7c-1.5-0.5-3-1.1-4.5-1.8l14.3-36.2l37.6,15.3l59.3,20.7
	c0,0,2.4,0.7,6.1,1.9c-0.2,0.2-0.3,0.5-0.3,0.8c0,0.9,0.6,1.4,1.4,1.4h0.1c0.7,0,1.4-0.5,1.4-1.4v-0.1c15.4,4.7,45.8,13.8,42.4,11.1
	c-4.5-3.7-41.9-78.6-47.3-79.4c-5.3-0.7-67.7-48.5-67.7-48.5l0.4-6.2l-4-2l-3,3.8l-3.3,0.6c-3.3,0.6-58.8-6.9-110.5-11.5
	c-5.6-0.5-66.8,27.3-66.8,27.3l19.5,8.9l48.4,20.5l31.7,13.8c-0.1,2.1-0.1,4.2-0.2,6.3c-1.2,5.6-3.3,13-1.9,20.8
	c1.2,7.4,6.3,11.7,5.1,19.6c-10,10.3-28.6,3.3-40.7,10.4c-1.4,0.9-2.6,2-3.7,3.3c-0.2-0.2-0.5-0.2-0.8-0.2h-0.1
	c-0.9,0-1.4,0.6-1.4,1.4c0,0.6,0.3,1,0.8,1.2c-2.5,4.5-3.8,10.2-5.5,15.5c-4.8,15-21.2,51.2-10.4,68.5c4.8,1.6,15-1.1,15.1-1.1
	c-0.7,2.5-1.5,5.1-2.2,7.6c-1.6,1.9-3,3.8-4.7,5.7c-1.5,8.9-2.6,18.2-4.1,27.2c-1.7,9.2-6.6,22.7-3.7,34c0.2,0.1,0.4,0.2,0.6,0.2
	c4.8-0.5,8.8-3.8,14.8-2.9c-0.1,20.5-3.3,44,0.4,64.4c0.2,4,0.4,7.9,0.6,12c1.5,2.4,3,4.8,4.3,7.1c0.1,4.5,0.2,8.8,0.2,13.3
	c1.9,11.2,2.4,22.1,5.3,31.6c5.1,16.5,11.7,31.7,18.2,47c2.4,5.7,6.2,11.2,7.8,17.5c3.7,14.4-5.7,21.6-9.8,29
	c-0.2,1.9-0.5,3.8-0.7,5.7h-83c0.5-1.5,0.6-3,0.5-4.8l0.7-47.5c0.6-0.1,1.2-0.5,1.2-1.4c0-0.8-0.5-1.3-1.2-1.3l1-63.9
	c0.1-0.2,0.2-0.4,0.2-0.7c0-0.3-0.1-0.5-0.2-0.7l1.3-64.3c0-0.1,0.1-0.2,0.1-0.2v-14.6c0,0-1.7-2.6-4.2-6.4
	c-2.5-17.4-5.3-28.4-7.6-34.8c-2.1-6.2-3.7-8.4-3.8-8.8l11.8-1.2c0.2,0.4,0.7,0.6,1.1,0.6h0.1c0.5,0,1-0.3,1.2-0.8l5.3-0.5
	c0,0.9,0.6,1.3,1.4,1.3h0.1c0.6,0,1.2-0.5,1.4-1.4c0-0.2,0-0.3-0.1-0.5c11.4-2.7,8.4-11.2,8.4-11.2c-1.5-23.6-26.8-23.6-26.8-23.6
	l-14.8-0.5c-5.6-1.1-4,5.3-4,5.3l-1.6,12.3c-4.1-1.9-34.5-82.2-34.5-82.2c-4.1-9.7-8.6-16.4-12.2-20.7c-4.7-5.7-8.2-7.9-8.2-7.9
	c-2.4-0.6-6.6-1.1-11.9-1.6c0.5-0.2,0.8-0.6,0.8-1.3c0-0.9-0.6-1.4-1.4-1.4h-0.1c-0.9,0-1.4,0.6-1.4,1.4c0,0.9,0.6,1.4,1.5,1.4h0.2
	h-0.2h-0.1c-2.1-0.2-4.4-0.3-6.8-0.5c0.2-0.2,0.3-0.5,0.4-0.8c0-0.9-0.6-1.4-1.4-1.4h-0.1c-0.9,0-1.4,0.6-1.4,1.4
	c0,0.3,0.1,0.5,0.2,0.7c-1.8-0.1-3.6-0.2-5.5-0.3c0-0.1,0.1-0.2,0.1-0.3c0-0.9-0.6-1.4-1.4-1.4h-0.1c-0.9,0-1.4,0.6-1.4,1.4v0.2
	l-5.1-0.3c0-0.8-0.6-1.3-1.4-1.3h-0.1c-0.8,0-1.2,0.5-1.3,1.1c-1.7-0.1-3.5-0.2-5.3-0.3c-0.2-0.5-0.7-0.8-1.3-0.8h-0.1
	c-0.6,0-1,0.3-1.2,0.7c-1.9-0.1-3.9-0.2-5.8-0.3c-0.3-0.3-0.6-0.4-1-0.4h-0.1c-0.4,0-0.7,0.1-0.9,0.3c-2.2-0.1-42.2-1.5-85.8-2.1
	V230c0,0,127.7,3.4,127.7,3.4c12.7,0.4,14.3,7.6,14.3,7.6l24.3,69.1c1.5,4.7,0.7,7.4-0.5,8.9c-0.4,0.5-0.7,0.7-1.2,1.1
	c-2.1,1.5-4.7,1.1-4.7,1.1l-10-0.2l-149.9-2.1v63.1l83.2,0c22.4,0,17.8,11.6,17.8,11.6l-7.9,29.4c-1,3.8-4.5,6.4-8.4,6.5l-84.7,0.1
	l0,50.2l92,0l-2,25.2c-1.4,12.3-10.9,12.5-10.9,12.5l-79.1,0.1V546.3z M428.3,384.8v0.2l3.3-0.1c12.4,1.1,14.8,5.8,14.8,5.8v0.1
	l0.4,34l-50.8,0.5v-0.1l-7.8,0.1h-0.1l-10.2,0.1c-1.2,0-2.5-0.1-3.7-0.4c-0.2,0-0.6-0.1-0.7-0.2c-1.1-0.2-2.1-0.6-3-1.1
	c-0.7-0.4-1.5-0.7-2.1-1.2c-1.5-0.7-2.6-2-3.7-3.3c-2.4-3-3.8-6.7-3.8-10.8v-12.2c-0.1-0.6-0.1-1.2-0.1-1.9c0.2-2,2-4,3.7-5.6
	c1.9-1.6,3.7-2.6,3.7-2.6l19.6-0.2L428.3,384.8L428.3,384.8z M560.2,464.2c0.1-0.2,0.3-0.5,0.3-0.8c0-0.6-0.3-1-0.7-1.2
	c-0.3-3.5,2.4-5.9,3-8.4c0.4-4,0.7-8.1,1.2-12c4.1-1.5,8.2-2.6,12.3-4.1c-0.4,7.1-0.6,14.1-1.1,21.2l0.9,3.6c-0.3-0.3-0.6-0.5-1-0.5
	H575c-0.9,0-1.4,0.6-1.4,1.4c0,0.9,0.6,1.4,1.4,1.4h0.1c0.8,0,1.3-0.4,1.3-1.2c1.3,5,2.6,9.9,3.9,14.9c-0.1,7.4-0.2,14.5-0.2,22
	l2.1,27.9c-0.2,0.2-0.3,0.6-0.3,1c0,0.5,0.2,0.9,0.5,1.1c0.5,6.6,1,13.3,1.5,19.9c-3.7-2.6-4.6-5.2-6.6-9.3
	c-3-6.7-5.7-13.9-7.1-22.4c-1.7-10.2,0-21.2-1.9-30.6C566.6,479.6,562,472.1,560.2,464.2L560.2,464.2z M606.6,195.9
	c-2.9-1.6-4.8-3.5-5.6-6.1c-2-8.2,3.1-19.8,6.6-22.3c1.9-1.5,4.3-1.2,5.7-3c1.2-1.9,2.4-4.1,3.3-6.4l4.1,1.7L606.6,195.9z"/>
</svg>
