<?xml version="1.0" encoding="utf-8"?>
<!-- Generator: Adobe Illustrator 18.0.0, SVG Export Plug-In . SVG Version: 6.00 Build 0)  -->
<!DOCTYPE svg PUBLIC "-//W3C//DTD SVG 1.1//EN" "http://www.w3.org/Graphics/SVG/1.1/DTD/svg11.dtd">
<svg version="1.1" id="Layer_1" xmlns="http://www.w3.org/2000/svg" xmlns:xlink="http://www.w3.org/1999/xlink" x="0px" y="0px"
	 viewBox="0 0 480 480" enable-background="new 0 0 480 480" xml:space="preserve">
<path fill="#FFFFFF" d="M317.1,283.8c14.9,7.4,36.2,9.6,49.5,2.7c18.1-9.6,32.4-12.8,46.3-8.5v-0.5c1.1-4.8,5.3-8.5,10.1-7.4
	c4.8,0.5,8,5.3,7.4,10.6c-0.5,2.1-1.1,3.7-2.7,5.3c2.7,1.1,6.4,2.7,12.8,3.7L442,278c1.6-9-5.3-14.9-9-16.5l-5.8-28.2
	c-1.1-5.3-4.8-10.6-12.8-11.7l-14.9-3.2l-25-3.7l-14.9-2.1c-8-1.1-12.8,2.7-15.4,7.4l-14.4,25c-4.3,0-12.2,3.7-13.8,12.8l-3.7,23.9
	C313.9,281.7,315.5,282.8,317.1,283.8z M351.6,225.9c1.6-2.7,3.2-4.8,6.9-4.3l27.1,4.3l0,0l27.1,4.3c3.2,0.5,4.3,3.2,4.8,5.8
	l4.3,22.3l-40.9-6.4l0,0l-40.9-6.4L351.6,225.9z M326.7,263.1c0.5-4.8,5.3-8.5,10.1-7.4c4.8,0.5,8,5.3,7.4,10.6
	c-0.5,4.8-5.3,8.5-10.1,7.4C328.8,272.7,325.6,268.4,326.7,263.1z"/>
<path fill="#FFFFFF" d="M269.2,162.6V93.5h-46.8v27.7l-46.8-40.9L41.1,198.7h23.4v79.8c14.9-5.3,29.2-2.1,48.9,7.4
	c13.3,6.9,34.6,5.3,49.5-2.7c20.7-10.6,31.4-8,53.2,1.6c16.5,7.4,31.4,7.4,47.9,0c9-3.7,16-6.4,22.9-8v-78.2h23.4L269.2,162.6z"/>
<path fill="#FFFFFF" d="M425,309c-18.6-11.2-35.1-9-58.5,3.2c-13.3,6.9-34,5.3-49.5-2.7c-20.2-10.6-31.9-8-53.2,1.6
	c-16.5,7.4-31.4,7.4-47.9,0c-21.8-9.6-32.4-12.2-53.2-1.6c-14.9,7.4-36.2,9.6-49.5,2.7C90,300,73.5,297.8,55.5,309
	c0,0-8,5.8-25.5,6.4v9.6v5.8v2.7c17.5,0,25.5-6.4,25.5-6.4c18.6-11.2,35.1-9,58,3.2c13.3,6.9,34.6,5.3,49.5-2.7
	c20.7-10.6,31.4-8,53.2,1.6c16.5,7.4,31.4,7.4,47.9,0c21.3-9.6,33-12.2,53.2-1.6c14.9,7.4,36.2,9.6,49.5,2.7
	c22.9-12.2,39.9-14.4,58.5-3.2c0,0,7.4,6.4,25.5,6.4v-2.7V325v-9.6C432.5,315.4,425,309,425,309z"/>
<path fill="#FFFFFF" d="M425,353.3c-18.6-11.2-35.1-9-58.5,3.2c-13.3,6.9-34,5.3-49.5-2.7c-20.2-10.6-31.9-8-53.2,1.6
	c-16.5,7.4-31.4,7.4-47.9,0c-21.8-9.6-32.4-12.2-53.2-1.6c-14.9,7.4-36.2,9.6-49.5,2.7c-23.4-12.2-39.9-14.4-58-3.2
	c0,0-8,5.8-25.5,6.4v9.6v5.8v2.7c17.5,0,25.5-6.4,25.5-6.4c18.6-11.2,35.1-9,58,3.2c13.3,6.9,34.6,5.3,49.5-2.7
	c20.7-10.6,31.4-8,53.2,1.6c16.5,7.4,31.4,7.4,47.9,0c21.3-9.6,33-12.2,53.2-1.6c14.9,7.4,36.2,9.6,49.5,2.7
	c22.9-12.2,39.9-14.4,58.5-3.2c0,0,7.4,6.4,25.5,6.4V375v-5.8v-9.6C432.5,359.7,425,353.3,425,353.3z"/>
<g id="Water">
</g>
<g id="House">
</g>
</svg>
