<svg id="Layer_1" data-name="Layer 1" xmlns="http://www.w3.org/2000/svg" viewBox="0 0 441.03 109.98"><defs><style>.cls-1{fill:#31aade;}.cls-2{fill:#fff;}</style></defs><title>Chennai_Loho_AB</title><path class="cls-1" d="M356.8,92.86h-.58c-6.36,0-11.42,2.22-11.42,4.77s5.2,4.76,11.42,4.76h.58c6.36,0,11.42-2.22,11.42-4.76s-5.06-4.77-11.42-4.77" transform="translate(-4.22 -6.43)"/><path class="cls-1" d="M356.54,50.37c-7.17,0-13.08-5.41-13.13-12A9.6,9.6,0,0,1,344,35a12.34,12.34,0,0,1,1-2.25l.32-.56,4.71-7.42,3-4.7,3.5-5.44,3.51,5.44,7.64,12.12.32.56a12.33,12.33,0,0,1,1,2.25,7.86,7.86,0,0,1,.49,3.43c0,6.59-5.88,12-13,12m-.1-43.94c-16.64,0-30.28,12.46-30.28,27.76a18.38,18.38,0,0,0,1.12,8,29.71,29.71,0,0,0,2.43,5.22l.75,1.29L348.22,76.8l8.13,12.64,8.13-12.64,7-10.91,10.93-17.22.75-1.29a29.69,29.69,0,0,0,2.43-5.22,22.29,22.29,0,0,0,1.31-8C386.82,19,373.08,6.43,356.44,6.43" transform="translate(-4.22 -6.43)"/><path class="cls-2" d="M357.32,46.73a1.61,1.61,0,0,1-.23-3.2c2.18-.32,5.59-2.21,6-4.79a1.63,1.63,0,0,1,1.61-1.32l.25,0a1.62,1.62,0,0,1,1.31,1.86c-.76,4.34-5.57,7-8.74,7.42Zm-.73-32.13-3.5,5.45-3,4.69-4.71,7.42-.32.56A12.91,12.91,0,0,0,344,35a9.57,9.57,0,0,0-.56,3.43c0,6.55,6,12,13.12,12s13-5.37,13-12A8,8,0,0,0,369.1,35a12.81,12.81,0,0,0-1.05-2.25l-.32-.56-7.65-12.11Z" transform="translate(-4.22 -6.43)"/><path class="cls-1" d="M364.73,37.42a1.63,1.63,0,0,0-1.61,1.33c-.45,2.58-3.85,4.47-6,4.79a1.61,1.61,0,0,0,.23,3.2h.23c3.17-.47,8-3.07,8.74-7.42A1.61,1.61,0,0,0,365,37.44l-.25,0" transform="translate(-4.22 -6.43)"/><path d="M37.27,57.5v8.69H14.56V77.05H34.24v8H14.56V104.5H4.22v-47Z" transform="translate(-4.22 -6.43)"/><path d="M53.1,57.5v47H43.75v-47Z" transform="translate(-4.22 -6.43)"/><path d="M62.15,80.11a15.57,15.57,0,0,1,9.08-9.28,19.47,19.47,0,0,1,7.24-1.28,19.72,19.72,0,0,1,7.27,1.28,15.5,15.5,0,0,1,9.12,9.28,20.9,20.9,0,0,1,1.25,7.4,20.64,20.64,0,0,1-1.25,7.37,16,16,0,0,1-3.55,5.63,15.49,15.49,0,0,1-5.56,3.59,20.17,20.17,0,0,1-7.27,1.25,19.92,19.92,0,0,1-7.24-1.25,15.51,15.51,0,0,1-5.53-3.59,16,16,0,0,1-3.55-5.63,20.58,20.58,0,0,1-1.25-7.37A20.84,20.84,0,0,1,62.15,80.11ZM70.64,91.5A10.56,10.56,0,0,0,72,95a7.17,7.17,0,0,0,2.53,2.47,7.72,7.72,0,0,0,4,.92,7.91,7.91,0,0,0,4-.92A7.11,7.11,0,0,0,85,95a10.68,10.68,0,0,0,1.35-3.49,20,20,0,0,0,.39-4,20.51,20.51,0,0,0-.39-4A10.32,10.32,0,0,0,85,80a7.51,7.51,0,0,0-2.57-2.47,7.72,7.72,0,0,0-4-1A7.18,7.18,0,0,0,72,80a10.21,10.21,0,0,0-1.35,3.49,20.51,20.51,0,0,0-.39,4A20,20,0,0,0,70.64,91.5Z" transform="translate(-4.22 -6.43)"/><path d="M103.69,80.11a15.57,15.57,0,0,1,9.08-9.28A19.47,19.47,0,0,1,120,69.54a19.72,19.72,0,0,1,7.27,1.28,15.5,15.5,0,0,1,9.12,9.28,20.9,20.9,0,0,1,1.25,7.4,20.64,20.64,0,0,1-1.25,7.37,16,16,0,0,1-3.55,5.63,15.49,15.49,0,0,1-5.56,3.59,20.17,20.17,0,0,1-7.27,1.25,19.92,19.92,0,0,1-7.24-1.25,15.51,15.51,0,0,1-5.53-3.59,16,16,0,0,1-3.55-5.63,20.58,20.58,0,0,1-1.25-7.37A20.84,20.84,0,0,1,103.69,80.11Zm8.49,11.39A10.56,10.56,0,0,0,113.53,95a7.17,7.17,0,0,0,2.53,2.47,7.72,7.72,0,0,0,4,.92,7.91,7.91,0,0,0,4-.92A7.11,7.11,0,0,0,126.56,95a10.68,10.68,0,0,0,1.35-3.49,20,20,0,0,0,.39-4,20.51,20.51,0,0,0-.39-4A10.32,10.32,0,0,0,126.56,80,7.51,7.51,0,0,0,124,77.54a7.72,7.72,0,0,0-4-1A7.18,7.18,0,0,0,113.53,80a10.21,10.21,0,0,0-1.35,3.49,20.51,20.51,0,0,0-.39,4A20,20,0,0,0,112.18,91.5Z" transform="translate(-4.22 -6.43)"/><path d="M169.38,100.15a9.64,9.64,0,0,1-4.31,4,14.35,14.35,0,0,1-6,1.22,14.58,14.58,0,0,1-6.71-1.48,13.46,13.46,0,0,1-4.77-4A18.15,18.15,0,0,1,144.73,94a24.4,24.4,0,0,1-1-6.84,22.94,22.94,0,0,1,1-6.62,17.18,17.18,0,0,1,2.83-5.63,13.74,13.74,0,0,1,11.29-5.4,13.41,13.41,0,0,1,5.76,1.28,10.06,10.06,0,0,1,4.31,3.78h.13V57.5h9.35v47h-8.88v-4.34ZM169,83.34a9.87,9.87,0,0,0-1.35-3.42,7.58,7.58,0,0,0-2.47-2.4,7.25,7.25,0,0,0-3.82-.92,7.61,7.61,0,0,0-3.88.92,7.26,7.26,0,0,0-2.53,2.43,10.72,10.72,0,0,0-1.38,3.46,18.71,18.71,0,0,0-.43,4,17.27,17.27,0,0,0,.46,3.95,10.79,10.79,0,0,0,1.48,3.52,8.2,8.2,0,0,0,2.57,2.5,6.93,6.93,0,0,0,3.72,1,7.4,7.4,0,0,0,3.85-.92A7,7,0,0,0,167.67,95,11.08,11.08,0,0,0,169,91.47a20.83,20.83,0,0,0,.39-4.08A20.32,20.32,0,0,0,169,83.34Z" transform="translate(-4.22 -6.43)"/><path d="M202.69,57.5l11,32.32h.13l10.4-32.32h14.55v47h-9.68V71.19H229L217.43,104.5h-8l-11.52-33h-.13v33h-9.67v-47Z" transform="translate(-4.22 -6.43)"/><path d="M249.82,75.47A11.2,11.2,0,0,1,253.5,72a16.1,16.1,0,0,1,5-1.87,28.71,28.71,0,0,1,5.63-.56,38.16,38.16,0,0,1,5.2.36,16,16,0,0,1,4.81,1.42,9.45,9.45,0,0,1,3.55,2.93,8.19,8.19,0,0,1,1.38,5V96.93a35.29,35.29,0,0,0,.27,4.41,7.94,7.94,0,0,0,.92,3.16h-9.48a13.23,13.23,0,0,1-.43-1.61,13.84,13.84,0,0,1-.23-1.68,12.16,12.16,0,0,1-5.27,3.22,21.09,21.09,0,0,1-6.19.92,16.65,16.65,0,0,1-4.54-.59,10.35,10.35,0,0,1-3.69-1.84A8.57,8.57,0,0,1,248,99.76a10.7,10.7,0,0,1-.89-4.54,9.92,9.92,0,0,1,1-4.77,8.55,8.55,0,0,1,2.63-3,11.84,11.84,0,0,1,3.69-1.68,40.27,40.27,0,0,1,4.18-.89q2.11-.33,4.15-.52a25,25,0,0,0,3.62-.59,6.33,6.33,0,0,0,2.5-1.15,2.53,2.53,0,0,0,.86-2.2,5,5,0,0,0-.5-2.4A3.65,3.65,0,0,0,268,76.62,5.19,5.19,0,0,0,266,76a16,16,0,0,0-2.34-.16A7.09,7.09,0,0,0,259.36,77a5.29,5.29,0,0,0-1.85,4h-9.35A10.85,10.85,0,0,1,249.82,75.47Zm18.47,13.2a15,15,0,0,1-1.91.5q-1,.2-2.14.33c-.75.09-1.49.2-2.24.33a16.7,16.7,0,0,0-2.08.52,6.13,6.13,0,0,0-1.78.89,4.23,4.23,0,0,0-1.22,1.41,4.55,4.55,0,0,0-.46,2.17,4.39,4.39,0,0,0,.46,2.11,3.56,3.56,0,0,0,1.25,1.35A5.38,5.38,0,0,0,260,99a11.81,11.81,0,0,0,2.17.2,8.25,8.25,0,0,0,4.28-.92,6.17,6.17,0,0,0,2.24-2.2,7.07,7.07,0,0,0,.89-2.6,17.88,17.88,0,0,0,.17-2.11V87.84A4.14,4.14,0,0,1,268.28,88.67Z" transform="translate(-4.22 -6.43)"/><path d="M297.07,70.47v4.34h.13a10.3,10.3,0,0,1,4.34-4,13.33,13.33,0,0,1,5.79-1.25,14.77,14.77,0,0,1,6.91,1.51,14.26,14.26,0,0,1,4.81,4,17,17,0,0,1,2.83,5.83,25.9,25.9,0,0,1,.92,6.94,23.44,23.44,0,0,1-.92,6.58,16.84,16.84,0,0,1-2.8,5.6,13.86,13.86,0,0,1-4.67,3.88,14.09,14.09,0,0,1-6.55,1.45,13.24,13.24,0,0,1-5.83-1.28,11,11,0,0,1-4.38-3.78h-.13v16.13h-9.35V70.47Zm12.14,27a7.48,7.48,0,0,0,2.5-2.4,9.88,9.88,0,0,0,1.35-3.46,20.47,20.47,0,0,0,.39-4,19,19,0,0,0-.43-4A10.7,10.7,0,0,0,311.61,80a7.9,7.9,0,0,0-2.53-2.5,7.09,7.09,0,0,0-3.78-1,7.22,7.22,0,0,0-3.85,1,7.71,7.71,0,0,0-2.5,2.47,10.32,10.32,0,0,0-1.35,3.49,20.85,20.85,0,0,0-.39,4.08,18.81,18.81,0,0,0,.43,4A10.29,10.29,0,0,0,299,95.05a8,8,0,0,0,10.2,2.4Z" transform="translate(-4.22 -6.43)"/><path d="M394.89,65.2V57.5h9.35v7.7Zm9.35,5.27v34h-9.35v-34Z" transform="translate(-4.22 -6.43)"/><path d="M422.22,70.47v4.74h.2A10.7,10.7,0,0,1,427,70.89a13.31,13.31,0,0,1,5.79-1.35,15.87,15.87,0,0,1,6.15,1,9.12,9.12,0,0,1,3.79,2.83,11,11,0,0,1,1.94,4.41,27.5,27.5,0,0,1,.56,5.76V104.5h-9.35V85.28q0-4.21-1.32-6.29t-4.67-2.07q-3.82,0-5.53,2.27t-1.71,7.47V104.5h-9.35v-34Z" transform="translate(-4.22 -6.43)"/></svg>