<?xml version="1.0" encoding="utf-8"?>
<!-- Generator: Adobe Illustrator 18.0.0, SVG Export Plug-In . SVG Version: 6.00 Build 0)  -->
<!DOCTYPE svg PUBLIC "-//W3C//DTD SVG 1.1//EN" "http://www.w3.org/Graphics/SVG/1.1/DTD/svg11.dtd">
<svg version="1.1" id="Layer_1" xmlns="http://www.w3.org/2000/svg" xmlns:xlink="http://www.w3.org/1999/xlink" x="0px" y="0px"
	 viewBox="0 97.4 240 45.3" enable-background="new 0 97.4 240 45.3" xml:space="preserve">
<g id="Marker">
	<path d="M204.8,135l3.5-5.9l7.6-13.2c0.4-0.9,0.7-1.5,1-2.4c0.3-1.1,0.5-2.3,0.4-3.6c0-6.8-5.6-12.5-12.5-12.5l0,0
		c-6.8,0-12.5,5.6-12.5,12.5c-0.1,1.3,0.1,2.5,0.4,3.6c0.3,0.9,0.5,1.5,1,2.4l7.6,13.2L204.8,135z M204.8,120.4
		c-5.9,0-10.6-4.8-10.6-10.6c0-5.9,4.8-10.6,10.6-10.6c5.9,0,10.6,4.8,10.6,10.6C215.5,115.7,210.8,120.4,204.8,120.4z"/>
</g>
<path fill="#FF0000" d="M194.2,109.8c0-5.9,4.8-10.6,10.6-10.6c5.9,0,10.6,4.8,10.6,10.6"/>
<path d="M9.4,121.4c1.3,0,2.4,0.2,3.4,0.5c0.9,0.4,1.6,0.9,2.3,1.5c0.5,0.7,1,1.3,1.3,2.2c0.2,0.8,0.4,1.6,0.4,2.5
	c0,0.9-0.1,1.6-0.4,2.5c-0.2,0.8-0.7,1.5-1.3,2.2c-0.5,0.7-1.3,1.1-2.3,1.5s-2.1,0.5-3.4,0.5H4.6v7.5H0v-20.9H9.4z M8.1,131.2
	c0.5,0,1.1,0,1.5-0.1s0.9-0.2,1.3-0.4s0.7-0.5,0.9-1c0.2-0.4,0.3-1,0.3-1.6c0-0.7-0.1-1.2-0.3-1.6s-0.5-0.8-0.9-1
	c-0.3-0.2-0.8-0.3-1.3-0.4c-0.4-0.1-1-0.1-1.5-0.1H4.6v6.3L8.1,131.2L8.1,131.2z"/>
<path d="M24.6,138.7c0.7,0.7,1.5,0.9,2.7,0.9c0.9,0,1.5-0.2,2.2-0.7c0.7-0.4,1-0.9,1.1-1.3h3.7c-0.5,1.8-1.5,3.1-2.7,3.9
	c-1.2,0.8-2.7,1.2-4.3,1.2c-1.2,0-2.3-0.2-3.3-0.5c-1-0.4-1.7-1-2.4-1.6c-0.7-0.7-1.2-1.5-1.5-2.5s-0.5-2.1-0.5-3.3
	c0-1.1,0.2-2.2,0.5-3.1c0.3-1,0.9-1.8,1.6-2.5c0.7-0.8,1.5-1.3,2.5-1.7c1-0.4,2-0.7,3.1-0.7c1.3,0,2.4,0.2,3.4,0.8
	c1,0.5,1.7,1.2,2.4,2c0.7,0.9,1.1,1.8,1.3,2.8c0.3,1.1,0.3,2.2,0.3,3.4h-11C23.7,137,24,138,24.6,138.7z M29.3,130.7
	c-0.5-0.5-1.3-0.9-2.3-0.9c-0.7,0-1.2,0.1-1.6,0.3s-0.8,0.5-1.1,0.9c-0.2,0.3-0.4,0.7-0.5,1.1c-0.1,0.3-0.2,0.7-0.2,1h6.8
	C30.2,132,29.8,131.3,29.3,130.7z"/>
<path d="M46.4,127.2v2.8h-3v7.5c0,0.7,0.1,1.2,0.3,1.4s0.7,0.3,1.4,0.3c0.2,0,0.4,0,0.7,0c0.2,0,0.4,0,0.7-0.1v3.3
	c-0.3,0.1-0.8,0.1-1.2,0.1s-0.9,0-1.3,0c-0.7,0-1.3,0-1.8-0.1s-1.1-0.2-1.5-0.5c-0.4-0.2-0.8-0.7-1.1-1.1c-0.3-0.4-0.4-1.1-0.4-1.8
	v-9h-2.5v-2.8h2.5v-4.6h4.3v4.6H46.4z"/>
<path d="M49.3,131.8c0.1-1,0.3-1.7,0.8-2.4c0.4-0.7,1-1.2,1.6-1.5c0.7-0.3,1.4-0.7,2.3-0.9s1.6-0.2,2.5-0.2c0.8,0,1.5,0,2.3,0.1
	s1.5,0.3,2.2,0.7c0.7,0.3,1.2,0.8,1.6,1.3s0.7,1.3,0.7,2.2v7.9c0,0.7,0,1.3,0.1,2s0.2,1.1,0.4,1.4h-4.2c-0.1-0.2-0.1-0.4-0.2-0.8
	c0-0.2-0.1-0.5-0.1-0.8c-0.7,0.7-1.4,1.2-2.4,1.4s-1.8,0.4-2.7,0.4c-0.8,0-1.4-0.1-2.1-0.2c-0.7-0.2-1.2-0.4-1.6-0.9
	c-0.4-0.3-0.9-0.9-1.1-1.4c-0.3-0.5-0.4-1.2-0.4-2.1c0-0.9,0.1-1.5,0.4-2.2c0.3-0.5,0.7-1,1.2-1.3c0.4-0.3,1-0.5,1.6-0.8
	s1.2-0.3,1.8-0.4c0.7-0.1,1.2-0.2,1.8-0.2c0.7-0.1,1.2-0.1,1.6-0.2s0.9-0.3,1.1-0.5s0.4-0.5,0.4-1c0-0.4-0.1-0.8-0.2-1.1
	c-0.1-0.2-0.3-0.4-0.5-0.7c-0.2-0.1-0.5-0.2-0.9-0.3c-0.3-0.1-0.7-0.1-1.1-0.1c-0.9,0-1.5,0.2-2,0.5c-0.4,0.3-0.8,1-0.9,1.7h-4.1
	v0.4H49.3z M58.9,134.9c-0.2,0.1-0.4,0.3-0.7,0.3s-0.5,0.1-0.9,0.2c-0.3,0.1-0.7,0.1-1,0.1s-0.7,0.1-1,0.1c-0.3,0.1-0.7,0.1-1,0.2
	c-0.3,0.1-0.5,0.2-0.8,0.4s-0.4,0.3-0.5,0.7c-0.1,0.2-0.2,0.5-0.2,1c0,0.3,0.1,0.7,0.2,1c0.1,0.2,0.3,0.4,0.5,0.7
	c0.2,0.1,0.5,0.2,0.9,0.3c0.3,0.1,0.7,0.1,1,0.1c0.9,0,1.4-0.1,2-0.4c0.4-0.3,0.8-0.7,1-1c0.2-0.4,0.3-0.8,0.4-1.2
	c0-0.4,0.1-0.7,0.1-1V134.9L58.9,134.9L58.9,134.9z"/>
<path d="M77.7,121.4c1,0,2,0.1,2.7,0.2c0.9,0.2,1.5,0.4,2.1,0.9s1.1,1,1.4,1.6s0.4,1.5,0.4,2.5c0,1.1-0.2,2-0.8,2.6
	c-0.4,0.7-1.2,1.3-2.2,1.7c1.3,0.3,2.3,1,2.9,2c0.7,1,1,2.1,1,3.4c0,1.1-0.2,2-0.7,2.7s-1,1.4-1.6,1.8c-0.7,0.5-1.5,0.9-2.4,1.1
	c-0.9,0.2-1.8,0.3-2.7,0.3h-10v-20.8C67.8,121.4,77.7,121.4,77.7,121.4z M77,129.9c0.9,0,1.5-0.2,2.1-0.5c0.5-0.4,0.8-1,0.8-2
	c0-0.5-0.1-0.9-0.2-1.2c-0.2-0.3-0.4-0.5-0.7-0.8c-0.2-0.2-0.7-0.3-1-0.3c-0.4-0.1-0.8-0.1-1.2-0.1h-4.3v4.9H77z M77.4,138.8
	c0.4,0,0.9,0,1.3-0.1s0.8-0.2,1.1-0.4s0.5-0.4,0.8-0.9c0.2-0.3,0.3-0.8,0.3-1.3c0-1.1-0.3-1.8-0.9-2.3c-0.7-0.4-1.4-0.7-2.4-0.7h-5
	v5.8h4.8C77.4,138.9,77.4,138.8,77.4,138.8z"/>
<path d="M93.5,138.7c0.7,0.7,1.5,0.9,2.7,0.9c0.9,0,1.5-0.2,2.2-0.7c0.7-0.4,1-0.9,1.1-1.3h3.7c-0.5,1.8-1.5,3.1-2.7,3.9
	s-2.7,1.2-4.3,1.2c-1.2,0-2.3-0.2-3.3-0.5c-1-0.4-1.7-1-2.4-1.6c-0.7-0.7-1.2-1.5-1.5-2.5s-0.5-2.1-0.5-3.3c0-1.1,0.2-2.2,0.5-3.1
	c0.3-1,0.9-1.8,1.6-2.5c0.7-0.8,1.5-1.3,2.5-1.7c1-0.4,2-0.7,3.1-0.7c1.3,0,2.4,0.2,3.4,0.8c1,0.5,1.7,1.2,2.4,2
	c0.7,0.9,1.1,1.8,1.3,2.8c0.3,1.1,0.3,2.2,0.3,3.4H92.5C92.5,137,92.9,138,93.5,138.7z M98.2,130.7c-0.5-0.5-1.3-0.9-2.3-0.9
	c-0.7,0-1.2,0.1-1.6,0.3s-0.8,0.5-1.1,0.9c-0.2,0.3-0.4,0.7-0.5,1.1c-0.1,0.3-0.2,0.7-0.2,1h6.7C99.1,132,98.7,131.3,98.2,130.7z"/>
<path d="M110.9,127.2v2.1h0.1c0.5-0.9,1.2-1.5,2.1-2c0.9-0.4,1.7-0.7,2.6-0.7c1.1,0,2.1,0.1,2.7,0.4c0.8,0.3,1.3,0.8,1.7,1.3
	c0.4,0.5,0.7,1.2,0.9,2c0.2,0.8,0.2,1.6,0.2,2.6v9.3h-4.1v-8.6c0-1.3-0.2-2.2-0.5-2.8c-0.4-0.7-1.1-1-2.1-1c-1.1,0-2,0.3-2.5,1
	s-0.8,1.7-0.8,3.4v7.9h-4.1v-15.2h3.8C110.9,126.9,110.9,127.2,110.9,127.2z"/>
<path d="M132.7,129.9c-0.7,0-1.2,0.1-1.6,0.4c-0.4,0.3-0.9,0.7-1.1,1.2s-0.4,1-0.7,1.6c-0.1,0.5-0.2,1.2-0.2,1.7s0.1,1.1,0.2,1.6
	c0.1,0.5,0.3,1.1,0.5,1.5s0.7,0.9,1.1,1.1c0.4,0.2,1,0.4,1.6,0.4c1,0,1.7-0.3,2.3-0.9s0.9-1.3,1-2.3h4c-0.3,2.1-1.1,3.6-2.4,4.6
	c-1.3,1.1-2.9,1.6-5,1.6c-1.1,0-2.2-0.2-3.1-0.5c-1-0.4-1.7-0.9-2.4-1.6c-0.7-0.7-1.2-1.5-1.5-2.5s-0.5-2-0.5-3.1
	c0-1.2,0.2-2.3,0.5-3.3s0.9-1.8,1.5-2.6s1.5-1.3,2.4-1.7c1-0.4,2.1-0.7,3.3-0.7c0.9,0,1.7,0.1,2.6,0.3c0.9,0.2,1.5,0.5,2.3,1.1
	c0.7,0.4,1.2,1.1,1.6,1.7c0.4,0.8,0.7,1.5,0.7,2.5h-4.1C135.5,130.7,134.4,129.9,132.7,129.9z"/>
<path d="M143.1,131.8c0.1-1,0.3-1.7,0.8-2.4c0.4-0.7,1-1.2,1.6-1.5c0.7-0.4,1.4-0.7,2.3-0.9s1.6-0.2,2.5-0.2c0.8,0,1.5,0,2.3,0.1
	s1.5,0.3,2.2,0.7c0.7,0.3,1.2,0.8,1.6,1.3c0.4,0.5,0.7,1.3,0.7,2.2v7.9c0,0.7,0,1.3,0.1,2s0.2,1.1,0.4,1.4h-4.2
	c-0.1-0.2-0.1-0.4-0.2-0.8c0-0.2-0.1-0.5-0.1-0.8c-0.7,0.7-1.4,1.2-2.4,1.4c-0.9,0.3-1.8,0.4-2.7,0.4c-0.8,0-1.4-0.1-2.1-0.2
	c-0.7-0.2-1.2-0.4-1.6-0.9c-0.4-0.3-0.9-0.9-1.1-1.4s-0.4-1.2-0.4-2.1c0-0.9,0.1-1.5,0.4-2.2c0.3-0.7,0.7-1,1.2-1.3
	c0.4-0.3,1-0.5,1.6-0.8s1.2-0.3,1.8-0.4c0.7-0.1,1.2-0.2,1.8-0.2c0.7-0.1,1.2-0.1,1.6-0.2s0.9-0.3,1.1-0.5s0.4-0.5,0.4-1
	c0-0.4-0.1-0.8-0.2-1.1c-0.1-0.2-0.3-0.4-0.5-0.7c-0.2-0.1-0.5-0.2-0.9-0.3c-0.3,0-0.7-0.1-1.1-0.1c-0.9,0-1.4,0.2-2,0.5
	c-0.4,0.3-0.8,1-0.9,1.7H143L143.1,131.8L143.1,131.8z M152.8,134.9c-0.2,0.1-0.4,0.3-0.7,0.3c-0.2,0.1-0.5,0.1-0.9,0.2
	c-0.3,0.1-0.7,0.1-1,0.1s-0.7,0.1-1,0.1c-0.3,0.1-0.7,0.1-1,0.2c-0.3,0.1-0.5,0.2-0.8,0.4s-0.4,0.3-0.5,0.7c-0.1,0.2-0.2,0.5-0.2,1
	c0,0.3,0.1,0.7,0.2,1c0.1,0.2,0.3,0.4,0.5,0.7c0.2,0.1,0.5,0.2,0.9,0.3c0.3,0.1,0.7,0.1,1,0.1c0.9,0,1.4-0.1,2-0.4
	c0.4-0.3,0.8-0.7,1-1c0.2-0.4,0.3-0.8,0.4-1.2c0-0.4,0.1-0.7,0.1-1V134.9L152.8,134.9L152.8,134.9z"/>
<path d="M165.2,127.2v2.1h0.1c0.5-0.9,1.2-1.5,2.1-2c0.9-0.4,1.7-0.7,2.6-0.7c1.1,0,2.1,0.1,2.7,0.4c0.8,0.3,1.3,0.8,1.7,1.3
	c0.4,0.5,0.7,1.2,0.9,2s0.2,1.6,0.2,2.6v9.3h-4.1v-8.6c0-1.3-0.2-2.2-0.5-2.8c-0.4-0.7-1.1-1-2.1-1c-1.1,0-2,0.3-2.5,1
	s-0.8,1.7-0.8,3.4v7.9h-4.1v-15.2h3.8L165.2,127.2L165.2,127.2z"/>
<path d="M179.6,131.8c0.1-1,0.3-1.7,0.8-2.4c0.4-0.7,1-1.2,1.6-1.5c0.7-0.4,1.4-0.7,2.3-0.9s1.6-0.2,2.5-0.2c0.8,0,1.5,0,2.3,0.1
	s1.5,0.3,2.2,0.7c0.7,0.3,1.2,0.8,1.6,1.3c0.4,0.5,0.7,1.3,0.7,2.2v7.9c0,0.7,0,1.3,0.1,2s0.2,1.1,0.4,1.4h-4.2
	c-0.1-0.2-0.1-0.4-0.2-0.8c0-0.2-0.1-0.5-0.1-0.8c-0.7,0.7-1.4,1.2-2.4,1.4c-0.9,0.3-1.8,0.4-2.7,0.4c-0.8,0-1.4-0.1-2.1-0.2
	c-0.7-0.2-1.2-0.4-1.6-0.9c-0.4-0.3-0.9-0.9-1.1-1.4s-0.4-1.2-0.4-2.1c0-0.9,0.1-1.5,0.4-2.2c0.3-0.7,0.7-1,1.2-1.3
	c0.4-0.3,1-0.5,1.6-0.8s1.2-0.3,1.8-0.4c0.7-0.1,1.2-0.2,1.8-0.2c0.7-0.1,1.2-0.1,1.6-0.2s0.9-0.3,1.1-0.5s0.4-0.5,0.4-1
	c0-0.4-0.1-0.8-0.2-1.1c-0.1-0.2-0.3-0.4-0.5-0.7c-0.2-0.1-0.5-0.2-0.9-0.3c-0.3,0-0.7-0.1-1.1-0.1c-0.9,0-1.4,0.2-2,0.5
	c-0.4,0.3-0.8,1-0.9,1.7h-4.1L179.6,131.8L179.6,131.8z M189.1,134.9c-0.2,0.1-0.4,0.3-0.7,0.3c-0.2,0.1-0.5,0.1-0.9,0.2
	c-0.3,0.1-0.7,0.1-1,0.1s-0.7,0.1-1,0.1c-0.3,0.1-0.7,0.1-1,0.2c-0.3,0.1-0.5,0.2-0.8,0.4s-0.4,0.3-0.5,0.7c-0.1,0.2-0.2,0.5-0.2,1
	c0,0.3,0.1,0.7,0.2,1c0.1,0.2,0.3,0.4,0.5,0.7c0.2,0.1,0.5,0.2,0.9,0.3c0.3,0.1,0.7,0.1,1,0.1c0.9,0,1.4-0.1,2-0.4
	c0.4-0.3,0.8-0.7,1-1c0.2-0.4,0.3-0.8,0.4-1.2c0-0.4,0.1-0.7,0.1-1V134.9L189.1,134.9L189.1,134.9z"/>
<path d="M216.7,124.8v-3.5h4.1v3.5H216.7z M220.9,127.2v15.2h-4.1v-15.2H220.9z"/>
<path d="M236,140.4c-0.5,0.9-1.1,1.4-2,1.7c-0.8,0.3-1.7,0.5-2.7,0.5c-1.1,0-2.2-0.2-3-0.7c-0.9-0.4-1.5-1.1-2.2-1.7
	c-0.5-0.8-1-1.6-1.3-2.6s-0.4-2-0.4-3s0.1-2,0.4-2.9c0.3-1,0.7-1.7,1.3-2.5c0.5-0.8,1.3-1.3,2.1-1.7c0.9-0.4,1.8-0.7,2.9-0.7
	c0.9,0,1.7,0.2,2.6,0.5c0.9,0.3,1.4,1,2,1.7h0.1v-7.6h4.1v20.9H236V140.4L236,140.4z M235.8,132.9c-0.1-0.5-0.3-1.1-0.7-1.5
	c-0.3-0.4-0.7-0.8-1.1-1.1c-0.4-0.3-1-0.4-1.7-0.4s-1.3,0.1-1.7,0.4c-0.4,0.3-0.9,0.7-1.1,1.1c-0.3,0.4-0.5,1-0.7,1.5
	s-0.2,1.2-0.2,1.8c0,0.5,0.1,1.2,0.2,1.7s0.3,1.1,0.7,1.5c0.3,0.4,0.7,0.9,1.2,1.1c0.4,0.3,1,0.4,1.6,0.4s1.3-0.1,1.7-0.4
	s0.9-0.7,1.1-1.1c0.2-0.4,0.4-1,0.5-1.5s0.2-1.2,0.2-1.8S235.9,133.5,235.8,132.9z"/>
<circle cx="205" cy="140.1" r="2.3"/>
</svg>
