<?xml version="1.0" encoding="utf-8"?>
<!-- Generator: Adobe Illustrator 19.1.0, SVG Export Plug-In . SVG Version: 6.00 Build 0)  -->
<svg version="1.1" id="Layer_1" xmlns="http://www.w3.org/2000/svg" xmlns:xlink="http://www.w3.org/1999/xlink" x="0px" y="0px"
	 viewBox="-224 379.7 162.7 34.3" style="enable-background:new -224 379.7 162.7 34.3;" xml:space="preserve">
<style type="text/css">
	.st0{fill:#231F20;}
	.st1{fill:#FFFFFF;}
	.st2{fill:#FF0000;}
	.st3{fill:none;}
	.st4{clip-path:url(#SVGID_2_);fill:#231F20;}
</style>
<g>
	<g>
		<path class="st0" d="M-215.7,398.4h-6.3v13.1h3.1v-4.7h3.2c0.9,0,1.6-0.1,2.2-0.4c0.6-0.2,1.1-0.6,1.5-0.9
			c0.4-0.4,0.7-0.8,0.8-1.3c0.2-0.5,0.3-1,0.3-1.5s-0.1-1.1-0.3-1.6s-0.5-0.9-0.8-1.3c-0.4-0.4-0.9-0.7-1.5-0.9
			C-214.1,398.5-214.9,398.4-215.7,398.4 M-219,404.5v-3.9h2.4c0.4,0,0.7,0,1,0.1c0.3,0,0.6,0.1,0.9,0.3c0.2,0.1,0.4,0.3,0.6,0.6
			c0.1,0.3,0.2,0.6,0.2,1s-0.1,0.7-0.2,1c-0.2,0.3-0.3,0.5-0.6,0.6c-0.2,0.1-0.5,0.2-0.9,0.3c-0.3,0-0.7,0.1-1,0.1h-2.4V404.5z"/>
		<path class="st0" d="M-204.1,401.7c-0.8,0-1.5,0.1-2.1,0.4s-1.2,0.6-1.6,1.1c-0.5,0.4-0.8,1-1.1,1.6c-0.2,0.6-0.4,1.3-0.4,2
			s0.1,1.4,0.4,2c0.2,0.6,0.6,1.1,1,1.6c0.4,0.4,1,0.8,1.6,1s1.4,0.4,2.2,0.4c1.1,0,2.1-0.2,2.9-0.7c0.8-0.5,1.4-1.3,1.8-2.4h-2.4
			c-0.1,0.3-0.3,0.6-0.7,0.8c-0.4,0.3-0.9,0.4-1.4,0.4c-0.8,0-1.4-0.2-1.8-0.6c-0.4-0.4-0.6-1-0.7-1.8h7.3c0.1-0.7,0-1.4-0.2-2.1
			s-0.5-1.3-0.9-1.8s-0.9-0.9-1.6-1.3C-202.5,401.9-203.2,401.7-204.1,401.7 M-206.5,405.7c0-0.2,0.1-0.4,0.1-0.6
			c0.1-0.2,0.2-0.5,0.4-0.7s0.4-0.4,0.7-0.5s0.7-0.2,1.1-0.2c0.7,0,1.2,0.2,1.5,0.5s0.6,0.8,0.7,1.5L-206.5,405.7L-206.5,405.7z"/>
		<path class="st0" d="M-193.5,399.1h-2.8v2.8h-1.7v1.7h1.7v5.6c0,0.5,0.1,0.9,0.3,1.2c0.2,0.3,0.4,0.5,0.7,0.7s0.6,0.3,1,0.3
			c0.4,0.1,0.8,0.1,1.2,0.1c0.3,0,0.6,0,0.8,0c0.3,0,0.5,0,0.8-0.1v-2c-0.1,0-0.3,0-0.4,0.1c-0.1,0-0.3,0-0.5,0
			c-0.5,0-0.8-0.1-0.9-0.2c-0.2-0.1-0.2-0.4-0.2-0.9v-4.7h2V402h-2L-193.5,399.1L-193.5,399.1z"/>
		<path class="st0" d="M-185,401.7c-0.6,0-1.1,0.1-1.7,0.2c-0.6,0.1-1.1,0.3-1.5,0.5s-0.8,0.6-1.1,1s-0.5,0.9-0.5,1.5h2.8
			c0.1-0.5,0.2-0.9,0.5-1.1s0.7-0.3,1.3-0.3c0.2,0,0.5,0,0.7,0s0.4,0.1,0.6,0.2c0.2,0.1,0.3,0.2,0.4,0.4c0.1,0.2,0.1,0.4,0.1,0.7
			c0,0.3-0.1,0.5-0.3,0.6s-0.4,0.2-0.7,0.3c-0.3,0.1-0.7,0.1-1.1,0.2c-0.4,0-0.8,0.1-1.2,0.1s-0.8,0.1-1.2,0.2s-0.8,0.3-1.1,0.5
			s-0.6,0.5-0.8,0.8s-0.3,0.8-0.3,1.3s0.1,0.9,0.3,1.3s0.4,0.6,0.7,0.9c0.3,0.2,0.7,0.4,1.1,0.5c0.4,0.1,0.9,0.2,1.4,0.2
			c0.6,0,1.2-0.1,1.8-0.3c0.6-0.2,1.1-0.5,1.6-0.9c0,0.2,0,0.3,0.1,0.5c0,0.2,0.1,0.3,0.1,0.4h2.8c-0.1-0.2-0.2-0.5-0.3-0.9
			s-0.1-0.8-0.1-1.2v-4.9c0-0.6-0.1-1-0.4-1.4c-0.3-0.3-0.6-0.6-1.1-0.8c-0.4-0.2-0.9-0.3-1.4-0.4C-184,401.7-184.5,401.7-185,401.7
			 M-185.6,409.9c-0.2,0-0.4,0-0.6-0.1c-0.2,0-0.4-0.1-0.5-0.2c-0.2-0.1-0.3-0.2-0.4-0.4c-0.1-0.2-0.1-0.4-0.1-0.6s0-0.4,0.1-0.6
			s0.2-0.3,0.4-0.4s0.3-0.2,0.5-0.2c0.2-0.1,0.4-0.1,0.6-0.1c0.2,0,0.4-0.1,0.7-0.1s0.4-0.1,0.6-0.1c0.2,0,0.4-0.1,0.6-0.1
			c0.2-0.1,0.3-0.1,0.4-0.2v1c0,0.1,0,0.3,0,0.6c0,0.2-0.1,0.5-0.3,0.7c-0.1,0.2-0.4,0.4-0.7,0.6
			C-184.6,409.9-185.1,409.9-185.6,409.9"/>
		<path class="st0" d="M-171.1,398.4h-6.6v13.1h6.8c0.6,0,1.2-0.1,1.8-0.2s1.1-0.4,1.6-0.7c0.5-0.3,0.8-0.7,1.1-1.2s0.4-1.1,0.4-1.7
			c0-0.8-0.2-1.5-0.6-2.1s-1.1-1-1.9-1.2c0.6-0.3,1.1-0.6,1.4-1.1c0.3-0.4,0.5-1,0.5-1.6s-0.1-1.1-0.3-1.5s-0.5-0.7-0.9-1
			c-0.4-0.2-0.9-0.4-1.4-0.5C-169.8,398.4-170.4,398.4-171.1,398.4 M-174.6,403.6v-3.1h2.9c0.3,0,0.5,0,0.8,0.1
			c0.3,0,0.5,0.1,0.7,0.2s0.4,0.3,0.5,0.5s0.2,0.4,0.2,0.7c0,0.5-0.2,0.9-0.5,1.2c-0.4,0.2-0.8,0.4-1.4,0.4L-174.6,403.6
			L-174.6,403.6z M-174.6,409.2v-3.6h3.3c0.7,0,1.2,0.1,1.6,0.4c0.4,0.3,0.6,0.8,0.6,1.4c0,0.3-0.1,0.6-0.2,0.8
			c-0.1,0.2-0.3,0.4-0.5,0.5s-0.5,0.2-0.7,0.3c-0.3,0.1-0.6,0.1-0.9,0.1h-3.2V409.2z"/>
		<path class="st0" d="M-159,401.7c-0.8,0-1.5,0.1-2.1,0.4s-1.2,0.6-1.6,1.1c-0.5,0.4-0.8,1-1.1,1.6c-0.2,0.6-0.4,1.3-0.4,2
			s0.1,1.4,0.4,2c0.2,0.6,0.6,1.1,1,1.6c0.4,0.4,1,0.8,1.6,1s1.4,0.4,2.2,0.4c1.1,0,2.1-0.2,2.9-0.7c0.8-0.5,1.4-1.3,1.8-2.4h-2.4
			c-0.1,0.3-0.3,0.6-0.7,0.8c-0.4,0.3-0.9,0.4-1.4,0.4c-0.8,0-1.4-0.2-1.8-0.6c-0.4-0.4-0.6-1-0.7-1.8h7.3c0.1-0.7,0-1.4-0.2-2.1
			s-0.5-1.3-0.9-1.8s-0.9-0.9-1.6-1.3C-157.4,401.9-158.1,401.7-159,401.7 M-161.4,405.7c0-0.2,0.1-0.4,0.1-0.6
			c0.1-0.2,0.2-0.5,0.4-0.7s0.4-0.4,0.7-0.5s0.7-0.2,1.1-0.2c0.7,0,1.2,0.2,1.5,0.5s0.6,0.8,0.7,1.5L-161.4,405.7L-161.4,405.7z"/>
		<path class="st0" d="M-146.1,401.7c-0.6,0-1.2,0.1-1.7,0.4c-0.6,0.3-1,0.7-1.4,1.2h-0.1V402h-2.6v9.5h2.8v-5c0-1,0.2-1.7,0.5-2.1
			s0.9-0.6,1.6-0.6c0.7,0,1.1,0.2,1.4,0.6c0.3,0.4,0.4,1,0.4,1.7v5.3h2.8v-5.8c0-0.6-0.1-1.1-0.2-1.6c-0.1-0.5-0.3-0.9-0.6-1.2
			c-0.3-0.3-0.7-0.6-1.1-0.8C-144.8,401.8-145.4,401.7-146.1,401.7"/>
		<path class="st0" d="M-135,401.7c-0.8,0-1.6,0.1-2.2,0.4c-0.6,0.3-1.2,0.6-1.6,1.1c-0.4,0.5-0.8,1-1,1.6s-0.3,1.3-0.3,2
			s0.1,1.4,0.4,1.9c0.2,0.6,0.6,1.1,1,1.5s1,0.8,1.6,1s1.3,0.4,2.1,0.4c1.3,0,2.4-0.3,3.3-1c0.9-0.7,1.4-1.6,1.6-2.9h-2.7
			c-0.1,0.6-0.3,1.1-0.7,1.4s-0.9,0.5-1.5,0.5c-0.4,0-0.8-0.1-1.1-0.3c-0.3-0.2-0.5-0.4-0.7-0.7c-0.2-0.3-0.3-0.6-0.4-1
			c-0.1-0.4-0.1-0.7-0.1-1c0-0.4,0-0.7,0.1-1.1s0.2-0.7,0.4-1s0.4-0.5,0.7-0.7s0.7-0.3,1.1-0.3c1.2,0,1.9,0.5,2.1,1.6h2.7
			c0-0.6-0.2-1.1-0.5-1.6c-0.3-0.4-0.6-0.8-1.1-1.1c-0.4-0.3-0.9-0.5-1.5-0.7C-133.8,401.8-134.4,401.7-135,401.7"/>
		<path class="st0" d="M-123.5,401.7c-0.6,0-1.1,0.1-1.7,0.2c-0.6,0.1-1.1,0.3-1.5,0.5s-0.8,0.6-1.1,1s-0.5,0.9-0.5,1.5h2.8
			c0.1-0.5,0.2-0.9,0.5-1.1s0.7-0.3,1.3-0.3c0.2,0,0.5,0,0.7,0s0.4,0.1,0.6,0.2s0.3,0.2,0.4,0.4c0.1,0.2,0.1,0.4,0.1,0.7
			c0,0.3-0.1,0.5-0.3,0.6c-0.2,0.1-0.4,0.2-0.7,0.3c-0.3,0.1-0.7,0.1-1.1,0.2c-0.4,0-0.8,0.1-1.2,0.1s-0.8,0.1-1.2,0.2
			s-0.8,0.3-1.1,0.5s-0.6,0.5-0.8,0.8s-0.3,0.8-0.3,1.3s0.1,0.9,0.3,1.3s0.4,0.6,0.7,0.9c0.3,0.2,0.7,0.4,1.1,0.5
			c0.4,0.1,0.9,0.2,1.4,0.2c0.6,0,1.2-0.1,1.8-0.3c0.6-0.2,1.1-0.5,1.6-0.9c0,0.2,0,0.3,0.1,0.5c0,0.2,0.1,0.3,0.1,0.4h2.8
			c-0.1-0.2-0.2-0.5-0.3-0.9c-0.1-0.4-0.1-0.8-0.1-1.2v-4.9c0-0.6-0.1-1-0.4-1.4c-0.3-0.3-0.6-0.6-1.1-0.8c-0.4-0.2-0.9-0.3-1.4-0.4
			C-122.4,401.7-123,401.7-123.5,401.7 M-124,409.9c-0.2,0-0.4,0-0.6-0.1c-0.2,0-0.4-0.1-0.5-0.2c-0.2-0.1-0.3-0.2-0.4-0.4
			c-0.1-0.2-0.1-0.4-0.1-0.6s0-0.4,0.1-0.6s0.2-0.3,0.4-0.4c0.2-0.1,0.3-0.2,0.5-0.2c0.2-0.1,0.4-0.1,0.6-0.1s0.4-0.1,0.7-0.1
			s0.4-0.1,0.6-0.1s0.4-0.1,0.6-0.1c0.2-0.1,0.3-0.1,0.4-0.2v1c0,0.1,0,0.3,0,0.6c0,0.2-0.1,0.5-0.3,0.7c-0.1,0.2-0.4,0.4-0.7,0.6
			C-123.1,409.9-123.5,409.9-124,409.9"/>
		<path class="st0" d="M-110.6,401.7c-0.6,0-1.2,0.1-1.7,0.4c-0.6,0.3-1,0.7-1.4,1.2h-0.1V402h-2.6v9.5h2.8v-5c0-1,0.2-1.7,0.5-2.1
			s0.9-0.6,1.6-0.6s1.1,0.2,1.4,0.6s0.4,1,0.4,1.7v5.3h2.8v-5.8c0-0.6-0.1-1.1-0.2-1.6s-0.3-0.9-0.6-1.2c-0.3-0.3-0.7-0.6-1.1-0.8
			C-109.2,401.8-109.8,401.7-110.6,401.7"/>
		<path class="st0" d="M-99.6,401.7c-0.6,0-1.1,0.1-1.7,0.2s-1.1,0.3-1.5,0.5s-0.8,0.6-1.1,1c-0.3,0.4-0.5,0.9-0.5,1.5h2.8
			c0.1-0.5,0.2-0.9,0.5-1.1s0.7-0.3,1.3-0.3c0.2,0,0.5,0,0.7,0s0.4,0.1,0.6,0.2s0.3,0.2,0.4,0.4c0.1,0.2,0.1,0.4,0.1,0.7
			c0,0.3-0.1,0.5-0.3,0.6c-0.2,0.1-0.4,0.2-0.7,0.3c-0.3,0.1-0.7,0.1-1.1,0.2c-0.4,0-0.8,0.1-1.2,0.1c-0.4,0.1-0.8,0.1-1.2,0.2
			s-0.8,0.3-1.1,0.5c-0.3,0.2-0.6,0.5-0.8,0.8c-0.2,0.3-0.3,0.8-0.3,1.3s0.1,0.9,0.3,1.3c0.2,0.4,0.4,0.6,0.7,0.9
			c0.3,0.2,0.7,0.4,1.1,0.5s0.9,0.2,1.4,0.2c0.6,0,1.2-0.1,1.8-0.3c0.6-0.2,1.1-0.5,1.6-0.9c0,0.2,0,0.3,0.1,0.5
			c0,0.2,0.1,0.3,0.1,0.4h2.8c-0.1-0.2-0.2-0.5-0.3-0.9c-0.1-0.4-0.1-0.8-0.1-1.2v-4.9c0-0.6-0.1-1-0.4-1.4
			c-0.3-0.3-0.6-0.6-1.1-0.8c-0.4-0.2-0.9-0.3-1.4-0.4C-98.6,401.7-99.1,401.7-99.6,401.7 M-100.2,409.9c-0.2,0-0.4,0-0.6-0.1
			c-0.2,0-0.4-0.1-0.5-0.2c-0.2-0.1-0.3-0.2-0.4-0.4c-0.1-0.2-0.1-0.4-0.1-0.6s0-0.4,0.1-0.6s0.2-0.3,0.4-0.4
			c0.2-0.1,0.3-0.2,0.5-0.2c0.2-0.1,0.4-0.1,0.6-0.1s0.4-0.1,0.7-0.1c0.2,0,0.4-0.1,0.6-0.1s0.4-0.1,0.6-0.1
			c0.2-0.1,0.3-0.1,0.4-0.2v1c0,0.1,0,0.3,0,0.6c0,0.2-0.1,0.5-0.3,0.7c-0.1,0.2-0.4,0.4-0.7,0.6
			C-99.2,409.9-99.7,409.9-100.2,409.9"/>
		<path class="st0" d="M-78.3,411.4h2.8V402h-2.8V411.4z M-78.3,400.5h2.8v-2.1h-2.8V400.5z"/>
		<path class="st0" d="M-63,398.4h-2.8v4.8l0,0c-0.3-0.5-0.7-0.8-1.3-1.1c-0.5-0.2-1.1-0.4-1.7-0.4c-0.7,0-1.4,0.1-2,0.4
			s-1,0.6-1.4,1.1s-0.7,1-0.8,1.6c-0.2,0.6-0.3,1.2-0.3,1.8c0,0.7,0.1,1.3,0.3,1.9c0.2,0.6,0.5,1.1,0.8,1.6c0.4,0.5,0.8,0.8,1.4,1.1
			c0.6,0.3,1.2,0.4,2,0.4c0.7,0,1.3-0.1,1.8-0.3c0.5-0.2,1-0.6,1.3-1.1l0,0v1.2h2.6L-63,398.4L-63,398.4z M-68.1,409.7
			c-0.4,0-0.8-0.1-1.1-0.3c-0.3-0.2-0.6-0.4-0.8-0.7c-0.2-0.3-0.3-0.6-0.4-1s-0.1-0.7-0.1-1.1s0-0.8,0.1-1.1c0.1-0.4,0.2-0.7,0.4-1
			c0.2-0.3,0.4-0.5,0.8-0.7c0.3-0.2,0.7-0.3,1.2-0.3s0.8,0.1,1.1,0.3c0.3,0.2,0.5,0.4,0.7,0.7c0.2,0.3,0.3,0.6,0.4,1
			s0.1,0.7,0.1,1.1s0,0.8-0.1,1.1c-0.1,0.4-0.2,0.7-0.4,1c-0.2,0.3-0.4,0.5-0.7,0.7C-67.2,409.6-67.6,409.7-68.1,409.7"/>
		<g>
			<path class="st0" d="M-87.1,382c-4.9,0-8.9,3.8-8.9,8.3c-0.1,0.9,0.1,1.7,0.3,2.4c0.2,0.6,0.4,1,0.7,1.6l0.2,0.4l7.6,10.6
				l7.6-10.6l0.2-0.4c0.3-0.5,0.5-1,0.7-1.6c0.3-0.7,0.4-1.5,0.4-2.4C-78.2,385.8-82.2,382-87.1,382"/>
			<path class="st1" d="M-87.1,397.3c4.1,0,7.5-3.1,7.5-7s-3.4-7-7.5-7s-7.5,3.1-7.5,7C-94.6,394.2-91.3,397.3-87.1,397.3"/>
			<path class="st2" d="M-79.6,390.4c0-3.9-3.4-7-7.5-7s-7.5,3.1-7.5,7"/>
		</g>
		<path class="st0" d="M-87.1,411.7c1,0,1.8-0.8,1.8-1.8s-0.8-1.8-1.8-1.8s-1.8,0.8-1.8,1.8S-88.1,411.7-87.1,411.7"/>
	</g>
	<rect x="-224" y="379.7" class="st3" width="162.7" height="34.3"/>
</g>
<g>
	<defs>
		<rect id="SVGID_1_" x="-156" y="817.6" width="111.9" height="10.1"/>
	</defs>
	<clipPath id="SVGID_2_">
		<use xlink:href="#SVGID_1_"  style="overflow:visible;"/>
	</clipPath>
	<path class="st4" d="M-45.6,819.8c0.3,0.2,0.6,0.4,0.8,0.6c0.2,0.3,0.4,0.6,0.5,1c0.1,0.4,0.2,0.7,0.2,1.2s-0.1,0.8-0.2,1.2
		c-0.1,0.4-0.3,0.7-0.5,1c-0.2,0.3-0.5,0.5-0.8,0.6c-0.3,0.2-0.7,0.2-1.1,0.2c-0.4,0-0.8-0.1-1.1-0.2c-0.3-0.2-0.6-0.4-0.8-0.6
		c-0.2-0.3-0.4-0.6-0.5-1c-0.1-0.4-0.2-0.8-0.2-1.2s0.1-0.8,0.2-1.2c0.1-0.4,0.3-0.7,0.5-1c0.2-0.3,0.5-0.5,0.8-0.6
		c0.3-0.2,0.7-0.2,1.1-0.2C-46.3,819.6-46,819.7-45.6,819.8 M-47.6,820.4c-0.2,0.1-0.5,0.3-0.6,0.5c-0.2,0.2-0.3,0.5-0.4,0.8
		c-0.1,0.3-0.1,0.6-0.1,0.9c0,0.3,0,0.6,0.1,0.9c0.1,0.3,0.2,0.5,0.4,0.8s0.4,0.4,0.6,0.5c0.2,0.1,0.5,0.2,0.9,0.2
		c0.3,0,0.6-0.1,0.9-0.2c0.2-0.1,0.5-0.3,0.6-0.5c0.2-0.2,0.3-0.5,0.4-0.8c0.1-0.3,0.1-0.6,0.1-0.9c0-0.3,0-0.6-0.1-0.9
		c-0.1-0.3-0.2-0.5-0.4-0.8c-0.2-0.2-0.4-0.4-0.6-0.5c-0.2-0.1-0.5-0.2-0.9-0.2C-47.1,820.2-47.4,820.3-47.6,820.4 M-54,817.6v4.9
		l3.1-2.8h0.9l-2.4,2.1l2.6,3.6h-0.9l-2.2-3.1l-1.1,0.9v2.2h-0.7v-7.9H-54z M-56,825.4h-0.7v-5.7h0.7V825.4z M-56,818.7h-0.7v-1.1
		h0.7V818.7z M-58.7,820.9c-0.1-0.2-0.2-0.3-0.3-0.4c-0.1-0.1-0.3-0.2-0.5-0.2c-0.2,0-0.4-0.1-0.6-0.1c-0.2,0-0.3,0-0.5,0
		c-0.2,0-0.3,0.1-0.4,0.2c-0.1,0.1-0.2,0.2-0.3,0.3c-0.1,0.1-0.1,0.3-0.1,0.5c0,0.2,0,0.3,0.1,0.4c0.1,0.1,0.2,0.2,0.3,0.3
		c0.1,0.1,0.2,0.1,0.4,0.2c0.1,0,0.3,0.1,0.4,0.1l0.9,0.2c0.2,0,0.4,0.1,0.6,0.2c0.2,0.1,0.4,0.2,0.5,0.3c0.2,0.1,0.3,0.3,0.4,0.5
		c0.1,0.2,0.1,0.4,0.1,0.6c0,0.3-0.1,0.6-0.2,0.8c-0.1,0.2-0.3,0.4-0.5,0.5c-0.2,0.1-0.5,0.2-0.7,0.3c-0.3,0.1-0.5,0.1-0.8,0.1
		c-0.7,0-1.2-0.2-1.6-0.5c-0.4-0.3-0.7-0.8-0.7-1.5h0.7c0,0.5,0.2,0.8,0.5,1.1c0.3,0.2,0.7,0.4,1.2,0.4c0.2,0,0.3,0,0.5-0.1
		c0.2,0,0.3-0.1,0.5-0.2c0.2-0.1,0.3-0.2,0.4-0.3c0.1-0.1,0.1-0.3,0.1-0.5c0-0.2,0-0.3-0.1-0.4c-0.1-0.1-0.2-0.2-0.3-0.3
		c-0.1-0.1-0.3-0.1-0.4-0.2c-0.1-0.1-0.3-0.1-0.5-0.1l-0.9-0.2c-0.2-0.1-0.4-0.1-0.6-0.2c-0.2-0.1-0.4-0.2-0.5-0.3
		c-0.1-0.1-0.3-0.3-0.3-0.4c-0.1-0.2-0.1-0.4-0.1-0.6c0-0.3,0.1-0.5,0.2-0.7c0.1-0.2,0.3-0.4,0.5-0.5c0.2-0.1,0.4-0.2,0.7-0.3
		s0.5-0.1,0.8-0.1c0.3,0,0.6,0,0.8,0.1c0.2,0.1,0.5,0.2,0.6,0.3c0.2,0.2,0.3,0.3,0.4,0.6s0.2,0.5,0.2,0.8h-0.7
		C-58.6,821.2-58.6,821-58.7,820.9 M-63.3,825.4H-64v-5.7h0.7V825.4z M-63.3,818.7H-64v-1.1h0.7V818.7z M-67.6,817.6
		c0.3,0,0.6,0,0.9,0.1c0.3,0.1,0.5,0.2,0.8,0.4c0.2,0.2,0.4,0.4,0.5,0.6c0.1,0.3,0.2,0.6,0.2,0.9c0,0.5-0.1,0.9-0.4,1.3
		c-0.3,0.4-0.6,0.6-1.1,0.7v0c0.3,0,0.5,0.1,0.6,0.2c0.2,0.1,0.3,0.2,0.4,0.4c0.1,0.2,0.2,0.3,0.2,0.5c0,0.2,0.1,0.4,0.1,0.7
		c0,0.1,0,0.3,0,0.5c0,0.2,0,0.4,0,0.6c0,0.2,0.1,0.4,0.1,0.5c0,0.2,0.1,0.3,0.2,0.4h-0.8c0-0.1-0.1-0.2-0.1-0.3
		c0-0.1,0-0.2-0.1-0.3c0-0.1,0-0.2,0-0.3c0-0.1,0-0.2,0-0.3c0-0.3,0-0.6-0.1-0.8c0-0.3-0.1-0.5-0.2-0.7c-0.1-0.2-0.3-0.4-0.5-0.5
		c-0.2-0.1-0.5-0.2-0.8-0.2h-2.8v3.5h-0.7v-7.9H-67.6z M-67.7,821.3c0.2,0,0.4,0,0.6-0.1c0.2-0.1,0.4-0.2,0.5-0.3
		c0.2-0.1,0.3-0.3,0.4-0.5c0.1-0.2,0.1-0.4,0.1-0.6c0-0.5-0.1-0.9-0.4-1.1s-0.7-0.4-1.3-0.4h-2.8v3.1H-67.7z M-75.8,825.4h-0.7v-5.7
		h0.7V825.4z M-75.8,818.7h-0.7v-1.1h0.7V818.7z M-79.5,824.6c0.2-0.1,0.4-0.3,0.6-0.5c0.2-0.2,0.3-0.4,0.3-0.7
		c0.1-0.3,0.1-0.5,0.1-0.8c0-0.3,0-0.6-0.1-0.8c-0.1-0.3-0.2-0.5-0.3-0.8c-0.1-0.2-0.3-0.4-0.6-0.5c-0.2-0.1-0.5-0.2-0.8-0.2
		c-0.3,0-0.6,0.1-0.8,0.2c-0.2,0.1-0.4,0.3-0.6,0.5c-0.2,0.2-0.3,0.5-0.3,0.8c-0.1,0.3-0.1,0.6-0.1,0.9c0,0.3,0,0.6,0.1,0.8
		c0.1,0.3,0.2,0.5,0.3,0.7c0.2,0.2,0.3,0.4,0.6,0.5c0.2,0.1,0.5,0.2,0.8,0.2C-80,824.8-79.7,824.7-79.5,824.6 M-77.9,826.1
		c-0.1,0.3-0.2,0.6-0.4,0.9c-0.2,0.2-0.5,0.4-0.8,0.5s-0.7,0.2-1.2,0.2c-0.3,0-0.6,0-0.8-0.1c-0.3-0.1-0.5-0.2-0.7-0.3
		c-0.2-0.1-0.4-0.3-0.5-0.5c-0.1-0.2-0.2-0.5-0.2-0.8h0.7c0,0.2,0.1,0.4,0.2,0.5c0.1,0.1,0.2,0.3,0.4,0.3c0.2,0.1,0.3,0.2,0.5,0.2
		c0.2,0,0.4,0.1,0.6,0.1c0.6,0,1.1-0.2,1.4-0.5c0.3-0.4,0.4-0.9,0.4-1.6v-0.8h0c-0.2,0.4-0.4,0.6-0.7,0.8c-0.3,0.2-0.7,0.3-1.1,0.3
		c-0.5,0-0.8-0.1-1.2-0.2c-0.3-0.2-0.6-0.4-0.8-0.6c-0.2-0.3-0.4-0.6-0.5-0.9c-0.1-0.4-0.1-0.7-0.1-1.1c0-0.4,0.1-0.8,0.2-1.1
		c0.1-0.3,0.3-0.7,0.5-0.9c0.2-0.3,0.5-0.5,0.8-0.6c0.3-0.2,0.7-0.2,1.1-0.2c0.2,0,0.4,0,0.6,0.1c0.2,0.1,0.4,0.1,0.5,0.2
		c0.2,0.1,0.3,0.2,0.4,0.4c0.1,0.1,0.2,0.3,0.3,0.4h0v-1h0.7v5.2C-77.8,825.4-77.8,825.8-77.9,826.1 M-87.8,819.8v1h0
		c0.1-0.3,0.4-0.6,0.7-0.8c0.3-0.2,0.7-0.3,1.1-0.3c0.4,0,0.7,0.1,1,0.2c0.3,0.1,0.5,0.2,0.6,0.4c0.2,0.2,0.3,0.4,0.3,0.7
		s0.1,0.6,0.1,0.9v3.7h-0.7v-3.5c0-0.2,0-0.5-0.1-0.7c0-0.2-0.1-0.4-0.2-0.5s-0.3-0.3-0.4-0.4c-0.2-0.1-0.4-0.1-0.7-0.1
		c-0.3,0-0.5,0-0.7,0.1c-0.2,0.1-0.4,0.2-0.6,0.4c-0.2,0.2-0.3,0.4-0.4,0.6c-0.1,0.2-0.1,0.5-0.1,0.8v3.3h-0.7v-5.7H-87.8z
		 M-90.6,822.3c0,0.1-0.1,0.1-0.3,0.2c-0.1,0-0.2,0.1-0.3,0.1c-0.3,0.1-0.6,0.1-0.9,0.1c-0.3,0-0.6,0.1-0.9,0.2
		c-0.3,0.1-0.5,0.2-0.6,0.3c-0.2,0.2-0.2,0.4-0.2,0.6c0,0.2,0,0.3,0.1,0.5c0.1,0.1,0.2,0.3,0.3,0.4c0.1,0.1,0.3,0.2,0.4,0.2
		c0.2,0.1,0.3,0.1,0.5,0.1c0.3,0,0.5,0,0.8-0.1c0.2-0.1,0.5-0.2,0.6-0.4c0.2-0.2,0.3-0.3,0.4-0.6c0.1-0.2,0.2-0.5,0.2-0.7
		L-90.6,822.3L-90.6,822.3z M-94,820.6c0.1-0.2,0.3-0.4,0.5-0.6c0.2-0.2,0.4-0.3,0.7-0.3s0.6-0.1,0.9-0.1c0.2,0,0.5,0,0.7,0.1
		c0.2,0,0.5,0.1,0.7,0.3c0.2,0.1,0.4,0.3,0.5,0.6c0.1,0.2,0.2,0.5,0.2,0.9v3c0,0.3,0.1,0.4,0.4,0.4c0.1,0,0.2,0,0.2,0v0.6
		c-0.1,0-0.2,0-0.2,0c-0.1,0-0.1,0-0.2,0c-0.2,0-0.3,0-0.4-0.1c-0.1,0-0.2-0.1-0.2-0.2c-0.1-0.1-0.1-0.2-0.1-0.3c0-0.1,0-0.3,0-0.4
		h0c-0.1,0.2-0.3,0.3-0.4,0.5c-0.1,0.1-0.3,0.3-0.4,0.4c-0.2,0.1-0.3,0.2-0.5,0.2c-0.2,0.1-0.4,0.1-0.7,0.1c-0.3,0-0.5,0-0.7-0.1
		c-0.2-0.1-0.4-0.2-0.6-0.3c-0.2-0.1-0.3-0.3-0.4-0.5s-0.1-0.5-0.1-0.7c0-0.4,0.1-0.7,0.3-0.9c0.2-0.2,0.4-0.4,0.7-0.5
		c0.3-0.1,0.6-0.2,1-0.2c0.4,0,0.7-0.1,1.1-0.1c0.1,0,0.3,0,0.4-0.1c0.1,0,0.2-0.1,0.3-0.1c0.1-0.1,0.1-0.1,0.2-0.2
		c0-0.1,0.1-0.2,0.1-0.4c0-0.2,0-0.4-0.1-0.6c-0.1-0.2-0.2-0.3-0.3-0.4c-0.1-0.1-0.3-0.1-0.5-0.2c-0.2,0-0.4,0-0.6,0
		c-0.4,0-0.8,0.1-1.1,0.3c-0.3,0.2-0.4,0.5-0.4,1h-0.7C-94.2,821.2-94.2,820.9-94,820.6 M-97,819.8v1.3h0c0.2-0.5,0.4-0.8,0.8-1.1
		c0.4-0.2,0.8-0.4,1.3-0.3v0.7c-0.3,0-0.6,0-0.9,0.1c-0.3,0.1-0.5,0.2-0.7,0.4c-0.2,0.2-0.3,0.4-0.4,0.7c-0.1,0.3-0.2,0.5-0.2,0.8v3
		h-0.7v-5.7H-97z M-99.6,825.4v-1h0c-0.2,0.4-0.4,0.7-0.8,0.9c-0.3,0.2-0.7,0.3-1.2,0.3c-0.4,0-0.7,0-0.9-0.1
		c-0.3-0.1-0.5-0.2-0.6-0.4c-0.2-0.2-0.3-0.4-0.3-0.7c-0.1-0.3-0.1-0.6-0.1-0.9v-3.7h0.7v3.7c0,0.5,0.1,0.9,0.4,1.2
		c0.2,0.3,0.6,0.4,1.2,0.4c0.3,0,0.6-0.1,0.8-0.2c0.2-0.1,0.4-0.3,0.5-0.5c0.1-0.2,0.2-0.5,0.3-0.7c0.1-0.3,0.1-0.6,0.1-0.8v-3h0.7
		v5.7H-99.6z M-109.8,817.6v4.2l4.6-4.2h1l-3.5,3.2l3.7,4.6h-1l-3.3-4.1l-1.5,1.4v2.7h-0.7v-7.9H-109.8z M-115.9,822.3
		c0,0.1-0.1,0.1-0.3,0.2c-0.1,0-0.2,0.1-0.3,0.1c-0.3,0.1-0.6,0.1-0.9,0.1c-0.3,0-0.6,0.1-0.9,0.2c-0.3,0.1-0.5,0.2-0.6,0.3
		c-0.2,0.2-0.2,0.4-0.2,0.6c0,0.2,0,0.3,0.1,0.5c0.1,0.1,0.2,0.3,0.3,0.4c0.1,0.1,0.3,0.2,0.4,0.2c0.2,0.1,0.3,0.1,0.5,0.1
		c0.3,0,0.5,0,0.8-0.1c0.2-0.1,0.5-0.2,0.6-0.4s0.3-0.3,0.4-0.6c0.1-0.2,0.2-0.5,0.2-0.7L-115.9,822.3L-115.9,822.3z M-119.3,820.6
		c0.1-0.2,0.3-0.4,0.5-0.6c0.2-0.2,0.4-0.3,0.7-0.3c0.3-0.1,0.6-0.1,0.9-0.1c0.2,0,0.5,0,0.7,0.1c0.2,0,0.5,0.1,0.7,0.3
		c0.2,0.1,0.4,0.3,0.5,0.6c0.1,0.2,0.2,0.5,0.2,0.9v3c0,0.3,0.1,0.4,0.4,0.4c0.1,0,0.2,0,0.2,0v0.6c-0.1,0-0.2,0-0.2,0
		c-0.1,0-0.1,0-0.2,0c-0.2,0-0.3,0-0.4-0.1c-0.1,0-0.2-0.1-0.2-0.2c-0.1-0.1-0.1-0.2-0.1-0.3c0-0.1,0-0.3,0-0.4h0
		c-0.1,0.2-0.3,0.3-0.4,0.5c-0.1,0.1-0.3,0.3-0.4,0.4c-0.2,0.1-0.3,0.2-0.5,0.2c-0.2,0.1-0.4,0.1-0.7,0.1c-0.3,0-0.5,0-0.7-0.1
		c-0.2-0.1-0.4-0.2-0.6-0.3c-0.2-0.1-0.3-0.3-0.4-0.5c-0.1-0.2-0.1-0.5-0.1-0.7c0-0.4,0.1-0.7,0.3-0.9c0.2-0.2,0.4-0.4,0.7-0.5
		s0.6-0.2,1-0.2c0.4,0,0.7-0.1,1.1-0.1c0.1,0,0.3,0,0.4-0.1c0.1,0,0.2-0.1,0.3-0.1c0.1-0.1,0.1-0.1,0.2-0.2c0-0.1,0.1-0.2,0.1-0.4
		c0-0.2,0-0.4-0.1-0.6c-0.1-0.2-0.2-0.3-0.3-0.4s-0.3-0.1-0.5-0.2c-0.2,0-0.4,0-0.6,0c-0.4,0-0.8,0.1-1.1,0.3
		c-0.3,0.2-0.4,0.5-0.4,1h-0.7C-119.5,821.2-119.4,820.9-119.3,820.6 M-128,819.8v1h0c0.2-0.4,0.4-0.6,0.7-0.8
		c0.3-0.2,0.7-0.3,1.1-0.3c0.4,0,0.7,0.1,1,0.3c0.3,0.2,0.5,0.5,0.6,0.8c0.2-0.4,0.4-0.7,0.7-0.8c0.3-0.2,0.7-0.3,1.1-0.3
		c1.3,0,1.9,0.7,1.9,2v3.8h-0.7v-3.8c0-0.5-0.1-0.8-0.3-1.1c-0.2-0.2-0.5-0.4-1-0.4c-0.3,0-0.6,0.1-0.7,0.2
		c-0.2,0.1-0.4,0.3-0.5,0.5c-0.1,0.2-0.2,0.4-0.2,0.7c0,0.2-0.1,0.5-0.1,0.8v3.2h-0.7v-3.8c0-0.2,0-0.4-0.1-0.5
		c0-0.2-0.1-0.3-0.2-0.4c-0.1-0.1-0.2-0.2-0.4-0.3c-0.2-0.1-0.3-0.1-0.6-0.1c-0.3,0-0.5,0.1-0.8,0.2c-0.2,0.1-0.4,0.3-0.5,0.4
		c-0.1,0.2-0.2,0.4-0.3,0.7c-0.1,0.3-0.1,0.5-0.1,0.8v3.2h-0.7v-5.7H-128z M-130.7,822.3c0,0.1-0.1,0.1-0.3,0.2
		c-0.1,0-0.2,0.1-0.3,0.1c-0.3,0.1-0.6,0.1-0.9,0.1c-0.3,0-0.6,0.1-0.9,0.2c-0.3,0.1-0.5,0.2-0.6,0.3c-0.2,0.2-0.2,0.4-0.2,0.6
		c0,0.2,0,0.3,0.1,0.5c0.1,0.1,0.2,0.3,0.3,0.4c0.1,0.1,0.3,0.2,0.4,0.2s0.3,0.1,0.5,0.1c0.3,0,0.5,0,0.8-0.1
		c0.2-0.1,0.5-0.2,0.6-0.4s0.3-0.3,0.4-0.6c0.1-0.2,0.2-0.5,0.2-0.7L-130.7,822.3L-130.7,822.3z M-134.2,820.6
		c0.1-0.2,0.3-0.4,0.5-0.6s0.4-0.3,0.7-0.3c0.3-0.1,0.6-0.1,0.9-0.1c0.2,0,0.5,0,0.7,0.1c0.2,0,0.5,0.1,0.7,0.3
		c0.2,0.1,0.4,0.3,0.5,0.6c0.1,0.2,0.2,0.5,0.2,0.9v3c0,0.3,0.1,0.4,0.4,0.4c0.1,0,0.2,0,0.2,0v0.6c-0.1,0-0.2,0-0.2,0s-0.1,0-0.2,0
		c-0.2,0-0.3,0-0.4-0.1c-0.1,0-0.2-0.1-0.2-0.2c-0.1-0.1-0.1-0.2-0.1-0.3c0-0.1,0-0.3,0-0.4h0c-0.1,0.2-0.3,0.3-0.4,0.5
		c-0.1,0.1-0.3,0.3-0.4,0.4c-0.2,0.1-0.3,0.2-0.5,0.2c-0.2,0.1-0.4,0.1-0.7,0.1c-0.3,0-0.5,0-0.7-0.1c-0.2-0.1-0.4-0.2-0.6-0.3
		c-0.2-0.1-0.3-0.3-0.4-0.5s-0.1-0.5-0.1-0.7c0-0.4,0.1-0.7,0.3-0.9c0.2-0.2,0.4-0.4,0.7-0.5c0.3-0.1,0.6-0.2,1-0.2
		c0.4,0,0.7-0.1,1.1-0.1c0.1,0,0.3,0,0.4-0.1c0.1,0,0.2-0.1,0.3-0.1c0.1-0.1,0.1-0.1,0.2-0.2c0-0.1,0.1-0.2,0.1-0.4
		c0-0.2,0-0.4-0.1-0.6c-0.1-0.2-0.2-0.3-0.3-0.4c-0.1-0.1-0.3-0.1-0.5-0.2c-0.2,0-0.4,0-0.6,0c-0.4,0-0.8,0.1-1.1,0.3
		c-0.3,0.2-0.4,0.5-0.4,1h-0.7C-134.4,821.2-134.3,820.9-134.2,820.6 M-136.4,820.9c-0.1-0.2-0.2-0.3-0.3-0.4
		c-0.1-0.1-0.3-0.2-0.5-0.2c-0.2,0-0.4-0.1-0.6-0.1c-0.2,0-0.3,0-0.5,0c-0.2,0-0.3,0.1-0.4,0.2c-0.1,0.1-0.2,0.2-0.3,0.3
		c-0.1,0.1-0.1,0.3-0.1,0.5c0,0.2,0,0.3,0.1,0.4c0.1,0.1,0.2,0.2,0.3,0.3c0.1,0.1,0.2,0.1,0.4,0.2c0.1,0,0.3,0.1,0.4,0.1l0.9,0.2
		c0.2,0,0.4,0.1,0.6,0.2c0.2,0.1,0.4,0.2,0.5,0.3c0.2,0.1,0.3,0.3,0.4,0.5c0.1,0.2,0.1,0.4,0.1,0.6c0,0.3-0.1,0.6-0.2,0.8
		c-0.1,0.2-0.3,0.4-0.5,0.5c-0.2,0.1-0.5,0.2-0.7,0.3c-0.3,0.1-0.5,0.1-0.8,0.1c-0.7,0-1.2-0.2-1.6-0.5s-0.7-0.8-0.7-1.5h0.7
		c0,0.5,0.2,0.8,0.5,1.1c0.3,0.2,0.7,0.4,1.2,0.4c0.2,0,0.3,0,0.5-0.1c0.2,0,0.3-0.1,0.5-0.2c0.2-0.1,0.3-0.2,0.4-0.3
		c0.1-0.1,0.1-0.3,0.1-0.5c0-0.2,0-0.3-0.1-0.4c-0.1-0.1-0.2-0.2-0.3-0.3c-0.1-0.1-0.3-0.1-0.4-0.2c-0.1-0.1-0.3-0.1-0.5-0.1
		l-0.9-0.2c-0.2-0.1-0.4-0.1-0.6-0.2c-0.2-0.1-0.4-0.2-0.5-0.3c-0.1-0.1-0.3-0.3-0.3-0.4c-0.1-0.2-0.1-0.4-0.1-0.6
		c0-0.3,0.1-0.5,0.2-0.7c0.1-0.2,0.3-0.4,0.5-0.5c0.2-0.1,0.4-0.2,0.7-0.3c0.3-0.1,0.5-0.1,0.8-0.1c0.3,0,0.6,0,0.8,0.1
		s0.5,0.2,0.6,0.3s0.3,0.3,0.4,0.6s0.2,0.5,0.2,0.8h-0.7C-136.2,821.2-136.3,821-136.4,820.9 M-142.4,819.8v1.3h0
		c0.2-0.5,0.4-0.8,0.8-1.1c0.4-0.2,0.8-0.4,1.3-0.3v0.7c-0.3,0-0.6,0-0.9,0.1c-0.3,0.1-0.5,0.2-0.7,0.4c-0.2,0.2-0.3,0.4-0.4,0.7
		c-0.1,0.3-0.2,0.5-0.2,0.8v3h-0.7v-5.7H-142.4z M-148.3,823.6c0.1,0.3,0.2,0.5,0.3,0.7c0.2,0.2,0.3,0.4,0.6,0.5
		c0.2,0.1,0.5,0.2,0.8,0.2c0.5,0,0.9-0.1,1.2-0.4c0.3-0.3,0.5-0.6,0.6-1.1h0.7c-0.1,0.6-0.4,1.1-0.8,1.5c-0.4,0.4-0.9,0.5-1.7,0.5
		c-0.4,0-0.8-0.1-1.2-0.2c-0.3-0.2-0.6-0.4-0.8-0.6c-0.2-0.3-0.4-0.6-0.5-1c-0.1-0.4-0.1-0.7-0.1-1.2c0-0.4,0-0.7,0.1-1.1
		s0.3-0.7,0.5-1c0.2-0.3,0.5-0.5,0.8-0.7c0.3-0.2,0.7-0.3,1.2-0.3c0.5,0,0.8,0.1,1.2,0.3c0.3,0.2,0.6,0.4,0.8,0.7
		c0.2,0.3,0.3,0.6,0.4,1c0.1,0.4,0.1,0.8,0.1,1.2h-4.4C-148.4,823-148.4,823.3-148.3,823.6 M-144.9,821.5c-0.1-0.2-0.2-0.5-0.4-0.6
		c-0.2-0.2-0.3-0.3-0.6-0.5c-0.2-0.1-0.5-0.2-0.7-0.2c-0.3,0-0.5,0.1-0.8,0.2c-0.2,0.1-0.4,0.3-0.6,0.5c-0.2,0.2-0.3,0.4-0.4,0.6
		c-0.1,0.2-0.2,0.5-0.2,0.8h3.7C-144.7,821.9-144.8,821.7-144.9,821.5 M-152.7,824.8c0.3,0,0.5,0,0.8-0.1c0.2,0,0.5-0.1,0.7-0.3
		c0.2-0.1,0.3-0.3,0.5-0.5c0.1-0.2,0.2-0.5,0.2-0.8c0-0.5-0.2-0.9-0.5-1.1c-0.4-0.3-0.9-0.4-1.5-0.4h-2.6v3.1H-152.7z M-152.7,817.6
		c0.3,0,0.6,0,1,0.1c0.3,0.1,0.6,0.2,0.8,0.3c0.2,0.2,0.4,0.3,0.6,0.6c0.1,0.2,0.2,0.6,0.2,0.9c0,0.2,0,0.4-0.1,0.6
		c-0.1,0.2-0.2,0.4-0.3,0.5c-0.1,0.2-0.3,0.3-0.4,0.4c-0.2,0.1-0.3,0.2-0.6,0.2v0c0.5,0.1,0.9,0.3,1.2,0.6c0.3,0.3,0.5,0.8,0.5,1.3
		c0,0.1,0,0.3,0,0.4c0,0.2-0.1,0.3-0.1,0.5c-0.1,0.2-0.2,0.3-0.3,0.5s-0.3,0.3-0.5,0.4c-0.2,0.1-0.5,0.2-0.8,0.3
		c-0.3,0.1-0.7,0.1-1.1,0.1h-3.3v-7.9H-152.7z M-152.7,821c0.3,0,0.6,0,0.8-0.1c0.2-0.1,0.4-0.2,0.6-0.3c0.1-0.1,0.3-0.3,0.3-0.4
		s0.1-0.3,0.1-0.5c0-1-0.6-1.5-1.8-1.5h-2.6v2.8H-152.7z"/>
</g>
</svg>
