<?xml version="1.0" encoding="utf-8"?>
<!-- Generator: Adobe Illustrator 18.0.0, SVG Export Plug-In . SVG Version: 6.00 Build 0)  -->
<!DOCTYPE svg PUBLIC "-//W3C//DTD SVG 1.1//EN" "http://www.w3.org/Graphics/SVG/1.1/DTD/svg11.dtd">
<svg version="1.1" xmlns="http://www.w3.org/2000/svg" xmlns:xlink="http://www.w3.org/1999/xlink" x="0px" y="0px"
	 viewBox="0 0 240 240" enable-background="new 0 0 240 240" xml:space="preserve">
<g id="Layer_2" display="none">
	<rect x="0" display="inline" fill="#404040" width="240" height="240"/>
</g>
<g id="Layer_5">
	<path opacity="0.75" fill="#80CBC4" d="M158.7,134.8c0,0.3-0.2,0.5-0.5,0.5c-0.3,0-0.5-0.2-0.5-0.5l-1.9-44
		c2.2-5.3,4.1-10.8,5.6-16.3L158.7,134.8z M158.2,0.6l16.9,24.2L163.8,19l-0.9,21.2c-1.5-0.5-3-0.7-4.7-0.7s-3.2,0.2-4.6,0.7
		L152.7,19l-11.3,5.8L158.2,0.6z"/>
</g>
<g id="Layer_4">
	<path fill="#FFFFFF" d="M158.2,39.5c8.5,0,15.4,6.9,15.4,15.4c0,6.5-4.1,12.4-10.3,14.5l-0.7,0.2c0.2-1,0.5-1.9,0.7-2.9
		c4.7-2,7.9-6.7,7.9-11.9c0-7.1-5.8-12.9-12.9-12.9c-7.1,0-12.9,5.8-12.9,12.9c0,1.6,0.3,3.2,0.9,4.7c-0.4,1.1-0.8,2.1-1.3,3.1
		l-0.5-1c-1-2.1-1.5-4.4-1.5-6.8C142.8,46.4,149.8,39.5,158.2,39.5z"/>
</g>
<g id="Layer_3">
</g>
<g id="Layer_6">
	<linearGradient id="SVGID_1_" gradientUnits="userSpaceOnUse" x1="160.5723" y1="47.6212" x2="92.6904" y2="234.1252">
		<stop  offset="0" style="stop-color:#CCCCCC"/>
		<stop  offset="0.926" style="stop-color:#CCCCCC;stop-opacity:0"/>
	</linearGradient>
	<path fill="url(#SVGID_1_)" d="M187.2,137.1c0.4,2.7,0.8,5.2,0.5,7.8c-0.3,2.3-1.2,4.5-2,6.7l-0.2,0.6c-2.6,6.8-4.6,13.9-6.1,21
		l0,0.2c-0.3,1.2-0.5,2.4-1,3.5c-0.5,1.1-1.4,2.2-2.3,3.2c-7.1,8.1-15.3,15-24.4,20.8c-1.5,0.9-2.8,2.1-4.1,3.2
		c-2.1,1.8-4.1,3.5-6.7,4.3c-0.8,0.2-1.5,0.4-2.3,0.6c-1.5,0.4-3.1,0.8-4.6,1.5c-4.8,2.4-7.3,7.2-9.7,11.9c-1.4,2.8-2.9,5.6-4.9,8
		c-3.8,4.5-9.8,7.1-15.6,6.9c-3-0.1-6.1-1-9.2-2.7c-0.9-0.5-1.9-1-2.8-1.6c-2-1.2-4-2.4-6.3-3.2c-7.7-2.9-14.6-5.7-21.1-9
		c-1.9-1-4.4-2.8-6.2-4.1c-0.7-0.5-1.2-0.9-1.7-1.2c-3.1-1.8-3.4-6.4-2.1-9.9c0.7-2,1.9-3.9,3-5.8c1.1-1.8,2.2-3.6,3-5.6
		c1.3-3.2,2.1-7.5,2-10.7c-0.3-8.6,0-16,0.3-23.9c0.2-4.1,0.3-8.3,0.4-13c0-0.9,0-1.7,0-2.6c0-2.5,0-5,0.4-7.4c0.4-2,1.4-4,2.4-6
		c0.6-1.1,1.2-2.3,1.6-3.4l4.1-10.3c1-2.6,2.2-5.5,4.2-7.5c1.7-1.7,4.7-2.9,7.1-1.8c0,0.1,0,0.1-0.1,0.2c-1.3,3.9-2.6,7.9-4.7,11.4
		l1.3,0.8c2.3-3.6,3.6-7.7,4.9-11.7c1.6-5,3.1-9.7,6.3-13.5c1.2-1.5,2.5-2.5,3.7-2.9c1.2-0.5,2.6-0.5,4.1-0.5
		c-0.5,2.6-0.8,5.2-1.2,7.8c-0.8,5.7-1.5,11.6-3.6,17l1.4,0.5c2.2-5.5,2.9-11.5,3.7-17.3c1-7.9,2-15.4,6.2-21.8
		c1.4-2.2,2.9-3.6,4.5-4.3c2.3-1.1,5.4-0.9,8.3,0.6c2.7,1.3,5,3.5,7.1,5.6c2.3,2.1,4.5,4.3,6.8,6.4c-0.5,1.3-1,2.6-1.4,3.8
		c-2.3,6.3-4.6,12.8-8.6,18.2c-0.1,0.2-0.4,0.5-0.6,0.6c-0.1,0-0.1,0-0.2,0c-0.3-0.2-0.5-1.1-0.5-1.8l0.4-19.9l-1.5,0l-0.4,19.9
		c0,1,0.3,2.3,1.1,3c0.4,0.3,0.9,0.5,1.5,0.3c0.7-0.2,1.1-0.7,1.5-1.1c4.1-5.5,6.5-12.2,8.9-18.6c2.3-6.3,4.6-12.7,8.6-18.1
		c0.8-1.1,1.7-2.5,2.5-3.9c0.4-0.7,0.8-1.3,1.1-1.9c1.8-2.9,2.8-5.4,4-8.5L148,57c1-2.6,2.7-6.3,5.7-8.3c2.5-1.7,6.7-2.1,8.9,0.3
		c2.1,2.2,1.9,5.8,1.4,9c-2,13.5-5.9,26.5-11.8,38.8c-1.4,3-2.9,6.2-3.5,9.6c-2.7,14.8-1.8,30.3,2.6,44.7c0.4,1.2,0.8,2.3,1.6,3.2
		c0.7,0.7,2.4,1.7,3.6,1.7c0.6,0,1-0.3,1.2-0.6c0.4-0.5,0.8-1,1.2-1.6c3.4-4.7,4.6-10.5,5.8-16.2c0.7-3.5,1.5-7.1,2.7-10.3
		c1.5-4,3.9-7.7,6.9-10.7c2.3-2.3,4.3-3.6,6.4-4.1c2.6-0.7,5.2,0,6.7,1.7c1.8,2.1,1.5,5.2,1.1,6.9c-0.2,1.1-0.5,2.2-0.8,3.2
		c-0.4,1.5-0.9,3-1.1,4.5C186.4,131.7,186.8,134.4,187.2,137.1z"/>
</g>
</svg>
