<?xml version="1.0" encoding="iso-8859-1"?>
<!-- Generator: Adobe Illustrator 21.0.2, SVG Export Plug-In . SVG Version: 6.00 Build 0)  -->
<!DOCTYPE svg PUBLIC "-//W3C//DTD SVG 1.1//EN" "http://www.w3.org/Graphics/SVG/1.1/DTD/svg11.dtd">
<svg version="1.1" id="Layer_1" xmlns="http://www.w3.org/2000/svg" xmlns:xlink="http://www.w3.org/1999/xlink" x="0px" y="0px"
	 viewBox="0 0 457.818 94.97" style="enable-background:new 0 0 457.818 94.97;" xml:space="preserve">
<g>
	<rect x="93.993" y="13.415" width="36.151" height="14.46"/>
	<rect x="23.498" y="13.415" width="14.46" height="46.997"/>
	<rect x="46.997" y="13.415" width="14.46" height="68.687"/>
	<rect y="13.415" width="14.46" height="68.687"/>
	<rect x="93.993" y="36.913" width="14.46" height="45.189"/>
	<rect x="70.495" y="13.415" width="14.46" height="14.46"/>
	<rect x="70.495" y="36.913" style="fill:#22ADB1;" width="14.46" height="45.189"/>
</g>
<g>
	<g>
		<g>
			<path style="fill:#231F20;" d="M281.881,31.534h-6.824v-3.251h17.427v3.251h-6.824v17.543h-3.779V31.534z"/>
			<path style="fill:#231F20;" d="M303.247,43.747h-7.293l-1.757,5.33h-3.895l7.322-20.794h3.954l7.322,20.794h-3.895
				L303.247,43.747z M299.587,31.885c0,0-0.469,2.05-0.878,3.222l-1.845,5.565h5.447l-1.845-5.565
				c-0.381-1.171-0.819-3.222-0.819-3.222H299.587z"/>
			<path style="fill:#231F20;" d="M313.529,31.534h-6.824v-3.251h17.426v3.251h-6.824v17.543h-3.778V31.534z"/>
			<path style="fill:#231F20;" d="M334.895,43.747h-7.293l-1.757,5.33h-3.896l7.322-20.794h3.954l7.323,20.794h-3.896
				L334.895,43.747z M331.234,31.885c0,0-0.469,2.05-0.878,3.222l-1.846,5.565h5.448l-1.845-5.565
				c-0.381-1.171-0.821-3.222-0.821-3.222H331.234z"/>
			<path style="fill:#231F20;" d="M359.586,27.932c5.067,0,7.673,2.841,7.673,2.841l-1.816,2.812c0,0-2.371-2.197-5.682-2.197
				c-4.392,0-6.97,3.28-6.97,7.146c0,3.954,2.664,7.438,7,7.438c3.602,0,6.032-2.635,6.032-2.635l1.992,2.723
				c0,0-2.87,3.368-8.171,3.368c-6.355,0-10.749-4.715-10.749-10.836C348.896,32.559,353.466,27.932,359.586,27.932z"/>
			<path style="fill:#231F20;" d="M370.5,28.283h12.448v3.251h-8.67v5.447h7v3.251h-7v5.594h9.139v3.251H370.5V28.283z"/>
			<path style="fill:#231F20;" d="M386.824,28.283h3.778l7.878,12.008c0.792,1.201,1.728,3.222,1.728,3.222h0.059
				c0,0-0.205-1.991-0.205-3.222V28.283h3.749v20.794h-3.749l-7.878-11.978c-0.79-1.201-1.728-3.222-1.728-3.222h-0.059
				c0,0,0.205,1.991,0.205,3.222v11.978h-3.778V28.283z"/>
			<path style="fill:#231F20;" d="M412.885,31.534h-6.824v-3.251h17.426v3.251h-6.824v17.543h-3.778V31.534z"/>
			<path style="fill:#231F20;" d="M425.738,28.283h12.448v3.251h-8.67v5.447h7v3.251h-7v5.594h9.139v3.251h-12.916V28.283z"/>
			<path style="fill:#231F20;" d="M442.061,28.283h6.707c2.255,0,3.28,0.176,4.189,0.586c2.079,0.937,3.397,2.928,3.397,5.682
				c0,2.49-1.318,4.803-3.515,5.682v0.058c0,0,0.293,0.293,0.704,1.025l4.275,7.761H453.6l-4.13-7.761h-3.632v7.761h-3.778V28.283z
				 M449.237,38.036c2.021,0,3.28-1.201,3.28-3.28c0-1.991-0.85-3.222-3.808-3.222h-2.87v6.502H449.237z"/>
			<path style="fill:#231F20;" d="M279.721,58.732h-3.768v-1.34h9.078v1.34h-3.768v9.654h-1.542V58.732z"/>
			<path style="fill:#231F20;" d="M288.296,60.32c2.226,0,3.409,1.651,3.409,3.69c0,0.203-0.047,0.654-0.047,0.654h-5.746
				c0.078,1.729,1.308,2.601,2.709,2.601c1.355,0,2.335-0.919,2.335-0.919l0.623,1.105c0,0-1.167,1.121-3.053,1.121
				c-2.476,0-4.172-1.79-4.172-4.126C284.357,61.94,286.053,60.32,288.296,60.32z M290.164,63.528
				c-0.047-1.355-0.887-2.009-1.899-2.009c-1.152,0-2.087,0.716-2.305,2.009H290.164z"/>
			<path style="fill:#231F20;" d="M297.146,60.32c1.977,0,2.958,1.152,2.958,1.152l-0.716,1.059c0,0-0.841-0.903-2.18-0.903
				c-1.588,0-2.74,1.183-2.74,2.803c0,1.604,1.151,2.834,2.786,2.834c1.464,0,2.429-1.059,2.429-1.059l0.608,1.105
				c0,0-1.091,1.261-3.146,1.261c-2.476,0-4.22-1.759-4.22-4.126C292.926,62.111,294.67,60.32,297.146,60.32z"/>
			<path style="fill:#231F20;" d="M301.797,57.393h1.511v4.033c0,0.374-0.031,0.654-0.031,0.654h0.031
				c0.342-0.763,1.338-1.76,2.912-1.76c1.852,0,2.709,1.012,2.709,3.021v5.045h-1.511v-4.703c0-1.105-0.234-1.977-1.495-1.977
				c-1.183,0-2.164,0.809-2.491,1.946c-0.093,0.312-0.124,0.67-0.124,1.044v3.69h-1.511V57.393z"/>
			<path style="fill:#231F20;" d="M311.078,60.507h1.464v1.043c0,0.312-0.031,0.576-0.031,0.576h0.031
				c0.31-0.685,1.245-1.807,2.958-1.807c1.852,0,2.709,1.012,2.709,3.021v5.045h-1.511v-4.703c0-1.105-0.234-1.977-1.495-1.977
				c-1.199,0-2.164,0.794-2.491,1.931c-0.093,0.311-0.124,0.669-0.124,1.059v3.69h-1.511V60.507z"/>
			<path style="fill:#231F20;" d="M324.08,60.32c2.351,0,4.25,1.729,4.25,4.111c0,2.398-1.899,4.141-4.25,4.141
				c-2.351,0-4.251-1.744-4.251-4.141C319.829,62.049,321.729,60.32,324.08,60.32z M324.08,67.265c1.494,0,2.709-1.184,2.709-2.834
				c0-1.635-1.215-2.803-2.709-2.803c-1.479,0-2.709,1.168-2.709,2.803C321.37,66.082,322.601,67.265,324.08,67.265z"/>
			<path style="fill:#231F20;" d="M329.964,57.393h1.511v8.58c0,0.95,0.373,1.121,0.841,1.121c0.141,0,0.265-0.016,0.265-0.016v1.34
				c0,0-0.234,0.031-0.499,0.031c-0.856,0-2.118-0.234-2.118-2.211V57.393z"/>
			<path style="fill:#231F20;" d="M337.606,60.32c2.351,0,4.25,1.729,4.25,4.111c0,2.398-1.899,4.141-4.25,4.141
				c-2.351,0-4.251-1.744-4.251-4.141C333.354,62.049,335.255,60.32,337.606,60.32z M337.606,67.265
				c1.494,0,2.709-1.184,2.709-2.834c0-1.635-1.215-2.803-2.709-2.803c-1.479,0-2.709,1.168-2.709,2.803
				C334.896,66.082,336.127,67.265,337.606,67.265z"/>
			<path style="fill:#231F20;" d="M346.463,70.348c1.37,0,2.491-0.607,2.491-2.211v-0.576c0-0.249,0.016-0.498,0.016-0.498h-0.031
				c-0.467,0.779-1.199,1.23-2.336,1.23c-2.195,0-3.519-1.759-3.519-4.033c0-2.258,1.262-3.94,3.441-3.94
				c1.9,0,2.476,1.168,2.476,1.168h0.031c0,0-0.015-0.109-0.015-0.249v-0.731h1.448v7.552c0,2.6-1.977,3.597-3.97,3.597
				c-0.95,0-1.932-0.265-2.694-0.654l0.499-1.183C344.299,69.819,345.279,70.348,346.463,70.348z M348.985,64.276
				c0-2.055-0.997-2.647-2.227-2.647c-1.37,0-2.149,0.997-2.149,2.6c0,1.635,0.872,2.757,2.29,2.757
				C347.989,66.985,348.985,66.331,348.985,64.276z"/>
			<path style="fill:#231F20;" d="M352.19,70.021c0,0,0.436,0.327,0.919,0.327c0.607,0,1.121-0.435,1.418-1.152l0.388-0.904
				l-3.3-7.785h1.697l1.978,5.154c0.156,0.405,0.295,0.95,0.295,0.95h0.031c0,0,0.124-0.53,0.265-0.934l1.915-5.169h1.635
				l-3.691,9.296c-0.483,1.215-1.448,1.853-2.554,1.853c-0.887,0-1.526-0.483-1.526-0.483L352.19,70.021z"/>
			<path style="fill:#231F20;" d="M364.726,63.341h3.487v-3.83h1.277v3.83h3.472v1.215h-3.472v3.83h-1.277v-3.83h-3.487V63.341z"/>
			<path style="fill:#231F20;" d="M379.659,57.393h3.643c3.364,0,5.575,2.009,5.575,5.481c0,3.488-2.211,5.513-5.575,5.513h-3.643
				V57.393z M383.193,67.047c2.477,0,4.096-1.464,4.096-4.174c0-2.694-1.635-4.141-4.096-4.141H381.2v8.315H383.193z"/>
			<path style="fill:#231F20;" d="M394.239,60.32c2.226,0,3.409,1.651,3.409,3.69c0,0.203-0.046,0.654-0.046,0.654h-5.746
				c0.078,1.729,1.308,2.601,2.709,2.601c1.355,0,2.335-0.919,2.335-0.919l0.623,1.105c0,0-1.167,1.121-3.053,1.121
				c-2.476,0-4.172-1.79-4.172-4.126C390.3,61.94,391.996,60.32,394.239,60.32z M396.107,63.528
				c-0.047-1.355-0.887-2.009-1.899-2.009c-1.152,0-2.087,0.716-2.305,2.009H396.107z"/>
			<path style="fill:#231F20;" d="M399.481,66.347c0,0,0.887,0.919,2.257,0.919c0.655,0,1.308-0.342,1.308-0.981
				c0-1.448-4.048-1.152-4.048-3.722c0-1.433,1.277-2.243,2.849-2.243c1.729,0,2.539,0.872,2.539,0.872l-0.607,1.137
				c0,0-0.701-0.701-1.947-0.701c-0.655,0-1.293,0.28-1.293,0.965c0,1.417,4.049,1.106,4.049,3.691c0,1.308-1.121,2.288-2.85,2.288
				c-1.93,0-2.99-1.152-2.99-1.152L399.481,66.347z"/>
			<path style="fill:#231F20;" d="M406.236,57.393h1.526v1.542h-1.526V57.393z M406.251,60.507h1.511v7.879h-1.511V60.507z"/>
			<path style="fill:#231F20;" d="M412.882,70.348c1.371,0,2.492-0.607,2.492-2.211v-0.576c0-0.249,0.015-0.498,0.015-0.498h-0.031
				c-0.466,0.779-1.199,1.23-2.335,1.23c-2.195,0-3.519-1.759-3.519-4.033c0-2.258,1.26-3.94,3.441-3.94
				c1.9,0,2.476,1.168,2.476,1.168h0.031c0,0-0.016-0.109-0.016-0.249v-0.731h1.449v7.552c0,2.6-1.978,3.597-3.971,3.597
				c-0.95,0-1.93-0.265-2.693-0.654l0.498-1.183C410.717,69.819,411.699,70.348,412.882,70.348z M415.405,64.276
				c0-2.055-0.997-2.647-2.227-2.647c-1.371,0-2.149,0.997-2.149,2.6c0,1.635,0.872,2.757,2.288,2.757
				C414.408,66.985,415.405,66.331,415.405,64.276z"/>
			<path style="fill:#231F20;" d="M419.095,60.507h1.464v1.043c0,0.312-0.031,0.576-0.031,0.576h0.031
				c0.312-0.685,1.245-1.807,2.958-1.807c1.854,0,2.709,1.012,2.709,3.021v5.045h-1.511v-4.703c0-1.105-0.232-1.977-1.494-1.977
				c-1.199,0-2.164,0.794-2.492,1.931c-0.093,0.311-0.124,0.669-0.124,1.059v3.69h-1.511V60.507z"/>
		</g>
	</g>
	<g>
		<path style="fill:#99C93C;" d="M229.59,47.746c-0.008-0.008-0.016-0.015-0.024-0.023c-0.526-0.526-1.036-1.062-1.529-1.608
			c-0.005,0.005-0.01,0.011-0.015,0.016c-0.027,0.027-0.055,0.051-0.082,0.078c0.556,0.5,1.102,1.016,1.637,1.55
			C229.581,47.755,229.585,47.751,229.59,47.746z"/>
		<g>
			<path style="fill:#99C93C;" d="M206.578,59.7c2.545-0.447,5.055-1.123,7.502-2.027c-0.78-0.567-1.586-1.081-2.411-1.549
				c-4.946,1.594-10.133,2.227-15.274,1.898c0.04,0.128,0.083,0.255,0.124,0.383C199.903,57.982,203.374,58.411,206.578,59.7z"/>
			<path style="fill:#99C93C;" d="M221.678,53.979c-0.579-0.538-1.171-1.055-1.778-1.545c-1.778,1.051-3.619,1.955-5.505,2.714
				c0.721,0.477,1.423,0.993,2.107,1.545C218.274,55.913,220.003,55.008,221.678,53.979z"/>
			<path style="fill:#99C93C;" d="M227.94,49.309c-0.539-0.536-1.09-1.05-1.651-1.55c-1.402,1.25-2.871,2.385-4.393,3.409
				c0.586,0.493,1.159,1.009,1.719,1.547C225.109,51.68,226.558,50.552,227.94,49.309z"/>
			<path style="fill:#99C93C;" d="M241.556,24.89c-1.349-3.249-1.809-6.78-1.385-10.224c-0.084-0.027-0.168-0.055-0.252-0.081
				c0.32,5.163-0.33,10.371-1.949,15.333c0.472,0.819,0.987,1.615,1.552,2.381C240.422,29.883,241.102,27.404,241.556,24.89z"/>
			<path style="fill:#99C93C;" d="M238.542,34.709c-0.55-0.675-1.067-1.371-1.548-2.088c-0.762,1.876-1.67,3.707-2.721,5.475
				c0.49,0.604,1.012,1.191,1.55,1.768C236.852,38.195,237.759,36.474,238.542,34.709z"/>
			<path style="fill:#99C93C;" d="M231.142,46.115c1.246-1.379,2.375-2.826,3.412-4.319c-0.538-0.559-1.055-1.13-1.549-1.715
				c-1.027,1.52-2.162,2.987-3.415,4.386C230.09,45.027,230.606,45.578,231.142,46.115z"/>
			<path style="fill:#99C93C;" d="M229.59,30.341c0.382,0.888,0.803,1.764,1.266,2.623c1.194-2.407,2.106-4.919,2.721-7.491
				c-0.828-2.66-1.261-5.459-1.261-8.327c0-1.35,0.098-2.684,0.285-3.996c-0.181-0.016-0.362-0.026-0.543-0.039
				C232.762,18.923,231.939,24.883,229.59,30.341z"/>
			<path style="fill:#99C93C;" d="M221.896,44.35c-0.656-0.441-1.32-0.868-1.995-1.267c-1.632,1.315-3.361,2.452-5.16,3.413
				c0.798,0.392,1.588,0.806,2.361,1.262C218.771,46.774,220.373,45.632,221.896,44.35z"/>
			<path style="fill:#99C93C;" d="M207.121,51.739c2.615-0.606,5.171-1.514,7.619-2.718c-0.867-0.463-1.75-0.881-2.646-1.262
				c-4.16,1.768-8.607,2.661-13.057,2.661c-1.37,0-2.739-0.094-4.1-0.261c0.016,0.227,0.029,0.454,0.049,0.681
				C199.031,50.249,203.183,50.551,207.121,51.739z"/>
			<path style="fill:#99C93C;" d="M224.625,41.797c-0.441-0.636-0.865-1.28-1.268-1.933c-0.258,0.276-0.512,0.553-0.781,0.822
				c-0.294,0.294-0.596,0.573-0.898,0.854c0.655,0.402,1.3,0.824,1.937,1.265c0.184-0.176,0.373-0.345,0.554-0.526
				C224.326,42.12,224.472,41.956,224.625,41.797z"/>
			<path style="fill:#99C93C;" d="M226.175,40.082c1.284-1.517,2.427-3.112,3.415-4.776c-0.456-0.767-0.873-1.55-1.266-2.343
				c-0.965,1.789-2.1,3.509-3.416,5.132C225.307,38.768,225.733,39.429,226.175,40.082z"/>
			<path style="fill:#99C93C;" d="M211.675,39.395c-3.807,2.166-8.13,3.326-12.638,3.326c-1.277,0-2.539-0.093-3.78-0.275
				c-0.032,0.206-0.062,0.412-0.09,0.618c3.995-0.434,8.048-0.195,11.977,0.719c2.569-0.776,5.008-1.924,7.253-3.414
				C213.5,40.009,212.59,39.691,211.675,39.395z"/>
			<path style="fill:#99C93C;" d="M220.638,34.709c-0.352-0.795-0.678-1.598-0.981-2.409c-0.761,1.032-1.604,2.015-2.527,2.939
				c-0.956,0.956-1.978,1.823-3.05,2.606c0.815,0.301,1.622,0.628,2.421,0.979c0.769-0.622,1.513-1.284,2.222-1.993
				C219.401,36.153,220.039,35.443,220.638,34.709z"/>
			<path style="fill:#99C93C;" d="M221.21,29.919c0.297,0.909,0.615,1.812,0.977,2.702c1.483-2.212,2.629-4.617,3.417-7.148
				c-0.951-3.975-1.207-8.082-0.775-12.129c-0.162,0.022-0.323,0.046-0.484,0.071c0.177,1.225,0.269,2.471,0.269,3.731
				C224.612,21.707,223.425,26.08,221.21,29.919z"/>
			<path style="fill:#99C93C;" d="M217.623,24.891c-0.567-3.138-0.789-6.325-0.661-9.502c-0.042,0.016-0.085,0.031-0.127,0.048
				c0.488,5.132-1.228,10.436-5.149,14.357c-3.93,3.93-9.249,5.644-14.393,5.145c-0.033,0.084-0.063,0.17-0.096,0.254
				c3.136-0.132,6.283,0.08,9.382,0.625c2.44-0.981,4.725-2.458,6.699-4.432C215.196,29.468,216.642,27.254,217.623,24.891z"/>
			<path style="fill:#99C93C;" d="M206.239,24.348c-1.259,1.259-2.796,2.139-4.471,2.601c-0.629,0.839-1.212,1.701-1.755,2.581
				c2.957-0.228,5.705-1.476,7.818-3.59c2.171-2.171,3.362-4.951,3.589-7.795c-0.881,0.542-1.744,1.122-2.585,1.749
				C208.381,21.526,207.52,23.067,206.239,24.348z"/>
		</g>
		<path style="fill:#C42C90;" d="M229.59,47.771c0.008,0.008,0.016,0.015,0.024,0.023c0.526,0.526,1.036,1.062,1.529,1.608
			c0.005-0.005,0.01-0.011,0.015-0.016c0.027-0.027,0.055-0.051,0.082-0.078c-0.556-0.5-1.102-1.016-1.637-1.55
			C229.598,47.763,229.594,47.767,229.59,47.771z"/>
		<g>
			<path style="fill:#C42C91;" d="M237.501,41.539c0.579,0.538,1.171,1.056,1.778,1.545c1.777-1.05,3.618-1.954,5.503-2.713
				c-0.723-0.479-1.424-0.996-2.104-1.546C240.906,39.604,239.176,40.509,237.501,41.539z"/>
			<path style="fill:#C42C91;" d="M234.554,53.721c0.442,0.636,0.864,1.28,1.268,1.933c0.258-0.276,0.513-0.553,0.781-0.822
				c0.293-0.293,0.595-0.573,0.897-0.854c-0.654-0.402-1.3-0.824-1.936-1.265c-0.184,0.176-0.372,0.346-0.553,0.526
				C234.854,53.398,234.708,53.562,234.554,53.721z"/>
			<path style="fill:#C42C91;" d="M231.24,46.209c0.539,0.536,1.09,1.05,1.651,1.55c1.402-1.25,2.871-2.385,4.394-3.409
				c-0.586-0.493-1.159-1.01-1.719-1.547C234.07,43.837,232.622,44.965,231.24,46.209z"/>
			<path style="fill:#C42C91;" d="M252.601,35.818c-2.545,0.447-5.055,1.123-7.501,2.027c0.774,0.565,1.578,1.08,2.405,1.551
				c4.101-1.322,8.368-1.995,12.638-1.995c0.881,0,1.762,0.039,2.641,0.095c-0.039-0.128-0.082-0.255-0.123-0.382
				c-0.836,0.105-1.677,0.162-2.519,0.162C257.578,37.275,255.014,36.789,252.601,35.818z"/>
			<path style="fill:#C42C91;" d="M228.037,49.403c-1.246,1.379-2.375,2.826-3.412,4.318c0.538,0.559,1.055,1.13,1.549,1.715
				c1.027-1.52,2.162-2.987,3.415-4.386C229.089,50.49,228.573,49.94,228.037,49.403z"/>
			<path style="fill:#C42C91;" d="M220.638,60.808c0.55,0.675,1.067,1.371,1.548,2.088c0.762-1.876,1.67-3.706,2.721-5.474
				c-0.49-0.604-1.012-1.191-1.551-1.768C222.327,57.322,221.42,59.043,220.638,60.808z"/>
			<path style="fill:#C42C91;" d="M217.623,70.626c1.349,3.249,1.809,6.781,1.386,10.225c0.084,0.027,0.168,0.055,0.252,0.081
				c-0.32-5.161,0.33-10.369,1.948-15.33c-0.47-0.816-0.984-1.614-1.551-2.384C218.757,65.634,218.077,68.113,217.623,70.626z"/>
			<path style="fill:#C42C91;" d="M233.005,55.436c-1.283,1.516-2.426,3.112-3.415,4.775c0.456,0.767,0.873,1.55,1.266,2.343
				c0.965-1.789,2.1-3.509,3.416-5.132C233.872,56.75,233.446,56.089,233.005,55.436z"/>
			<path style="fill:#C42C91;" d="M252.022,43.78c-2.636,0.612-5.18,1.521-7.594,2.711c0.865,0.463,1.748,0.881,2.643,1.262
				c4.076-1.737,8.502-2.654,13.073-2.654c1.382,0,2.749,0.093,4.1,0.258c-0.015-0.225-0.029-0.45-0.048-0.674
				c-1.33,0.192-2.683,0.292-4.051,0.292C257.349,44.973,254.62,44.566,252.022,43.78z"/>
			<path style="fill:#C42C91;" d="M237.282,51.166c0.657,0.442,1.321,0.869,1.998,1.268c1.618-1.305,3.338-2.451,5.146-3.42
				c-0.794-0.391-1.581-0.803-2.35-1.257C240.396,48.751,238.795,49.891,237.282,51.166z"/>
			<path style="fill:#C42C91;" d="M229.59,65.177c-0.382-0.888-0.803-1.764-1.266-2.623c-1.194,2.407-2.106,4.919-2.721,7.49
				c0.828,2.66,1.261,5.459,1.261,8.327c0,1.35-0.098,2.684-0.285,3.997c0.181,0.016,0.362,0.026,0.543,0.039
				C226.418,76.595,227.241,70.635,229.59,65.177z"/>
			<path style="fill:#C42C91;" d="M238.541,60.809c0.352,0.795,0.679,1.599,0.981,2.41c0.756-1.028,1.598-2.011,2.527-2.941
				c0.962-0.962,1.983-1.828,3.05-2.605c-0.815-0.301-1.622-0.628-2.422-0.98c-0.766,0.618-1.509,1.28-2.22,1.992
				C239.778,59.365,239.14,60.074,238.541,60.809z"/>
			<path style="fill:#C42C91;" d="M237.971,65.603c-0.297-0.91-0.616-1.814-0.978-2.706c-1.483,2.212-2.628,4.616-3.416,7.147
				c0.951,3.975,1.207,8.082,0.775,12.129c0.162-0.022,0.325-0.047,0.487-0.071C234.018,76.488,235.065,70.653,237.971,65.603z"/>
			<path style="fill:#C42C91;" d="M247.511,56.124c3.903-2.215,8.266-3.329,12.632-3.329c1.263,0,2.527,0.095,3.779,0.281
				c0.032-0.208,0.063-0.415,0.091-0.623c-1.286,0.14-2.578,0.218-3.87,0.218c-2.715,0-5.428-0.315-8.085-0.931
				c-2.542,0.767-4.995,1.902-7.273,3.409C245.683,55.51,246.594,55.829,247.511,56.124z"/>
			<path style="fill:#C42C91;" d="M241.556,70.627c0.567,3.137,0.789,6.325,0.661,9.502c0.043-0.017,0.086-0.032,0.128-0.048
				c-0.488-5.132,1.228-10.435,5.149-14.357c3.487-3.487,8.067-5.23,12.648-5.23c0.582,0,1.164,0.029,1.744,0.085
				c0.033-0.084,0.063-0.169,0.096-0.253c-0.613,0.026-1.226,0.044-1.84,0.044c-2.525,0-5.049-0.231-7.543-0.669
				c-2.439,0.981-4.724,2.458-6.697,4.432C243.984,66.05,242.537,68.264,241.556,70.627z"/>
			<path style="fill:#C42C91;" d="M252.941,71.17c1.259-1.259,2.796-2.139,4.471-2.601c0.629-0.839,1.212-1.701,1.755-2.581
				c-2.957,0.228-5.705,1.476-7.818,3.59c-2.109,2.108-3.357,4.847-3.589,7.795c0.881-0.541,1.744-1.122,2.584-1.749
				C250.807,73.955,251.686,72.425,252.941,71.17z"/>
		</g>
		<path style="fill:#4DBFB2;" d="M229.59,47.771c-0.004-0.004-0.009-0.008-0.013-0.012c-0.535,0.534-1.081,1.05-1.637,1.55
			c0.027,0.027,0.055,0.051,0.082,0.078c0.005,0.005,0.01,0.011,0.015,0.016c0.493-0.546,1.003-1.082,1.529-1.608
			C229.573,47.786,229.582,47.779,229.59,47.771z"/>
		<g>
			<path style="fill:#107A3D;" d="M227.94,46.209c-0.539,0.536-1.09,1.05-1.651,1.55c0.561,0.5,1.112,1.014,1.651,1.55
				c0.556-0.5,1.102-1.016,1.637-1.55C229.041,47.225,228.495,46.709,227.94,46.209z"/>
			<path style="fill:#107A3D;" d="M221.678,41.539c-0.579,0.538-1.171,1.055-1.778,1.545c0.675,0.399,1.339,0.826,1.995,1.267
				c0.586-0.493,1.159-1.009,1.719-1.546C222.978,42.363,222.333,41.941,221.678,41.539z"/>
			<path style="fill:#107A3D;" d="M214.08,37.845c-0.774,0.565-1.578,1.08-2.405,1.55c0.916,0.295,1.826,0.613,2.723,0.975
				c0.723-0.479,1.424-0.996,2.104-1.546C215.702,38.473,214.895,38.146,214.08,37.845z"/>
			<path style="fill:#107A3D;" d="M206.579,35.818c-3.1-0.545-6.246-0.757-9.382-0.625c-0.246,0.634-0.471,1.275-0.678,1.92
				c0.836,0.105,1.677,0.162,2.518,0.162C201.601,37.275,204.166,36.789,206.579,35.818z"/>
			<path style="fill:#107A3D;" d="M223.615,52.714c-0.56-0.537-1.133-1.053-1.719-1.547c-0.656,0.441-1.32,0.868-1.995,1.267
				c0.607,0.489,1.199,1.007,1.778,1.545C222.333,53.577,222.978,53.154,223.615,52.714z"/>
			<path style="fill:#107A3D;" d="M214.741,46.497c-0.867,0.463-1.75,0.881-2.647,1.262c0.896,0.381,1.78,0.799,2.646,1.262
				c0.798-0.392,1.588-0.806,2.361-1.262C216.329,47.303,215.539,46.889,214.741,46.497z"/>
			<path style="fill:#107A3D;" d="M207.144,43.784c-3.929-0.914-7.982-1.153-11.977-0.719c-0.073,0.538-0.134,1.077-0.182,1.617
				c1.33,0.192,2.683,0.292,4.052,0.292C201.825,44.973,204.55,44.567,207.144,43.784z"/>
			<path style="fill:#107A3D;" d="M216.502,56.693c-0.683-0.551-1.386-1.067-2.107-1.545c-0.898,0.362-1.809,0.68-2.726,0.976
				c0.825,0.468,1.631,0.982,2.411,1.549C214.895,57.372,215.702,57.045,216.502,56.693z"/>
			<path style="fill:#107A3D;" d="M199.037,52.67c2.714,0,5.428-0.315,8.084-0.932c-3.939-1.188-8.09-1.49-12.136-0.899
				c0.048,0.539,0.109,1.077,0.181,1.613C196.453,52.593,197.745,52.67,199.037,52.67z"/>
			<path style="fill:#107A3D;" d="M199.037,60.368c2.525,0,5.048-0.23,7.541-0.669c-3.205-1.289-6.675-1.717-10.059-1.294
				c0.207,0.645,0.432,1.285,0.678,1.919C197.81,60.35,198.423,60.368,199.037,60.368z"/>
		</g>
		<g>
			<path style="fill:#623B8E;" d="M229.59,47.771c-0.008,0.008-0.016,0.015-0.024,0.023c-0.526,0.526-1.036,1.062-1.529,1.608
				c0.537,0.537,1.052,1.088,1.553,1.647c0.501-0.559,1.016-1.11,1.553-1.647c-0.493-0.546-1.003-1.082-1.529-1.608
				C229.606,47.786,229.598,47.779,229.59,47.771z"/>
			<path style="fill:#623B8E;" d="M234.554,53.721c-0.538,0.559-1.055,1.13-1.549,1.715c0.441,0.653,0.867,1.314,1.267,1.987
				c0.49-0.604,1.012-1.191,1.55-1.768C235.419,55.001,234.996,54.357,234.554,53.721z"/>
			<path style="fill:#623B8E;" d="M238.541,60.809c-0.55,0.675-1.067,1.371-1.548,2.088c0.362,0.891,0.681,1.796,0.978,2.706
				c0.47-0.816,0.984-1.614,1.551-2.385C239.22,62.407,238.894,61.604,238.541,60.809z"/>
			<path style="fill:#623B8E;" d="M241.556,70.627c-1.349,3.249-1.809,6.78-1.385,10.224c0.688-0.219,1.37-0.459,2.046-0.722
				C242.346,76.952,242.123,73.765,241.556,70.627z"/>
			<path style="fill:#623B8E;" d="M223.357,55.654c0.539,0.577,1.06,1.163,1.551,1.768c0.4-0.672,0.826-1.333,1.267-1.987
				c-0.495-0.584-1.011-1.156-1.549-1.715C224.184,54.356,223.761,55.001,223.357,55.654z"/>
			<path style="fill:#623B8E;" d="M228.324,62.554c0.463,0.859,0.883,1.734,1.266,2.623c0.382-0.888,0.803-1.764,1.266-2.623
				c-0.393-0.792-0.81-1.576-1.266-2.343C229.134,60.978,228.717,61.762,228.324,62.554z"/>
			<path style="fill:#623B8E;" d="M233.577,70.044c-0.828,2.66-1.261,5.459-1.261,8.327c0,1.35,0.098,2.684,0.285,3.997
				c0.585-0.051,1.169-0.114,1.752-0.195C234.784,78.126,234.528,74.019,233.577,70.044z"/>
			<path style="fill:#623B8E;" d="M219.657,63.218c0.567,0.771,1.081,1.568,1.551,2.384c0.297-0.91,0.616-1.814,0.978-2.706
				c-0.481-0.717-0.998-1.414-1.548-2.088C220.286,61.603,219.959,62.407,219.657,63.218z"/>
			<path style="fill:#623B8E;" d="M225.603,70.044c-0.951,3.975-1.207,8.082-0.775,12.129c0.582,0.08,1.167,0.144,1.752,0.195
				c0.187-1.313,0.285-2.647,0.285-3.997C226.864,75.503,226.431,72.704,225.603,70.044z"/>
			<path style="fill:#623B8E;" d="M217.623,70.626c-0.567,3.138-0.789,6.325-0.661,9.502c0.676,0.263,1.359,0.503,2.047,0.722
				C219.432,77.407,218.972,73.875,217.623,70.626z"/>
		</g>
		<g>
			<path style="fill:#22ADB1;" d="M231.142,49.403c-0.537,0.537-1.052,1.088-1.553,1.647c1.253,1.399,2.388,2.867,3.415,4.386
				c0.495-0.584,1.011-1.156,1.549-1.715C233.518,52.229,232.389,50.782,231.142,49.403z"/>
			<path style="fill:#22ADB1;" d="M235.822,55.655c-0.539,0.577-1.06,1.163-1.55,1.768c1.051,1.768,1.959,3.598,2.721,5.475
				c0.481-0.717,0.998-1.414,1.548-2.088C237.759,59.044,236.852,57.322,235.822,55.655z"/>
			<path style="fill:#22ADB1;" d="M241.556,70.627c-0.454-2.514-1.134-4.993-2.034-7.409c-0.567,0.771-1.081,1.568-1.551,2.385
				c1.618,4.961,2.268,10.168,1.948,15.329c0.084-0.026,0.168-0.055,0.252-0.081C239.748,77.407,240.208,73.876,241.556,70.627z"/>
			<path style="fill:#22ADB1;" d="M227.94,46.209c-1.382-1.243-2.83-2.371-4.325-3.405c-0.56,0.537-1.133,1.053-1.719,1.546
				c1.522,1.024,2.991,2.159,4.393,3.409C226.85,47.259,227.401,46.745,227.94,46.209z"/>
			<path style="fill:#22ADB1;" d="M206.579,35.818c-2.413,0.971-4.977,1.457-7.542,1.457c-0.841,0-1.682-0.058-2.518-0.162
				c-0.041,0.128-0.084,0.254-0.123,0.382c0.88-0.056,1.76-0.095,2.642-0.095c4.27,0,8.537,0.673,12.638,1.995
				c0.827-0.471,1.631-0.986,2.405-1.55C211.634,36.941,209.123,36.265,206.579,35.818z"/>
			<path style="fill:#22ADB1;" d="M216.501,38.824c-0.68,0.55-1.381,1.066-2.104,1.546c1.885,0.759,3.726,1.663,5.503,2.713
				c0.607-0.489,1.198-1.006,1.778-1.545C220.003,40.509,218.274,39.605,216.501,38.824z"/>
			<path style="fill:#22ADB1;" d="M223.615,52.714c-0.637,0.44-1.282,0.863-1.937,1.265c0.302,0.28,0.604,0.56,0.898,0.854
				c0.269,0.269,0.523,0.546,0.781,0.822c0.404-0.653,0.827-1.298,1.268-1.933c-0.154-0.159-0.3-0.323-0.457-0.481
				C223.987,53.059,223.799,52.89,223.615,52.714z"/>
			<path style="fill:#22ADB1;" d="M221.896,51.167c-1.523-1.282-3.124-2.423-4.794-3.409c-0.773,0.456-1.563,0.87-2.361,1.262
				c1.799,0.961,3.528,2.098,5.16,3.413C220.576,52.035,221.239,51.609,221.896,51.167z"/>
			<path style="fill:#22ADB1;" d="M212.094,47.759c0.896-0.381,1.78-0.799,2.647-1.262c-2.441-1.2-4.99-2.107-7.596-2.713
				c-2.594,0.783-5.319,1.189-8.107,1.189c-1.369,0-2.722-0.1-4.052-0.292c-0.02,0.226-0.033,0.452-0.049,0.677
				c1.361-0.168,2.73-0.261,4.1-0.261C203.487,45.098,207.934,45.991,212.094,47.759z"/>
			<path style="fill:#22ADB1;" d="M233.577,70.044c-0.615-2.571-1.527-5.083-2.721-7.49c-0.463,0.859-0.883,1.734-1.266,2.623
				c2.349,5.458,3.172,11.418,2.468,17.23c0.181-0.013,0.362-0.023,0.543-0.039c-0.187-1.313-0.285-2.647-0.285-3.997
				C232.316,75.503,232.749,72.704,233.577,70.044z"/>
			<path style="fill:#22ADB1;" d="M226.175,55.436c-0.441,0.653-0.867,1.314-1.267,1.987c1.316,1.623,2.451,3.343,3.416,5.132
				c0.393-0.792,0.81-1.576,1.266-2.343C228.601,58.548,227.458,56.952,226.175,55.436z"/>
			<path style="fill:#22ADB1;" d="M211.669,56.124c0.917-0.295,1.828-0.614,2.726-0.976c-2.278-1.508-4.732-2.643-7.274-3.41
				c-2.657,0.616-5.37,0.932-8.084,0.932c-1.292,0-2.584-0.078-3.87-0.218c0.028,0.208,0.059,0.416,0.091,0.623
				C200.837,52.25,206.636,53.269,211.669,56.124z"/>
			<path style="fill:#22ADB1;" d="M216.502,56.693c-0.799,0.352-1.607,0.679-2.422,0.98c1.067,0.776,2.088,1.643,3.05,2.605
				c0.929,0.929,1.771,1.913,2.527,2.94c0.302-0.811,0.628-1.614,0.981-2.41c-0.599-0.734-1.237-1.444-1.916-2.123
				C218.011,57.974,217.268,57.312,216.502,56.693z"/>
			<path style="fill:#22ADB1;" d="M221.208,65.602c2.907,5.05,3.953,10.885,3.132,16.5c0.162,0.025,0.324,0.049,0.487,0.071
				c-0.432-4.048-0.176-8.154,0.775-12.129c-0.788-2.531-1.933-4.935-3.416-7.148C221.824,63.788,221.505,64.692,221.208,65.602z"/>
			<path style="fill:#22ADB1;" d="M206.578,59.7c-2.493,0.438-5.017,0.669-7.541,0.669c-0.614,0-1.227-0.018-1.84-0.044
				c0.033,0.085,0.063,0.17,0.096,0.254c5.143-0.5,10.462,1.215,14.392,5.145c3.921,3.921,5.638,9.225,5.149,14.357
				c0.042,0.017,0.085,0.032,0.127,0.048c-0.128-3.177,0.094-6.365,0.661-9.502c-0.981-2.363-2.427-4.576-4.346-6.495
				C211.303,62.158,209.018,60.681,206.578,59.7z"/>
			<path style="fill:#22ADB1;" d="M206.239,71.17c1.281,1.281,2.142,2.822,2.597,4.454c0.84,0.627,1.704,1.208,2.585,1.749
				c-0.227-2.844-1.418-5.625-3.589-7.795c-2.114-2.114-4.862-3.362-7.818-3.59c0.543,0.88,1.126,1.742,1.756,2.581
				C203.443,69.031,204.98,69.91,206.239,71.17z"/>
		</g>
		<g>
			<path style="fill:#029677;" d="M229.59,47.746c0.008-0.008,0.016-0.015,0.024-0.023c0.526-0.526,1.036-1.062,1.529-1.608
				c-0.537-0.537-1.052-1.088-1.553-1.647c-0.501,0.559-1.016,1.11-1.553,1.647c0.493,0.546,1.003,1.082,1.529,1.608
				C229.573,47.731,229.582,47.739,229.59,47.746z"/>
			<path style="fill:#029677;" d="M224.625,41.797c0.538-0.559,1.055-1.13,1.549-1.715c-0.441-0.653-0.867-1.314-1.267-1.987
				c-0.49,0.604-1.012,1.191-1.551,1.768C223.761,40.517,224.184,41.161,224.625,41.797z"/>
			<path style="fill:#029677;" d="M220.638,34.709c0.55-0.675,1.067-1.371,1.548-2.088c-0.361-0.89-0.68-1.793-0.977-2.702
				c-0.472,0.818-0.987,1.615-1.552,2.381C219.959,33.111,220.286,33.914,220.638,34.709z"/>
			<path style="fill:#029677;" d="M217.623,24.891c1.349-3.249,1.809-6.781,1.386-10.225c-0.688,0.219-1.371,0.459-2.047,0.722
				C216.834,18.566,217.056,21.754,217.623,24.891z"/>
			<path style="fill:#029677;" d="M235.822,39.863c-0.539-0.577-1.06-1.163-1.55-1.768c-0.4,0.672-0.826,1.333-1.267,1.987
				c0.495,0.584,1.011,1.156,1.549,1.715C234.996,41.161,235.419,40.517,235.822,39.863z"/>
			<path style="fill:#029677;" d="M230.856,32.964c-0.463-0.859-0.883-1.734-1.266-2.623c-0.382,0.888-0.803,1.764-1.266,2.623
				c0.393,0.792,0.81,1.576,1.266,2.343C230.046,34.539,230.463,33.756,230.856,32.964z"/>
			<path style="fill:#029677;" d="M225.603,25.473c0.828-2.66,1.261-5.459,1.261-8.327c0-1.35-0.098-2.684-0.285-3.996
				c-0.585,0.051-1.169,0.114-1.752,0.195C224.396,17.392,224.651,21.498,225.603,25.473z"/>
			<path style="fill:#029677;" d="M239.522,32.3c-0.565-0.766-1.08-1.563-1.552-2.381c-0.296,0.909-0.615,1.812-0.976,2.702
				c0.481,0.717,0.998,1.414,1.548,2.088C238.894,33.914,239.22,33.11,239.522,32.3z"/>
			<path style="fill:#029677;" d="M233.577,25.473c0.951-3.975,1.207-8.081,0.775-12.129c-0.582-0.08-1.167-0.144-1.752-0.195
				c-0.187,1.312-0.285,2.647-0.285,3.996C232.316,20.014,232.749,22.813,233.577,25.473z"/>
			<path style="fill:#029677;" d="M241.556,24.89c0.567-3.138,0.789-6.325,0.661-9.502c-0.676-0.263-1.358-0.503-2.046-0.722
				C239.748,18.11,240.208,21.642,241.556,24.89z"/>
		</g>
		<g>
			<path style="fill:#941A45;" d="M229.603,47.759c0.535,0.534,1.081,1.05,1.637,1.55c0.539-0.536,1.09-1.05,1.651-1.55
				c-0.56-0.5-1.112-1.014-1.651-1.55C230.684,46.709,230.138,47.225,229.603,47.759z"/>
			<path style="fill:#941A45;" d="M237.5,53.979c0.578-0.537,1.17-1.053,1.779-1.544c-0.676-0.4-1.34-0.827-1.998-1.268
				c-0.587,0.495-1.159,1.012-1.718,1.548C236.201,53.154,236.846,53.576,237.5,53.979z"/>
			<path style="fill:#941A45;" d="M245.099,57.673c0.78-0.567,1.586-1.081,2.411-1.549c-0.917-0.295-1.828-0.614-2.726-0.975
				c-0.721,0.477-1.424,0.993-2.107,1.545C243.477,57.045,244.284,57.372,245.099,57.673z"/>
			<path style="fill:#941A45;" d="M252.6,59.7c2.494,0.438,5.018,0.669,7.543,0.669c0.613,0,1.227-0.018,1.84-0.044
				c0.246-0.635,0.471-1.275,0.678-1.92C259.277,57.982,255.805,58.41,252.6,59.7z"/>
			<path style="fill:#941A45;" d="M235.565,42.803c0.56,0.537,1.133,1.053,1.719,1.547c0.656-0.441,1.32-0.868,1.995-1.267
				c-0.607-0.489-1.199-1.007-1.778-1.545C236.847,41.941,236.202,42.363,235.565,42.803z"/>
			<path style="fill:#941A45;" d="M242.076,47.758c0.769,0.454,1.556,0.866,2.35,1.257c0.862-0.462,1.746-0.88,2.645-1.263
				c-0.895-0.381-1.777-0.799-2.643-1.262C243.63,46.884,242.844,47.303,242.076,47.758z"/>
			<path style="fill:#941A45;" d="M252.058,51.74c2.657,0.616,5.37,0.931,8.085,0.931c1.292,0,2.584-0.078,3.87-0.218
				c0.073-0.536,0.134-1.074,0.181-1.612C260.148,50.25,255.997,50.551,252.058,51.74z"/>
			<path style="fill:#941A45;" d="M242.679,38.824c0.68,0.55,1.381,1.066,2.104,1.546c0.897-0.361,1.807-0.679,2.723-0.975
				c-0.827-0.471-1.631-0.986-2.405-1.551C244.285,38.146,243.478,38.472,242.679,38.824z"/>
			<path style="fill:#941A45;" d="M260.143,42.846c-2.771,0-5.489,0.323-8.121,0.934c2.598,0.786,5.327,1.193,8.121,1.193
				c1.369,0,2.721-0.1,4.051-0.292c-0.048-0.542-0.109-1.083-0.182-1.622C262.736,42.922,261.445,42.846,260.143,42.846z"/>
			<path style="fill:#941A45;" d="M252.601,35.818c2.413,0.971,4.977,1.457,7.541,1.457c0.842,0,1.683-0.058,2.519-0.162
				c-0.207-0.645-0.432-1.285-0.678-1.92C258.847,35.061,255.701,35.273,252.601,35.818z"/>
		</g>
		<g>
			<path style="fill:#F9A01B;" d="M229.59,47.746c0.004,0.004,0.009,0.008,0.013,0.012c0.535-0.534,1.081-1.05,1.637-1.55
				c-0.027-0.027-0.055-0.051-0.082-0.078c-0.005-0.005-0.01-0.011-0.015-0.016c-0.493,0.546-1.003,1.082-1.529,1.608
				C229.606,47.731,229.598,47.739,229.59,47.746z"/>
			<path style="fill:#F9A01B;" d="M231.24,49.309c1.382,1.243,2.83,2.371,4.325,3.405c0.559-0.536,1.131-1.053,1.718-1.548
				c-1.522-1.023-2.99-2.158-4.392-3.407C232.33,48.258,231.778,48.773,231.24,49.309z"/>
			<path style="fill:#F9A01B;" d="M228.037,46.115c0.537-0.537,1.052-1.088,1.553-1.647c-1.253-1.399-2.388-2.866-3.415-4.386
				c-0.495,0.584-1.011,1.156-1.549,1.715C225.662,43.289,226.791,44.736,228.037,46.115z"/>
			<path style="fill:#F9A01B;" d="M242.678,56.694c0.683-0.551,1.386-1.068,2.107-1.545c-1.886-0.759-3.728-1.663-5.506-2.714
				c-0.609,0.491-1.201,1.007-1.779,1.544C239.175,55.008,240.905,55.913,242.678,56.694z"/>
			<path style="fill:#F9A01B;" d="M223.357,39.864c0.539-0.577,1.06-1.163,1.551-1.768c-1.051-1.768-1.959-3.598-2.721-5.475
				c-0.481,0.717-0.998,1.414-1.548,2.088C221.42,36.474,222.327,38.196,223.357,39.864z"/>
			<path style="fill:#F9A01B;" d="M252.6,59.7c3.205-1.29,6.677-1.718,10.061-1.295c0.041-0.128,0.084-0.255,0.123-0.383
				c-5.141,0.329-10.328-0.305-15.274-1.898c-0.826,0.468-1.632,0.982-2.411,1.549C247.545,58.577,250.055,59.253,252.6,59.7z"/>
			<path style="fill:#F9A01B;" d="M217.623,24.891c0.454,2.514,1.134,4.993,2.034,7.409c0.565-0.766,1.08-1.563,1.552-2.381
				c-1.619-4.962-2.27-10.171-1.949-15.334c-0.084,0.026-0.168,0.054-0.252,0.081C219.432,18.111,218.972,21.642,217.623,24.891z"/>
			<path style="fill:#F9A01B;" d="M247.07,47.752c-0.899,0.383-1.782,0.801-2.645,1.263c2.452,1.207,5.013,2.117,7.632,2.725
				c3.939-1.188,8.09-1.49,12.136-0.899c0.02-0.227,0.033-0.454,0.049-0.681C258.454,50.872,252.516,50.07,247.07,47.752z"/>
			<path style="fill:#F9A01B;" d="M225.603,25.473c0.615,2.571,1.527,5.083,2.721,7.491c0.463-0.859,0.883-1.734,1.266-2.623
				c-2.349-5.458-3.172-11.418-2.468-17.23c-0.181,0.013-0.362,0.023-0.543,0.039c0.187,1.312,0.285,2.647,0.285,3.996
				C226.864,20.014,226.431,22.813,225.603,25.473z"/>
			<path style="fill:#F9A01B;" d="M237.284,44.35c1.522,1.281,3.123,2.423,4.792,3.408c0.768-0.454,1.554-0.874,2.352-1.267
				c-1.795-0.96-3.52-2.095-5.149-3.407C238.604,43.482,237.94,43.909,237.284,44.35z"/>
			<path style="fill:#F9A01B;" d="M233.005,40.082c0.441-0.653,0.867-1.314,1.267-1.987c-1.316-1.622-2.451-3.343-3.416-5.132
				c-0.393,0.792-0.81,1.576-1.266,2.343C230.578,36.97,231.721,38.565,233.005,40.082z"/>
			<path style="fill:#F9A01B;" d="M235.565,42.803c0.637-0.44,1.282-0.863,1.937-1.265c-0.302-0.28-0.604-0.56-0.898-0.853
				c-0.269-0.269-0.524-0.546-0.781-0.822c-0.404,0.653-0.826,1.298-1.268,1.933c0.154,0.159,0.3,0.324,0.457,0.481
				C235.192,42.458,235.381,42.627,235.565,42.803z"/>
			<path style="fill:#F9A01B;" d="M247.505,39.395c-0.916,0.295-1.826,0.613-2.723,0.975c2.242,1.487,4.676,2.634,7.24,3.41
				c2.632-0.611,5.35-0.934,8.121-0.934c1.302,0,2.593,0.076,3.869,0.213c-0.028-0.205-0.058-0.409-0.089-0.613
				c-1.24,0.182-2.503,0.275-3.78,0.275C255.635,42.721,251.312,41.561,247.505,39.395z"/>
			<path style="fill:#F9A01B;" d="M237.97,29.919c-2.216-3.84-3.402-8.212-3.402-12.773c0-1.26,0.092-2.506,0.269-3.731
				c-0.161-0.025-0.323-0.049-0.484-0.071c0.432,4.048,0.176,8.154-0.775,12.129c0.788,2.531,1.933,4.935,3.416,7.147
				C237.355,31.73,237.673,30.827,237.97,29.919z"/>
			<path style="fill:#F9A01B;" d="M242.679,38.824c0.799-0.352,1.606-0.678,2.421-0.979c-1.073-0.782-2.094-1.649-3.05-2.605
				c-0.924-0.924-1.766-1.907-2.528-2.939c-0.302,0.811-0.628,1.614-0.98,2.409c0.599,0.735,1.237,1.444,1.916,2.123
				C241.166,37.54,241.909,38.202,242.679,38.824z"/>
			<path style="fill:#F9A01B;" d="M252.601,35.818c3.1-0.545,6.246-0.757,9.382-0.625c-0.033-0.084-0.062-0.17-0.096-0.254
				c-5.143,0.5-10.462-1.215-14.393-5.145c-3.921-3.921-5.638-9.225-5.149-14.357c-0.042-0.017-0.085-0.032-0.128-0.048
				c0.128,3.177-0.094,6.364-0.661,9.502c0.981,2.363,2.427,4.577,4.346,6.496C247.876,33.36,250.161,34.837,252.601,35.818z"/>
			<path style="fill:#F9A01B;" d="M252.941,24.348c-1.255-1.255-2.134-2.785-2.597-4.454c-0.84-0.627-1.703-1.208-2.584-1.749
				c0.232,2.948,1.48,5.687,3.589,7.795c2.114,2.114,4.862,3.362,7.818,3.59c-0.543-0.88-1.126-1.742-1.755-2.581
				C255.737,26.487,254.2,25.607,252.941,24.348z"/>
		</g>
	</g>
</g>
<rect x="162.541" style="fill:#2E2A25;" width="1" height="95.573"/>
</svg>
