<?xml version="1.0" encoding="utf-8"?>
<!-- Generator: Adobe Illustrator 18.0.0, SVG Export Plug-In . SVG Version: 6.00 Build 0)  -->
<!DOCTYPE svg PUBLIC "-//W3C//DTD SVG 1.1//EN" "http://www.w3.org/Graphics/SVG/1.1/DTD/svg11.dtd">
<svg version="1.1" id="Layer_1" xmlns="http://www.w3.org/2000/svg" xmlns:xlink="http://www.w3.org/1999/xlink" x="0px" y="0px"
	 viewBox="0 0 240 240" enable-background="new 0 0 240 240" xml:space="preserve">
<title>marker-11.svg</title>
<title>marker-11.svg</title>
<circle fill="#00AEEF" stroke="#FFFFFF" stroke-width="2" stroke-miterlimit="10" cx="120" cy="117" r="78.5"/>
<path fill="#FFFFFF" d="M120,168.5c-21,0-38-17-38-38c0-19.5,31-59.5,34.5-64c1-1,2-1.5,3-1.5s2.5,0.5,3,1.5
	C126,71,157,111,157,130.5C158,151.5,141,168.5,120,168.5z"/>
<path fill="#00AEEF" d="M120,152.5c-2,0-4-2-4-4s2-4,4-4c7.5,0,13.5-6,13.5-13.5c0-2,2-4,4-4s4,2,4,4C141.5,143,132,152.5,120,152.5
	z"/>
</svg>
