<?xml version="1.0" encoding="utf-8"?>
<!-- Generator: Adobe Illustrator 18.0.0, SVG Export Plug-In . SVG Version: 6.00 Build 0)  -->
<!DOCTYPE svg PUBLIC "-//W3C//DTD SVG 1.1//EN" "http://www.w3.org/Graphics/SVG/1.1/DTD/svg11.dtd">
<svg version="1.1" xmlns="http://www.w3.org/2000/svg" xmlns:xlink="http://www.w3.org/1999/xlink" x="0px" y="0px"
	 viewBox="0 0 240 240" enable-background="new 0 0 240 240" xml:space="preserve">
<g id="Layer_2">
</g>
<g id="Layer_1">
	<title>marker-11.svg</title>
	<title>marker-11.svg</title>
	<path fill="#FFD21D" d="M194.8,101.2c4.3,4.3,6.6,10,6.6,16c0,6-2.4,11.6-6.6,15.8l-59,59c-4.2,4.2-9.8,6.5-15.8,6.5
		c-6,0-11.7-2.3-15.9-6.5l-59-59c-4.3-4.3-6.6-10-6.6-16c0-6,2.4-11.6,6.6-15.8l59-59c4.3-4.3,9.9-6.6,15.9-6.6
		c6,0,11.6,2.4,15.8,6.6L194.8,101.2z"/>
	<path fill="#FFFFFF" d="M194.8,101.2l-59-59c-4.2-4.3-9.8-6.6-15.8-6.6c-6,0-11.7,2.4-15.9,6.6l-59,59c-4.2,4.2-6.6,9.8-6.6,15.8
		c0,6,2.3,11.7,6.6,16l59,59c4.3,4.2,9.9,6.5,15.9,6.5c6,0,11.6-2.3,15.8-6.5l59-59c4.2-4.2,6.6-9.8,6.6-15.8
		C201.5,111.1,199.1,105.4,194.8,101.2z M197,135.1l-59,59c-4.8,4.8-11.2,7.4-18,7.4c-6.8,0-13.2-2.6-18-7.4l-59-59
		c-4.8-4.8-7.5-11.3-7.5-18.1c0-6.8,2.7-13.1,7.5-17.9l59-59c4.8-4.8,11.2-7.5,18-7.5c6.8,0,13.2,2.7,18,7.5l59,59
		c4.8,4.8,7.5,11.3,7.5,18.1C204.4,123.9,201.8,130.3,197,135.1z"/>
	<g>
	</g>
	<polyline fill="none" stroke="#FFFFFF" stroke-width="10" stroke-linecap="round" stroke-miterlimit="10" points="99,81.5 
		73.6,107 163.2,107 	"/>
	<polyline fill="none" stroke="#FFFFFF" stroke-width="10" stroke-linecap="round" stroke-miterlimit="10" points="141,152.5 
		166.4,127 76.8,127 	"/>
</g>
</svg>
