<?xml version="1.0" encoding="utf-8"?>
<!-- Generator: Adobe Illustrator 19.1.0, SVG Export Plug-In . SVG Version: 6.00 Build 0)  -->
<svg version="1.1" id="Layer_1" xmlns="http://www.w3.org/2000/svg" xmlns:xlink="http://www.w3.org/1999/xlink" x="0px" y="0px"
	 viewBox="-293 373 48 48" style="enable-background:new -293 373 48 48;" xml:space="preserve">
<style type="text/css">
	.st0{fill:#00AEEF;}
	.st1{fill:#FFFFFF;}
	.st2{fill:none;}
</style>
<g>
	<title>marker-11.svg</title>
	<title>marker-11.svg</title>
	<g>
		<g>
			<circle class="st0" cx="-268.9" cy="396.4" r="15.7"/>
		</g>
		<g>
			<path class="st1" d="M-268.9,406.7c-4.2,0-7.6-3.4-7.6-7.6c0-3.9,6.2-11.9,6.9-12.8c0.2-0.2,0.4-0.3,0.6-0.3
				c0.2,0,0.5,0.1,0.6,0.3c0.7,0.9,6.9,8.9,6.9,12.8C-261.3,403.3-264.7,406.7-268.9,406.7z"/>
			<path class="st1" d="M-268.9,388.2c-2.1,2.8-5.9,8.4-5.9,11c0,3.3,2.7,5.9,5.9,5.9c3.2,0,5.9-2.7,5.9-5.9
				C-263,396.6-266.8,391-268.9,388.2z"/>
			<path class="st0" d="M-268.9,403.5c-0.4,0-0.8-0.4-0.8-0.8c0-0.4,0.4-0.8,0.8-0.8c1.5,0,2.7-1.2,2.7-2.7c0-0.4,0.4-0.8,0.8-0.8
				c0.4,0,0.8,0.4,0.8,0.8C-264.6,401.6-266.5,403.5-268.9,403.5z"/>
		</g>
	</g>
</g>
<rect x="-292.9" y="373" class="st2" width="47.8" height="48"/>
</svg>
