<?xml version="1.0" encoding="utf-8"?>
<!-- Generator: Adobe Illustrator 18.0.0, SVG Export Plug-In . SVG Version: 6.00 Build 0)  -->
<!DOCTYPE svg PUBLIC "-//W3C//DTD SVG 1.1//EN" "http://www.w3.org/Graphics/SVG/1.1/DTD/svg11.dtd">
<svg version="1.1" id="Layer_1" xmlns="http://www.w3.org/2000/svg" xmlns:xlink="http://www.w3.org/1999/xlink" x="0px" y="0px"
	 viewBox="0 0 1024 1024" enable-background="new 0 0 1024 1024" xml:space="preserve">
<title>marker-11.svg</title>
<title>marker-11.svg</title>
<path fill="#FFFFFF" d="M512,157.9c188.2,0,341.3,153.2,341.3,341.3S700.2,840.5,512,840.5S170.7,687.4,170.7,499.2
	S323.8,157.9,512,157.9z M840.5,499.2c0-181.3-147.2-328.5-328.5-328.5S183.5,317.9,183.5,499.2S330.7,827.7,512,827.7
	S840.5,680.5,840.5,499.2z"/>
<path d="M512,170.7c181.3,0,328.5,147.2,328.5,328.5S693.3,827.7,512,827.7S183.5,680.5,183.5,499.2S330.7,170.7,512,170.7z"/>
<path fill="#FFFFFF" d="M512,718.9c-89.6,0-162.1-72.5-162.1-162.1c0-83.2,132.3-253.9,147.2-273.1c4.3-4.3,8.5-6.4,12.8-6.4
	s10.7,2.1,12.8,6.4c14.9,19.2,147.2,189.9,147.2,273.1C674.1,646.4,601.6,718.9,512,718.9z"/>
<path d="M512,650.7c-8.5,0-17.1-8.5-17.1-17.1s8.5-17.1,17.1-17.1c32,0,57.6-25.6,57.6-57.6c0-8.5,8.5-17.1,17.1-17.1
	s17.1,8.5,17.1,17.1C603.7,610.1,563.2,650.7,512,650.7z"/>
</svg>
