<?xml version="1.0" encoding="utf-8"?>
<!-- Generator: Adobe Illustrator 18.0.0, SVG Export Plug-In . SVG Version: 6.00 Build 0)  -->
<!DOCTYPE svg PUBLIC "-//W3C//DTD SVG 1.1//EN" "http://www.w3.org/Graphics/SVG/1.1/DTD/svg11.dtd">
<svg version="1.1" id="Layer_1" xmlns="http://www.w3.org/2000/svg" xmlns:xlink="http://www.w3.org/1999/xlink" x="0px" y="0px"
	 viewBox="0 0 240 240" enable-background="new 0 0 240 240" xml:space="preserve">
<title>marker-11.svg</title>
<title>marker-11.svg</title>
<g id="XMLID_1_">
	<g>
		<path fill="#31AADE" d="M120,40c42.5,0,77,34.5,77,77s-34.5,77-77,77s-77-34.5-77-77S77.5,40,120,40z"/>
		<path fill="#FFFFFF" d="M120,194c42.5,0,77-34.5,77-77s-34.5-77-77-77s-77,34.5-77,77S77.5,194,120,194z M120,37
			c44.1,0,80,35.9,80,80s-35.9,80-80,80s-80-35.9-80-80S75.9,37,120,37z"/>
	</g>
	<g>
	</g>
</g>
<path fill="#FFFFFF" d="M120,168.5c-21,0-38-17-38-38c0-19.5,31-59.5,34.5-64c1-1,2-1.5,3-1.5s2.5,0.5,3,1.5
	C126,71,157,111,157,130.5C158,151.5,141,168.5,120,168.5z"/>
<path fill="#31AADE" d="M120,152.5c-2,0-4-2-4-4s2-4,4-4c7.5,0,13.5-6,13.5-13.5c0-2,2-4,4-4s4,2,4,4C141.5,143,132,152.5,120,152.5
	z"/>
</svg>
