<?xml version="1.0" encoding="utf-8"?>
<!-- Generator: Adobe Illustrator 21.0.0, SVG Export Plug-In . SVG Version: 6.00 Build 0)  -->
<svg version="1.1" id="Layer_1" xmlns="http://www.w3.org/2000/svg" xmlns:xlink="http://www.w3.org/1999/xlink" x="0px" y="0px"
	 viewBox="0 0 50 50" style="enable-background:new 0 0 50 50;" xml:space="preserve">
<style type="text/css">
	.st0{fill:#2095F2;}
	.st1{fill:#FFFFFF;}
	.st2{fill:#E0E0E0;}
	.st3{opacity:0.25;}
	.st4{fill:#EACC95;}
	.st5{fill:#424242;}
	.st6{fill:#0277BD;}
	.st7{fill:#FAFAFA;}
	.st8{fill:#FFE0B2;}
	.st9{fill:#F06292;}
	.st10{fill:#F48FB1;}
</style>
<g>
	<path class="st0" d="M25,6.1c-9.4,0-15.3,6-15.3,15.3c0,9.4,10.4,21.8,15.3,21.8c4.9,0,15.3-12.5,15.3-21.8
		C40.3,12.1,34.4,6.1,25,6.1z"/>
	<path class="st1" d="M25,6.1c9.4,0,15.3,6,15.3,15.3c0,9.4-10.4,21.8-15.3,21.8c-4.9,0-15.3-12.5-15.3-21.8
		C9.7,12.1,15.6,6.1,25,6.1 M25,1.7C13.2,1.7,5.2,9.6,5.2,21.4c0,7.4,4.7,14.4,6.7,17.1c2.1,2.8,7.5,9.2,13,9.2c5.6,0,11-6.4,13-9.2
		c2-2.7,6.7-9.7,6.7-17.1C44.8,9.6,36.8,1.7,25,1.7L25,1.7z"/>
	<path class="st2" d="M25,48c-5.7,0-11.1-6.5-13.2-9.3C9.7,36,5,28.9,5,21.4c0-12,8-20,20-20c12,0,20,8,20,20
		c0,7.4-4.7,14.5-6.8,17.2C36.1,41.5,30.7,48,25,48z M25,1.9C13.3,1.9,5.5,9.8,5.5,21.4c0,7.3,4.7,14.3,6.7,16.9
		c2,2.7,7.4,9.1,12.8,9.1c5.4,0,10.8-6.4,12.8-9.1c2-2.7,6.7-9.7,6.7-16.9C44.5,9.8,36.7,1.9,25,1.9z"/>
</g>
<g>
	<g class="st3">
		<g>
			<ellipse cx="24.7" cy="38.1" rx="5" ry="0.7"/>
		</g>
	</g>
	<g>
		<g>
			<g>
				<path class="st4" d="M21.1,31.6V37c0,0.5,0.4,0.9,0.9,0.9h0.8c0.5,0,0.9-0.4,0.9-0.9v-5.4H21.1z"/>
			</g>
		</g>
		<g>
			<g>
				<path class="st5" d="M20.7,31.2V37c0,0.7,0.6,1.3,1.3,1.3h0.8c0.7,0,1.3-0.6,1.3-1.3v-5.8H20.7z M23.3,37c0,0.2-0.2,0.4-0.5,0.4
					H22c-0.3,0-0.5-0.2-0.5-0.4v-4.9h1.7V37z"/>
			</g>
		</g>
		<g>
			<g>
				<rect x="21.6" y="32" class="st6" width="1.7" height="4.3"/>
			</g>
		</g>
	</g>
	<g>
		<g>
			<g>
				<path class="st4" d="M33.7,25.1l-0.3-0.7c-0.2-0.4-0.7-0.6-1.2-0.4l-4.3,2.1l1.1,2.3l4.3-2.1C33.8,26.1,34,25.6,33.7,25.1z"/>
			</g>
		</g>
		<g>
			<g>
				<path class="st5" d="M34.1,24.9l-0.3-0.7c-0.3-0.6-1.1-0.9-1.7-0.6l-4.7,2.3l1.5,3.1l4.7-2.3c0.4-0.2,0.7-0.7,0.7-1.2
					C34.3,25.3,34.2,25.1,34.1,24.9z M33.2,25.9l-3.9,1.9l-0.7-1.5l3.9-1.9c0.2-0.1,0.5,0,0.6,0.2l0.3,0.7c0,0.1,0,0.1,0,0.2
					C33.4,25.7,33.3,25.8,33.2,25.9z"/>
			</g>
		</g>
		<g>
			<g>
				
					<rect x="28.7" y="25.5" transform="matrix(0.8987 -0.4385 0.4385 0.8987 -8.5181 15.9186)" class="st7" width="3.1" height="1.7"/>
			</g>
		</g>
	</g>
	<g>
		<g>
			<g>
				<path class="st4" d="M19.6,25.2l-2.1,4.3c-0.2,0.4,0,0.9,0.4,1.2l0.7,0.3c0.4,0.2,1,0,1.2-0.4l2.1-4.3L19.6,25.2z"/>
			</g>
		</g>
		<g>
			<g>
				<path class="st5" d="M19.4,24.6l-2.3,4.7c-0.3,0.6,0,1.4,0.6,1.7l0.7,0.3c0.2,0.1,0.4,0.1,0.6,0.1c0.5,0,0.9-0.3,1.2-0.7
					l2.3-4.7L19.4,24.6z M19.4,30.4c-0.1,0.1-0.2,0.2-0.4,0.2c-0.1,0-0.1,0-0.2,0l-0.7-0.3c-0.2-0.1-0.3-0.4-0.2-0.6l1.9-3.9
					l1.5,0.7L19.4,30.4z"/>
			</g>
		</g>
		<g>
			<g>
				
					<rect x="18.4" y="26.6" transform="matrix(0.4384 -0.8988 0.8988 0.4384 -13.5096 33.3211)" class="st7" width="3.1" height="1.7"/>
			</g>
		</g>
	</g>
	<g>
		<g>
			<g>
				<path class="st4" d="M25.9,31.6V37c0,0.5,0.4,0.9,0.9,0.9h0.8c0.5,0,0.9-0.4,0.9-0.9v-5.4H25.9z"/>
			</g>
		</g>
		<g>
			<g>
				<path class="st5" d="M25.5,31.2V37c0,0.7,0.6,1.3,1.3,1.3h0.8c0.7,0,1.3-0.6,1.3-1.3v-5.8H25.5z M28.1,37c0,0.2-0.2,0.4-0.5,0.4
					h-0.8c-0.3,0-0.5-0.2-0.5-0.4v-4.9h1.7V37z"/>
			</g>
		</g>
		<g>
			<g>
				<rect x="26.4" y="32" class="st6" width="1.7" height="4.3"/>
			</g>
		</g>
	</g>
	<g>
		<g>
			<path class="st7" d="M20.1,25v6.9c0,1.4,1.1,2.5,2.5,2.5h5c1.3,0,2.4-1.1,2.4-2.5c0,0,0-5.3,0-6.8H20.1z"/>
		</g>
	</g>
	<g>
		<g>
			<path class="st6" d="M24.9,32.6c-2,0-3.8-0.2-5.2-0.6c0.1,1.3,1.3,2.2,2.6,2.2h5c1.2,0,2.1-0.9,2.3-2.1
				C28.4,32.4,26.8,32.6,24.9,32.6z"/>
		</g>
	</g>
	<g>
		<g>
			<path class="st5" d="M19.6,24.7v7.1c0,1.5,1.2,2.8,2.7,2.8h5c1.5,0,2.7-1.3,2.7-2.8l0-7.1H19.6z M29.5,31.8
				c0,1.2-0.9,2.2-2.1,2.2h-5c-1.2,0-2.2-1-2.2-2.2v-6.6h9.4L29.5,31.8z"/>
		</g>
	</g>
	<g>
		<g>
			<path class="st8" d="M22.7,25.2c0,1.1,1,2.3,2.1,2.3s2.1-1.2,2.1-2.3H22.7z"/>
		</g>
	</g>
	<g>
		<g>
			<path class="st5" d="M22.3,24.8v0.4c0,1.4,1.2,2.7,2.5,2.7c1.4,0,2.5-1.3,2.5-2.7v-0.4H22.3z M24.9,27.1c-0.7,0-1.5-0.6-1.7-1.4
				h3.3C26.3,26.5,25.5,27.1,24.9,27.1z"/>
		</g>
	</g>
	<g>
		<g>
			<path class="st8" d="M27.7,10.9h-5.7c-3.2,0-5.8,2.6-5.8,5.7v4.3c0,2.3,1.9,4.2,4.2,4.2h8.8c2.3,0,4.2-1.9,4.2-4.2v-4.3
				C33.5,13.5,30.9,10.9,27.7,10.9z"/>
		</g>
	</g>
	<g>
		<g>
			<path class="st5" d="M27.7,10.5h-5.7c-3.4,0-6.2,2.8-6.2,6.1v4.3c0,2.6,2.1,4.6,4.7,4.6h8.8c2.6,0,4.7-2.1,4.7-4.6v-4.3
				C33.9,13.3,31.1,10.5,27.7,10.5z M33,20.9c0,2.1-1.7,3.8-3.8,3.8h-8.8c-2.1,0-3.8-1.7-3.8-3.8v-4.3c0-2.9,2.4-5.3,5.4-5.3h5.7
				c3,0,5.4,2.4,5.4,5.3V20.9z"/>
		</g>
	</g>
	<g>
		<g>
			<path class="st5" d="M26.3,20.7c0,0-0.5-0.5-1.6-0.5c-1.1,0-1.4,0.6-1.4,0.6S23.2,23,24.8,23C26.4,23,26.3,20.7,26.3,20.7z"/>
		</g>
	</g>
	<g>
		<g>
			<path class="st9" d="M25,22.4c-0.1-0.3-0.5-0.4-0.8-0.2c-0.2,0.1-0.3,0.3-0.4,0.4c0.2,0.2,0.5,0.4,0.9,0.4c0,0,0,0,0.1,0
				C25,22.8,25.1,22.6,25,22.4z"/>
		</g>
	</g>
	<g>
		<g>
			<ellipse class="st5" cx="28.4" cy="17.8" rx="1.3" ry="2"/>
		</g>
	</g>
	<g>
		<g>
			<ellipse class="st5" cx="21.1" cy="17.8" rx="1.3" ry="2"/>
		</g>
	</g>
	<g>
		<ellipse class="st10" cx="30.1" cy="21" rx="1.1" ry="0.8"/>
		<ellipse class="st10" cx="19.5" cy="21" rx="1.1" ry="0.8"/>
	</g>
</g>
</svg>
