<?xml version="1.0" encoding="utf-8"?>
<!-- Generator: Adobe Illustrator 18.0.0, SVG Export Plug-In . SVG Version: 6.00 Build 0)  -->
<!DOCTYPE svg PUBLIC "-//W3C//DTD SVG 1.1//EN" "http://www.w3.org/Graphics/SVG/1.1/DTD/svg11.dtd">
<svg version="1.1" id="Layer_1" xmlns="http://www.w3.org/2000/svg" xmlns:xlink="http://www.w3.org/1999/xlink" x="0px" y="0px"
	 viewBox="0 0 1024 1024" enable-background="new 0 0 1024 1024" xml:space="preserve">
<path fill="#2095F2" d="M512,0C252.5,0,89.7,165.6,89.7,422.3C89.7,681.7,376.8,1024,512,1024s422.3-345,422.3-601.7S771.5,0,512,0z
	"/>
<path fill="#2095F2" d="M512,0c259.5,0,422.3,165.6,422.3,422.3c0,259.5-287.1,601.7-422.3,601.7S89.7,679,89.7,422.3S252.5,0,512,0
	"/>
<g>
	<g opacity="0.25">
		<g>
			<ellipse cx="503.7" cy="883.2" rx="138" ry="19.3"/>
		</g>
	</g>
	<g>
		<g>
			<g>
				<path fill="#EACC95" d="M404.4,703.8v149c0,13.8,11,24.8,24.8,24.8h22.1c13.8,0,24.8-11,24.8-24.8v-149H404.4z"/>
			</g>
		</g>
		<g>
			<g>
				<path fill="#424242" d="M393.3,692.8v160.1c0,19.3,16.6,35.9,35.9,35.9h22.1c19.3,0,35.9-16.6,35.9-35.9V692.8H393.3z
					 M465.1,852.9c0,5.5-5.5,11-13.8,11h-22.1c-8.3,0-13.8-5.5-13.8-11V717.6h46.9v135.2H465.1z"/>
			</g>
		</g>
		<g>
			<g>
				<rect x="418.2" y="714.9" fill="#0277BD" width="46.9" height="118.7"/>
			</g>
		</g>
	</g>
	<g>
		<g>
			<g>
				<path fill="#EACC95" d="M752.1,524.4l-8.3-19.3c-5.5-11-19.3-16.6-33.1-11L592,552l30.4,63.5l118.7-58
					C754.9,552,760.4,538.2,752.1,524.4z"/>
			</g>
		</g>
		<g>
			<g>
				<path fill="#424242" d="M763.2,518.9l-8.3-19.3c-8.3-16.6-30.4-24.8-46.9-16.6l-129.7,63.5l41.4,85.6l129.7-63.5
					c11-5.5,19.3-19.3,19.3-33.1C768.7,529.9,765.9,524.4,763.2,518.9z M738.3,546.5l-107.6,52.4l-19.3-41.4L719,505.1
					c5.5-2.8,13.8,0,16.6,5.5l8.3,19.3c0,2.8,0,2.8,0,5.5C743.8,541,741.1,543.7,738.3,546.5z"/>
			</g>
		</g>
		<g>
			<g>
				
					<rect x="613.4" y="535" transform="matrix(-0.8987 0.4385 -0.4385 -0.8987 1490.7278 772.7153)" fill="#FAFAFA" width="85.6" height="46.9"/>
			</g>
		</g>
	</g>
	<g>
		<g>
			<g>
				<path fill="#EACC95" d="M363,527.2l-58,118.7c-5.5,11,0,24.8,11,33.1l19.3,8.3c11,5.5,27.6,0,33.1-11l58-118.7L363,527.2z"/>
			</g>
		</g>
		<g>
			<g>
				<path fill="#424242" d="M357.4,510.6L294,640.3c-8.3,16.6,0,38.6,16.6,46.9l19.3,8.3c5.5,2.8,11,2.8,16.6,2.8
					c13.8,0,24.8-8.3,33.1-19.3L443,549.3L357.4,510.6z M357.4,670.7c-2.8,2.8-5.5,5.5-11,5.5c-2.8,0-2.8,0-5.5,0l-19.3-8.3
					c-5.5-2.8-8.3-11-5.5-16.6l52.4-107.6l41.4,19.3L357.4,670.7z"/>
			</g>
		</g>
		<g>
			<g>
				
					<rect x="328.7" y="565.1" transform="matrix(-0.4384 0.8988 -0.8988 -0.4384 1063.3159 512.7212)" fill="#FAFAFA" width="85.6" height="46.9"/>
			</g>
		</g>
	</g>
	<g>
		<g>
			<g>
				<path fill="#EACC95" d="M536.8,703.8v149c0,13.8,11,24.8,24.8,24.8h22.1c13.8,0,24.8-11,24.8-24.8v-149H536.8z"/>
			</g>
		</g>
		<g>
			<g>
				<path fill="#424242" d="M525.8,692.8v160.1c0,19.3,16.6,35.9,35.9,35.9h22.1c19.3,0,35.9-16.6,35.9-35.9V692.8H525.8z
					 M597.6,852.9c0,5.5-5.5,11-13.8,11h-22.1c-8.3,0-13.8-5.5-13.8-11V717.6h46.9v135.2H597.6z"/>
			</g>
		</g>
		<g>
			<g>
				<rect x="550.6" y="714.9" fill="#0277BD" width="46.9" height="118.7"/>
			</g>
		</g>
	</g>
	<g>
		<g>
			<path fill="#FAFAFA" d="M376.8,521.7v190.4c0,38.6,30.4,69,69,69h138c35.9,0,66.2-30.4,66.2-69c0,0,0-146.3,0-187.7H376.8V521.7z
				"/>
		</g>
	</g>
	<g>
		<g>
			<path fill="#0277BD" d="M509.2,731.4c-55.2,0-104.9-5.5-143.5-16.6c2.8,35.9,35.9,60.7,71.8,60.7h138c33.1,0,58-24.8,63.5-58
				C605.8,725.9,561.7,731.4,509.2,731.4z"/>
		</g>
	</g>
	<g>
		<g>
			<path fill="#424242" d="M363,513.4v196c0,41.4,33.1,77.3,74.5,77.3h138c41.4,0,74.5-35.9,74.5-77.3v-196L363,513.4L363,513.4z
				 M636.2,709.3c0,33.1-24.8,60.7-58,60.7h-138c-33.1,0-60.7-27.6-60.7-60.7V527.2H639L636.2,709.3z"/>
		</g>
	</g>
	<g>
		<g>
			<path fill="#FFE0B2" d="M448.5,527.2c0,30.4,27.6,63.5,58,63.5c30.4,0,58-33.1,58-63.5H448.5z"/>
		</g>
	</g>
	<g>
		<g>
			<path fill="#424242" d="M437.5,516.1v11c0,38.6,33.1,74.5,69,74.5c38.6,0,69-35.9,69-74.5v-11H437.5z M509.2,579.6
				c-19.3,0-41.4-16.6-46.9-38.6h91.1C547.9,563.1,525.8,579.6,509.2,579.6z"/>
		</g>
	</g>
	<g>
		<g>
			<path fill="#FFE0B2" d="M586.5,132.5H429.2c-88.3,0-160.1,71.8-160.1,157.3v118.7c0,63.5,52.4,115.9,115.9,115.9h242.9
				c63.5,0,115.9-52.4,115.9-115.9V289.8C746.6,204.2,674.8,132.5,586.5,132.5z"/>
		</g>
	</g>
	<g>
		<g>
			<path fill="#424242" d="M586.5,121.4H429.2c-93.8,0-171.1,77.3-171.1,168.4v118.7c0,71.8,58,127,129.7,127h242.9
				c71.8,0,129.7-58,129.7-127V289.8C757.6,198.7,680.4,121.4,586.5,121.4z M732.8,408.5c0,58-46.9,104.9-104.9,104.9H385
				c-58,0-104.9-46.9-104.9-104.9V289.8c0-80,66.2-146.3,149-146.3h157.3c82.8,0,149,66.2,149,146.3v118.7H732.8z"/>
		</g>
	</g>
	<g>
		<g>
			<path fill="#424242" d="M547.9,403c0,0-13.8-13.8-44.2-13.8c-30.4,0-38.6,16.6-38.6,16.6s-2.8,60.7,41.4,60.7
				S547.9,403,547.9,403z"/>
		</g>
	</g>
	<g>
		<g>
			<path fill="#F06292" d="M512,449.9c-2.8-8.3-13.8-11-22.1-5.5c-5.5,2.8-8.3,8.3-11,11c5.5,5.5,13.8,11,24.8,11c0,0,0,0,2.8,0
				C512,460.9,514.8,455.4,512,449.9z"/>
		</g>
	</g>
	<g>
		<g>
			<ellipse fill="#424242" cx="605.8" cy="322.9" rx="35.9" ry="55.2"/>
		</g>
	</g>
	<g>
		<g>
			<ellipse fill="#424242" cx="404.4" cy="322.9" rx="35.9" ry="55.2"/>
		</g>
	</g>
	<g>
		<ellipse fill="#F48FB1" cx="652.8" cy="411.3" rx="30.4" ry="22.1"/>
		<ellipse fill="#F48FB1" cx="360.2" cy="411.3" rx="30.4" ry="22.1"/>
	</g>
</g>
</svg>
