<?xml version="1.0" encoding="utf-8"?>
<!-- Generator: Adobe Illustrator 21.0.0, SVG Export Plug-In . SVG Version: 6.00 Build 0)  -->
<svg version="1.1" id="Layer_1" xmlns="http://www.w3.org/2000/svg" xmlns:xlink="http://www.w3.org/1999/xlink" x="0px" y="0px"
	 viewBox="0 0 50 50" style="enable-background:new 0 0 50 50;" xml:space="preserve">
<style type="text/css">
	.st0{fill:#030202;}
	.st1{fill:#C1272D;}
</style>
<g>
	<path class="st0" d="M25,38.8c-1.2-1.6-2.4-3.2-3.7-4.9c-2.6-3.4-5.1-6.8-7.7-10.2c-1.5-2.1-2.5-4.3-2.8-6.9
		C10,10,14.1,3.5,20.6,1.4C29-1.4,37.4,3.9,39.1,12c0.9,4.2,0,8.1-2.6,11.6c-3.8,5-7.5,9.9-11.3,14.9C25.2,38.6,25.1,38.7,25,38.8z
		 M12.6,15c-0.1,0.8,0,1.6,0.2,2.4c1.3,6.5,7.5,11,14.1,9.9c4.6-0.7,7.8-3.3,9.7-7.6c0.6-1.5,1-3.1,0.9-4.7c0.1-0.2,0-0.5,0-0.7
		c-0.1-2-0.6-3.8-1.6-5.4C33,4,27.3,1.6,21.9,3c-4.4,1.1-7.3,4-8.8,8.2C12.8,12.4,12.6,13.7,12.6,15z"/>
	<path class="st0" d="M22.3,45.8c0-1.6,1.2-2.7,2.7-2.7s2.8,1.2,2.7,2.7c0,1.5-1.2,2.7-2.7,2.7C23.6,48.5,22.3,47.3,22.3,45.8z"/>
	<path class="st1" d="M12.6,15c-0.1-1.3,0.1-2.6,0.6-3.8c1.5-4.3,4.4-7,8.8-8.2c5.4-1.4,11.2,1,13.9,5.9c1,1.7,1.5,3.5,1.6,5.4
		c0,0.2,0.1,0.5,0,0.7c-0.2,0-0.5,0-0.6,0C28.8,15,20.7,15,12.6,15z"/>
</g>
</svg>
