<?xml version="1.0" encoding="utf-8"?>
<!-- Generator: Adobe Illustrator 18.0.0, SVG Export Plug-In . SVG Version: 6.00 Build 0)  -->
<!DOCTYPE svg PUBLIC "-//W3C//DTD SVG 1.1//EN" "http://www.w3.org/Graphics/SVG/1.1/DTD/svg11.dtd">
<svg version="1.1" id="Layer_1" xmlns="http://www.w3.org/2000/svg" xmlns:xlink="http://www.w3.org/1999/xlink" x="0px" y="0px"
	 viewBox="0 0 316.3 542" enable-background="new 0 0 316.3 542" xml:space="preserve">
<g id="Layer_2">
</g>
<g id="Layer_1_1_">
	<path d="M158.7,0C71.9,0,0,70.7,0,157.5C0,241.8,65.7,310,148.8,315v227h2.5h13.6h2.5V315c83.1-5,148.8-73.2,148.8-157.5
		C317.5,70.7,245.6,0,158.7,0z M158.7,261.7c-42.2,0-76.9-34.7-76.9-76.9c0-39.7,62-120.3,69.4-129c1.2-1.2,3.7-3.7,6.2-3.7
		s5,1.2,6.2,3.7c7.4,8.7,69.4,89.3,69.4,129C235.6,228.2,200.9,261.7,158.7,261.7z M193.5,178.6c-3.7,0-8.7,3.7-8.7,8.7
		c0,14.9-11.2,27.3-27.3,27.3c-3.7,0-8.7,3.7-8.7,8.7c0,3.7,3.7,8.7,8.7,8.7c24.8,0,43.4-19.8,43.4-43.4
		C202.1,182.3,198.4,178.6,193.5,178.6z"/>
</g>
</svg>
