<?xml version="1.0" encoding="utf-8"?>
<!-- Generator: Adobe Illustrator 18.0.0, SVG Export Plug-In . SVG Version: 6.00 Build 0)  -->
<!DOCTYPE svg PUBLIC "-//W3C//DTD SVG 1.1//EN" "http://www.w3.org/Graphics/SVG/1.1/DTD/svg11.dtd">
<svg version="1.1" id="Layer_1" xmlns="http://www.w3.org/2000/svg" xmlns:xlink="http://www.w3.org/1999/xlink" x="0px" y="0px"
	 viewBox="0 0 400 400" enable-background="new 0 0 400 400" xml:space="preserve">
<path fill="#070809" d="M199.4,318.8c-17.1-22.8-34-45.3-50.8-67.7c-14.7-19.6-29.5-39.3-44.3-58.9c-53.2-70.7-14.5-172.7,72-189.8
	c65.7-13,128.7,29.1,141.3,95c6.4,33.5-0.2,64.9-20.6,92.4c-31.4,42.4-63.6,84.3-95.5,126.4C201,316.9,200.4,317.6,199.4,318.8z
	 M95.9,120.1c-0.6,6.2,0.2,12.4,1.3,18.5c11.9,62.2,74.4,99.7,134.5,80.7c43-13.6,74-56.1,72.3-99.1c0.7-6.1-0.1-12.1-1.2-17.9
	c-12.1-67-81.2-104.5-144.1-78.3C120.7,39.7,93.8,80.8,95.9,120.1z"/>
<path fill="#070809" d="M199.9,400c-12.7,0-23.3-10.6-23.1-23.2c0.1-12.6,10.3-22.6,23-22.7c13,0,23.3,10.3,23.1,23.1
	C222.8,389.8,212.5,400,199.9,400z"/>
<path fill="#C2272F" d="M95.9,120.1c-2.1-39.3,24.8-80.4,62.8-96.2c62.9-26.2,132,11.3,144.1,78.3c1.1,5.9,1.9,11.9,1.2,17.9
	C234.7,120.1,165.3,120.1,95.9,120.1z"/>
</svg>
