<?xml version="1.0" encoding="utf-8"?>
<!-- Generator: Adobe Illustrator 18.0.0, SVG Export Plug-In . SVG Version: 6.00 Build 0)  -->
<!DOCTYPE svg PUBLIC "-//W3C//DTD SVG 1.1//EN" "http://www.w3.org/Graphics/SVG/1.1/DTD/svg11.dtd">
<svg version="1.1" xmlns="http://www.w3.org/2000/svg" xmlns:xlink="http://www.w3.org/1999/xlink" x="0px" y="0px"
	 viewBox="0 0 48 48" enable-background="new 0 0 48 48" xml:space="preserve">
<g id="Base_x2F_shadow">
	<path fill="#00B2E1" d="M24,48c-5.7,0-10-1.9-10-4.4c0-1.8,2.1-3.2,5.5-4c0.4-0.1,0.8,0.2,0.9,0.6c0.1,0.4-0.2,0.8-0.6,0.9
		c-2.9,0.6-4.3,1.7-4.3,2.5c0,1.4,3.6,2.9,8.4,2.9s8.4-1.5,8.4-2.9c0-0.8-1.4-1.9-4.4-2.5c-0.4-0.1-0.7-0.5-0.6-0.9
		c0.1-0.4,0.5-0.7,0.9-0.6c3.5,0.7,5.6,2.2,5.6,4C34,46.1,29.7,48,24,48z"/>
</g>
<g id="Marker">
	<path fill="#00B2E1" d="M24,0C16,0,9.4,6.6,9.4,14.6c-0.1,1.5,0.1,2.9,0.5,4.2c0.3,1,0.6,1.8,1.2,2.8l0.3,0.7L20,37.1l3.9,6.7
		l3.9-6.7l8.7-14.8l0.3-0.7c0.4-0.9,0.9-1.8,1.2-2.8c0.4-1.3,0.7-2.7,0.7-4.2C38.6,6.6,32,0,24,0z M24,27.1
		c-6.9,0-12.5-5.6-12.5-12.5S17.1,2.1,24,2.1s12.5,5.6,12.5,12.5S30.9,27.1,24,27.1z"/>
</g>
<g id="Water">
	<path fill="#00B2E1" d="M29.3,20.4l-0.2,0c-0.6,0.1-1.2,0.2-1.9,0c-0.5-0.2-1-0.6-1.2-1.1c-0.2-0.5,0-1.4,1-1.6
		c-1.7-0.4-3,0-3.8,0.2c-1,0.4-1.9,0.9-2.9,1.4c-0.8,0.4-1.5,0.8-2.3,1.2c-0.9,0.4-2.2,0.8-3.7,0.8c-0.1,0-0.2,0-0.3,0
		c2.2,3.1,5.8,5.2,9.9,5.2c4.5,0,8.4-2.5,10.5-6.1C32.8,20.1,31,20.1,29.3,20.4z"/>
</g>
<g id="House">
	<path fill="#939598" d="M24,7.7"/>
	<path fill="#00B2E1" d="M29.9,10.4V7.1h-2.3l0,1.5L24,5.7l-9.5,7.6H17v7.2c0.3-0.1,0.5-0.2,0.8-0.3c1.5-0.7,2.9-1.6,4.3-2.2v-3.5
		h3.9v2.6c1,0.1,2,0.4,2.7,1.1c-0.4-0.1-0.8-0.2-1.2-0.2c-0.4,0-0.8,0.3-0.9,0.7c-0.2,0.6,0.3,1.2,0.9,1.3c0.6,0.2,1.2,0,1.7-0.1
		c0.6-0.1,1.2-0.2,1.9-0.2v-6.5h2.5L29.9,10.4z"/>
</g>
<g id="WhitePanel">
	<path fill="#FFFFFF" d="M24,2.1c-6.9,0-12.5,5.6-12.5,12.5c0,6.9,5.6,12.5,12.5,12.5c6.9,0,12.5-5.6,12.5-12.5
		C36.5,7.7,30.9,2.1,24,2.1z M24,5.7l3.7,3l0-1.5h2.2v3.3l3.6,2.9H31v6.5c-0.6,0-1.2,0.1-1.9,0.2C28.6,20,28,20.2,27.4,20
		c-0.6-0.2-1-0.8-0.9-1.3c0.1-0.4,0.5-0.6,0.9-0.7c0.4,0,0.8,0.1,1.2,0.2c-0.8-0.7-1.7-1-2.7-1.1v-2.6h-3.9v3.5
		c-1.5,0.7-2.8,1.6-4.3,2.2c-0.2,0.1-0.5,0.2-0.8,0.3v-7.2h-2.5L24,5.7z M24,26.6c-4.1,0-7.7-2.1-9.9-5.2c0.1,0,0.2,0,0.3,0
		c1.5,0,2.8-0.5,3.7-0.8c0.8-0.4,1.6-0.8,2.3-1.2c1-0.5,1.9-1.1,2.9-1.4c0.8-0.3,2-0.6,3.8-0.2c-1,0.2-1.2,1.1-1,1.6
		c0.2,0.6,0.6,1,1.2,1.1c0.7,0.2,1.3,0.1,1.9,0l0.2,0c1.7-0.3,3.5-0.2,5.2,0.1C32.4,24.1,28.5,26.6,24,26.6z"/>
</g>
</svg>
