<?xml version="1.0" encoding="utf-8"?>
<!-- Generator: Adobe Illustrator 21.0.2, SVG Export Plug-In . SVG Version: 6.00 Build 0)  -->
<!DOCTYPE svg PUBLIC "-//W3C//DTD SVG 1.1//EN" "http://www.w3.org/Graphics/SVG/1.1/DTD/svg11.dtd">
<svg version="1.1" id="Layer_1" xmlns="http://www.w3.org/2000/svg" xmlns:xlink="http://www.w3.org/1999/xlink" x="0px" y="0px"
	 viewBox="0 0 50 50" style="enable-background:new 0 0 50 50;" xml:space="preserve">
<style type="text/css">
	.st0{fill:#31AADE;}
</style>
<g id="Layer_1_1_">
	<g>
		<polygon class="st0" points="20,16.7 27.9,28.1 31.7,28.1 23.4,16.7 		"/>
		<path class="st0" d="M27.5,18.6c0.3-0.3,0.9-0.8,1.1-1.1c0.9-1,1.2-2.3,1.2-3.7c0-1.9-0.6-3.3-2-4.5c-1.2-1-3.2-1-5.9-1H20v2.3
			h3.9c1.7,0,3,1.4,3,3.1v0.1c0,1-0.4,1.9-1.1,2.4L27.5,18.6z"/>
	</g>
</g>
<g id="Isolation_Mode">
	<path class="st0" d="M40.3,17.8c0-4-1.6-7.6-4.2-10.2C33.4,5,29.8,3.4,25.8,3.4S18.3,5,15.6,7.6s-4.2,6.2-4.2,10.2
		c0,8,6.5,14.4,14.4,14.4c4,0,7.6-1.6,10.2-4.2C38.6,25.4,40.3,21.8,40.3,17.8z M25.6,0.7c9.8,0,17.7,7.9,17.7,17.7
		c0,9.1-14.5,27.8-16.1,29.9c-0.5,0.5-0.9,0.7-1.4,0.7c-0.5,0-1.2-0.2-1.4-0.7C22.8,46.2,8.4,27.5,8.4,18.4
		C7.9,8.6,15.8,0.7,25.6,0.7"/>
</g>
</svg>
